<svg width="178" height="200" viewBox="0 0 178 200" fill="none" xmlns="http://www.w3.org/2000/svg">
<path fill-rule="evenodd" clip-rule="evenodd" d="M89 188V200L178 200V188L89 188ZM177.4 199.4V188.6L89.6 188.6V199.4L177.4 199.4Z" fill="#F55959"/>
<path fill-rule="evenodd" clip-rule="evenodd" d="M95.178 195.449H93.866C93.8127 195.449 93.786 195.422 93.786 195.369V193.641C93.786 193.593 93.8127 193.569 93.866 193.569H95.13C95.6207 193.569 95.866 193.795 95.866 194.249V194.769C95.866 195.222 95.6367 195.449 95.178 195.449ZM95.098 193.081H93.866C93.8127 193.081 93.786 193.057 93.786 193.009V191.377C93.786 191.323 93.8127 191.297 93.866 191.297H95.122C95.5754 191.297 95.802 191.523 95.802 191.977V192.401C95.802 192.854 95.5674 193.081 95.098 193.081ZM93.202 190.913V195.833C93.202 195.907 93.2394 195.945 93.314 195.945H95.25C95.618 195.945 95.906 195.843 96.114 195.641C96.3274 195.433 96.434 195.145 96.434 194.777V194.241C96.434 193.974 96.362 193.761 96.218 193.601C96.074 193.435 95.9007 193.345 95.698 193.329C96.146 193.19 96.37 192.883 96.37 192.409V191.969C96.37 191.601 96.266 191.315 96.058 191.113C95.85 190.905 95.562 190.801 95.194 190.801H93.314C93.2394 190.801 93.202 190.838 93.202 190.913ZM98.6567 195.945H99.2727C99.342 195.945 99.3847 195.907 99.4007 195.833L100.457 191.537H100.489L101.537 195.833C101.553 195.907 101.598 195.945 101.673 195.945H102.289C102.358 195.945 102.401 195.907 102.417 195.833L103.449 190.921C103.465 190.841 103.43 190.801 103.345 190.801H102.913C102.838 190.801 102.793 190.841 102.777 190.921L101.977 195.321H101.929L100.833 190.905C100.817 190.835 100.774 190.801 100.705 190.801H100.225C100.155 190.801 100.113 190.835 100.097 190.905L99.0167 195.321H98.9687L98.1607 190.913C98.1553 190.838 98.1127 190.801 98.0327 190.801H97.6007C97.5153 190.801 97.4807 190.838 97.4967 190.913L98.5207 195.833C98.5367 195.907 98.582 195.945 98.6567 195.945ZM141.31 196.611H139.67C139.603 196.611 139.57 196.577 139.57 196.511V194.351C139.57 194.291 139.603 194.261 139.67 194.261H141.25C141.863 194.261 142.17 194.544 142.17 195.111V195.761C142.17 196.327 141.883 196.611 141.31 196.611ZM141.21 193.651H139.67C139.603 193.651 139.57 193.621 139.57 193.561V191.521C139.57 191.454 139.603 191.421 139.67 191.421H141.24C141.807 191.421 142.09 191.704 142.09 192.271V192.801C142.09 193.367 141.797 193.651 141.21 193.651ZM138.84 190.941V197.091C138.84 197.184 138.887 197.231 138.98 197.231H141.4C141.86 197.231 142.22 197.104 142.48 196.851C142.747 196.591 142.88 196.231 142.88 195.771V195.101C142.88 194.767 142.79 194.501 142.61 194.301C142.43 194.094 142.213 193.981 141.96 193.961C142.52 193.787 142.8 193.404 142.8 192.811V192.261C142.8 191.801 142.67 191.444 142.41 191.191C142.15 190.931 141.79 190.801 141.33 190.801H138.98C138.887 190.801 138.84 190.847 138.84 190.941ZM145.468 197.231H145.918C146.012 197.231 146.058 197.184 146.058 197.091V195.251L146.968 194.161L148.888 197.091C148.942 197.184 149.038 197.231 149.178 197.231H149.588C149.722 197.231 149.752 197.177 149.678 197.071L147.418 193.631L149.398 190.951C149.478 190.851 149.462 190.801 149.348 190.801H148.808C148.695 190.801 148.608 190.847 148.548 190.941L146.308 193.981C146.208 194.114 146.135 194.251 146.088 194.391H146.058V190.941C146.058 190.847 146.012 190.801 145.918 190.801H145.468C145.375 190.801 145.328 190.847 145.328 190.941V197.091C145.328 197.184 145.375 197.231 145.468 197.231ZM152.639 197.231H153.409C153.496 197.231 153.549 197.184 153.569 197.091L154.889 191.721H154.929L156.239 197.091C156.259 197.184 156.316 197.231 156.409 197.231H157.179C157.266 197.231 157.319 197.184 157.339 197.091L158.629 190.951C158.649 190.851 158.606 190.801 158.499 190.801H157.959C157.866 190.801 157.809 190.851 157.789 190.951L156.789 196.451H156.729L155.359 190.931C155.339 190.844 155.286 190.801 155.199 190.801H154.599C154.513 190.801 154.459 190.844 154.439 190.931L153.089 196.451H153.029L152.019 190.941C152.013 190.847 151.959 190.801 151.859 190.801H151.319C151.213 190.801 151.169 190.847 151.189 190.941L152.469 197.091C152.489 197.184 152.546 197.231 152.639 197.231ZM163.308 191.391V195.321H161.048L163.308 191.391ZM163.438 197.231H163.858C163.951 197.231 163.998 197.184 163.998 197.091V195.961H164.738C164.831 195.961 164.878 195.911 164.878 195.811V195.451C164.878 195.364 164.831 195.321 164.738 195.321H163.998V191.011C163.998 190.871 163.925 190.801 163.778 190.801H163.128C162.988 190.801 162.888 190.867 162.828 191.001L160.388 195.211C160.341 195.297 160.318 195.397 160.318 195.511V195.751C160.318 195.891 160.388 195.961 160.528 195.961H163.308V197.091C163.308 197.184 163.351 197.231 163.438 197.231ZM166.482 191.781V192.181C166.482 192.301 166.542 192.327 166.662 192.261L167.852 191.581V197.091C167.852 197.184 167.898 197.231 167.992 197.231H168.442C168.535 197.231 168.582 197.184 168.582 197.091V190.941C168.582 190.847 168.535 190.801 168.442 190.801H168.022C167.955 190.801 167.868 190.831 167.762 190.891L166.602 191.561C166.522 191.607 166.482 191.681 166.482 191.781ZM170.704 191.781V192.181C170.704 192.301 170.764 192.327 170.884 192.261L172.074 191.581V197.091C172.074 197.184 172.121 197.231 172.214 197.231H172.664C172.758 197.231 172.804 197.184 172.804 197.091V190.941C172.804 190.847 172.758 190.801 172.664 190.801H172.244C172.178 190.801 172.091 190.831 171.984 190.891L170.824 191.561C170.744 191.607 170.704 191.681 170.704 191.781Z" fill="#F55959"/>
<path fill-rule="evenodd" clip-rule="evenodd" d="M0 7.00001V185H178V7L0 7.00001ZM2 9.00001V183L176 183V9L2 9.00001Z" fill="#F55959"/>
<path d="M81 0H178V2H81V0Z" fill="#F55959"/>
<path d="M0 188H44.9964V189.6H0V188Z" fill="#F55959"/>
</svg>
