<svg width="92" height="100" viewBox="0 0 92 100" fill="none" xmlns="http://www.w3.org/2000/svg">
<path d="M5.92812 99.5683H4.04547C3.81727 99.5683 3.67872 99.4655 3.62982 99.26L0.500229 85.7175C0.451329 85.5119 0.557279 85.4092 0.818079 85.4092H2.13838C2.38288 85.4092 2.51328 85.5119 2.52958 85.7175L4.99902 97.8507H5.14572L8.44647 85.6954C8.49537 85.5046 8.62577 85.4092 8.83767 85.4092H10.3047C10.5166 85.4092 10.647 85.5046 10.6959 85.6954L14.0455 97.8507H14.1922L16.6372 85.7395C16.6861 85.5193 16.8247 85.4092 17.0529 85.4092H18.3731C18.6339 85.4092 18.7399 85.5193 18.691 85.7395L15.537 99.26C15.4881 99.4655 15.3577 99.5683 15.1458 99.5683H13.2631C13.0349 99.5683 12.8964 99.4655 12.8475 99.26L9.64451 87.4351H9.54671L6.31932 99.26C6.27042 99.4655 6.14002 99.5683 5.92812 99.5683Z" fill="#F55959"/>
<path d="M21.4508 99.5683H20.2283C20.0164 99.5683 19.943 99.4655 20.0082 99.26L24.5804 85.7175C24.6456 85.5119 24.8004 85.4092 25.0449 85.4092H26.8053C27.0498 85.4092 27.2047 85.5119 27.2699 85.7175L31.842 99.26C31.9072 99.4655 31.8339 99.5683 31.622 99.5683H30.375C30.1957 99.5683 30.0816 99.4655 30.0327 99.26L28.8836 96.045H22.9667L21.8175 99.26C21.7523 99.4655 21.6301 99.5683 21.4508 99.5683ZM25.8762 87.0607L23.3579 94.6798H28.4924L25.974 87.0607H25.8762Z" fill="#F55959"/>
<path d="M35.9017 99.5683H34.8014C34.5732 99.5683 34.4591 99.4655 34.4591 99.26V85.7175C34.4591 85.5119 34.5732 85.4092 34.8014 85.4092H40.4249C41.5496 85.4092 42.438 85.7028 43.09 86.29C43.742 86.8625 44.068 87.6553 44.068 88.6682V90.672C44.068 91.4941 43.8479 92.1768 43.4078 92.7199C42.9677 93.2484 42.3565 93.6008 41.5741 93.7769V93.865L44.4103 99.2159C44.557 99.4508 44.4755 99.5683 44.1658 99.5683H43.0655C42.7884 99.5683 42.5847 99.4655 42.4543 99.26L39.7159 93.9311H36.4885C36.3255 93.9311 36.244 93.9971 36.244 94.1292V99.26C36.244 99.4655 36.1299 99.5683 35.9017 99.5683ZM36.4885 92.5878H40.1804C41.5822 92.5878 42.2831 91.9566 42.2831 90.6941V88.7343C42.2831 87.4571 41.5822 86.8185 40.1804 86.8185H36.4885C36.3255 86.8185 36.244 86.8845 36.244 87.0167V92.3896C36.244 92.5218 36.3255 92.5878 36.4885 92.5878Z" fill="#F55959"/>
<path d="M49.0095 99.5683H47.9337C47.7055 99.5683 47.5914 99.4655 47.5914 99.26V85.7175C47.5914 85.5119 47.7055 85.4092 47.9337 85.4092H48.9362C49.1318 85.4092 49.2622 85.4679 49.3274 85.5853L56.0756 96.2652H56.1734V85.7175C56.1734 85.5119 56.2875 85.4092 56.5157 85.4092H57.5915C57.8197 85.4092 57.9338 85.5119 57.9338 85.7175V99.26C57.9338 99.4655 57.8197 99.5683 57.5915 99.5683H56.6868C56.5075 99.5683 56.3364 99.4728 56.1734 99.282L49.4496 88.7122H49.3518V99.26C49.3518 99.4655 49.2377 99.5683 49.0095 99.5683Z" fill="#F55959"/>
<path d="M63.7053 85.7175V99.26C63.7053 99.4655 63.5912 99.5683 63.363 99.5683H62.2627C62.0345 99.5683 61.9204 99.4655 61.9204 99.26V85.7175C61.9204 85.5119 62.0345 85.4092 62.2627 85.4092H63.363C63.5912 85.4092 63.7053 85.5119 63.7053 85.7175Z" fill="#F55959"/>
<path d="M69.1139 99.5683H68.0381C67.8099 99.5683 67.6958 99.4655 67.6958 99.26V85.7175C67.6958 85.5119 67.8099 85.4092 68.0381 85.4092H69.0405C69.2361 85.4092 69.3665 85.4679 69.4317 85.5853L76.1799 96.2652H76.2777V85.7175C76.2777 85.5119 76.3918 85.4092 76.62 85.4092H77.6958C77.924 85.4092 78.0381 85.5119 78.0381 85.7175V99.26C78.0381 99.4655 77.924 99.5683 77.6958 99.5683H76.7912C76.6119 99.5683 76.4407 99.4728 76.2777 99.282L69.554 88.7122H69.4562V99.26C69.4562 99.4655 69.3421 99.5683 69.1139 99.5683Z" fill="#F55959"/>
<path d="M87.9172 99.5683H85.2766C84.1519 99.5683 83.2636 99.282 82.6116 98.7095C81.9759 98.1369 81.658 97.3369 81.658 96.3093V88.6682C81.658 87.6406 81.9759 86.8405 82.6116 86.268C83.2636 85.6954 84.1519 85.4092 85.2766 85.4092H87.9172C89.0419 85.4092 89.9221 85.7028 90.5578 86.29C91.1935 86.8625 91.5114 87.6553 91.5114 88.6682V89.571C91.5114 89.7912 91.3973 89.9013 91.1691 89.9013H90.0688C89.8406 89.9013 89.7265 89.7912 89.7265 89.571V88.7343C89.7265 87.4571 89.0501 86.8185 87.6972 86.8185H85.4722C84.1193 86.8185 83.4429 87.4571 83.4429 88.7343V96.2432C83.4429 97.5204 84.1193 98.159 85.4722 98.159H87.6972C89.0501 98.159 89.7265 97.5204 89.7265 96.2432V93.7769C89.7265 93.6301 89.6532 93.5567 89.5065 93.5567H87.0859C86.8577 93.5567 86.7436 93.4613 86.7436 93.2704V92.4557C86.7436 92.2502 86.8577 92.1474 87.0859 92.1474H91.0224C91.3484 92.1474 91.5114 92.3016 91.5114 92.6098V96.3093C91.5114 97.3369 91.1935 98.1369 90.5578 98.7095C89.9221 99.282 89.0419 99.5683 87.9172 99.5683Z" fill="#F55959"/>
<path d="M83.0434 0.45459H62.8205L60.6688 3.71486H31.3203L29.4798 0.45459H8.95115L3.52271 9.95405L13.7789 27.8938H17.5034L31.3257 52.0727L29.3542 55.1455L39.7141 73.2728H52.2858L62.4819 55.4323L60.6742 52.0727L74.4966 27.8938H78.2211L88.4772 9.95405L83.0434 0.45459ZM45.9945 67.7342L11.7801 7.86329H80.209L45.9945 67.7287V67.7342Z" fill="#F55959"/>
<path d="M45.9945 53.3598C48.3984 53.3598 50.3471 51.3913 50.3471 48.9631C50.3471 46.5349 48.3984 44.5664 45.9945 44.5664C43.5907 44.5664 41.6419 46.5349 41.6419 48.9631C41.6419 51.3913 43.5907 53.3598 45.9945 53.3598Z" fill="#F55959"/>
<path d="M43.502 11.5795V26.7784C43.502 34.2201 44.0306 41.0955 44.0306 41.0955H47.9477C47.9477 41.0955 48.4763 34.2201 48.4763 26.7784V11.5795H43.502Z" fill="#F55959"/>
</svg>
