<svg width="150" height="22" viewBox="0 0 150 22" fill="none" xmlns="http://www.w3.org/2000/svg">
<g clip-path="url(#clip0_209_4225)">
<path d="M17.6735 5.39035V0.886475H11.0175L0.159119 21.1137H6.95372L11.9612 11.8976V16.0264L9.23039 21.1137H16.0279L21.0354 11.8976V21.1137H26.7477V0.886475H20.0917L17.6735 5.39035Z" fill="#F55959"/>
<path d="M52.0388 13.4396H56.6983V8.56063H52.0388V5.76543H55.613L52.0388 0.886475H46.3265V21.1137H57.4001V16.2318H52.0388V13.4396Z" fill="#F55959"/>
<path d="M31.6667 13.7938H27.6236V18.6728H28.9713L27.6236 21.1137H34.7337L35.9429 18.6728H39.7412V21.1137H45.4535V0.886475H38.7975L31.6667 13.7938ZM39.7412 13.7938H38.3581L39.7412 11.0016V13.7938Z" fill="#F55959"/>
<path d="M143.046 21.1137H149.841L138.983 0.886475H132.327V5.39035L129.911 0.886475H123.255V21.1137H128.968V11.8976L133.975 21.1137H140.77L138.039 16.0264V11.8976L143.046 21.1137Z" fill="#F55959"/>
<path d="M72.5877 8.56063L74.5872 5.76543H77.7515H77.7604V5.75352L81.3228 0.886475H72.0481H72.0392V0.898382L68.4738 5.76543V13.4396H77.2089L75.2124 16.2318H70.4467L66.8754 21.1137H77.7515L81.3228 16.2318V8.56063H72.5877Z" fill="#F55959"/>
<path d="M82.4965 0.886475L78.9252 5.76543H83.567V21.1137H89.2793V5.76543H91.7978V0.886475H82.4965Z" fill="#F55959"/>
<path d="M63.9853 16.2318V0.886475H58.273V21.1137H65.7076L69.2789 16.2318H63.9853Z" fill="#F55959"/>
<path d="M105.337 8.87022V2.67255L103.971 0.886475H92.6736V21.1108H98.3859V12.8532L102.656 21.1108H109.135L103.511 10.9986L105.334 8.86724L105.337 8.87022ZM101.217 6.37269L100.368 7.33122H100.108L98.6868 5.3338H100.875L101.217 5.76841V6.37567V6.37269Z" fill="#F55959"/>
<path d="M110.085 0.886475L109.138 2.52073V19.4765L110.085 21.1108H121.436L122.382 19.4765V2.52371L121.433 0.886475H110.082H110.085ZM117.452 16.2318H114.069V5.76543H117.452V16.2348V16.2318Z" fill="#F55959"/>
</g>
<defs>
<clipPath id="clip0_209_4225">
<rect width="149.682" height="20.2273" fill="white" transform="translate(0.159119 0.886475)"/>
</clipPath>
</defs>
</svg>
