<svg width="166" height="34" viewBox="0 0 166 34" fill="none" xmlns="http://www.w3.org/2000/svg">
<g clip-path="url(#clip0_264_1117)">
<path d="M23.0486 17.0235C22.7789 15.3052 21.541 13.4717 20.185 12.424C20.0386 12.4633 19.9436 12.5026 19.8229 12.534C20.9786 13.3539 21.4229 14.1449 21.3227 15.4388C21.3381 16.0412 19.8974 14.2313 19.6765 14.1423C19.4325 13.862 18.3076 13.3486 19.0961 13.2962C19.8023 13.4796 19.5224 13.0029 19.4608 12.6231C18.0893 13.0003 17.9147 13.1653 16.4226 13.0081C15.141 13.0107 15.0049 12.8222 14.1522 12.0704C14.1831 12.5078 13.5538 12.3428 12.9529 12.6493C12.4803 12.8222 11.9153 13.2674 11.7561 13.4036C11.5121 13.5398 12.036 12.6598 11.8177 12.6571C11.7099 12.6388 9.75287 13.0762 10.603 12.4843C10.942 12.0652 13.1506 10.7844 13.6052 11.3187C13.5384 11.1825 13.4999 11.0568 13.4408 10.9153C13.1994 10.4596 9.88899 12.3219 9.86844 12.6598C11.1115 13.0605 11.7278 13.4717 12.6909 14.4278C16.515 12.115 21.3407 16.3163 19.4454 20.7428C20.0771 20.7559 20.6935 20.9078 21.2791 21.1174C21.1712 20.8371 20.8733 20.7742 21.0531 20.418C21.1712 20.3683 21.3022 18.7836 21.3767 18.8019C21.5385 18.9853 21.7259 20.2268 21.8492 20.3814C21.9853 20.3971 22.3141 19.9701 22.3962 19.7684C22.612 19.6663 22.1805 21.1645 22.0726 21.306C22.4014 21.2221 22.6222 21.0571 22.9844 20.955C23.1462 20.0435 23.2309 17.8381 23.0486 17.0235ZM22.2601 19.276C21.8107 20.2059 21.8877 19.1817 21.5539 18.6841C21.1866 17.9192 21.238 16.6699 21.0633 16.3058C20.6499 14.8992 21.6232 17.0392 21.7773 16.7982C21.8492 15.9391 21.708 14.708 21.708 14.708C22.1214 15.2109 23.1616 18.0528 22.2601 19.276ZM16.5741 17.9454C16.2094 16.8951 14.9869 16.6489 13.7567 16.4682C13.5667 15.7322 13.2559 15.1559 12.9221 14.7133C13.8543 13.8437 17.1185 14.2287 17.8068 15.0014C17.9275 15.0957 18.0739 15.1926 17.9044 15.2293C17.568 15.3105 18.1022 15.8526 17.7786 15.85C17.6091 15.8238 17.6168 16.0046 17.7426 16.1696C19.3067 17.5106 18.1484 20.3237 19.0935 20.3473C19.4325 19.9675 19.2425 20.6197 19.1192 20.7454C18.5105 20.7454 17.8762 20.7481 17.4755 20.5647C16.9901 20.0173 16.4482 18.6395 16.5715 17.9481L16.5741 17.9454ZM13.6951 22.7518C13.9288 22.2541 11.9461 21.0336 11.9076 20.7742C11.7818 20.6276 11.8357 20.9026 11.9333 21.1305C11.846 21.6517 11.0344 19.9806 10.793 19.6113C13.6437 19.9413 12.5805 21.2274 14.3962 21.2431C14.7943 21.0886 14.5426 21.2012 14.8945 21.6779C15.5442 22.5999 16.4303 22.0577 16.9953 22.9797C16.4508 23.2364 13.3124 23.5716 13.6977 22.7544L13.6951 22.7518ZM9.23409 19.9989C9.09027 19.5222 9.00038 19.0377 8.78465 18.6186C9.19814 19.1058 9.66299 19.4096 10.323 19.5065C10.9985 22.5684 14.0367 24.5224 17.1827 23.2442C17.3677 23.6528 17.6579 23.9933 18.0508 24.2631C17.8402 24.6429 17.2315 24.5172 17.0569 24.7529C16.8771 24.9991 15.6675 24.9886 15.4466 25.0436C15.3567 25.0436 15.4903 25.1903 15.5622 25.227C15.6187 25.3894 14.9458 25.6094 15.2232 25.8923C15.349 26.0206 15.349 26.1306 15.2489 26.1306C15.1461 26.754 17.3317 26.1987 17.3856 26.0756C17.6142 25.8373 16.3147 25.7561 17.0364 25.2453C17.4113 24.9729 17.7503 24.7712 17.6707 24.9179C17.2932 25.7535 18.6235 25.6146 19.1141 25.151C19.2348 25.2401 19.471 25.3946 19.7818 25.502C19.1603 26.1883 17.3214 26.8195 16.6511 26.8955C15.8113 26.4188 15.1744 26.9033 14.5555 26.073C14.5323 25.8818 14.594 25.8242 14.6453 25.8373C14.7173 25.8556 14.5914 25.4915 14.4938 25.4077C14.3962 25.3265 15.0665 25.3527 14.7969 25.206C14.0367 24.9127 12.8296 25.0882 12.1593 24.6141C11.9718 24.6508 12.6036 25.3842 12.7731 25.4968C12.6062 25.502 12.4855 25.4994 12.3365 25.4758C11.9693 25.0463 11.4094 24.4884 11.3169 24.0588C11.2373 23.9436 10.6595 23.4066 10.436 23.1211C10.3564 22.2437 10.0585 21.2169 9.22125 20.7612C9.16475 20.6145 9.12366 20.5542 9.05945 20.6459C8.73329 20.4154 8.47133 20.2006 8.23762 19.8156C8.35319 19.6977 8.44822 19.6584 8.60488 19.7632C8.79236 19.8916 8.88995 19.7082 8.97213 19.8182C9.05175 19.9282 9.25464 20.1273 9.22125 20.0016L9.23409 19.9989ZM7.75993 17.3352C7.64693 18.0188 7.88064 18.1209 8.27871 17.7516C8.49701 17.8747 8.33264 18.0685 8.52783 18.2938C8.20937 18.0528 7.97823 18.5557 7.64436 18.6867C7.3747 18.1026 7.35158 17.233 7.61868 16.641C7.65207 16.7458 7.80359 17.1073 7.75993 17.3325V17.3352ZM16.0296 6.52545C17.1365 6.85285 18.7905 6.04874 19.9924 6.1928C21.012 6.11946 21.3047 5.62442 22.4399 5.78157C23.3593 6.03302 24.2325 6.42067 24.6922 7.14359C24.854 7.49195 24.8797 8.13891 24.89 8.20963C25.1545 8.59205 25.7401 9.29401 25.7375 9.83358C25.7118 9.99859 25.7452 10.3915 25.7452 10.3915C25.473 9.87287 25.3086 9.02684 24.8129 8.69682C24.2351 6.26876 22.1959 5.32058 19.959 6.45211C18.8906 6.55164 17.4344 6.63807 16.5253 7.13312C16.4713 6.92357 16.0476 6.66427 16.0296 6.52283V6.52545ZM50.6878 3.91666C49.7273 2.42891 47.0306 0.490659 45.2971 1.97578C44.7603 2.43153 43.7664 2.7668 44.144 3.29851C44.447 3.34042 44.7552 2.76942 45.1173 2.67775C46.3244 2.33986 48.0425 3.01825 49.2136 3.36923C49.9379 3.49496 49.8557 3.86689 50.4567 4.17335C50.9831 4.46932 51.0936 4.1812 50.6878 3.91666ZM49.7966 3.41114C49.0981 2.9842 48.0374 2.71703 47.3414 2.31105C46.9125 2.27176 46.1677 2.29271 45.744 2.29271C45.3151 2.30581 47.0204 1.63004 47.2156 1.74005C47.4107 1.79505 47.5315 1.66147 47.6804 1.76362C48.022 1.99412 48.6846 2.11722 48.926 2.43939C48.9825 2.57297 49.7427 2.84538 49.4576 2.95539C49.1186 2.83228 50.0509 3.49757 49.7966 3.41114ZM161.499 15.8893C160.425 16.5153 159.344 17.233 158.345 18.1812C157.993 18.5662 157.993 18.9748 157.973 19.2734C157.837 19.8051 157.287 21.0781 157.192 21.5653C157.059 22.1415 157.035 23.2756 156.607 23.6502C154.727 25.1903 151.884 25.4444 150.027 27.1155C148.889 27.7834 148.773 28.3858 150.104 27.4953C150.789 27.2831 152.88 27.6158 153.638 27.401C156.532 26.5209 158.666 25.9132 159.139 22.448C159.342 20.8502 159.342 18.7522 160.333 17.5316C160.564 17.0916 161.514 16.4472 161.499 15.8893ZM160.153 17.3849C159.706 18.265 158.843 20.0749 158.867 21.1776C158.823 21.6072 158.759 22.3746 158.638 22.5868C158.517 22.7963 158.273 23.053 158.266 23.3804C158.117 26.3428 154.377 26.9767 152.043 26.9557C151.724 26.8798 150.168 27.291 151.013 26.7436C152.664 25.7011 155.238 25.3658 156.642 23.8912C158.296 22.0289 157.559 18.1209 160.205 17.1282C160.297 17.0785 160.333 17.1439 160.153 17.3849ZM24.9259 12.8274C23.6341 11.3554 20.7577 11.819 19.3015 12.4083C17.2906 12.9977 14.5786 13.2805 13.523 10.9756C13.1635 10.2396 12.75 9.04518 12.0771 8.5318C11.846 8.25154 11.3144 8.29607 10.7853 8.26988C10.0534 8.2463 9.86074 8.68896 9.56026 8.95088C9.70921 7.45267 11.8614 7.8246 12.5574 8.53966C13.2123 9.29663 13.5538 10.5355 14.0803 11.413C14.7558 12.534 15.8447 12.6388 17.1288 12.5314C19.3889 12.5471 20.6036 11.1746 22.7969 11.3528C23.48 11.4287 25.1006 11.4811 25.4755 12.1647C25.9096 12.6205 26.3898 13.8018 25.8865 14.4251C25.8017 13.9615 25.4242 13.1941 24.9285 12.8274H24.9259ZM162.665 9.65023C162.906 9.52189 163.477 8.6261 163.474 8.35107C163.546 8.33012 163.597 8.32226 163.651 8.41394C163.905 9.85977 167.283 9.72095 165.323 8.86969C164.432 8.50823 164.673 7.58625 163.975 7.12002C163.782 5.83396 164.499 4.9146 162.827 4.19168C161.869 3.13612 160.328 3.05754 159.162 4.03714C158.841 4.30169 158.831 4.78363 158.841 4.97746C158.674 5.77634 158.612 6.77428 157.821 7.25622C157.246 7.58625 156.422 7.47624 155.944 6.94715C155.107 6.1928 153.437 5.67942 152.528 6.59093C152.143 6.96286 151.126 7.14621 150.928 7.64911C150.864 7.85865 150.597 8.05772 150.561 8.08653C150.461 7.94247 150.782 7.37671 150.499 7.17502C150.034 6.9131 150.183 6.68784 149.433 6.46258C147.926 6.07231 146.48 7.98961 145.704 8.91421C144.926 9.48521 143.765 10.3705 143.203 8.96922C143.773 8.06034 145.147 7.83508 145.769 6.83714C146.187 6.28971 145.779 5.60346 145.553 6.27923C145.517 6.48092 145.473 6.59093 145.322 6.75332C144.59 7.40814 143.519 7.54172 142.684 8.03152C142.248 8.33536 142.563 9.04256 142.45 9.47212C142.278 11.413 144.315 10.9625 145.535 10.8394C146.85 11.0463 148.121 12.3978 147.459 13.8201C147.333 14.1763 146.752 14.7237 146.583 14.8888C146.331 15.1402 145.527 15.1926 145.956 15.6091C145.684 16.1539 144.675 16.2324 143.986 17.3325C142.682 19.1032 144.261 19.7265 144.723 20.9419C144.546 21.8979 143.2 21.746 142.538 21.2981C141.921 20.8712 141.023 20.9131 140.226 20.7402C139.225 17.6757 131.276 14.2601 133.829 10.8629C134.327 10.1374 136.092 10.2029 136.377 10.8734C137.067 11.3344 136.33 14.3178 137.73 14.2811C138.439 14.2523 139.939 14.5352 139.916 13.3879C139.746 12.7252 140.383 8.26202 139.397 8.06557C136.169 6.16923 131.387 6.42329 129.858 10.195C128.908 8.44799 128.13 4.8203 131.158 5.10057C131.487 5.10842 131.569 5.57465 131.605 5.79205C131.484 6.33686 133.256 6.59617 133.577 6.11422C133.824 6.14041 134.027 5.88373 133.991 5.76586C133.752 5.61918 133.171 5.69252 132.812 5.64799C132.106 5.30487 132.681 4.62648 131.846 4.04238C130.423 3.15183 127.958 3.52115 127.267 5.18176C126.908 5.60084 127.308 6.84761 127.265 7.40028C123.69 5.72133 118.589 7.75126 118.753 12.1464C118.355 10.2238 117.464 8.37203 115.749 7.53648C115.392 6.61188 114.331 6.40758 113.535 5.78419C113.142 5.54584 112.166 4.80721 111.863 4.57933C110.902 3.96118 110.62 3.23827 109.798 2.32938C107.908 0.729012 105.499 2.16437 103.403 2.25604C102.938 2.36343 101.937 2.47344 101.742 2.54678C101.233 2.61488 100.103 2.25342 99.5329 2.4001C99.2195 2.42891 99.068 2.34772 98.9242 2.19056C98.3309 1.75053 97.8173 1.69814 96.8876 1.2712C96.0837 0.749966 93.3922 0.666149 92.7553 1.07999C91.9951 1.18214 90.6108 2.22199 89.8404 2.58345C89.016 3.06016 88.8311 3.19898 87.9091 2.95801C86.7688 2.81395 85.5104 2.48392 84.18 2.85586C82.919 3.14659 82.7957 4.80197 81.6683 4.17073C80.1787 3.34304 77.9983 1.6248 76.2339 1.59861C74.9986 1.11142 72.1094 1.14286 71.0641 2.1277C70.6403 2.50487 70.0702 2.29795 69.8134 2.73013C69.7851 2.87419 69.9752 2.83752 69.9752 2.83752C69.9598 2.78514 68.7193 4.2074 68.9813 4.44313C68.7296 5.07699 67.7845 6.14565 67.0423 6.56473C67.1373 6.42067 66.8342 6.00945 66.7033 5.82086C66.0252 5.09271 65.1752 4.02667 64.022 3.34042C62.5093 2.30319 61.6387 2.47082 60.3366 1.91816C58.0304 1.49908 55.231 3.02873 53.5771 4.54266C51.6586 5.78943 48.8079 6.03302 46.6762 6.29495C45.4101 6.53592 44.5754 6.99167 43.1706 6.80571C42.3385 6.71927 41.5321 7.3898 40.9183 7.27979C40.8258 7.31384 40.8181 7.45528 40.4175 7.57053C40.2197 7.62554 40.3302 7.80103 40.4534 8.00795C40.5741 8.21487 40.4534 8.3825 40.4894 8.62872C40.4483 9.03732 40.3635 9.57689 40.0245 9.76024C39.9141 9.80215 39.778 9.66071 39.4878 9.72357C39.1976 9.78381 39.1847 9.81262 39.0948 9.6869C39.2695 7.92937 39.6855 6.40496 37.5565 5.12676C36.6781 4.56362 35.769 4.75744 35.6252 4.79935C34.7828 4.92246 34.4155 4.52171 33.0133 4.87007C31.6855 5.23677 31.2463 6.32638 30.761 6.80571C29.767 7.20384 29.2945 8.12844 29.2585 8.29869C29.2226 8.47156 29.1507 8.56847 29.0094 8.44537C28.2235 7.7696 27.4659 7.67792 27.3632 7.6072C26.8316 7.29813 25.2958 6.84762 24.7179 6.83976C24.8181 6.98382 24.9311 7.35051 24.9311 7.35051C25.2418 7.44743 26.2409 7.47624 26.5516 7.62292C27.4197 7.987 28.6987 9.57427 28.3237 10.5041C28.3237 10.5879 28.465 10.9153 28.5831 11.1799C28.9863 11.7116 28.203 13.071 27.5019 13.0212C26.3051 13.1627 27.2194 13.2334 27.7253 13.1574C27.9308 13.1129 28.2081 13.0212 28.6807 12.4921C29.4306 11.6906 28.7988 11.0542 28.637 10.5041C28.9991 9.78643 28.1491 8.5318 27.715 8.06033C28.7321 8.13367 29.8004 9.84929 30.3269 10.622C30.838 10.7529 31.4158 10.9022 31.9732 11.3737L30.5837 16.8768C30.2627 16.8768 29.3715 16.2979 29.2945 16.1067C29.0402 15.8998 29.8004 15.6614 29.7593 15.486C28.863 16.0308 27.4094 16.3844 26.3616 15.8134C26.3616 15.8134 26.5208 16.2036 26.5414 16.2874C26.5105 16.5572 28.6858 16.4236 28.6858 16.2874C28.8451 16.2272 28.8861 16.1696 29.0094 16.3241C29.1301 16.4787 29.3227 16.7144 29.5796 16.8349C29.839 16.9554 30.0033 16.9606 29.9391 17.2356C29.6977 18.3881 28.0001 20.2111 26.8264 19.2053V19.5694C27.9462 20.1849 30.1394 18.3698 30.2242 17.2356C30.2447 17.1728 30.3012 17.1466 30.5093 17.1754L29.9699 19.3153C29.0967 19.9623 27.5738 20.5202 26.5979 20.604C26.9882 20.638 28.0412 20.7297 28.4213 21.0178C28.4752 21.0414 29.4768 20.5883 29.7105 20.3421L29.2765 22.0655C28.6062 20.5857 26.6158 20.769 25.2239 20.955C24.2428 20.8476 22.8868 21.2326 22.0752 21.5129C19.2219 20.3578 17.062 22.1179 16.4816 18.2859C16.6357 17.2409 14.7532 16.6044 13.8492 16.7091C13.2431 16.5808 13.636 15.4964 12.5728 14.5587C11.1911 13.2386 10.3667 12.775 8.58433 12.6205C7.37983 12.6048 6.9381 12.5864 6.27807 13.2072C5.26619 13.0762 3.89219 13.4246 2.93681 13.9746C0.160555 15.9181 4.11305 11.0411 4.75254 10.9625C5.13264 10.7739 6.22413 10.3967 6.57084 10.2553C6.57084 10.1846 5.26362 10.5382 5.19941 10.5801C5.08641 10.6377 5.0145 10.6246 5.02991 10.4858C5.2328 8.28821 7.41065 8.668 8.66395 7.49195C9.9121 5.85229 11.2039 5.77372 12.8989 6.76642C12.9554 6.77428 13.3253 6.80309 13.4254 6.78999C15.0229 6.15089 18.7519 8.45323 16.6383 10.0876C16.3712 10.2343 15.9808 10.1138 15.7882 10.0012C16.42 10.8368 17.8171 10.0169 17.6399 8.99541C17.6938 8.64967 17.3112 8.29083 17.2341 7.98961C17.0338 7.58101 16.2608 7.01787 15.8447 6.68784C14.9356 6.43901 14.1086 6.24518 13.2328 6.46258C12.4187 5.79729 11.7664 5.20796 10.4309 5.84182C9.98401 6.06446 9.57823 6.18756 9.29573 6.28971C8.76411 6.62498 7.71113 7.97914 7.0023 8.04724C6.49636 8.02105 5.01193 8.86445 4.9092 9.45902C4.71915 9.755 4.65238 10.7137 4.36987 10.9337C2.93167 11.6959 1.31112 13.8777 0.977251 15.4781C-0.0859943 16.5232 -0.211837 18.781 0.581744 20.0435C0.553494 20.1168 0.417378 20.8397 0.594585 21.4055C1.16473 23.1211 1.16216 23.0373 2.35382 23.9802C3.00615 25.1406 4.27228 26.0547 4.99395 27.1705C6.66844 28.632 9.18016 29.7505 11.2681 30.2088C11.4171 30.2979 12.0026 31.1099 12.6986 31.4635C13.6668 32.3383 16.3686 32.0371 17.4524 31.9192C18.2563 31.8878 19.6637 31.7228 20.3853 31.6521C21.5282 31.9402 24.4226 32.2492 26.2691 32.134C26.2691 32.134 25.2521 31.5892 24.967 31.3246C23.7317 31.8642 20.2287 31.7071 19.0678 30.806C19.864 28.9175 17.473 28.708 17.9866 29.2973C19.5481 30.8532 16.6023 31.8642 14.8662 31.7621C13.5128 31.7621 12.6678 31.1177 11.4762 30.015C10.8855 29.7924 8.67679 29.1376 7.97309 28.7971C5.87485 27.7651 3.7458 25.9185 2.95478 23.6712C2.3718 22.3432 1.67067 22.7832 3.22702 22.2437C3.84082 21.8639 3.89475 21.822 4.00005 21.2824C4.00776 20.9209 3.96153 20.7323 3.87934 21.2169C3.60198 22.0053 2.2742 22.6549 1.60133 21.8036C0.949 21.1802 0.92075 19.9308 0.913045 19.2472C-0.56882 16.9658 1.8787 14.488 4.10021 13.8803C5.02734 13.6629 4.92975 13.752 5.6129 13.7049C5.8466 13.6865 6.53232 14.0296 6.7763 13.9956C7.27197 14.1632 7.29251 14.0558 7.0023 13.7939C6.9381 13.7494 6.87389 13.7206 6.98176 13.6341C8.08866 12.9165 9.88642 13.4089 11.019 14.1554C12.1131 14.8416 14.2704 17.2016 12.4521 18.0031C11.8948 18.1707 13.1404 18.4274 13.3689 17.8669C13.654 17.5787 13.4871 17.2932 13.6437 17.0785C14.3988 16.7746 15.8165 17.3509 16.1914 18.0843C16.6126 19.0691 16.2376 19.7606 17.1288 20.5726C17.7632 20.9497 17.8633 20.9288 18.3128 21.0781C18.4412 21.0781 18.6055 21.1148 18.662 21.2824C18.793 21.7643 18.716 22.186 18.2434 22.4401C18.5157 22.6889 19.1372 22.0865 18.9882 21.7303C19.0165 21.4605 18.8701 21.1383 19.1731 21.1671C20.203 21.1095 21.2508 21.5417 22.1523 22.0263C22.3372 22.1284 22.463 22.0944 22.5632 22.2672C22.7096 22.5056 22.9613 22.9037 22.9972 22.4637C22.7815 22.0577 22.6685 22.0394 22.2601 21.6727C22.2447 21.5679 22.7121 21.3872 22.9818 21.3243C23.9885 21.0624 25.0492 21.2745 25.7298 22.0629C25.7991 22.0996 26.0123 22.1206 26.0123 22.1206C26.0123 22.1206 25.9353 21.7669 25.8556 21.6229C25.812 21.4369 25.4036 21.1986 25.6425 21.1881C26.8829 20.9471 28.56 20.9812 29.1815 22.4506L28.2826 26.0128C28.2441 26.0259 28.2056 26.039 28.1696 26.0547C27.9796 25.6304 27.5481 25.4837 27.3786 25.3553C27.8203 25.117 28.5677 24.4884 28.465 23.844C28.542 23.6345 28.4085 23.4878 28.4085 23.4878C28.429 24.064 27.9282 24.9022 27.394 25.1825C26.6698 25.3501 27.0755 24.9389 25.8967 25.0306C25.1288 25.0594 25.0518 25.2846 24.7693 25.3632C24.0836 25.5413 24.2813 25.7875 23.5751 26.0075C23.0768 26.1568 22.35 25.9185 21.9648 25.9709C21.6335 25.853 20.6113 25.3501 21.5462 25.0227C21.6874 24.9494 21.5975 24.8865 21.5333 24.8917C20.3417 25.5701 18.454 24.4779 17.6579 23.5192C17.3702 23.2206 17.4216 22.6706 17.2392 22.4401C17.2315 22.3668 17.6245 21.9634 17.5731 21.8901C16.9131 22.4532 15.5083 21.9346 15.0973 21.1959C14.8251 20.7323 15.7805 20.7978 15.8421 19.8208C15.8678 19.4987 16.027 18.8386 15.5365 18.7286C15.3234 18.6422 15.2514 18.7574 15.3234 18.7784C15.3953 18.7993 15.6007 18.9224 15.6572 19.1634C16.1786 20.4783 14.2704 21.2248 13.3946 20.5647C13.1917 20.3368 12.881 20.0749 12.7551 19.7632C12.6575 19.4437 12.5163 19.1005 12.3365 18.9224C12.2543 19.1791 12.5651 19.4515 12.4778 19.6532C12.1542 19.6584 11.7741 19.5118 11.2938 19.3939C10.2434 19.1005 8.97984 18.76 8.83859 17.5421C8.82318 17.3613 8.81547 17.3613 8.63826 17.3247C8.46106 17.288 8.44051 17.2435 8.22735 16.8689C7.40552 15.5855 5.30728 14.5928 3.96153 15.5671C2.86746 15.8579 3.88448 17.8669 3.33231 17.6652C3.27324 17.563 3.13199 17.6495 3.17565 17.6704C3.9641 18.1157 3.57886 17.9821 3.80743 18.6631C4.24403 19.0377 4.30824 19.0979 4.60872 19.8942C5.44082 21.4133 3.92044 23.2023 5.15575 24.3364C5.74901 24.8813 6.0572 25.2349 6.29091 25.8687C6.57855 26.9714 7.932 27.3355 8.98754 27.511C10.2717 28.0558 11.5044 27.7179 12.7628 28.2496C13.7619 28.5666 14.3757 29.9391 13.053 30.0438C13.3407 30.2193 13.7054 30.1591 13.8826 29.8998C14.3346 29.4021 13.5898 28.3858 12.9811 28.1422C12.0001 27.5922 11.7073 27.9432 10.9086 27.0788C9.57567 25.9709 9.36764 23.5559 8.09637 22.4558C8.40456 23.3306 8.85143 23.7419 9.12879 24.5958C9.3548 25.7063 10.4566 27.2098 11.4197 27.6498C9.43698 27.7546 6.86362 26.8562 6.14195 24.7634C5.95447 24.4281 4.89893 23.9645 5.01964 23.438C5.43569 20.1351 4.86297 20.3866 4.08223 17.7149C3.64564 14.6976 6.32429 15.1324 7.83698 16.7013C7.90889 16.9135 8.11435 17.6783 8.45335 17.6207C8.55351 17.6207 8.54581 17.6783 8.54581 17.7516C8.81033 19.0429 10.0123 19.2917 11.2219 19.538C12.072 19.7868 12.3468 19.6506 12.8604 20.1823C13.1327 20.4259 13.1609 20.7245 13.4845 20.8397C13.6335 20.8921 13.6335 20.9628 13.9262 21.0074C14.2884 21.1174 14.6094 20.8738 14.7712 21.0519C14.9561 21.9686 15.9962 22.2332 16.7718 22.3458C16.9208 22.3458 16.9259 22.3956 16.9413 22.4899C17.2213 22.964 17.5885 23.8388 18.0482 24.1845C18.4771 24.4098 18.7571 24.6586 19.1551 24.9939C19.9179 25.4287 20.655 25.5387 21.3895 26.0154C21.6181 26.1018 21.6669 26.1726 21.6592 26.2066C21.4871 26.314 21.1686 26.6597 20.9889 26.8405C20.8553 26.974 20.542 27.38 20.5009 27.5817C20.4213 28.0558 20.0925 26.775 18.5285 27.1679C17.1417 27.4298 17.9352 27.9406 16.6331 26.9924C15.7959 26.6021 15.0665 26.9636 14.2755 26.1306C13.1737 25.2741 12.1927 25.8504 11.1294 25.117C10.4797 24.7005 10.3025 23.4328 10.3256 22.7806C10.2126 22.2122 9.76571 20.9864 9.06716 20.879C8.66395 20.6957 8.08866 19.9204 7.79332 19.5222C7.57759 19.1451 7.39781 18.1524 7.33617 17.9245C7.17181 19.1582 7.54934 19.9544 8.41226 20.7271C8.90536 21.1514 9.43441 21.1357 9.87101 21.615C10.5413 22.5894 9.38305 25.3973 10.9959 25.4968C12.1644 25.853 13.541 25.9552 14.5477 26.7383C15.4107 27.1312 16.6665 26.8169 17.3779 27.8017C17.4524 27.8698 17.4961 27.896 17.6348 27.8358C18.4386 27.2884 19.8871 27.4691 20.393 28.3073C21.6104 27.4638 23.8832 29.554 22.2216 30.4262C21.9417 30.5205 21.7927 30.5284 22.2139 30.5284C22.6351 30.5284 22.612 30.3843 22.7019 30.3608C22.7943 30.3346 23.0255 30.3267 23.1153 29.8029C23.4364 28.4094 21.7208 27.7494 20.7808 27.8279C20.7808 27.8279 20.9221 27.7939 20.9144 27.6158C20.8784 27.1548 21.5924 26.3114 22.0059 26.2223C22.5452 26.0887 22.8149 26.4161 23.5622 26.2407C24.5818 25.9447 24.325 25.5675 25.2033 25.303C26.02 25.0017 27.0062 25.2925 27.6534 25.6749C27.6919 25.8032 27.8691 26.0573 28.0078 26.1516C27.6637 26.3821 27.6277 26.8588 27.6534 27.2491C27.1552 27.0972 25.9738 26.9479 25.8145 26.3847C25.8094 26.0887 25.0261 25.3396 24.8052 25.7509C26.2409 26.864 25.2906 27.2438 27.6534 27.4036C27.5995 28.0689 27.6534 29.059 28.5292 29.0459H31.4801C31.9654 29.0459 32.3584 28.6451 32.3584 28.1527C32.307 27.6393 32.551 26.4711 32.004 26.1516L32.063 25.9132C32.9799 25.9394 33.6476 26.8719 33.794 27.621C33.8942 27.6708 34.2075 27.7677 34.3513 27.8253C34.8727 27.8594 34.3256 27.5634 34.1433 27.49C33.9635 26.4738 33.2855 25.5963 32.1401 25.6068C32.2377 25.0148 32.5613 24.601 33.0698 24.271L33.0801 24.1767C33.3394 24.2422 33.6887 24.0117 33.9173 23.9409C34.3231 23.8964 35.2682 23.9671 35.6714 24.0352C35.9359 24.4229 36.0874 24.3705 36.6781 24.5827C37.1738 24.8551 37.0942 25.0908 37.5513 25.0646C38.0059 25.2506 38.404 25.1825 38.8971 25.0934C39.0537 25.0698 39.6033 25.0856 39.4621 25.0332C38.7224 24.7791 39.1359 24.5486 40.0117 24.3417C41.1006 24.2736 41.2521 24.3469 41.7144 24.9677C42.0817 25.261 42.169 25.3265 42.0355 25.7718C42.1228 25.8713 42.7058 25.853 42.8599 25.9892C43.5558 26.1516 43.8358 26.9295 43.7587 27.6027C43.7176 27.8148 43.6894 27.9825 43.8024 27.8725C44.0952 27.8279 44.3597 26.5104 43.9591 26.4266C43.8255 26.3611 43.7587 26.2092 43.7382 26.0259C43.7176 25.8451 43.4377 25.5675 43.4377 25.5675C44.5189 25.4915 45.6361 25.7928 45.8262 27.071C45.9212 27.1836 46.4066 27.6786 46.4785 27.7913C46.5786 27.8567 46.7071 27.8646 46.9356 28.0558C47.1642 28.2444 47.064 28.4199 47.0872 28.4775C47.231 28.8311 47.4467 28.7656 47.7164 29.279C47.9578 29.6693 48.0323 29.41 47.9244 29.2135C47.9655 29.203 48.0425 29.2266 48.1324 29.2502C48.135 29.2554 48.135 29.258 48.1376 29.2633C49.0339 29.3916 51.2862 29.2554 52.2005 29.3C52.5215 29.4728 51.3401 30.3084 51.1527 30.3581C50.5671 30.4839 49.4576 30.7825 48.9003 30.8872C48.5562 30.9291 48.0708 31.5001 47.7472 31.5263C47.4698 31.4137 46.892 31.4058 46.7276 31.673C47.7908 32.3121 48.6846 31.1099 49.6862 31.0706C51.1193 30.8348 52.7835 30.4996 53.2817 28.9071C54.5684 28.7368 56.0477 29.169 57.3241 29.1716C62.2628 28.9752 63.1745 24.8079 63.4134 19.8575V26.0259C62.6737 26.2773 62.9434 27.532 62.8971 28.116C62.8971 28.6085 63.2875 29.0066 63.7703 29.0066H73.1392C74.5081 29.0537 73.8763 26.5969 74.0124 25.8242C75.0089 29.8448 81.111 30.5179 83.5714 27.7179C83.4892 28.3308 83.7434 29.0511 84.4471 29.0406H87.3954C87.8808 29.0406 88.2712 28.6425 88.2712 28.1475C88.2301 27.786 88.3816 26.6781 88.13 26.3795C88.3637 26.0861 88.8619 26.4528 89.4038 26.6702C90.0715 26.9793 90.2641 28.2653 91.0577 28.2208C92.0388 28.2025 92.3572 28.9673 93.2227 29.6064C93.7312 30.0072 93.5361 30.5546 94.2603 31.0182C95.339 31.6521 98.182 31.5578 99.0423 30.8637C100.704 30.8348 102.509 30.3503 103.83 29.0249C104.328 28.9752 107.166 29.1114 107.654 28.9516C108.925 29.1664 109.734 28.7159 110.569 28.9175C114.477 29.8579 117.986 28.4487 118.771 24.1374C118.543 29.9417 127.827 31.2932 129.787 26.1804C129.848 26.7802 129.54 28.061 130.292 28.3387C132.766 29.5121 135.822 29.829 138.108 28.5692C141.143 28.839 145.532 28.6216 147.831 26.8719C150.317 25.5204 152.906 23.5559 154.267 20.9131C155.71 18.76 155.831 15.334 157.4 13.4272C157.885 12.741 157.862 12.4109 158.674 11.8006C159.701 10.7556 160.497 10.8787 161.342 11.9683C162.087 13.2177 164.712 12.5629 165.374 11.5466C166.607 10.1636 164.784 10.0169 165.269 10.4386C165.677 10.6482 165.449 10.9572 165.082 11.3056C164.337 12.1516 163.654 11.9499 162.629 11.6278C161.961 11.2899 162.015 10.732 161.692 10.3286C161.771 10.1296 162.477 9.8912 162.665 9.65023ZM36.0309 23.7681C34.8547 23.1604 33.6168 24.0326 33.3651 23.514C32.9619 23.1525 32.7847 22.131 33.5192 21.9398H36.5292C36.6807 22.5292 37.0223 23.8938 37.1533 24.4726C36.917 24.2867 36.5574 24.0221 36.0309 23.7681ZM34.4592 16.8165C34.5696 16.7563 35.0935 16.4682 35.2913 16.3215L35.7587 18.1969C35.299 17.7647 34.5773 17.9743 33.9507 17.9062L34.1921 16.903C34.2794 16.8846 34.3847 16.8558 34.4592 16.8165ZM34.2126 16.8192L34.8033 14.3649L35.1578 15.7845C35.037 16.2822 34.5208 16.5258 34.2126 16.8192ZM34.8958 18.1602C35.2348 18.1655 35.3915 18.341 35.4454 18.595H33.7837L33.889 18.1602C34.2306 18.1812 34.716 18.1707 34.8958 18.1602ZM36.8374 7.6203C36.5985 6.41544 34.8907 7.29813 34.4386 7.40028C33.9995 7.52339 32.7179 7.51291 32.7128 8.43751C32.42 8.51085 31.3568 10.8027 31.6341 10.7896C30.6557 10.2998 30.3886 10.7556 29.9443 9.43021C29.708 8.93255 29.1173 8.93255 29.5025 8.1913C29.8287 7.40552 30.82 6.86333 31.6008 6.87643C31.9115 6.87643 32.1016 7.01001 32.0194 6.86595C31.9346 6.71927 31.6598 6.66951 31.3979 6.70617C31.1359 6.74284 31.1847 6.6957 31.2309 6.54902C32.2659 4.8203 35.4916 4.49551 37.0146 5.73443C41.4679 8.37465 36.1619 10.7241 39.8448 10.2343C39.742 10.8734 38.4322 11.3868 37.8955 11.8111L36.8374 7.6203ZM41.6143 23.7916C41.4242 23.8126 41.1597 23.8283 40.9208 23.789L40.5741 22.4139C40.7359 22.351 41.1674 22.2227 41.6143 22.3458V23.7916ZM41.6143 21.8167C41.283 21.8953 40.7899 21.8874 40.4534 21.9424L38.4836 14.1423C38.8637 12.8667 40.492 11.9814 41.6143 11.578V21.8167ZM41.6143 11.2035C40.5151 11.7823 39.1025 12.4214 38.35 13.6106L38.0753 12.5183C38.9202 11.9578 40.0297 11.2061 40.3815 10.305C40.3867 9.93835 40.8643 9.70523 40.8823 9.39354C40.9106 9.04256 40.8541 8.3825 40.7385 8.04462C40.7488 7.83246 40.9285 7.46052 41.2033 7.59411C40.9696 7.87961 41.1032 8.99803 41.0698 9.34378C41.0698 9.71571 41.2932 10.0353 41.6143 10.1688V11.2035ZM115.358 16.0439C113.499 15.6353 112.387 13.3041 111.444 11.7561V10.457C111.573 10.4124 112.346 10.4308 112.492 10.4282C112.939 13.5163 112.456 13.9642 115.348 15.9286C115.351 15.9653 115.356 16.0046 115.358 16.0439ZM115.23 14.5692C115.266 14.9254 115.299 15.279 115.327 15.6274C113.044 13.9642 113.291 12.9295 113.091 10.4701C114.883 11.0777 114.683 11.358 115.23 14.5692ZM110.902 4.18382C111.252 4.53742 111.968 5.19224 112.574 5.58775C112.957 5.9885 114.696 6.56212 114.482 7.08859C113.121 6.64331 110.851 5.99373 110.902 4.18382ZM101.133 2.89252C103.727 3.64163 109.218 -0.229639 110.512 3.88785C110.715 5.97278 111.265 6.00421 112.926 6.97858C112.69 6.99953 111.462 7.11216 111.254 7.1174C110.967 6.88167 110.656 6.4652 111.139 6.7507C110.283 5.79467 109.058 4.36193 107.294 4.50861C105.702 4.37503 104.425 3.49758 103.118 3.38495C102.946 3.3378 100.689 3.02349 101.133 2.89252ZM100.113 3.27756C103.336 4.01881 108.953 3.87737 110.792 7.14621L110.417 7.16978C108.974 5.63228 106.249 4.99056 104.264 5.09009C102.576 5.2551 101.269 4.74435 100.237 3.56306C99.9746 3.31946 100.041 3.27232 100.113 3.27756ZM110.086 7.18812C109.259 7.34004 107.256 6.54378 107.196 7.9739C106.054 7.52862 101.88 6.45734 101.508 4.97222C104.338 6.28185 105.774 4.02667 110.086 7.18812ZM89.6272 3.18588C90.6725 2.76942 91.7666 1.82386 92.8632 1.4886C93.8494 1.35764 95.7499 1.09833 96.8157 1.61694C97.8995 1.94435 98.4979 2.07793 99.2016 2.92919C102.124 7.02834 102.666 6.83714 107.196 8.31178C107.22 8.87755 107.022 9.94097 107.713 10.1846V14.2156C105.008 13.4377 103.39 10.4753 101.837 8.30393C101.965 7.37933 101.212 7.02573 100.427 7.14097C99.6356 6.36567 98.7444 6.18756 97.8866 5.51179C97.1778 4.84912 96.1274 4.24407 95.2773 4.09739C94.8022 3.95071 95.4622 3.92975 95.7242 3.7045C96.4536 3.2016 97.5065 3.49496 98.0125 4.12358C98.0947 4.23359 98.164 4.09739 98.1203 3.93237C98.0767 3.76998 97.8353 3.59449 97.6555 3.46876C96.3919 2.33462 93.5078 4.80197 91.7178 4.27026C91.5303 4.22573 90.806 4.13406 90.5569 4.02405C90.3617 3.84856 88.8568 3.3378 89.6272 3.18588ZM103.699 18.1759C103.116 17.6626 101.7 16.0858 101.372 15.7191V10.1007C101.754 9.91739 101.878 9.45378 101.837 9.03994C103.308 11.0908 105.175 13.8594 107.713 14.7133V17.4923C107.094 17.7123 105.229 18.3933 104.728 18.8596C104.433 18.9801 104.361 18.76 103.699 18.1759ZM103.763 19.3703C103.431 19.4358 102.733 19.4358 102.386 19.3808C101.826 19.2367 101.911 19.1451 101.372 19.0874V16.2586C101.765 16.7091 102.517 17.5971 102.992 18.0476C103.264 18.4405 104.805 19.2734 103.763 19.3703ZM82.7059 5.21843C84.8221 3.11254 86.0651 3.01039 88.8131 3.69664C89.147 3.82498 90.6674 4.79411 91.199 4.561C92.6552 4.69196 95.2208 4.05024 96.546 4.85435C97.1984 5.2001 97.0083 5.70562 97.6914 6.06707C98.6828 6.31067 98.9833 6.41282 99.6818 7.14097C98.9422 7.21955 97.0828 6.76118 97.111 8.03414C97.1547 8.63395 96.885 9.89906 97.6555 10.14V10.271C96.9826 10.1007 95.8526 6.97072 95.4032 6.57783C94.1833 5.2001 90.991 5.0377 89.3216 5.26558C88.0683 5.76062 86.964 6.49401 86.399 7.69888C86.1653 8.1913 85.7903 8.73872 85.7466 8.81206C85.8545 8.17558 84.989 5.34154 85.8365 4.97222C84.9582 4.87531 85.328 6.41806 85.0404 6.93405C84.9017 7.39504 85.4924 8.37727 85.5412 8.80159C85.3871 9.46688 85.3357 10.3208 84.6783 10.732V8.74658C84.4677 7.37147 81.7145 7.29813 80.9338 7.00215C81.7993 6.45996 82.0304 6.00159 82.7059 5.21843ZM93.7672 10.0065C94.2449 9.6188 95.2465 9.14995 95.6985 9.85977C96.3714 10.1662 97.0571 10.9075 97.6555 11.413V17.5342C96.9441 17.0392 95.6831 16.4839 94.8664 16.0098L93.4282 10.3155C93.5309 10.2265 93.6747 10.0981 93.7672 10.0065ZM93.2818 9.73666C92.4574 6.01993 92.5807 6.9681 89.4218 7.57577C89.0648 7.6203 88.7694 7.88223 88.6796 8.24106L87.6291 12.4031C87.2157 12.3769 87.0308 12.6126 86.6584 12.665C86.0651 12.6362 85.251 12.6231 84.6783 12.8667V11.227C85.6157 10.8656 85.9726 9.24424 86.4786 8.49251C87.1977 7.4841 86.9049 7.43695 87.9091 6.41282C88.808 5.54322 89.2908 6.04874 90.0099 5.72133C90.2051 5.45155 93.6157 5.6218 93.703 6.10374C93.8109 6.21375 93.9983 6.36829 94.4272 6.56735C95.0513 6.86595 95.154 7.35575 95.5547 7.76174C95.773 7.80365 96.5691 9.80215 96.2789 9.55855C95.6112 8.73349 94.0625 9.38306 93.2818 9.73666ZM78.5325 11.193C79.267 11.1249 80.564 11.3685 81.2651 11.5859C81.3961 12.0914 81.4757 12.6886 81.5168 13.0762C80.1608 13.0841 78.5505 13.7179 77.3537 14.4173C77.3896 13.9406 77.2587 11.7221 77.4615 11.3161C77.703 11.2401 78.2834 11.2192 78.5325 11.193ZM77.6721 10.9494C78.006 10.1322 80.677 10.0457 81.0596 11.1039C80.379 10.8865 78.2551 10.7556 77.6721 10.9494ZM78.0548 14.6792C79.0616 14.1973 80.3585 13.6813 81.5322 13.6394C81.5296 13.8725 81.6169 14.0873 81.7582 14.247C81.5887 14.6661 81.1726 14.5509 80.7437 14.7002C79.927 14.8311 79.2028 15.0747 78.3604 15.41C77.8493 15.6222 77.8391 15.2109 78.0908 15.0223C78.1473 14.949 78.0189 14.7735 78.0548 14.6792ZM48.8875 22.1782C48.8438 22.8147 49.0107 24.9886 48.7437 25.5466C48.3071 25.6775 45.8724 25.6225 45.3382 25.5989C45.3151 25.5806 45.3228 25.1982 45.3228 25.1668C46.5401 23.8702 47.8242 23.3909 48.9645 21.8141C48.9157 21.9267 48.8875 22.0472 48.8875 22.1782ZM45.3228 24.4438V22.3825C46.0059 22.4322 47.3003 21.9974 47.8551 21.725C48.4843 21.8927 45.6258 24.2107 45.3228 24.4438ZM51.8075 21.4841C51.43 21.1724 49.6682 21.1933 49.2624 21.4474C50.526 20.0409 49.7684 19.1241 51.8075 18.2467V21.4841ZM51.8075 17.288C51.4326 17.8642 50.5414 18.6579 50.11 18.8019C50.0868 18.7129 50.0663 17.8826 49.9815 17.5395C49.3472 16.0753 47.1154 15.5017 45.7825 15.8893C47.5417 16.1277 49.6631 16.1198 49.6168 18.5819C49.6323 19.1529 49.8326 19.7108 49.4011 20.253C48.3713 21.3714 46.8329 22.0865 45.3228 21.987V10.6167C46.083 10.6246 47.5032 10.8813 48.0785 11.447C48.1992 11.3999 48.8515 12.7095 48.908 12.3952C48.9851 12.2197 49.0287 11.7325 48.9568 11.6147C48.6717 11.3397 47.5931 10.5801 47.177 10.5146C47.3157 9.73143 48.3584 9.54284 49.0647 9.28877C49.7247 9.06613 50.6313 9.00851 51.2913 8.99803C51.2451 9.44069 51.3812 9.94097 51.8075 10.1138V17.288ZM53.1764 7.07811C51.7356 6.8869 51.1449 7.07549 51.2913 8.69944C51.014 8.71777 50.4823 8.20701 50.2872 8.17296C49.3061 8.31178 47.5905 9.1971 46.9408 10.0615C46.6942 10.3286 46.7918 10.5408 46.4836 10.5067C46.2191 10.4753 45.6644 10.3836 45.3228 10.3679V10.1296C46.0034 9.85453 45.7414 8.62872 45.7876 8.06557C45.7979 7.30599 45.03 7.09383 44.4188 7.17502C46.6942 6.71927 49.5989 6.56997 51.8615 5.85491C53.2149 5.58513 54.7995 4.06596 56.2608 3.19374C57.7504 2.37915 58.6981 2.59917 59.5148 2.28224C59.9873 1.8553 62.3219 2.52845 62.7687 2.903C63.213 3.1335 63.4031 3.30899 63.1642 3.19374C62.4759 2.93443 62.0804 2.78775 61.197 2.57297C60.3341 2.38963 59.6047 2.82704 58.9061 2.60964C56.6974 3.22779 55.3106 6.42853 53.1764 7.07811ZM58.8702 24.2867C58.413 25.8268 56.8669 25.832 55.552 25.6304V21.1933C56.8824 20.8816 58.2615 20.2975 59.5148 20.1535C59.4249 21.7879 59.2092 23.1735 58.8702 24.2867ZM59.5302 19.7894C59.1321 20.1194 58.4618 20.1325 58.0381 20.2399C57.6836 20.3945 56.9774 20.3918 56.5639 20.4154C56.3071 20.4285 55.7626 20.6773 55.552 20.4049V17.7699C56.3353 18.6553 58.3925 18.6081 59.5584 18.341C59.5662 18.8386 59.5482 19.3284 59.5302 19.7894ZM55.9578 12.5131C56.831 12.995 57.2034 13.5372 57.5424 14.2759C57.4448 15.2947 58.6365 15.8526 59.4737 15.9679C59.5174 16.5965 59.543 17.2068 59.5533 17.7961C58.3899 17.9664 56.4766 18.189 55.552 17.0994V12.3062C55.647 12.3455 55.7806 12.4083 55.9578 12.5131ZM55.552 11.6933V10.3862C58.6853 9.98811 59.091 11.4916 59.4172 15.2476C57.64 15.8946 58.4875 12.0573 55.552 11.6933ZM63.4134 16.8768C63.3877 16.0412 63.3389 15.2659 63.267 14.5483C63.3106 14.5561 63.3646 14.564 63.4134 14.5692V16.8768ZM65.7427 7.17764C64.9928 7.28503 62.892 6.73499 62.9254 8.06819C62.9742 8.64443 62.7045 9.87549 63.4134 10.1453V13.8803L63.213 14.0585C62.4785 7.7565 59.9771 6.27923 54.1215 7.11216C55.7934 6.20328 57.6708 2.94753 59.8718 2.79299C62.4503 2.42891 64.4869 4.46932 65.5604 6.47568C65.6349 6.74808 65.7633 6.86071 65.9533 6.80571C66.1819 5.64799 64.2018 4.25978 63.4878 3.52377C64.1633 3.72283 64.7694 4.4117 65.2728 4.94341C65.4243 5.12414 65.8352 5.45155 65.9893 5.56418C66.2435 5.72133 66.5954 6.54378 66.9267 6.62498C66.5389 6.77428 66.1074 6.94715 65.7427 7.17764ZM66.8188 7.03358C67.2631 6.42853 67.7537 6.33162 68.311 5.79205C68.5087 5.59299 68.9813 4.95389 69.0095 4.89102C69.2407 4.84388 71.3338 3.74117 71.5212 3.60496C71.3492 3.49234 69.9443 4.19954 69.7774 4.03452C69.6259 3.8957 69.7517 3.79617 69.9649 3.45043C70.4657 2.63584 71.2824 2.24819 72.1119 2.13556C73.1084 2.08055 72.8439 1.90244 74.0509 1.83696C75.7203 2.00983 75.9258 2.06746 77.6002 2.52845C78.833 3.03397 80.5229 4.17596 81.6067 4.50861C82.2307 4.68934 82.2076 4.74435 81.7685 5.23677C80.5819 5.40964 79.5264 4.86745 78.3424 4.24407C77.3357 3.79617 75.1784 3.68092 74.2384 4.07905C73.2265 4.54266 72.4278 5.9754 71.7704 6.66951C72.3867 6.22685 73.0493 5.51179 73.8712 4.93555C75.7485 4.21002 78.3168 4.16549 79.9527 5.3913C80.2198 5.53798 80.8901 5.57465 81.0699 5.59299C81.6015 6.02779 80.1556 6.48092 79.9399 6.89738C77.1225 6.53854 74.3617 8.25416 73.7915 10.9441C73.6323 10.9546 73.9148 12.589 73.3318 12.8588C73.3909 5.04818 73.997 7.6072 66.7238 7.17764C66.7546 7.1305 66.788 7.08335 66.8188 7.03358ZM72.0683 16.641C72.5768 16.2822 73.1649 15.8972 73.6066 15.4309C73.5733 15.5907 73.7171 18.1602 73.4757 18.1812C72.6102 18.7627 71.5675 19.2917 70.7302 19.9832C69.6002 20.4861 68.3983 21.2169 67.1501 21.4684V19.3703H71.2336C72.4843 19.3625 72.076 17.4347 72.0683 16.641ZM73.2676 15.0957C72.8285 15.5567 72.302 15.8972 71.7472 16.1801C71.5932 15.8369 67.4789 16.0727 67.1501 16.0072V14.7997C68.2724 14.2889 69.1071 14.1344 70.3681 14.0794C70.6891 14.564 71.9861 14.3151 72.4586 14.3728C72.8362 14.3728 73.1572 14.1266 73.2779 13.786C73.3652 13.731 73.5116 13.6577 73.6143 13.6656C73.6092 13.9851 73.6066 14.3701 73.6066 14.763C73.4936 14.8678 73.3652 14.9909 73.2676 15.0957ZM68.2262 11.3973C68.0439 11.688 67.4506 12.0338 67.1501 12.2538V10.567H68.8785L68.3058 11.1354C68.3546 11.1642 68.2981 11.2716 68.2262 11.3973ZM67.8821 12.1123C68.5267 11.5544 68.632 11.1223 69.1071 10.567C70.0522 10.4858 70.0702 10.8472 70.1139 11.5937C70.1216 11.6671 70.1267 13.6891 70.1626 13.6787C69.1919 13.7625 67.9232 13.9406 67.1501 14.5299V12.7122C67.2631 12.6179 67.597 12.3376 67.8821 12.1123ZM70.648 25.1668C70.4708 25.7797 70.5453 25.5282 69.7338 25.6146H67.1501V25.1694C67.7408 25.1301 68.6063 25.2532 69.1559 25.0384C69.6413 24.8524 70.1935 24.7712 70.7122 24.711C70.6968 24.8734 70.6763 25.0253 70.648 25.1668ZM75.2863 20.6878C74.9883 21.2038 74.2436 21.6936 73.902 22.1206C73.4166 22.8644 72.9415 23.1368 72.2121 23.5952C71.8063 23.8938 71.6368 23.81 71.3183 23.8414C71.0179 23.8886 71.0615 24.0038 70.7405 24.0588C69.4692 24.2186 68.4188 24.4491 67.1501 24.5486V22.0629C71.5649 20.8162 75.1219 16.8218 79.6343 15.8474C80.2327 15.7086 79.1129 16.6934 78.9126 17.0497C77.7672 18.396 76.6371 19.5039 75.2863 20.6878ZM82.3258 21.2536C81.3935 21.2379 81.4089 22.3301 81.45 23.0111C81.7197 25.8975 79.4083 26.6571 77.7363 25.3422C77.1688 24.1924 77.4307 23.5323 77.3537 21.1331C78.0266 20.68 79.0076 19.8182 79.8269 20.363C79.963 20.418 80.5768 20.8162 80.7001 20.6459C80.7206 20.5673 80.5203 20.4337 80.32 20.3552C80.1197 20.274 80.0991 20.2609 80.1274 20.1875C80.189 19.8418 80.4869 20.0382 81.0083 19.9466C82.0587 19.8785 82.5209 20.5961 83.0988 21.2536H82.3258ZM84.8401 23.4642C84.8606 22.241 85.0635 21.0467 83.4096 21.2536C82.9498 20.7638 83.6587 20.6276 84.0824 20.6459C84.6603 20.8476 84.894 21.1907 85.3023 21.6386L84.8401 23.4642ZM85.3511 21.4395C84.2365 19.6165 84.1466 20.583 82.6956 20.2609C82.3412 19.8418 81.8635 19.8235 81.6298 19.5301C81.6015 19.3782 81.3575 19.4646 81.1213 19.5091C80.51 19.5563 80.2147 19.6218 79.7216 19.8889C79.5701 19.9308 79.4776 19.902 79.4057 19.8654C78.6686 19.4175 77.9213 20.3002 77.3537 20.7454V20.5568C79.6599 17.914 83.2863 16.6934 86.6892 16.1355L85.3511 21.4395ZM86.7585 15.8553C84.7964 16.3294 82.5235 16.6803 80.6564 17.5473C79.6445 18.1105 78.3579 19.0979 77.3537 19.6951V19.4515C78.2166 18.5531 79.5932 16.9606 80.415 15.9862C82.3078 14.3832 84.7348 12.9977 87.1592 12.9426C87.6394 12.9872 88.189 12.9007 89.0571 13.3879C89.2934 13.5556 89.3653 13.6315 89.7351 13.7153C90.1049 13.8018 90.9036 13.972 91.1425 14.1894C91.5945 14.7368 93.7415 15.8265 94.3836 16.1958C94.7483 16.5677 95.0205 16.6149 95.0205 16.6149C96.2738 17.6888 97.2754 17.5866 98.7829 18.726C100.468 19.2001 101.934 19.9073 103.717 19.8182C105.216 19.517 106.269 18.1288 107.713 17.7699C107.713 17.7699 109.004 17.5735 109.477 17.5735C110.237 17.5264 111.429 18.4248 111.889 18.65C112.32 18.9067 111.606 18.7443 111.444 18.7417C111.444 18.7417 110.17 18.6762 109.826 18.4221C109.629 18.2755 109.369 18.0843 109.174 18.1393C107.823 18.7391 107.209 18.7312 105.853 19.2525C104.736 19.7789 102.615 20.6354 101.372 20.3159C101.246 20.0618 100.74 20.2949 100.334 20.0985C99.764 19.8942 99.6921 19.9701 99.1425 19.868C98.6314 19.7108 98.5826 19.4882 98.1152 19.4803C97.5168 19.4306 97.6427 19.3703 97.2343 19.1713C95.9964 18.485 95.9322 18.4457 94.5633 17.4478C94.0215 17.0706 92.5755 16.6751 92.3752 16.4106C91.1373 16.091 90.7649 16.1643 89.5682 15.7715C89.0006 15.4755 88.3791 15.5671 87.8269 15.6143C86.946 15.6143 87.0333 15.7584 86.7585 15.8553ZM111.444 23.4014C111.796 23.6292 112.395 23.5873 112.371 23.9855C112.243 24.3129 111.945 25.2034 111.444 24.6377V23.4014ZM107.248 20.5935C104.847 19.4882 106.023 19.6008 107.713 19.0115V20.6852C107.61 20.6747 107.438 20.6485 107.248 20.5935ZM107.713 21.2981V21.3741C104.654 20.9497 104.911 21.4395 104.944 24.2107C104.885 24.2107 104.813 24.2212 104.777 24.2448V24.2369C104.253 24.3391 103.606 25.1353 103.11 24.9782C102.381 24.8053 101.993 24.8236 101.374 25.3213L101.369 25.0646C101.369 25.0646 101.369 20.6669 101.372 20.6616C101.793 20.6957 102.959 20.6669 103.234 20.583C103.714 20.5359 104.936 19.6349 105.291 20.0173C105.709 20.4285 107.23 21.0178 107.713 21.2981ZM97.6555 20.0513V26.0206C97.6144 26.0364 97.5733 26.0573 97.5348 26.0835C97.4886 26.0573 97.4423 26.0364 97.3961 26.0206L95.5264 18.6264C95.9451 18.8177 95.9271 19.0455 96.5383 19.4253C97.2523 19.9073 97.1906 19.6584 97.6555 20.0513ZM92.442 21.9398C92.4934 22.1467 92.7964 23.3202 92.8247 23.5009C90.0946 25.0829 91.9361 23.0425 88.6718 23.1552L88.98 21.9398H92.442ZM89.6966 18.595L90.2076 16.4787C90.4465 16.4813 90.9473 16.5075 91.2889 16.6699L91.7691 18.595H89.6966ZM114.755 24.3181C114.619 24.6874 114.444 24.9808 114.226 25.2008C114.126 25.1668 113.992 25.1327 113.856 25.1353C113.861 25.1353 113.864 25.1353 113.864 25.1353C113.242 25.2663 113.445 25.6199 113.306 26.0337C112.967 26.6388 112.952 26.665 112.325 27.3303C111.521 28.0191 109.523 27.8882 108.843 27.346C108.735 27.2569 108.642 26.4109 108.642 26.2799C107.89 26.0442 107.135 26.2459 106.054 26.259C105.25 26.2354 105.193 26.61 104.723 26.7828C104.276 27.4796 103.67 28.5928 102.949 29.038H102.946L102.92 29.0433C101.837 29.6876 100.393 30.4498 99.0783 30.3058C98.765 30.2586 98.5775 30.4865 98.372 30.6698C97.8147 31.1832 95.4134 30.8217 94.8664 30.6148C94.2988 30.4236 94.1293 29.3995 93.7235 29.1114C93.3409 28.6949 92.763 28.5116 92.3649 28.061C92.1595 27.9065 91.1296 27.7074 90.9242 27.6786C89.8044 26.2249 90.0536 26.1621 88.0015 25.8216L88.5768 23.535C89.1007 23.4197 90.3643 23.6266 90.7007 24.1321C90.8985 24.3679 90.8805 24.677 91.2195 24.7346C91.7511 24.8053 91.7691 25.7509 92.2109 25.6906C92.4882 25.4287 91.7717 24.8158 91.8462 24.5879C92.632 24.2526 92.7168 23.9514 94.0343 23.8807C94.9152 23.7026 94.8381 24.5355 95.095 25.0358C95.2491 25.2558 95.416 24.9991 95.4648 25.3291C95.511 25.6566 95.5239 26.1909 95.642 26.3009C96.1582 26.4161 96.433 26.8614 96.3817 27.6027C96.2712 28.2156 96.451 28.5561 96.2481 29.0197H96.243C96.1146 29.3078 95.7345 29.2083 95.6112 29.038C95.0205 28.8521 96.0529 30.3608 96.5948 29.0433H96.5871C96.7052 28.7997 96.8105 28.5273 96.8105 28.5273C97.8224 28.0191 99.4533 27.3198 99.9335 28.9516C100.031 29.038 100.041 28.8783 100.149 28.8678C100.257 28.8547 100.365 28.8311 100.293 28.6975C100.031 28.1475 100.547 27.9982 100.912 28.0165C101.308 27.7074 100.786 26.864 101.079 26.3507C101.531 25.6408 102.142 25.2558 102.974 25.3868C103.83 25.667 104.22 24.7896 104.924 24.6246C105.93 24.8158 105.941 24.635 106.775 24.2605C107.546 24.1505 108.681 23.7759 109.523 24.0117C110.068 24.0248 109.934 24.3129 110.16 24.58C110.265 24.6089 110.417 24.7634 110.445 24.821C110.648 25.1982 111.316 25.1301 111.683 25.1851C112.032 25.2663 112.646 25.0777 112.669 24.6193C113.067 23.1368 113.784 23.1971 114.804 24.1452C114.788 24.2029 114.77 24.2579 114.755 24.3155V24.3181ZM114.935 23.6554C114.457 23.2416 113.206 22.5187 112.847 23.3647C112.592 23.6397 111.853 23.0609 111.444 22.9692V19.0508C115.153 19.2708 113.548 19.1896 111.444 17.9533V16.4603C112.767 17.0706 114.326 18.3409 115.428 19.4018C115.381 21.0571 115.217 22.482 114.935 23.6554ZM115.438 18.946C114.033 17.7228 113.006 16.6096 111.444 15.7767V12.6624C112.713 14.4147 113.103 15.6667 115.384 16.4629C115.433 17.3247 115.453 18.1209 115.438 18.946ZM124.509 10.3234C124.856 10.3234 125.156 10.3627 125.408 10.4386C125.156 10.7556 123.024 11.1851 122.698 11.1223C122.842 10.7818 123.222 10.3234 124.509 10.3234ZM122.493 17.0601C124.617 15.6772 126.237 19.6322 125.336 21.4317C124.796 22.5606 123.613 23.5061 122.493 23.0923V17.0601ZM124.94 25.8373C125.133 25.5073 125.855 24.897 126.299 24.986C126.209 25.282 125.962 25.7378 124.94 25.8373ZM126.468 23.7524C126.468 24.0195 126.445 24.2814 126.402 24.5355C125.636 24.7791 124.922 25.3134 124.347 25.853C123.086 25.8504 122.56 25.2427 122.516 24.1138C122.76 24.25 122.999 25.0201 123.073 25.0803C123.101 25.0253 123.217 24.6062 123.145 24.4412C122.606 23.4721 122.398 23.6581 123.556 23.4747C124.563 23.2547 125.58 22.4768 126.468 21.9817V23.7524ZM126.468 21.4631C126.23 21.6988 125.778 22.2253 125.523 22.1703C125.418 22.1075 125.623 21.8062 125.659 21.7041C125.693 21.6046 125.659 21.4317 125.747 21.1855C126.258 19.6165 125.636 16.6672 123.638 16.4263C122.675 16.4367 123.248 16.1539 123.959 16.0962C125.015 16.1932 125.51 16.4787 126.468 16.8375V21.4631ZM126.468 16.6122C123.618 15.4938 124.267 16.1251 126.468 14.7604V16.6122ZM126.468 14.5718C125.349 15.6143 123.595 15.245 122.493 16.2324C122.5 15.9469 122.457 12.1202 122.554 11.9892C122.688 12.1909 125.816 11.0699 125.988 10.7503C126.782 11.544 126.368 13.5425 126.468 14.5718ZM128.33 8.02367C128.151 7.8927 127.963 7.76698 127.768 7.65697C127.837 6.8188 127.283 5.187 128.135 4.67101C128.233 4.58981 128.52 4.08691 128.644 4.01619C128.939 3.78046 131.628 3.87999 131.872 4.46146C132.345 5.09533 132.165 5.96492 133.184 6.05136C132.784 6.31852 131.846 5.98326 131.782 5.55632C131.764 5.42012 131.728 5.12676 131.523 4.9827C130.904 4.64219 129.037 5.05342 128.805 5.8942C128.651 6.28971 128.875 7.95295 128.89 8.52656C128.721 8.34845 128.536 8.18082 128.33 8.02367ZM163.286 5.4044C163.456 5.65585 163.315 6.28185 163.415 6.55688C163.446 6.6957 163.487 6.78213 163.358 6.75332C162.087 6.49663 160.844 5.98326 159.611 6.80571C159.637 4.57147 161.856 3.29851 163.286 5.4044ZM146.177 8.9116C146.768 8.41394 146.739 8.03676 147.479 7.50505C148.396 6.75594 149.901 6.73761 150.263 7.92151C150.363 8.00795 150.412 8.1101 150.291 8.32226C149.811 9.47212 149.523 10.0693 150.073 11.2873C150.045 11.2716 149.821 11.1354 149.726 10.9127C149.51 9.8231 147.048 8.77539 146.164 9.1159C146.028 9.13947 145.936 9.07923 146.177 8.9116ZM144.541 21.6046C146.924 20.219 141.749 19.4934 144.775 16.8506C146.038 16.0177 147.559 15.3602 148.136 13.8803C148.632 12.8195 147.245 10.8001 145.936 10.5329C144.967 10.4832 143.259 11.392 142.843 9.96978C142.882 9.50617 142.53 8.48466 143.103 8.22797C143.388 8.10748 143.622 8.02628 143.316 8.42441C143.195 8.53966 143.031 8.73087 143.103 8.90636C143.175 9.07923 143.031 9.13947 143.223 9.43021C144.205 11.062 145.797 8.46632 147.708 9.48783C149.521 10.3339 150.982 12.7724 149.819 14.6818C149.639 14.8861 149.238 15.245 149.154 15.2895C148.876 15.2109 147.405 16.0831 147.335 16.4132C146.344 17.0025 146.819 18.5191 146.886 19.2708C146.786 20.2818 146.763 21.1252 145.612 21.5915C145.188 21.7381 143.945 22.1232 144.541 21.6046ZM140.971 21.4369C141.78 21.5365 141.952 21.56 142.566 21.9267C143.955 22.4532 146.051 22.1546 146.958 20.7454C147.674 18.2493 145.766 17.3613 148.845 15.6379C146.233 18.2362 150.843 21.0336 146.714 23.239C145.353 23.5035 143.231 24.1321 142.129 22.9849C141.952 22.9901 141.1 22.702 140.786 22.6339C140.727 22.1887 140.622 21.7565 140.473 21.3374C140.722 21.3426 140.614 21.3924 140.971 21.4369ZM140.817 22.9168C141.123 22.943 141.78 23.1578 142.058 23.1892C142.052 23.2337 142.587 23.5219 142.301 23.5533C142.081 23.59 141.1 23.7366 140.838 23.8231C140.845 23.5219 140.845 23.2128 140.817 22.9168ZM141.993 24.3862C144.371 23.6921 143.853 24.2736 142.129 25.1668C141.839 25.3265 140.85 25.3842 140.581 25.4261C140.668 25.1275 140.735 24.8158 140.779 24.491C141.053 24.4805 141.86 24.4229 141.993 24.3862ZM136.174 21.5155C136.77 22.1258 137.024 23.0085 136.954 23.9409C136.726 24.009 136.341 24.0248 136.289 23.7654C135.532 23.5847 133.718 22.7492 132.958 22.4034C133.002 21.9477 132.84 21.45 132.393 21.2929C133.816 21.1305 134.777 21.0964 136.174 21.5155ZM132.984 23.493C133.713 24.0221 136.192 24.5355 136.844 24.5538C135.837 27.0919 132.755 26.293 132.984 23.493ZM130.262 15.3131C130.829 16.421 132.085 17.6311 133.105 18.5453C132.414 18.5269 130.814 18.5819 130.262 18.6474V15.3131ZM130.262 21.3322V18.7496C130.806 18.7496 132.768 18.7207 133.328 18.7548C134.23 19.5877 135.082 20.3133 135.801 21.1095C134.117 20.8554 131.975 21.1462 130.262 21.3322ZM149.403 25.4654C148.447 26.1935 146.398 26.7986 145.455 27.5293C143.67 28.5928 140.573 28.4068 138.529 28.302C139.456 27.642 140.17 26.6938 140.524 25.6042C143.059 25.3213 144.125 24.3653 146.778 25.4784C147.05 25.523 148.044 25.4654 148.267 25.4418C148.55 25.3999 150.445 24.8341 149.403 25.4654ZM151.593 22.7727C150.111 24.6927 148.555 25.2191 146.185 24.6979C145.887 24.6927 143.953 24.3391 144.698 24.0719C146.352 23.8493 149.374 23.5847 149.31 21.1095C149.403 20.2766 148.201 18.1524 148.396 17.5656C148.306 15.8946 149.873 15.8631 150.497 14.3963C151.303 11.4313 149.6 8.71777 152.96 6.83452C155.423 5.60346 155.723 10.7739 158.481 7.80365C159.272 6.97858 158.859 5.85229 159.051 4.85697C159.432 3.51067 161.835 3.19374 162.621 4.27288C161.378 3.57877 159.765 4.4929 159.239 5.8261C159.105 6.12994 159.01 7.78007 158.91 8.02367C158.43 9.05566 156.979 9.72619 155.826 9.45378C154.572 9.05566 153.684 8.2463 152.464 9.37259C151.28 10.8446 152.764 13.0788 152.88 14.6687C153.075 15.6274 153.36 17.8695 153.18 18.7967C152.752 20.1011 152.451 21.6884 151.593 22.7727ZM155.726 10.0431C155.451 10.4151 155.518 10.9965 155.019 11.2532C154.501 11.6173 153.763 11.5047 153.337 11.8897C153.252 11.3606 153.091 10.6586 153.116 10.0955C153.101 9.5507 154.151 9.12114 154.519 9.28353C154.703 9.40926 155.068 9.56117 155.297 9.65809C155.705 9.81524 155.962 9.61618 155.726 10.0431ZM155.934 15.004C155.307 17.6914 154.393 20.7821 152.564 22.8828C152.341 23.0844 151.868 23.5481 152.079 23.1237C153.389 20.6328 153.73 17.343 153.638 14.5587C153.946 14.7735 155.415 15.3655 155.769 14.9961C155.905 14.8573 155.985 14.8573 155.934 15.004ZM157.143 12.6336C156.786 13.6577 156.283 15.2895 154.911 14.7499C154.269 14.378 153.753 14.1239 153.594 13.4141C153.573 12.8353 153.24 12.3585 153.689 12.0704C154.074 11.8897 154.416 12.0233 154.647 11.963C156.257 11.5623 154.924 10.0615 157.387 9.65809C158.579 9.31234 159.326 8.11272 159.56 7.13312C159.64 7.13312 160.125 6.94191 160.261 6.88428C161.517 6.65379 164.224 6.72451 164.488 8.36679C164.37 8.62348 165.138 8.99279 164.725 9.00065C163.964 8.8854 164.054 7.92675 163.338 7.79055C162.346 7.51815 160.929 8.3825 160.017 8.73872C158.766 9.13161 157.495 11.4497 157.143 12.6336ZM161.728 10.9703C161.889 11.8111 163.482 12.0914 163.988 12.1307C164.165 12.4817 162.701 12.4057 162.393 12.3402C161.494 12.3743 161.504 10.973 160.705 10.8813C158.592 10.7425 157.567 12.741 157.788 11.984C158.016 11.2585 158.54 9.60308 159.411 9.64237C160.621 9.80477 161.209 9.56379 161.728 10.9703ZM161.484 9.96978C161.417 9.94883 161.062 9.70785 160.942 9.63451C160.767 9.49569 159.819 9.54546 159.66 9.42235C159.362 8.88017 163.371 7.51029 163.122 8.20439C162.732 8.41132 162.739 9.20233 162.3 9.44593C162.056 9.6057 161.648 10.0222 161.484 9.96978ZM46.9151 31.838C46.3347 32.3828 44.917 33.2629 44.1157 33.1791C42.5003 32.9695 41.1109 32.1759 40.4226 30.7458C40.2788 30.3372 40.926 29.5828 40.4046 29.3497C39.8165 29.203 39.1359 29.2973 38.5709 29.334C37.9109 29.9495 36.578 30.1617 35.787 30.4551C33.5834 31.0601 31.7805 31.6363 29.3921 31.9428C27.6637 31.9768 26.5157 32.32 25.1648 31.2487C24.7128 31.0706 24.2068 29.9233 24.6434 29.6012C24.9542 33.4908 32.9362 31.233 34.9934 30.1696C35.5481 30.1643 35.1783 29.9207 34.8136 29.6378C34.2383 29.3235 34.3976 27.7179 34.9934 27.5293C35.15 27.4272 35.2399 27.5267 35.186 27.5791C33.735 29.7059 37.1096 30.586 38.2679 29.1061C38.0598 29.1061 37.9058 28.9542 37.613 28.8363C37.4512 28.7682 37.3921 28.4592 37.5642 28.6163C37.7362 28.7735 38.083 28.7499 38.2807 28.7316C38.6891 28.6975 38.8072 28.9673 39.2592 29.0118C39.5263 29.0668 40.0399 29.0171 40.1658 28.9437C40.2916 28.8704 40.4457 28.7787 40.7436 28.7787C41.2624 28.6425 41.4422 28.4592 41.8582 28.2444C41.9584 28.1763 41.8608 28.4513 41.6913 28.543C41.5218 28.6347 41.5757 28.7342 41.5115 28.8442C41.4499 28.9542 41.2624 28.8547 40.9851 29.0537C40.7077 29.3392 40.9568 29.2659 41.0647 29.5933C40.1761 31.5447 42.3693 32.0554 43.6765 32.6212C44.1928 32.9748 45.4615 32.4693 45.9109 32.2388C46.2653 32.003 46.5735 31.6809 46.9125 31.838H46.9151Z" fill="#F55959"/>
</g>
<defs>
<clipPath id="clip0_264_1117">
<rect width="165.864" height="32.3636" fill="white" transform="translate(0.0682373 0.818115)"/>
</clipPath>
</defs>
</svg>
