<svg width="154" height="24" viewBox="0 0 154 24" fill="none" xmlns="http://www.w3.org/2000/svg">
<g clip-path="url(#clip0_270_1085)">
<path fill-rule="evenodd" clip-rule="evenodd" d="M144.347 21.5787C139.208 21.5787 135.043 17.2906 135.043 11.9989C135.043 6.70723 139.208 2.41907 144.347 2.41907C147.594 2.41907 150.451 4.13327 152.113 6.73118H153.864C152.038 3.24422 148.463 0.872559 144.347 0.872559C138.38 0.872559 133.543 5.85279 133.543 11.9962C133.543 18.1397 138.38 23.1199 144.347 23.1199C148.463 23.1199 152.041 20.7482 153.864 17.2613H152.113C150.448 19.8565 147.594 21.5734 144.347 21.5734V21.5787Z" fill="#F55959"/>
<path fill-rule="evenodd" clip-rule="evenodd" d="M122.887 1.13867H121.137L110.881 23.1198H112.66L115.85 16.2976H128.174L131.349 23.1198H133.127L122.887 1.13867ZM116.613 14.6553L122.003 3.0951L127.398 14.6553H116.613Z" fill="#F55959"/>
<path fill-rule="evenodd" clip-rule="evenodd" d="M112.391 2.78872V1.13574H92.5128V2.78872H101.649V23.1249H103.252V2.78872H112.391Z" fill="#F55959"/>
<path fill-rule="evenodd" clip-rule="evenodd" d="M89.1417 1.14648H82.0477L67.7952 15.821V23.125H74.8865L78.4697 19.4384L82.0503 23.125H89.1417V15.821L85.5611 12.1344L89.1417 8.45047V1.14648Z" fill="#F55959"/>
<path fill-rule="evenodd" clip-rule="evenodd" d="M77.5959 4.83308L78.0328 4.38057L74.8891 1.14648H67.7952V8.45047L70.9363 11.6846L77.5959 4.83308Z" fill="#F55959"/>
<path fill-rule="evenodd" clip-rule="evenodd" d="M34.073 8.4345L28.1011 1.14648H28.0882L20.1282 10.8594L12.1733 1.14648H12.1604H12.1578L0.136353 15.821V23.125H6.11864L12.1656 15.7438L18.2125 23.125H22.0464L28.0933 15.7438L34.1403 23.125H40.1226V15.821L34.073 8.4345Z" fill="#F55959"/>
<path fill-rule="evenodd" clip-rule="evenodd" d="M55.2205 1.14648H52.6972L40.6758 15.821V23.125H46.6581L53.9588 14.2133L61.2622 23.125H67.2419V15.821L55.2205 1.14648Z" fill="#F55959"/>
<path fill-rule="evenodd" clip-rule="evenodd" d="M47.4647 23.125H60.453L53.9588 15.1981L47.4647 23.125Z" fill="#F55959"/>
</g>
<defs>
<clipPath id="clip0_270_1085">
<rect width="153.727" height="22.25" fill="white" transform="translate(0.136353 0.875)"/>
</clipPath>
</defs>
</svg>
