<svg width="142" height="134" viewBox="0 0 142 134" fill="none" xmlns="http://www.w3.org/2000/svg">
<g clip-path="url(#clip0_213_4327)">
<path d="M31.6115 61.1215L33.0329 61.1332C33.0797 61.1391 33.1207 61.1449 33.1616 61.1566C32.4421 58.1736 31.863 54.5121 31.6115 50.0667V61.1215Z" fill="#F55959"/>
<path d="M70.8334 131.276L92.4479 105.978V98.8366H98.5491L110.055 85.3661V64.7363C109.476 64.8416 108.856 64.9527 108.295 65.0404C108.365 65.3504 108.453 65.8944 108.195 66.3214C108.014 66.6139 107.71 66.7776 107.341 66.8654C107.388 67.1812 107.429 67.7193 107.142 68.1171C106.973 68.3452 106.721 68.4797 106.452 68.5499C106.469 68.8482 106.481 69.4565 106.119 69.8543C105.89 70.0999 105.551 70.2286 105.077 70.2403C104.984 70.3982 104.89 70.5503 104.802 70.6907C104.873 70.9948 104.802 71.3048 104.598 71.5856C104.919 72.1413 105.218 73.3169 105.487 75.0951L105.925 78.0196L104.884 76.2824C104.358 77.3587 103.714 78.1483 103.779 80.0609C103.843 82.073 104.247 83.2663 103.755 84.2489C103.317 85.1204 100.538 86.8693 99.9062 87.2553C100.544 86.9044 103.328 85.3895 103.486 85.6936C103.662 86.0387 104.2 88.2497 103.217 89.1095C102.234 89.9693 101.211 93.6367 97.502 93.9877C93.8108 94.3445 88.9147 95.5845 85.9665 97.4562C86.1244 97.3918 86.7152 97.1403 87.0077 97.0877C87.3353 97.0292 88.9732 96.7543 88.8796 99.9713C88.7918 103.182 87.3294 103.206 87.3294 103.206C87.3294 103.206 86.8263 102.27 86.0542 102.808C85.2879 103.34 85.2177 104.814 85.2177 104.814C85.2177 104.814 83.8138 104.481 83.1411 105.551C82.4625 106.633 82.6087 107.762 82.6087 107.762C82.6087 107.762 81.9126 107.06 81.0118 107.698C80.1051 108.33 79.5552 109.201 79.5552 109.201C79.5552 109.201 79.2803 107.628 78.3677 107.897C77.4493 108.166 76.139 110.675 76.139 110.675C74.7702 107.599 71.4125 109.271 70.8509 110.979C69.7922 108.3 66.452 108.529 65.481 110.394C65.0071 109.336 62.7433 106.265 62.1408 109.201C62.1408 109.201 61.5909 108.33 60.6901 107.698C59.7834 107.06 59.0931 107.762 59.0931 107.762C59.0931 107.762 59.3622 106.54 58.555 105.551C57.6951 104.499 56.4783 104.814 56.4783 104.814C56.4783 104.814 56.414 103.34 55.6418 102.808C54.8697 102.27 54.3666 103.206 54.3666 103.206C54.3666 103.206 52.9042 103.182 52.8165 99.9713C52.7287 96.7543 54.3608 97.0292 54.6942 97.0877C54.9867 97.1403 55.5716 97.3918 55.7296 97.4562C52.7872 95.5845 47.8852 94.3445 44.1999 93.9877C40.4912 93.6367 39.4617 89.9693 38.4789 89.1095C37.4962 88.2497 38.0344 86.0387 38.2099 85.6936C38.3678 85.3895 41.1522 86.9044 41.7898 87.2553C41.1522 86.8576 38.3854 85.1146 37.9466 84.2489C37.4553 83.2663 37.853 82.073 37.9232 80.0609C37.9876 78.0547 37.2739 77.2826 36.7416 76.1245C36.2034 74.9605 38.438 72.7262 38.438 72.7262C38.438 72.7262 38.1163 72.4279 37.619 71.7494C37.075 72.4747 36.3906 73.352 35.519 74.399L33.5243 76.8264L34.5129 73.8433C34.6942 73.3169 35.3552 71.3575 35.987 69.866C35.6887 69.7665 35.1739 69.556 34.9516 69.1114C34.7995 68.8131 34.8112 68.4797 34.9282 68.0995C34.6357 67.9767 34.1561 67.731 33.9689 67.2807C33.8636 67.0291 33.8694 66.7542 33.9513 66.4618C33.6939 66.3272 33.1675 66.0172 33.0154 65.5025C32.875 65.0287 33.0973 64.5374 33.5184 63.9993C33.1148 64.0344 32.7346 63.935 32.3368 63.3091C32.1379 63.3091 32.3368 63.3091 31.6115 63.1921V85.3661L43.1177 98.8366H49.2189V105.978L70.8334 131.276ZM85.7559 103.884C85.9723 103.346 86.3233 102.972 86.6099 103.106C87.9729 103.106 86.996 107.236 86.0951 107.347C86.0951 107.347 85.9197 106.236 85.5804 105.499C85.4341 105.177 85.5277 104.44 85.7559 103.884ZM84.3695 105.224C84.896 105.083 85.516 104.943 85.9372 107.903C86.1946 109.722 83.457 110.78 83.2639 110.424C83.0767 110.067 83.1469 108.938 82.9539 108.049C82.7433 107.066 83.1937 105.54 84.3695 105.224ZM81.509 107.938C81.509 107.938 83.5154 107.224 82.6146 111.482C82.5035 112.009 80.2689 113.354 79.7658 112.652C79.2627 111.95 79.4733 109.078 81.509 107.938ZM76.3789 111.441C76.5719 110.517 77.929 108.347 78.5491 108.4C78.5491 108.4 79.5962 108.529 79.1984 111.558C78.7948 114.588 76.6772 114.793 76.4257 114.588C76.1741 114.389 76.1858 112.366 76.3789 111.441ZM71.512 111.19C72.5883 108.926 74.9749 108.4 75.9694 111.547C76.1683 112.945 75.636 115.05 75.2323 115.255C74.8287 115.454 71.512 116.302 71.2019 115.787C70.8919 115.278 70.9094 112.371 71.512 111.19ZM65.7325 111.547C66.686 108.558 68.9147 108.71 70.1899 111.19C70.7924 112.371 70.8158 115.278 70.5058 115.787C70.1899 116.302 66.8732 115.454 66.4695 115.255C66.0718 115.05 65.5336 112.945 65.7325 111.547ZM63.1586 108.4C63.7729 108.347 65.1358 110.517 65.3289 111.441C65.5219 112.366 65.5278 114.389 65.2762 114.588C62.7082 115.442 61.5734 108.827 63.1586 108.4ZM60.1987 107.938C62.2285 109.078 62.4391 111.95 61.9419 112.652C61.4388 113.354 59.1984 112.009 59.0873 111.482C58.1864 107.224 60.1987 107.938 60.1987 107.938ZM57.3324 105.224C58.514 105.54 58.9586 107.066 58.7539 108.049C58.5608 108.938 58.631 110.067 58.438 110.424C58.2508 110.78 55.5073 109.722 55.7647 107.903C56.1917 104.943 56.8059 105.083 57.3324 105.224ZM55.092 103.106C55.3845 102.972 55.7296 103.346 55.9519 103.884C56.1742 104.44 56.2677 105.177 56.1215 105.499C55.7822 106.236 55.6067 107.347 55.6067 107.347C54.5187 106.943 53.8343 103.27 55.092 103.106Z" fill="#F55959"/>
<path d="M110.055 36.3623V9.00601L103.229 1.8584H38.438L31.6115 9.00601V36.8361L32.173 37.1812C33.3254 31.0103 35.8291 26.0795 39.1166 22.1665C37.4904 21.5231 35.7355 20.7042 35.2207 20.4586L32.3836 19.1133L35.519 19.3472C36.0689 19.3882 38.128 19.5519 39.7308 19.8035C39.7542 19.4876 39.8361 18.9378 40.2104 18.6102C40.3508 18.505 40.5731 18.3529 41.1873 18.347C41.2341 18.0312 41.357 17.5048 41.7431 17.2123C41.9361 17.0719 42.1759 16.9959 42.4626 16.9959H42.5328C42.603 16.7093 42.7784 16.1244 43.2406 15.8495C43.3927 15.7617 44.001 15.5863 44.82 15.9723C44.7732 15.8495 44.7439 15.7325 44.7322 15.6096C44.7088 15.2295 44.8785 14.8961 45.2061 14.6504C45.0657 14.0245 45.13 12.8138 45.3991 11.0356L45.8437 8.11694L46.5456 10.983L47.4757 14.8025C47.4874 14.861 47.4933 14.9195 47.4933 14.9779C47.5108 14.9838 47.5225 14.9896 47.5401 14.9955C53.1265 11.5855 59.333 9.76054 64.7322 8.97091C64.2818 8.08185 63.7378 6.91788 63.0826 5.40296L61.8366 2.51935L64.0361 4.75956C64.428 5.15729 65.867 6.63712 66.9083 7.88298C67.3177 7.56713 68.0607 6.87693 68.9674 7.73675C69.1955 7.54373 69.5991 7.25712 70.0495 7.25712H70.1314C70.4122 7.28052 70.6521 7.41505 70.8685 7.61392C71.0791 7.52033 71.3774 7.21033 72.1496 7.22203C72.6585 7.31561 72.9978 7.78354 73.2551 8.3626C73.2902 8.26317 73.3312 8.16958 73.3897 8.08185C73.5359 7.91222 73.7173 7.67826 74.4192 7.61392C74.7234 7.05241 75.5716 6.18089 76.9463 5.02276L79.2101 3.11596L77.8471 5.73636L76.2326 8.83053C81.041 9.42129 86.5865 10.8543 91.7869 13.5391C91.9799 12.5096 92.2899 11.1468 92.7696 9.34525L93.571 6.30957L93.9161 9.43299C93.9746 9.98281 94.1911 12.0358 94.2379 13.6619C94.6005 13.6385 94.9223 13.5859 95.5014 13.9076C95.7588 14.1123 95.8933 14.4281 95.9401 14.82H96.0513C96.5426 14.82 96.9053 14.9312 97.1568 15.1593C97.3616 15.3464 97.4669 15.5979 97.5137 15.8963C97.8062 15.9138 98.4145 15.9723 98.7655 16.3759C99.0931 16.7502 99.0931 17.2883 98.941 17.9551C99.0346 17.9025 99.602 17.5632 100.31 18.0955C100.895 17.8382 102.1 17.6802 103.901 17.6159L106.856 17.5223L100.918 20.2012C104.937 24.2956 108.066 29.6884 109.447 36.7015C109.64 36.5962 109.839 36.4793 110.055 36.3623Z" fill="#F55959"/>
<path d="M110.055 50.6926C109.734 55.5941 109.02 59.513 108.166 62.6072C108.798 62.654 109.453 62.7183 110.055 62.7827V50.6926Z" fill="#F55959"/>
<path d="M30.0028 46.6744C30.1607 46.5515 30.3187 46.4345 30.4708 46.3234C30.3128 46.1479 30.0906 45.8555 30.0028 45.5104V46.6744Z" fill="#F55959"/>
<path d="M30.8042 48.8151C30.5527 48.9204 30.2894 49.0315 30.0028 49.1427V61.1099H30.8042V48.8151Z" fill="#F55959"/>
<path d="M30.8042 40.2813V39.5443C30.7048 39.3688 30.6346 39.129 30.6814 38.8073C30.4883 38.6903 30.2602 38.5032 30.0028 38.2399V44.9255C30.073 44.6857 30.2368 44.4692 30.4591 44.2645C30.2719 44.013 29.9853 43.5509 30.0555 43.0713C30.0906 42.7964 30.2368 42.5683 30.4591 42.3577C30.307 42.1062 30.0087 41.5739 30.1432 41.0534C30.2251 40.7317 30.4591 40.4802 30.8042 40.2813Z" fill="#F55959"/>
<path d="M110.863 44.9898V45.3057C110.95 45.3642 111.021 45.4226 111.073 45.4811C111.214 45.6332 111.372 45.8906 111.354 46.2942C111.448 46.3351 111.553 46.3936 111.664 46.4638V37.8481C111.401 38.1171 111.126 38.3862 110.863 38.6318V38.9886C111.073 39.2109 111.301 39.5326 111.325 39.9128C111.342 40.2462 111.196 40.5503 110.933 40.8486C111.149 41.0768 111.489 41.4979 111.477 41.9892C111.471 42.2583 111.36 42.5098 111.161 42.7379C111.342 42.9719 111.699 43.469 111.629 44.0013C111.576 44.3991 111.295 44.7091 110.863 44.9898Z" fill="#F55959"/>
<path d="M111.664 85.9569V64.3971C111.436 64.4556 111.161 64.5083 110.863 64.5668V85.6586L110.67 85.8868L71.4418 131.796L70.8334 132.51L70.2192 131.796L30.9972 85.8868L30.8042 85.6586V62.9583C30.5351 62.8705 30.2602 62.7711 30.0028 62.6717V85.9569L30.3889 86.4073L70.8334 133.75L111.278 86.4073L111.664 85.9569Z" fill="#F55959"/>
<path d="M111.664 48.8093L110.863 48.4466V62.8764C111.161 62.9115 111.436 62.9466 111.664 62.9758V48.8093Z" fill="#F55959"/>
<path d="M30.8042 8.68441L31.0265 8.45045L37.8589 1.30284L38.0929 1.05133H103.568L110.634 8.45045L110.863 8.68441V35.9178C111.114 35.7892 111.383 35.6488 111.664 35.5026V8.36271L111.219 7.89478L104.387 0.747174L103.913 0.25H37.7536L37.2739 0.747174L30.4474 7.89478L30.0028 8.36271V35.8652L30.8042 36.3507V8.68441Z" fill="#F55959"/>
<path d="M99.0169 83.313C100.427 79.2946 99.0169 77.3176 99.0169 77.3176C99.0169 77.3176 91.6698 77.1188 90.1606 78.1424C90.4121 77.926 93.3252 75.4869 95.1562 72.7904C94.6648 73.4163 90.6051 78.4582 85.9547 79.359C83.761 79.786 81.854 79.979 80.415 80.0609C78.8356 80.1545 77.3791 80.8798 76.3027 82.0379C75.7002 82.693 74.8403 83.3013 73.6762 83.4885C70.8508 83.9505 70.2249 83.9388 67.4229 83.4885C66.2998 83.313 65.4633 82.7339 64.8608 82.1022C63.7377 80.9324 62.2635 80.1545 60.6432 80.0375C59.3621 79.9439 57.6833 79.7509 55.6768 79.359C50.8684 78.429 46.2004 73.0771 45.9079 72.7437C47.733 75.4576 50.6754 77.926 50.9328 78.1424C49.4236 77.1188 42.0764 77.3176 42.0764 77.3176C42.0764 77.3176 40.6666 79.2946 42.0764 83.313C42.5561 87.8109 61.158 88.6532 61.7956 85.1905C62.2577 86.647 61.1697 87.9338 60.9415 88.1853C64.7848 84.6934 61.9067 80.9675 61.9067 80.9675C63.2463 81.0377 63.5505 81.2073 64.0945 81.7922C64.6327 82.3596 66.6098 83.9154 66.6098 83.9154C66.5104 84.5413 65.4575 86.3955 65.4575 86.3955C67.5575 83.5703 73.5534 83.6815 75.6417 86.3955C75.6417 86.3955 74.5829 84.5413 74.4835 83.9154C74.4835 83.9154 76.835 82.0203 77.227 81.6811C77.6598 81.3009 77.847 81.0377 79.1925 80.9675C79.1925 80.9675 76.3086 84.6934 80.1518 88.1853C79.9295 87.9338 78.8415 86.647 79.3036 85.1905C80.8889 89.1094 98.9877 87.2553 99.0169 83.313ZM54.5245 83.582C52.3191 83.5645 50.1899 81.3477 50.8509 78.8501C51.2136 78.8735 52.1846 79.2654 53.6763 80.2539C54.7877 80.985 56.5367 81.5173 57.9407 81.4296C57.3264 82.6988 56.0337 83.582 54.5245 83.582ZM86.5513 83.582C85.048 83.582 83.7493 82.6988 83.1351 81.4296C84.539 81.5173 86.2939 80.985 87.4054 80.2539C88.897 79.2654 89.8681 78.8735 90.2307 78.8501C90.8567 80.909 89.0199 83.6347 86.5513 83.582Z" fill="#F55959"/>
<path d="M78.315 97.6608C78.7186 96.3857 76.408 96.9414 74.8988 96.1225C73.9863 95.6254 72.6935 94.5725 71.816 94.0636C71.2428 93.7302 70.845 94.6544 70.845 94.6544C70.845 94.6544 70.4472 93.7302 69.874 94.0636C68.9965 94.5784 67.7037 95.6312 66.7912 96.1225C65.282 96.9414 62.9714 96.3857 63.375 97.6608C63.5271 98.1405 64.1647 98.2633 65.0772 99.0237C71.7049 106.025 73.2492 101.416 78.315 97.6608Z" fill="#F55959"/>
<path d="M63.9366 100.574C64.6093 100.708 66.1711 102.048 67.6686 103.188C69.1662 104.329 70.8509 103.972 70.8509 103.972C70.8509 103.972 69.6224 103.867 67.9904 102.434C66.3583 101.007 63.9366 100.58 63.9366 100.58V100.574Z" fill="#F55959"/>
<path d="M70.845 103.966C70.845 103.966 72.5297 104.323 74.0272 103.182C75.5247 102.042 77.0866 100.702 77.7593 100.568C77.5078 99.9361 71.2369 104.177 70.845 103.96V103.966Z" fill="#F55959"/>
<path d="M51.5177 89.5423C46.8614 89.3434 44.6853 87.8694 44.2174 88.004C42.0881 92.7827 57.9641 92.8353 58.0167 93.4612C58.4203 93.3617 58.5549 90.8466 58.1863 90.1798C57.8178 89.5072 56.1741 89.747 51.5177 89.5423Z" fill="#F55959"/>
<path d="M84.1471 93.1278C84.1471 93.1278 86.2881 91.8527 87.1597 91.7883C88.0313 91.724 88.0664 91.0163 87.6277 90.7297C87.1948 90.4489 86.0541 91.0514 84.1413 93.1278H84.1471Z" fill="#F55959"/>
<path d="M33.2902 37.0936C34.4542 31.1041 36.9169 26.3254 40.1401 22.5469C39.9646 22.4884 39.7774 22.4182 39.5844 22.348C36.0161 26.5301 33.6938 31.5487 32.635 37.3685C32.8339 37.2808 33.0503 37.1872 33.2902 37.0936Z" fill="#F55959"/>
<path d="M32.0091 48.3005C32.1846 53.3307 32.7754 57.4193 33.5359 60.7006C33.6704 60.5134 33.8225 60.3204 33.998 60.104C33.2843 56.8753 32.7403 52.8979 32.5882 48.0315C32.4127 48.1192 32.2197 48.2128 32.0091 48.3005Z" fill="#F55959"/>
<path d="M48.7099 15.4929C54.0623 12.3928 60.0114 10.7492 65.3287 10.0941C65.241 9.93622 65.1474 9.76075 65.0421 9.57358C60.4618 10.1819 54.1442 11.6734 48.1249 15.2414C48.3121 15.3232 48.511 15.4051 48.7099 15.4929Z" fill="#F55959"/>
<path d="M76.291 10.0824C81.152 10.6732 86.5513 12.0945 91.5469 14.6974C91.5644 14.6857 91.5761 14.6857 91.5937 14.6798C91.6171 14.5278 91.6405 14.364 91.6639 14.1885C85.9429 11.2113 80.1517 9.98301 75.9926 9.48584C76.0862 9.66716 76.1857 9.86603 76.291 10.0824Z" fill="#F55959"/>
<path d="M108.985 36.9766C107.721 30.4373 104.849 24.9216 100.397 20.488C100.362 20.681 100.316 20.8857 100.263 21.1197C104.159 25.1439 107.154 30.4373 108.447 37.3042C108.61 37.2048 108.786 37.0936 108.985 36.9766Z" fill="#F55959"/>
<path d="M109.102 48.2303C108.903 54.2958 108.101 58.981 107.113 62.5431C107.3 62.5489 107.499 62.5606 107.704 62.5723C108.71 58.9108 109.517 54.1028 109.698 47.8969H109.693C109.517 47.9964 109.318 48.1133 109.102 48.2303Z" fill="#F55959"/>
<path d="M29.096 61.6891C29.096 61.6891 29.482 61.8529 30.0027 62.0518C30.2483 62.1453 30.5233 62.2448 30.8041 62.3384C31.079 62.4378 31.3598 62.5255 31.6113 62.5957C31.8804 62.6308 31.6581 62.6835 32.4829 62.701C32.6233 62.6484 32.752 62.5606 32.8631 62.4553C33.1615 62.1687 33.3019 61.7651 33.0328 61.7242C33.0269 61.7184 33.0152 61.7183 33.0035 61.7183L31.6113 61.7067H30.8041L30.0027 61.695H29.096V61.6891Z" fill="#F55959"/>
<path d="M111.664 47.1775C111.371 46.9435 111.12 46.7856 110.974 46.7739H110.921C110.921 46.7739 110.88 46.7739 110.862 46.7797C110.751 46.7856 110.634 46.809 110.529 46.8499C110.465 46.8733 110.4 46.9026 110.342 46.9377C110.295 46.9552 110.248 46.9845 110.213 47.0137C110.143 47.0605 110.09 47.1131 110.055 47.1658C109.979 47.2652 109.967 47.3646 110.055 47.4348C110.055 47.4348 110.059 47.4387 110.067 47.4465H110.073C110.073 47.4465 110.09 47.4582 110.102 47.4641L110.196 47.505L110.862 47.8092L111.664 48.1718L113.653 49.0667C113.559 48.9673 112.459 47.8092 111.664 47.1775Z" fill="#F55959"/>
<path d="M110.862 63.9761C111.167 63.9118 111.436 63.8533 111.664 63.8065C112.067 63.7129 112.325 63.6544 112.325 63.6544C112.325 63.6544 112.073 63.6193 111.664 63.5667C111.442 63.5374 111.167 63.5023 110.862 63.4672C110.617 63.4321 110.342 63.4029 110.055 63.3736C109.406 63.2976 108.681 63.2274 108.002 63.1806C107.844 63.1689 107.692 63.1572 107.54 63.1514C107.335 63.1338 107.136 63.128 106.949 63.1221C106.592 63.1104 105.592 63.0695 105.229 63.3093C104.984 63.6135 105.054 63.9001 105.323 64.1282C105.574 64.3387 105.996 64.5025 106.487 64.5844C106.499 64.5844 106.51 64.5903 106.522 64.5903C106.621 64.5903 106.586 64.6195 107.095 64.5961C107.242 64.5903 107.405 64.5727 107.581 64.5493C107.657 64.5435 107.739 64.5318 107.821 64.5201C108.499 64.4323 109.312 64.2861 110.055 64.1399C110.336 64.0814 110.611 64.0287 110.862 63.9761Z" fill="#F55959"/>
<path d="M99.5434 18.3589C99.4849 18.3589 99.4322 18.3706 99.3737 18.3882H99.3679C99.2918 18.4174 99.2216 18.4642 99.1514 18.5286C99.0227 18.6397 98.8999 18.7976 98.7946 18.9965C98.7127 19.1486 98.6367 19.3182 98.5782 19.5054C98.5548 19.5638 98.5372 19.6282 98.5197 19.6925C98.4612 19.9089 98.4085 20.3418 98.3617 20.8857C98.1979 22.9388 98.1277 26.6296 98.1277 26.6296C98.1277 26.6296 99.2275 23.1084 99.7481 20.7103C99.7598 20.681 99.7656 20.6518 99.7656 20.6225C99.8183 20.4003 99.8592 20.1897 99.8943 19.9967C99.9411 19.7335 99.9762 19.4995 99.9996 19.2948C100.017 19.1661 100.023 19.0491 100.023 18.9497C100.029 18.7508 100.005 18.6163 99.947 18.5578C99.8124 18.4174 99.6779 18.3589 99.5434 18.3589Z" fill="#F55959"/>
<path d="M97.3673 16.4755H97.3381C97.2913 16.4755 97.2269 16.4814 97.1743 16.5048C97.0807 16.534 96.9871 16.6042 96.9403 16.7446C96.9052 17.0136 96.8993 17.1657 97.2854 17.5167C97.3088 17.581 97.3147 17.6278 97.2796 17.7565C97.2503 17.8618 97.1977 18.0138 97.0924 18.2712C97.0397 18.4174 96.9695 18.5987 96.8818 18.8269C96.4489 19.9323 97.0748 20.2423 97.1509 20.2774C97.2269 20.3008 97.2152 20.371 97.5603 20.3652C97.847 20.2716 97.8704 20.1195 97.7651 19.8739C97.73 19.792 97.8528 19.4469 98.0049 19.014C98.0634 18.8503 98.1278 18.6689 98.1863 18.4818C98.2564 18.277 98.315 18.0665 98.3617 17.8618C98.3851 17.7623 98.4027 17.6687 98.4202 17.5752C98.4787 17.2242 98.467 16.9259 98.3266 16.7621C98.0868 16.4872 97.5018 16.4872 97.3673 16.4755Z" fill="#F55959"/>
<path d="M46.1594 14.9606C46.2296 14.9197 46.5396 15.3525 46.9082 14.9489C46.9082 14.9372 46.9082 14.9255 46.9023 14.9138L45.9781 11.1236C45.9781 11.1236 45.5101 14.1944 45.826 14.6564C45.9079 14.7793 46.0307 14.8846 46.1594 14.9606Z" fill="#F55959"/>
<path d="M45.3287 15.6274C45.358 15.8146 45.4867 16.0134 45.6914 16.2006C45.8084 16.3117 45.9547 16.4229 46.1185 16.5223C46.2179 16.5867 46.329 16.6451 46.446 16.7036C46.4987 16.727 46.5572 16.7563 46.6391 16.7855H46.6449C46.8731 16.8733 47.2006 16.9727 47.5984 17.078C49.5931 17.6219 53.1965 18.3648 53.1965 18.3648C53.1965 18.3648 50.3185 16.8382 48.0898 15.8614H48.0839C47.9435 15.797 47.8149 15.7385 47.6803 15.68C47.6218 15.6566 47.5692 15.6333 47.5165 15.6099C47.3059 15.5221 47.107 15.4461 46.9257 15.3759C46.5513 15.2355 46.2354 15.1361 45.9956 15.0893C45.9254 15.101 45.8845 15.0191 45.592 15.0951C45.3697 15.2414 45.2937 15.4285 45.3287 15.6274Z" fill="#F55959"/>
<path d="M35.2206 67.585C35.2206 67.585 35.2673 67.6026 35.2907 67.6084C35.3024 67.6201 35.3141 67.626 35.3258 67.626C35.3902 67.6084 35.4077 67.7546 35.747 67.5792C35.8055 67.5382 35.8582 67.4622 35.8933 67.351C35.9635 67.1522 35.9693 66.8129 35.8055 66.7427C35.788 66.6784 35.7587 66.6141 35.8874 66.3976C35.981 66.228 36.174 65.959 36.5309 65.5086C36.7356 65.2629 37.1743 64.4967 36.6888 64.0404C36.642 63.9586 36.0278 63.6661 36.0161 64.2744C36.0278 64.3797 35.747 64.7248 35.4194 65.1518C35.2849 65.3273 35.1387 65.5203 35.0041 65.7133C34.893 65.8771 34.7877 66.035 34.7058 66.1929C34.6824 66.2339 34.659 66.2748 34.6414 66.3158C34.4952 66.6082 34.4308 66.8656 34.5069 67.0527C34.6239 67.3335 35.0158 67.509 35.2206 67.585Z" fill="#F55959"/>
<path d="M36.098 69.2871C36.2033 69.3222 36.2852 69.3456 36.3261 69.3573L36.3788 69.3748C36.4139 69.369 36.4197 69.4099 36.6069 69.3631C36.7181 69.3339 36.8234 69.2403 36.876 69.0414C36.9345 68.8075 36.8818 68.4799 36.6771 68.4273C36.6479 68.3863 36.5894 68.3512 36.6596 68.1699C36.7239 67.9944 36.8935 67.6844 37.2972 67.1112C37.8704 66.3041 37.5897 65.8537 37.4434 65.7016C37.4434 65.6958 37.4376 65.6957 37.4376 65.6899C37.4025 65.6548 37.3732 65.6373 37.3732 65.6373C37.2913 65.5788 37.2036 65.5378 37.1158 65.5378H37.0983C36.7941 65.5671 36.7356 65.7074 36.7707 65.9648C36.7883 66.0759 36.4782 66.5146 36.1448 67.0235C36.022 67.2224 35.8874 67.4329 35.7763 67.6435C35.6768 67.819 35.5891 67.9944 35.5364 68.1582C35.5247 68.1816 35.5189 68.1992 35.513 68.2167C35.4194 68.4682 35.3902 68.6905 35.4721 68.8484C35.5832 69.0707 35.8816 69.2111 36.098 69.2871Z" fill="#F55959"/>
<path d="M37.2562 71.2407C38.2507 69.8954 39.1866 68.5092 39.0638 68.1582C38.9526 67.9886 38.859 67.6727 38.3209 67.8131C37.9991 67.9126 37.6306 68.1992 37.2972 68.5911C37.227 68.6788 37.1451 68.8016 37.0573 68.9596C36.9637 69.1409 36.8526 69.3573 36.7415 69.6088C36.7239 69.6497 36.7064 69.6907 36.683 69.7316C36.6362 69.8428 36.5835 69.9597 36.5309 70.0767C35.864 71.6618 35.1153 73.8786 35.0743 74.0249C35.1679 73.9079 36.2442 72.5977 37.2562 71.2407Z" fill="#F55959"/>
<path d="M42.4624 17.581C42.3103 17.581 42.1875 17.6102 42.0998 17.6804C41.8599 17.8618 41.7839 18.2887 41.7546 18.5052C41.7488 18.552 41.7488 18.587 41.7429 18.6104C41.7195 18.745 41.7429 19.014 42.0646 19.0842C42.088 19.0901 42.1173 19.0959 42.1465 19.0959H42.1992C42.4098 19.0959 42.714 19.0082 42.7315 18.8444C42.8485 18.8152 42.8134 18.7742 43.0825 18.8444C43.2053 18.8854 43.3808 18.9497 43.6382 19.055C43.7669 19.1135 43.919 19.1778 44.0945 19.2597C44.3285 19.4703 45.4282 19.5346 45.5569 19.0608H45.551C45.6329 18.9438 45.6622 18.8152 45.6388 18.7099C45.5744 18.6163 45.6212 18.435 45.1591 18.4642C45.0246 18.4818 45.165 18.4759 44.5859 18.2829C44.4221 18.2127 44.2407 18.1308 44.0418 18.0489C43.8722 17.9729 43.6909 17.9027 43.5154 17.8325C43.2814 17.7506 43.0532 17.6746 42.8427 17.6278C42.7081 17.5985 42.5794 17.581 42.4624 17.581Z" fill="#F55959"/>
<path d="M34.3256 65.9999C34.3724 66.0233 34.4367 66.0525 34.5186 66.0525C34.5712 66.0584 34.542 66.0642 34.6473 66.0467C34.7467 66.0174 34.8462 65.9473 34.9222 65.7893C34.9456 65.7425 34.9632 65.684 34.969 65.6256C35.0041 65.4267 34.969 65.2044 34.8403 65.1401C34.852 65.0289 34.8813 64.9471 35.2264 64.5903C35.3492 64.4616 35.5189 64.292 35.7529 64.0697C36.6069 63.245 36.1682 62.701 36.1097 62.6367C36.0337 62.4963 35.905 62.3969 35.7821 62.3852C35.5891 62.3793 35.4721 62.3735 35.3843 62.7419C35.3843 62.8297 35.1504 63.0753 34.8462 63.3853C34.7058 63.5374 34.542 63.707 34.3841 63.8825C34.2612 64.0171 34.1442 64.1516 34.0331 64.2861C33.9629 64.3797 33.8927 64.4733 33.8342 64.561C33.6353 64.8535 33.5183 65.1342 33.5768 65.3389C33.6762 65.6899 34.2086 65.9356 34.3256 65.9999Z" fill="#F55959"/>
<path d="M35.4721 19.9323C35.4721 19.9323 37.6482 20.9618 39.52 21.6929C39.6838 21.7573 39.8418 21.8158 39.9939 21.8742C40.1869 21.9444 40.38 22.0146 40.5554 22.0731C41.0059 22.1784 41.585 22.4884 42.1407 22.3714C42.4683 22.155 42.4858 21.8625 42.2928 21.5642C42.1582 21.3478 41.9184 21.1314 41.6084 20.9384C41.5089 20.874 41.3978 20.8156 41.2866 20.7629C41.234 20.7395 41.1755 20.7161 41.1053 20.6869C40.9591 20.6401 40.7777 20.5933 40.5613 20.5465C40.3975 20.5114 40.222 20.4822 40.029 20.4471C38.2624 20.1429 35.4721 19.9323 35.4721 19.9323Z" fill="#F55959"/>
<path d="M96.0511 15.4051C95.9926 15.4051 95.94 15.4051 95.8932 15.411H95.782C95.6709 15.4227 95.472 15.4695 95.4018 15.6625C95.3784 15.7268 95.3667 15.8029 95.3784 15.9023C95.4018 16.1129 95.5597 16.4638 95.7352 16.4638H95.7411C95.7762 16.5048 95.8113 16.534 95.8054 16.6744C95.7996 16.7797 95.7762 16.9493 95.7118 17.2359C95.6826 17.3997 95.6358 17.5985 95.5714 17.8442C95.2731 19.0725 96.0394 19.248 96.0394 19.248C96.1038 19.2421 96.1213 19.324 96.4021 19.2597C96.677 19.131 96.6829 18.9789 96.5542 18.7508C96.5132 18.6748 96.5834 18.3531 96.677 17.9436C96.718 17.774 96.7589 17.5869 96.7999 17.3938C96.8467 17.1716 96.8876 16.9434 96.9169 16.7212C96.9344 16.5808 96.9461 16.4463 96.952 16.3176C96.9578 15.9959 96.911 15.7268 96.7648 15.5923C96.5893 15.4344 96.2793 15.4051 96.0511 15.4051Z" fill="#F55959"/>
<path d="M95.1386 14.3698C95.0333 14.3114 94.8636 14.1944 94.1441 14.2587C94.1324 14.2587 94.1149 14.2646 94.0973 14.2704H94.0915C93.9628 14.2997 93.7815 14.3932 93.7698 14.6389C93.7698 14.6798 93.7698 14.7266 93.7815 14.7793C93.8224 15.0074 94.0154 15.2999 94.2143 15.2999H94.2436C94.3021 15.3291 94.3781 15.3174 94.3489 15.7151C94.3372 15.8497 94.3196 16.031 94.2787 16.2767C94.2611 16.4053 94.2319 16.5457 94.2026 16.7095C94.0213 17.6863 94.46 17.9729 94.6589 18.0548H94.6706C94.7174 18.0723 94.7525 18.0782 94.7525 18.0782C94.811 18.0782 94.8168 18.1191 95.045 18.0548C95.3082 17.9027 95.3024 17.7506 95.162 17.5284C95.121 17.464 95.1503 17.2184 95.1971 16.8791C95.2263 16.7095 95.2556 16.5165 95.2848 16.3176C95.3199 16.0895 95.3433 15.8555 95.3609 15.6333C95.3784 15.3934 95.3843 15.1595 95.3667 14.9606C95.3433 14.6915 95.279 14.4751 95.1386 14.3698Z" fill="#F55959"/>
<path d="M30.8041 48.1718C31.0439 48.0724 31.2837 47.973 31.5177 47.8677C31.5528 47.856 31.5821 47.8384 31.6113 47.8267C31.74 47.7741 31.8687 47.7156 31.9915 47.6571C32.1963 47.5635 32.3893 47.4758 32.5707 47.388C33.3662 47.002 33.9395 46.6511 33.9863 46.4288C34.0623 46.0428 33.8693 45.8263 33.5242 45.7503C33.1439 45.7152 33.296 45.6743 32.5473 45.8088C32.4478 45.8322 32.3484 45.8614 32.2431 45.8965C32.167 45.9258 32.0734 45.9667 31.9623 46.0311C31.857 46.0837 31.74 46.1539 31.6113 46.2416C31.5704 46.2709 31.5294 46.2943 31.4826 46.3294C31.3715 46.3937 31.2545 46.4756 31.1316 46.5633C31.0263 46.6394 30.9152 46.7212 30.8041 46.8031C30.5467 46.9903 30.2717 47.2009 30.0027 47.4114C28.8503 48.3181 27.7037 49.3007 27.5634 49.4235C27.692 49.3767 28.7684 48.9907 30.0027 48.4994C30.2659 48.3941 30.535 48.283 30.8041 48.1718Z" fill="#F55959"/>
<path d="M110.862 36.6023C110.599 36.7485 110.324 36.8948 110.055 37.0468C109.891 37.1404 109.728 37.234 109.57 37.3276C109.412 37.4212 109.254 37.5089 109.102 37.6025C108.915 37.7136 108.733 37.8248 108.564 37.9359C107.768 38.4389 107.189 38.8834 107.171 39.1174C107.142 39.5093 107.364 39.7023 107.715 39.7374C108.031 39.7491 108.09 39.7433 108.798 39.5093C108.856 39.4918 108.909 39.4684 108.967 39.4391C109.067 39.3865 109.195 39.3046 109.347 39.1876C109.482 39.0882 109.634 38.9595 109.804 38.8133C109.868 38.7606 109.932 38.7021 109.997 38.6436C110.014 38.6261 110.038 38.6085 110.055 38.5851C110.313 38.357 110.588 38.0938 110.862 37.8189C111.132 37.5557 111.401 37.2808 111.664 37.0117C112.459 36.187 113.126 35.4617 113.202 35.3798C113.126 35.4149 112.495 35.7308 111.664 36.1695C111.412 36.304 111.143 36.4502 110.862 36.6023Z" fill="#F55959"/>
<path d="M30.8041 38.1874C30.9328 38.2927 31.038 38.3629 31.1199 38.3746C31.2135 38.3746 31.2018 38.4214 31.5704 38.357C31.5821 38.3512 31.5996 38.3512 31.6113 38.3453C31.7634 38.3044 31.9038 38.24 32.0032 38.164C32.1495 38.0529 32.2138 37.9183 32.0968 37.8189C32.091 37.8131 32.0793 37.8014 32.0676 37.7955L31.6113 37.5206L30.8041 37.0293L30.0027 36.5438L28.7333 35.7776C28.7976 35.8653 29.4001 36.6725 30.0027 37.3685C30.2893 37.7019 30.5759 38.0061 30.8041 38.1874Z" fill="#F55959"/>
<path d="M30.7105 41.1997C30.6637 41.3752 30.7222 41.5857 30.8041 41.7612C30.8801 41.9425 30.9795 42.0888 31.0146 42.1473C31.0439 42.194 31.0907 42.2525 31.155 42.2993C31.2135 42.2993 31.2194 42.4339 31.5528 42.3169C31.5704 42.3052 31.5938 42.2935 31.6113 42.2818C31.6172 42.2818 31.6289 42.2759 31.6347 42.2701C31.8219 42.1472 31.933 41.7612 31.8278 41.5974C31.8687 41.5389 31.9272 41.5097 32.1027 41.4746C32.2314 41.4395 32.4186 41.4044 32.7052 41.3401C32.8514 41.305 33.0269 41.2699 33.2317 41.2172C34.3899 40.9482 34.2846 40.258 34.2671 40.1761C34.2729 40.0123 34.2144 39.8661 34.115 39.7901C33.9336 39.7374 33.8868 39.5444 33.5943 39.8953C33.5417 39.9714 33.2258 40.0591 32.8163 40.1644C32.6292 40.217 32.4186 40.2755 32.208 40.3399C32.0325 40.3867 31.8628 40.4452 31.6991 40.5095C31.6698 40.5154 31.6406 40.527 31.6113 40.5387C31.5119 40.5797 31.4183 40.6148 31.3305 40.6616H31.3247C31.0965 40.7727 30.9094 40.8897 30.8041 41.0242C30.7573 41.0827 30.728 41.1412 30.7105 41.1997Z" fill="#F55959"/>
<path d="M91.8277 15.2238C91.8277 15.2238 91.775 15.2297 91.7399 15.2414L88.1833 16.8499C88.1833 16.8499 91.2895 16.7446 91.6873 16.3527C92.05 15.99 92.126 15.2238 91.8277 15.2238Z" fill="#F55959"/>
<path d="M92.9859 16.5048C93.1614 16.341 93.3193 16.0778 93.448 15.7619C93.5007 15.6391 93.5416 15.5046 93.5826 15.3642C93.5884 15.3349 93.6001 15.2998 93.6001 15.2589C93.6411 15.0893 93.6586 14.8553 93.6586 14.5746C93.6645 14.4166 93.6645 14.247 93.6586 14.0657C93.6352 12.27 93.331 9.49169 93.331 9.49169C93.331 9.49169 92.711 11.8489 92.3366 13.8317C92.2898 14.054 92.2547 14.2704 92.2196 14.481C92.1903 14.6681 92.1611 14.8436 92.1377 15.0132C92.0383 15.7795 92.0207 16.3527 92.1611 16.4989C92.3015 16.4989 92.3249 16.9142 92.9859 16.5048Z" fill="#F55959"/>
<path d="M107.838 37.9768L104.293 36.3683C104.416 36.5029 106.434 38.6319 106.972 38.667H107.025C107.569 38.667 108.207 38.164 107.838 37.9768Z" fill="#F55959"/>
<path d="M66.563 11.5798C66.5923 11.3751 66.37 10.3749 65.9254 10.6732L64.1295 14.1242C64.2699 14.0072 66.4987 12.1121 66.563 11.5798Z" fill="#F55959"/>
<path d="M106.054 63.0578C106.335 63.0578 106.54 62.9467 106.428 62.7478L104.422 59.4021C104.422 59.4021 104.884 62.4729 105.323 62.818C105.522 62.9759 105.814 63.0578 106.054 63.0578Z" fill="#F55959"/>
<path d="M106.241 68.0003C106.434 67.9593 106.586 67.8833 106.668 67.7722C106.844 67.5265 106.785 67.0937 106.75 66.8831C106.744 66.8597 106.744 66.8363 106.744 66.8246C106.744 66.8012 106.733 66.7895 106.733 66.7778C106.709 66.6667 106.639 66.4737 106.434 66.4327C106.393 66.4327 106.405 66.4093 106.2 66.4327C105.99 66.4795 105.668 66.5907 105.697 66.7661C105.68 66.7778 105.668 66.7954 105.65 66.8129C105.387 66.9416 105.141 66.9475 104.293 66.8539C103.866 66.7018 102.778 67.2107 102.954 67.4797H102.96C102.919 67.6143 102.924 67.7488 102.983 67.8424C103.082 67.8716 103.041 68.1641 103.509 67.9301C103.931 67.8775 103.936 67.9301 105.101 68.0354C105.247 68.0412 105.165 68.0529 105.744 68.0529C105.82 68.0529 105.896 68.0529 105.966 68.0471C106.066 68.0354 106.159 68.0237 106.241 68.0003Z" fill="#F55959"/>
<path d="M102.895 71.8373L103.369 72.6211L103.755 73.2703L104.908 75.183C104.908 75.183 104.896 75.1128 104.878 74.9958C104.878 74.99 104.878 74.9841 104.878 74.9783C104.773 74.3115 104.404 72.2 104.048 71.8022C104.036 71.7847 104.024 71.7788 104.013 71.7671C103.896 71.6735 103.749 71.6092 103.597 71.5741C103.515 71.5682 102.965 71.4103 102.889 71.8081C102.889 71.8198 102.895 71.8256 102.901 71.8373H102.895Z" fill="#F55959"/>
<path d="M41.0527 22.3246C40.9006 22.3246 40.8011 22.3948 40.8304 22.5469L41.7605 26.343C41.7605 26.343 42.2284 23.2663 41.9126 22.8101C41.7137 22.5176 41.3042 22.3246 41.0527 22.3246Z" fill="#F55959"/>
<path d="M33.1907 47.4816L36.525 49.4996C36.4139 49.3533 34.6648 46.9962 34.1384 46.9026C33.7698 46.8382 33.1088 47.043 33.1907 47.4816Z" fill="#F55959"/>
<path d="M38.9175 69.4743L42.8251 69.5035C42.7374 69.4918 40.339 68.4156 39.4381 68.4858C38.9117 68.6788 38.4964 69.4509 38.9175 69.4743Z" fill="#F55959"/>
<path d="M109.02 47.5986H109.026C109.061 47.5811 109.09 47.5635 109.119 47.546C109.336 47.429 109.535 47.312 109.716 47.2009C109.839 47.1248 109.95 47.0547 110.055 46.9903C110.114 46.9494 110.166 46.9143 110.213 46.8792C110.336 46.7914 110.441 46.7154 110.523 46.6452C110.675 46.5165 110.763 46.4054 110.769 46.3235C110.792 46.0545 110.693 45.8731 110.511 45.7854C110.482 45.7678 110.453 45.7561 110.418 45.7444C110.394 45.7327 110.371 45.7269 110.348 45.7211C110.307 45.7094 110.266 45.7035 110.225 45.6977C110.196 45.6977 110.19 45.686 110.055 45.6977C109.956 45.6977 109.85 45.7094 109.733 45.7386C109.552 45.7737 109.353 45.838 109.148 45.9258C109.09 45.9492 109.037 45.9726 108.979 46.0018C108.774 46.1012 108.417 46.3469 107.973 46.6745C106.382 47.856 103.72 50.102 103.515 50.2834C103.714 50.1956 106.937 48.7567 109.02 47.5986Z" fill="#F55959"/>
<path d="M33.9336 61.1568C33.8576 61.2563 33.7874 61.3557 33.7172 61.4493C33.5885 61.6248 33.4657 61.7944 33.3662 61.9523C33.179 62.2214 33.0386 62.4553 32.9509 62.6425C32.8631 62.8238 32.828 62.9584 32.8573 63.0344C32.945 63.2859 33.1088 63.4087 33.3077 63.4204C33.4891 63.4321 33.3194 63.4321 33.7406 63.3269C33.8693 63.2684 34.0097 63.1806 34.1442 63.0695C34.3022 62.9467 34.4659 62.7829 34.618 62.6016H34.6239C34.7701 62.4261 34.9983 62.0518 35.2673 61.5721C36.2501 59.8349 37.7827 56.6647 37.8763 56.4717C37.7125 56.653 35.6008 58.9985 34.1676 60.8527C34.0857 60.958 34.0097 61.0574 33.9336 61.1568Z" fill="#F55959"/>
<path d="M104.943 69.6497C105.182 69.6614 104.989 69.6614 105.44 69.5971C105.545 69.5737 105.627 69.5269 105.686 69.4626C105.843 69.2929 105.873 68.9946 105.873 68.7665C105.849 68.6378 105.925 68.6905 105.808 68.2811C105.785 68.2284 105.75 68.1816 105.697 68.1524C105.662 68.129 105.645 68.0997 105.37 68.0822C105.264 68.0939 105.141 68.1231 105.036 68.1758C104.913 68.2343 104.82 68.3161 104.826 68.4214C104.445 68.5267 104.428 68.4799 103.468 68.2694C103.316 68.1231 102.059 68.2284 102.065 68.7022C101.983 68.8426 101.965 69.0063 102.018 69.1175C102.106 69.1701 102.059 69.4333 102.527 69.2696C102.837 69.2403 103.182 69.3748 104.305 69.5854C104.51 69.6205 104.709 69.6439 104.89 69.6497C104.907 69.6556 104.925 69.6556 104.943 69.6497Z" fill="#F55959"/>
<path d="M75.3784 9.02961C75.4252 9.02961 75.4662 9.00621 75.5013 8.95942C75.513 8.95942 75.5188 8.94187 75.5247 8.93017L75.6124 8.7547L77.3205 5.47335C77.1801 5.59034 74.9456 7.48545 74.8812 8.02356C74.8637 8.16979 74.8871 8.32772 74.928 8.47394C74.9514 8.54998 74.9865 8.62602 75.0216 8.69621C75.1269 8.88923 75.2614 9.02961 75.3784 9.02961Z" fill="#F55959"/>
<path d="M66.7092 8.55583C65.6154 7.21054 63.7493 5.29788 63.6265 5.17505C63.6791 5.30958 64.5098 7.22224 65.358 8.88923C65.4633 9.09395 65.5686 9.29867 65.6739 9.49169C65.7733 9.67301 65.8669 9.84848 65.9663 10.0181C66.4051 10.8019 66.8028 11.3693 67.0251 11.3985C67.3059 11.4043 67.4463 11.4102 67.6744 10.8955C67.7212 10.6206 67.6686 10.2638 67.534 9.87188C67.5106 9.78999 67.4814 9.70811 67.4463 9.62622C67.4112 9.54433 67.3527 9.43905 67.2825 9.32206C67.1655 9.15244 67.0134 8.94187 66.8379 8.71376C66.7911 8.66112 66.7502 8.60847 66.7092 8.55583Z" fill="#F55959"/>
<path d="M68.6045 8.20489C68.4817 8.01187 67.7388 7.65507 67.2065 8.41545C67.1948 8.42715 67.1889 8.43885 67.1772 8.45055C67.1246 8.50904 67.0778 8.59093 67.0719 8.69036C67.0602 8.79565 67.0953 8.91848 67.2357 9.04716C67.3059 9.04716 67.4112 9.29867 67.8558 9.0998C67.9728 9.09395 67.8616 9.07055 68.1307 9.25773C68.2184 9.36301 68.3354 9.53263 68.4934 9.80754C68.5694 9.94207 68.663 10.1117 68.7625 10.3047C69.0491 10.7434 69.4001 11.1996 69.9558 11.0768C69.9558 11.0709 69.9616 11.0709 69.9675 11.0709C70.0143 11.0534 70.0435 11.0417 70.0435 11.0417C70.143 10.9891 70.2249 10.9189 70.2541 10.837C70.3711 10.5562 70.1605 10.293 69.9148 10.2111C69.8447 10.1877 69.7394 10.0123 69.5931 9.7666C69.5054 9.59697 69.4001 9.3981 69.2831 9.19339C69.1544 8.97697 69.0257 8.76055 68.8853 8.56168C68.7917 8.42715 68.6981 8.31017 68.6045 8.20489Z" fill="#F55959"/>
<path d="M70.6753 8.29262C70.4881 8.03526 70.2892 7.85979 70.0845 7.84224H70.0494C69.7628 7.84224 69.4469 8.09375 69.2889 8.23413C69.248 8.26923 69.2187 8.29262 69.2012 8.31017C69.1427 8.35696 69.0725 8.43885 69.0491 8.54998C69.0257 8.66112 69.0491 8.79565 69.1895 8.94187C69.248 8.95942 69.3182 9.14659 69.7569 9.0881C69.7979 9.0998 69.8388 9.1115 69.9032 9.16999C69.9792 9.25188 70.0845 9.4098 70.26 9.74905C70.3419 9.90698 70.4355 10.1 70.5466 10.3457C70.8216 10.8311 71.1959 11.3576 71.775 11.1587C71.9096 11.1236 72.0207 11.0476 72.0675 10.9481C72.2079 10.6732 72.0032 10.4041 71.7634 10.3047C71.6932 10.2755 71.582 10.0532 71.4416 9.74905C71.3597 9.57358 71.2661 9.36886 71.1667 9.15829C71.0555 8.93017 70.9385 8.69621 70.8099 8.49734C70.7689 8.42715 70.7221 8.35696 70.6753 8.29262Z" fill="#F55959"/>
<path d="M73.413 10.4392C73.3428 10.4041 73.255 10.1468 73.1439 9.80754C73.0912 9.62622 73.0269 9.42735 72.9567 9.22263C72.8748 8.98867 72.787 8.74885 72.6876 8.53828C72.6583 8.47979 72.6349 8.42715 72.6057 8.37451C72.4419 8.06451 72.2547 7.83639 72.0383 7.79545C71.775 7.7779 71.5762 7.84224 71.1082 8.15809C71.0614 8.19319 71.0029 8.23998 70.9678 8.31017C70.9327 8.4681 70.8391 8.46225 71.0263 8.78395C71.0789 8.81319 71.1491 9.00036 71.623 8.95942C71.6756 8.99452 71.7224 9.04131 71.7867 9.16999C71.8394 9.28697 71.9096 9.46244 72.0032 9.76075C72.0558 9.91282 72.1143 10.0941 72.1787 10.3106C72.3893 10.913 72.8221 11.4219 73.2843 11.2815C73.4481 11.2757 73.5943 11.2055 73.6645 11.1002C73.8283 10.8487 73.6411 10.5679 73.413 10.4392Z" fill="#F55959"/>
<path d="M74.7233 8.46809C74.6063 8.30432 74.501 8.21073 74.4191 8.19904C74.1149 8.19904 74.3372 8.14639 73.8634 8.42715C73.8341 8.47979 73.8107 8.53243 73.7932 8.59677C73.7405 8.7781 73.7405 9.01206 73.7932 9.27527C73.8224 9.45659 73.8751 9.64961 73.957 9.85433C73.9687 9.89528 73.9862 9.93622 74.0038 9.97716C74.0915 10.1819 74.3138 10.5504 74.618 11.0125C75.7236 12.6736 77.8236 15.4578 77.9815 15.6625C77.9055 15.4578 76.6361 12.1647 75.5949 10.024C75.5949 10.0123 75.5949 10.0064 75.5949 10.0006C75.4954 9.78999 75.396 9.59697 75.3024 9.4098C75.1503 9.12904 75.0099 8.87753 74.8812 8.68451C74.8286 8.60262 74.7759 8.53243 74.7291 8.46809H74.7233Z" fill="#F55959"/>
<path d="M41.2223 18.9321C40.9357 18.9321 41.0761 18.8795 40.5964 19.055C40.3215 19.2948 40.3156 19.8797 40.3097 20.0084V20.0552C40.3156 20.2014 40.3741 20.4178 40.6607 20.4529C40.6841 20.4588 40.7134 20.4588 40.7485 20.4588C40.9064 20.4471 41.0527 20.4295 41.3159 20.102C41.3802 20.102 41.3159 19.9674 41.7312 20.0669C41.8716 20.0961 42.0588 20.1546 42.3162 20.2482C42.439 20.2891 42.5736 20.3418 42.7257 20.4003C42.8544 20.4471 43.7201 20.7571 44.1296 20.1956H44.1354C44.1647 20.1429 44.1764 20.1137 44.1764 20.1137H44.1705C44.2173 20.0084 44.229 19.9031 44.1998 19.8212C44.1237 19.7452 44.1764 19.5229 43.7084 19.6106C43.5446 19.6223 43.7142 19.6223 43.1527 19.482H43.1468C42.983 19.4235 42.7959 19.3533 42.5853 19.2831C42.4098 19.2246 42.2226 19.1603 42.0354 19.1135C41.7546 19.0257 41.4738 18.9555 41.2281 18.9321H41.2223Z" fill="#F55959"/>
<path d="M44.3519 16.417H44.346C44.1939 16.417 44.153 16.2299 43.5329 16.3585C43.2229 16.5399 43.1117 17.1189 43.0766 17.2418C43.0649 17.2944 43.0532 17.3704 43.0708 17.4465C43.0883 17.581 43.1761 17.7214 43.4276 17.7682C43.4569 17.7682 43.4627 17.7857 43.5914 17.774C43.7961 17.7623 44.0243 17.6629 44.0535 17.5167C44.2232 17.505 44.0535 17.4933 44.5157 17.6804C44.6326 17.7448 44.7847 17.8384 44.9895 17.967H44.9953C45.0889 18.0255 45.1884 18.084 45.2995 18.1542C45.5861 18.3238 46.3466 18.6982 46.7736 18.1542C46.8906 18.0431 46.955 17.8969 46.9374 17.774C46.8965 17.6336 46.9257 17.5518 46.4928 17.4757C46.3758 17.4933 46.4987 17.4816 45.9722 17.2476C45.826 17.1657 45.6563 17.0663 45.4808 16.961C45.3171 16.8733 45.1533 16.7797 44.9836 16.6978C44.7672 16.5867 44.5508 16.4872 44.3519 16.417Z" fill="#F55959"/>
<path d="M31.6113 38.5208C31.6113 38.5208 31.5704 38.5501 31.5528 38.5617C31.3832 38.6729 31.2896 38.7665 31.272 38.8484C31.2194 39.1116 31.2954 39.2987 31.4592 39.4157C31.5002 39.445 31.5528 39.4742 31.6113 39.4918C31.6698 39.5152 31.7342 39.5327 31.8044 39.5444C31.8921 39.5444 31.8745 39.5795 32.2957 39.5444C32.4888 39.5269 32.6993 39.4801 32.9158 39.4099C32.945 39.4099 32.9801 39.3923 33.0094 39.3806C33.22 39.3046 33.606 39.1057 34.0857 38.8308H34.0916C35.8289 37.8365 38.7596 35.9004 38.9409 35.7776C38.7362 35.8419 35.3609 36.8889 33.1615 37.7897H33.1556C32.9275 37.8833 32.711 37.971 32.518 38.0646H32.5122C32.3133 38.1523 32.1378 38.2342 31.9798 38.3161C31.8394 38.3863 31.7108 38.4565 31.6113 38.5208Z" fill="#F55959"/>
<path d="M34.0506 41.6735C34.0214 41.5389 33.9512 41.4278 33.8576 41.3693C33.6528 41.3284 33.6353 41.1587 33.3487 41.5331C33.3136 41.6091 33.0328 41.7261 32.6643 41.8723C32.4771 41.9484 32.2665 42.0303 32.0559 42.118C31.9038 42.1823 31.7517 42.2467 31.6113 42.3227C31.5879 42.3344 31.5645 42.3461 31.547 42.352C31.389 42.428 31.2545 42.5099 31.1258 42.5918H31.1199C30.9971 42.6737 30.886 42.7556 30.8041 42.8433C30.7105 42.9427 30.652 43.048 30.6344 43.1533C30.6052 43.3405 30.6988 43.551 30.8041 43.7265C30.8626 43.8259 30.9269 43.9195 30.9737 43.978C31.0088 44.0131 31.0322 44.0424 31.0439 44.0599C31.0731 44.0716 31.1141 44.2003 31.4826 44.2237C31.5236 44.2061 31.5645 44.1886 31.6113 44.1535C31.6289 44.1418 31.6523 44.1301 31.6698 44.1125C31.8336 43.978 31.9447 43.6154 31.8336 43.4691C31.8511 43.4224 31.8745 43.3873 31.9974 43.3229C32.1027 43.2644 32.284 43.1942 32.5941 43.0773C32.7461 43.0129 32.9333 42.9427 33.1615 42.855C33.6821 42.6035 34.1969 42.2467 34.0506 41.6735Z" fill="#F55959"/>
<path d="M31.9564 45.1244C32.0793 45.0601 32.2665 44.9665 32.5473 44.832C32.676 44.7735 32.828 44.7033 33.0035 44.6273C33.9102 44.2237 33.8985 43.6973 33.8517 43.4867C33.8517 43.4867 33.8459 43.4808 33.8459 43.475C33.8342 43.4282 33.8225 43.399 33.8225 43.399H33.8166C33.7757 43.2937 33.7113 43.2118 33.6294 43.1708C33.413 43.1416 33.4072 42.9837 33.1381 43.3697C33.1088 43.4399 32.8748 43.5627 32.5648 43.7148C32.3835 43.8025 32.1787 43.902 31.9681 44.0131C31.8511 44.0657 31.7283 44.1301 31.6113 44.1944C31.5645 44.2178 31.5236 44.2412 31.4826 44.2705C31.2662 44.3933 31.0614 44.5278 30.9035 44.6565C30.8684 44.6858 30.8333 44.715 30.8041 44.7442C30.652 44.8905 30.5584 45.0367 30.5467 45.1829C30.5291 45.3993 30.6695 45.6333 30.8041 45.8088C30.8977 45.9316 30.9854 46.0252 31.0205 46.0603C31.0205 46.072 31.038 46.0778 31.0497 46.0895C31.079 46.0895 31.1492 46.2358 31.4768 46.189C31.5236 46.1714 31.5645 46.1422 31.6113 46.1071C31.623 46.1012 31.6406 46.0837 31.6523 46.072C31.8278 45.8965 31.8687 45.5163 31.7225 45.3643C31.7225 45.3116 31.7049 45.2707 31.9564 45.1244Z" fill="#F55959"/>
<path d="M107.674 43.8435C107.715 43.9722 107.797 44.0833 107.897 44.1242C108.125 44.1535 108.113 44.3056 108.382 43.902C108.417 43.8142 108.727 43.6505 109.119 43.4341C109.301 43.3346 109.499 43.2293 109.693 43.1182C109.815 43.048 109.938 42.972 110.055 42.8959C110.096 42.8725 110.131 42.8433 110.172 42.814C110.277 42.7439 110.383 42.6678 110.471 42.5918C110.658 42.4397 110.804 42.2759 110.862 42.1238C110.862 42.0595 110.927 42.0771 110.862 41.8022C110.792 41.5565 110.576 41.3225 110.453 41.1997C110.418 41.1646 110.394 41.1354 110.377 41.1178C110.318 41.0652 110.377 41.112 110.055 40.9774C109.967 40.9774 109.856 41.0242 109.745 41.1412C109.681 41.2172 109.616 41.305 109.587 41.4103V41.4278C109.546 41.5506 109.546 41.6676 109.611 41.7378C109.593 41.8314 109.581 41.9133 109.055 42.2174C108.897 42.3169 108.686 42.428 108.417 42.5684C107.961 42.8725 107.435 43.2527 107.674 43.8435Z" fill="#F55959"/>
<path d="M108.909 40.451C108.768 40.5446 108.587 40.6557 108.365 40.7903C107.511 41.2991 107.587 41.8197 107.657 42.0186C107.657 42.0244 107.663 42.0303 107.663 42.0303C107.68 42.0829 107.698 42.1063 107.698 42.1063C107.75 42.2057 107.826 42.2818 107.908 42.311C108.16 42.3286 108.107 42.4573 108.376 42.0537C108.4 41.9718 108.663 41.7963 109.008 41.574C109.178 41.4629 109.377 41.3401 109.57 41.2114C109.728 41.0944 109.897 40.9833 110.043 40.8604C110.043 40.8604 110.047 40.8585 110.055 40.8546C110.201 40.7435 110.336 40.6265 110.447 40.5095C110.634 40.3165 110.751 40.1235 110.74 39.948C110.722 39.5795 110.26 39.2168 110.16 39.1291C110.149 39.1233 110.143 39.1174 110.131 39.1057H110.125C110.125 39.1057 110.084 39.0706 110.055 39.0531C110.008 39.0414 110.043 39.0238 109.833 39.0121C109.739 39.018 109.634 39.0706 109.535 39.1993C109.453 39.2987 109.406 39.4274 109.4 39.5502V39.5619C109.406 39.6146 109.412 39.6672 109.418 39.7199C109.418 39.7257 109.418 39.7316 109.423 39.7374C109.435 39.7784 109.464 39.8193 109.499 39.8485C109.505 39.8895 109.529 39.9304 109.453 40.0182C109.382 40.1059 109.236 40.2346 108.909 40.451Z" fill="#F55959"/>
<path d="M107.633 45.3584C107.651 45.5222 107.721 45.6626 107.832 45.7269C108.043 45.7678 108.055 45.9375 108.341 45.5573C108.376 45.4754 108.721 45.335 109.154 45.1654C109.336 45.0893 109.54 45.0075 109.739 44.9197C109.845 44.8729 109.95 44.8203 110.055 44.7676C110.114 44.7442 110.166 44.715 110.225 44.6858C110.318 44.639 110.412 44.5863 110.5 44.5278C110.646 44.4401 110.769 44.3465 110.862 44.2471C110.962 44.1418 111.026 44.0365 111.044 43.9254C111.073 43.7324 110.974 43.5101 110.862 43.3346C110.769 43.1825 110.664 43.0597 110.628 43.0129C110.599 42.972 110.547 42.9193 110.476 42.8901C110.447 42.8725 110.43 42.8491 110.242 42.8433C110.219 42.8433 110.201 42.855 110.184 42.855C110.178 42.8608 110.178 42.855 110.178 42.855C110.137 42.8725 110.096 42.8959 110.055 42.931C110.038 42.9369 110.02 42.9486 110.003 42.9661C109.833 43.1123 109.716 43.4516 109.839 43.5978C109.809 43.6388 109.786 43.6739 109.716 43.7207C109.622 43.7791 109.459 43.8552 109.137 43.978C108.979 44.0424 108.78 44.1125 108.54 44.2003C107.423 44.6039 107.61 45.2824 107.633 45.3584Z" fill="#F55959"/>
<path d="M103.299 71.422C103.457 71.422 103.597 71.4162 103.708 71.4045C103.907 71.3811 104.042 71.346 104.094 71.2816C104.223 71.1237 104.27 70.9658 104.241 70.8254C104.229 70.7786 104.217 70.7377 104.188 70.6909C104.129 70.5622 104.012 70.4511 103.849 70.3458C103.591 70.182 103.223 70.0592 102.802 69.9948C102.597 69.9948 102.837 69.9539 101.591 69.9773C99.5317 70.0533 95.8639 70.416 95.8639 70.416C95.8639 70.416 99.5024 71.1003 101.942 71.3401C102.468 71.3928 102.93 71.422 103.299 71.422Z" fill="#F55959"/>
<path d="M107.516 64.7482C107.464 64.7482 107.452 64.6605 107.13 64.7131C107.107 64.719 107.078 64.7307 107.048 64.7424C106.838 64.8242 106.627 64.9646 106.68 65.1401C106.651 65.2044 106.674 65.3331 106.212 65.374C106.007 65.374 106.083 65.4091 105.258 65.3624C104.773 65.2922 103.989 65.6139 103.977 65.9707V65.9824C103.966 66.035 103.96 66.0642 103.96 66.0642C103.948 66.1754 103.966 66.2807 104.018 66.3509C104.124 66.3684 104.094 66.6843 104.551 66.4093C104.878 66.3392 105.077 66.3626 105.82 66.3859C105.937 66.3859 105.919 66.4035 106.446 66.3801C106.616 66.3742 106.779 66.3684 106.926 66.3509C106.996 66.3392 107.06 66.3275 107.125 66.3158H107.13C107.394 66.2514 107.598 66.1637 107.686 66.0175C107.879 65.7016 107.709 65.1401 107.68 65.0173C107.674 64.9997 107.674 64.988 107.669 64.9705C107.639 64.8944 107.592 64.8067 107.511 64.7482H107.516Z" fill="#F55959"/>
<path d="M100.333 19.8154C100.333 19.8154 100.351 19.8154 100.362 19.8154L100.479 19.7627L103.919 18.2069C103.919 18.2069 100.813 18.3121 100.421 18.704C100.316 18.8093 100.234 18.9438 100.181 19.0901C100.14 19.1954 100.111 19.3065 100.105 19.4059C100.117 19.5989 100.029 19.482 100.333 19.8212V19.8154Z" fill="#F55959"/>
<path d="M83.2697 24.524H72.3718V34.602H79.0872L83.4861 38.9888L84.9485 37.5968L87.1773 39.8253L87.9611 39.0473L85.75 36.8364L90.7865 32.0401L83.2697 24.524ZM84.0594 30.8176L81.7312 28.4897L82.5092 27.7118L84.8374 30.0339L84.0594 30.8176Z" fill="#F55959"/>
<path d="M79.2393 65.4619H72.3718V75.5399H83.4159L90.6052 68.3572V52.6465L83.2697 45.3059H61.1404V37.2166L63.7552 34.602H69.4762V24.524H59.5844L51.0615 33.0461V68.4917L58.1103 75.5399H69.4762V65.4619H62.2811L61.1404 64.3272V56.466L62.2168 55.3839H79.0872L80.5262 56.8169V64.1809L79.2393 65.4619ZM57.0866 67.7021L57.7301 69.4627L56.1916 68.4215L54.659 69.4627L55.2966 67.7021L53.7114 66.544L55.6418 66.5323L56.1916 64.7425L56.7474 66.5323L58.6777 66.544L57.0866 67.7021ZM57.0866 61.8998L57.7301 63.6604L56.1916 62.6192L54.659 63.6604L55.2966 61.8998L53.7114 60.7417L55.6418 60.73L56.1916 58.9401L56.7474 60.73L58.6777 60.7417L57.0866 61.8998ZM57.0866 56.0975L57.7301 57.8639L56.1916 56.8169L54.659 57.8639L55.2966 56.0975L53.7114 54.9394L55.6418 54.9277L56.1916 53.1378L56.7474 54.9277L58.6777 54.9394L57.0866 56.0975ZM57.0866 46.1657L57.7301 47.9321L56.1916 46.891L54.659 47.9321L55.2966 46.1657L53.7114 45.0134L55.6418 44.9959L56.1916 43.206L56.7474 44.9959L58.6777 45.0134L57.0866 46.1657ZM57.0866 40.3634L57.7301 42.1298L56.1916 41.0887L54.659 42.1298L55.2966 40.3634L53.7114 39.2111L55.6418 39.1994L56.1916 37.4037L56.7474 39.1994L58.6777 39.2111L57.0866 40.3634ZM57.0866 34.5611L57.7301 36.3275L56.1916 35.2864L54.659 36.3275L55.2966 34.5611L53.7114 33.4088L55.6418 33.3971L56.1916 31.6073L56.7474 33.3971L58.6777 33.4088L57.0866 34.5611Z" fill="#F55959"/>
<path d="M70.8275 15.6685C69.8389 19.7336 65.3405 19.7628 63.8137 17.0956L64.9544 21.8978H76.6947L77.8354 17.0956C75.4136 20.7981 71.2779 18.3415 70.8216 15.6685H70.8275Z" fill="#F55959"/>
<path d="M93.3194 55.2201H103.492L105.68 52.7752H93.3194V55.2201Z" fill="#F55959"/>
<path d="M102.287 56.5596H93.3194V59.0045H100.093L102.287 56.5596Z" fill="#F55959"/>
<path d="M98.9 60.3439H93.3194V62.7889H96.7122L98.9 60.3439Z" fill="#F55959"/>
<path d="M93.3194 64.1283V66.5732L95.5072 64.1283H93.3194Z" fill="#F55959"/>
<path d="M95.9459 43.2704H91.0673V44.3466H95.9459V43.2704Z" fill="#F55959"/>
<path d="M94.0448 45.107H92.9684V49.488H94.0448V45.107Z" fill="#F55959"/>
<path d="M98.8415 43.2704H97.7651V49.488H98.8415V46.9202H101.123V45.8381H98.8415V43.2704Z" fill="#F55959"/>
<path d="M103.053 43.2704H101.977V49.4938H103.053V43.2704Z" fill="#F55959"/>
<path d="M38.1689 55.2201H48.3414V52.7752H35.9811L38.1689 55.2201Z" fill="#F55959"/>
<path d="M48.3414 56.5596H39.3739L41.5675 59.0045H48.3414V56.5596Z" fill="#F55959"/>
<path d="M48.3414 60.3439H42.755L44.9486 62.7889H48.3414V60.3439Z" fill="#F55959"/>
<path d="M48.3414 64.1283H46.1536L48.3414 66.5732V64.1283Z" fill="#F55959"/>
<path d="M25.013 16.5515L16.9814 16.4989L14.6825 9.05298L12.3894 16.4989L4.35782 16.5515L10.9679 21.3536L8.30049 28.6884L14.6825 24.3542L21.0644 28.6884L18.397 21.3536L25.013 16.5515Z" fill="#F55959"/>
<path d="M12.8281 64.3915L10.5292 56.9456L8.23617 64.3915L0.20459 64.45L6.8147 69.2521L4.14726 76.5869L10.5292 72.2527L16.9112 76.5869L14.2438 69.2521L20.8539 64.45L12.8281 64.3915Z" fill="#F55959"/>
<path d="M37.6307 107.265L35.3376 99.8194L33.0387 107.265L25.013 107.318L31.6231 112.12L28.9557 119.461L35.3376 115.121L41.7196 119.461L39.0522 112.12L45.6623 107.318L37.6307 107.265Z" fill="#F55959"/>
<path d="M127.318 24.3542L133.7 28.6884L131.032 21.3536L137.642 16.5515L129.611 16.4989L127.318 9.05298L125.019 16.4989L116.993 16.5515L123.603 21.3536L120.936 28.6884L127.318 24.3542Z" fill="#F55959"/>
<path d="M141.796 64.45L133.764 64.3915L131.471 56.9456L129.172 64.3915L121.146 64.45L127.756 69.2521L125.089 76.5869L131.471 72.2527L137.853 76.5869L135.185 69.2521L141.796 64.45Z" fill="#F55959"/>
<path d="M108.961 107.265L106.662 99.8194L104.369 107.265L96.3378 107.318L102.948 112.12L100.281 119.461L106.662 115.121L113.044 119.461L110.377 112.12L116.993 107.318L108.961 107.265Z" fill="#F55959"/>
</g>
<defs>
<clipPath id="clip0_213_4327">
<rect width="141.591" height="133.5" fill="white" transform="translate(0.20459 0.25)"/>
</clipPath>
</defs>
</svg>
