<svg width="150" height="16" viewBox="0 0 150 16" fill="none" xmlns="http://www.w3.org/2000/svg">
<g clip-path="url(#clip0_190_1550)">
<path d="M12.3716 0.92041H0.159088V15.0795H5.07619V4.13302H12.3688V15.0795H17.286V4.13302C17.286 4.13302 17.2887 0.92041 12.3716 0.92041Z" fill="#F55959"/>
<path d="M19.3894 0.92041V15.0795H34.7502V11.8669H24.3065V4.13302H34.7502V0.92041H19.3894Z" fill="#F55959"/>
<path d="M31.5856 6.39365H25.2045V9.60626H31.5856V6.39365Z" fill="#F55959"/>
<path d="M53.5642 4.1357H47.5015V15.0795H41.2565V4.1357H36.8482V0.92041H52.3343L53.5642 4.1357Z" fill="#F55959"/>
<path d="M81.8151 0.92041L77.0667 13.3338C76.664 14.3823 75.6435 15.0795 74.5115 15.0795H62.2691C61.129 15.0795 60.1113 14.3823 59.7085 13.3338L54.9601 0.92041H60.0432L64.1304 11.8642H72.6394L76.7293 0.92041H81.8178H81.8151Z" fill="#F55959"/>
<path d="M71.2054 2.29609H65.5699V9.15843H71.2054V2.29609Z" fill="#F55959"/>
<path d="M95.497 4.1357H88.2016L84.1145 15.0795H79.0314L84.4464 0.92041H94.267L95.497 4.1357Z" fill="#F55959"/>
<path d="M92.2044 8.66769L94.6017 15.0795H99.6821L97.2304 8.66769H92.2044Z" fill="#F55959"/>
<path d="M98.1174 4.1357H102.996V15.0795H109.241V4.1357H113.647V0.92041H96.8902L98.1174 4.1357Z" fill="#F55959"/>
<path d="M115.334 4.13302V11.8723C115.337 12.0305 115.462 15.0768 120.251 15.0768H130.641V11.8642H120.251V4.13302H130.641V0.92041H120.251C115.334 0.92041 115.334 4.13302 115.334 4.13302Z" fill="#F55959"/>
<path d="M144.924 0.92041V6.66718H137.656V0.92041H132.739V15.0795H137.656V9.60894H144.924V15.0795H149.841V0.92041H144.924Z" fill="#F55959"/>
</g>
<defs>
<clipPath id="clip0_190_1550">
<rect width="149.682" height="14.1591" fill="white" transform="translate(0.159088 0.92041)"/>
</clipPath>
</defs>
</svg>
