<svg width="150" height="76" viewBox="0 0 150 76" fill="none" xmlns="http://www.w3.org/2000/svg">
<g clip-path="url(#clip0_213_4550)">
<path d="M23.6542 25.7309C23.1564 25.9091 22.1007 25.5527 22.1007 26.7349C22.1007 27.917 35.8072 44.9105 35.9102 46.1014C35.9231 46.2317 35.0391 47.1097 34.9919 47.6442C34.9447 48.1788 35.2751 50.3997 36.6698 49.8564C38.0645 49.3132 37.8113 48.7047 38.1074 48.696C38.4035 48.6917 38.4507 49.8347 39.5793 49.8782C40.7079 49.926 41.1328 48.8438 40.8753 48.357C40.6178 47.8746 39.8411 46.8098 39.7982 46.449C39.7553 46.0883 48.2993 25.7483 48.2178 25.5049C48.1362 25.2615 40.5277 9.28067 39.6694 9.0677C38.8112 8.85474 37.7684 8.7939 37.3178 8.05505C36.8672 7.31185 36.1205 6.12535 36.1591 5.70812C36.1977 5.28654 37.7383 3.62631 37.0689 3.20473C36.3994 2.78315 35.0992 2.64408 34.5155 4.1435C34.5155 4.1435 33.3054 2.86573 32.2798 2.92223C31.2541 2.98308 30.752 3.70019 31.2155 4.40427C31.679 5.104 32.387 5.89066 32.387 5.89066C32.387 5.89066 31.0267 9.80655 29.2973 13.8528C26.9199 19.4203 23.9417 25.6222 23.6542 25.7265V25.7309ZM34.2194 9.08509C34.2194 9.08509 34.4426 9.42409 34.67 9.73267C34.8975 10.0412 36.3437 12.3751 36.9573 13.1401C37.2062 13.453 38.4421 15.6304 39.8282 18.1208L36.5711 14.3353C37.7855 16.0476 37.6611 16.5127 38.4035 17.7557C38.8412 18.4858 40.5063 20.3156 41.8022 21.689C43.1068 24.062 44.1839 26.0438 44.274 26.222C44.4972 26.6697 42.2829 32.1284 41.8494 33.8756C41.416 35.6184 40.2402 37.07 40.0085 37.7176C39.7767 38.3652 38.2275 41.7987 37.6868 41.7204C37.1461 41.6422 33.7216 36.7136 33.7216 36.7136L29.9539 30.1553L27.6365 24.7834C27.6365 24.7834 30.5504 17.6861 31.5545 15.4522C32.4128 13.5356 34.228 9.08509 34.228 9.08509H34.2194Z" fill="#F55959"/>
<path d="M33.6487 26.5784C33.9491 26.7566 34.1207 27.3824 33.9148 27.4737C33.7045 27.565 32.9535 28.3125 33.0779 28.6254C33.2024 28.9384 33.6573 29.2469 33.9705 28.9514C34.2795 28.6559 34.404 28.243 34.6314 28.2734C35.2837 28.356 34.9618 30.1683 35.1635 30.616C35.3695 31.0593 35.7515 31.3461 36.1291 31.294C36.5067 31.2462 37.1204 31.1506 36.9402 30.4161C36.7599 29.6816 36.142 29.0644 36.2707 28.9036C36.3952 28.7471 36.9187 28.4255 37.2062 28.6906C37.4894 28.9557 37.8542 29.8902 38.2447 29.9988C38.6352 30.1075 39.5579 30.3769 39.8797 29.8858C40.2059 29.3904 39.9655 29.1557 39.5407 29.0253C39.1159 28.8949 37.8156 27.9865 37.6139 27.4954C37.4122 27.0043 37.7383 26.674 37.8671 26.6697C37.9958 26.6697 39.2532 27.0347 40.0213 26.8957C40.7895 26.7609 40.768 26.2829 40.5363 25.9699C40.3689 25.7439 39.7681 25.531 39.0429 25.6266C38.3177 25.7222 37.8842 25.531 37.7383 25.1137C37.5924 24.6965 38.116 24.2402 38.2705 24.0142C38.4292 23.7882 38.4979 23.0493 38.2061 22.8277C37.9143 22.606 37.3779 22.6842 37.2234 22.7625C37.0689 22.8407 36.4981 23.8664 36.2793 23.9446C36.0604 24.0228 35.9145 23.9837 35.8416 23.8142C35.7686 23.6447 35.6485 21.576 34.8245 21.5151C34.0006 21.4543 34.6228 23.9837 34.5499 24.2532C34.4769 24.5227 34.1594 24.7747 33.9663 24.4835C33.7731 24.1924 32.666 22.8233 32.2326 22.8016C31.7948 22.7842 31.1511 23.1493 31.5931 23.7795C32.0352 24.4097 33.0307 24.5357 33.0436 24.9182C33.0522 25.3006 31.9407 25.5136 31.5331 25.5397C31.1254 25.5657 31.0954 26.2481 31.3442 26.4176C32.4428 27.1695 33.3483 26.4002 33.6487 26.574V26.5784Z" fill="#F55959"/>
<path d="M104.529 45.7925C104.529 45.9185 102.61 47.5049 103.572 48.5523C103.889 48.9 105.49 46.7356 105.773 46.7313C106.056 46.7269 106.717 49.8127 107.786 49.8562C108.854 49.8996 109.756 48.9739 109.541 48.5045C109.326 48.0351 109.039 46.7052 109.022 46.3532C109 46.0011 118.021 27.0692 117.961 26.8345C117.918 26.665 113.892 16.3342 111.176 11.3622C110.64 10.38 109.927 10.8581 109.318 9.97578C108.708 9.09351 108.219 7.95916 108.163 7.8592C107.782 7.13774 110.502 4.28665 109.73 3.1045C108.957 1.918 106.855 2.72638 106.207 4.18669C106.207 4.18669 104.679 2.80461 103.7 2.86111C102.722 2.91761 102.203 3.62169 102.598 4.30404C102.997 4.98639 104.859 7.40285 104.859 7.40285C104.859 7.40285 103.147 10.3191 101.087 13.7787L103.452 6.93347C102.602 6.2685 99.5894 11.4969 99.1302 12.9399C98.7654 14.0786 96.5382 20.2718 95.6199 22.823C94.7788 24.166 94.1994 25.0439 94.0922 25.083C93.8218 25.1787 97.0832 32.5237 100.018 38.0433C102.362 42.4416 104.52 45.271 104.529 45.7882V45.7925ZM106.335 10.8885C106.528 11.1884 107.404 12.5791 107.936 13.3223C108.468 14.0655 114.54 27.3083 114.558 28.1167C114.57 28.9251 107.58 42.7372 107.073 42.6589C106.563 42.5807 102.958 35.8007 102.958 35.8007L100.456 29.2206L97.9286 24.1617C97.9286 24.1617 106.142 10.5842 106.34 10.8841L106.335 10.8885Z" fill="#F55959"/>
<path d="M104.331 27.3517C104.499 27.9645 102.666 28.686 103.379 29.6335C103.846 30.2506 104.833 29.69 105.134 29.9594C105.434 30.2289 105.297 30.5853 105.464 31.0199C105.632 31.4502 105.923 31.8066 106.284 31.7631C106.644 31.7153 107.228 31.498 107.099 30.7852C106.975 30.0724 107.391 27.7081 107.644 27.9645C107.897 28.2253 109.069 30.0594 109.425 30.4549C109.781 30.8504 110.485 31.0286 111 30.72C111.446 30.4506 111.348 29.8508 110.927 29.7247C110.532 29.6031 110.069 28.4861 109.914 28.008C109.756 27.5299 110.537 27.1431 110.567 26.7042C110.584 26.4434 110.361 26.1435 109.665 26.2348C108.97 26.326 108.305 26.0218 108.193 25.6133C108.082 25.2047 108.987 24.4789 109.15 24.2573C109.314 24.0356 109.58 23.6097 109.322 23.3924C109.06 23.1751 108.545 23.2533 108.395 23.3272C108.245 23.4011 107.588 24.2095 107.378 24.2833C107.168 24.3572 107.082 24.1312 107.026 23.9704C106.966 23.8053 107.005 21.441 106.228 21.3801C106.001 21.3627 105.4 21.5931 105.335 21.9842C105.177 22.9143 105.674 24.4789 105.61 24.6658C105.524 24.9309 105.091 24.8744 104.923 24.5919C104.76 24.3094 104.082 23.3663 103.709 24.1269C103.396 24.7658 103.941 25.0439 103.928 25.4177C103.911 25.7915 103.22 26.0131 102.834 26.0392C102.447 26.0653 102.374 26.7259 102.602 26.8954C103.597 27.6299 104.177 26.7476 104.344 27.3648L104.331 27.3517Z" fill="#F55959"/>
<path d="M52.5992 32.7977C53.4747 35.036 54.805 38.2478 55.5731 39.1953C56.7919 40.686 58.5342 43.6588 58.5342 43.6588C58.3625 42.7678 57.4528 40.5122 56.3713 38.0175C58.8603 41.5118 60.9373 44.5671 60.9716 45.0843C60.9802 45.2234 58.826 48.1527 58.5814 48.809C58.3797 49.3522 58.6672 50.1432 60.3752 49.8434C61.8085 49.5913 62.5037 47.5138 63.0272 47.5051C63.5507 47.4964 64.9283 49.6739 65.9796 49.726C67.0267 49.7782 66.6963 48.5091 66.4646 47.9876C66.2328 47.4617 65.1857 46.1535 65.1471 45.7623C65.1085 45.3712 72.4081 29.047 72.3952 28.7775C72.2836 26.4654 68.9063 18.2337 65.8766 13.1009C64.1215 10.1281 61.9629 7.74209 61.817 7.4509C61.4051 6.64251 61.4008 6.47301 61.8814 5.63855C62.362 4.80409 63.7009 1.92258 63.083 1.46189C62.465 1.00119 60.3623 2.0182 59.7958 3.64801C59.7958 3.64801 58.6243 0.514424 57.6673 0.579617C56.7103 0.644809 56.234 1.42712 56.6589 2.19204C57.0837 2.95697 58.1351 5.59509 58.1351 5.59509C58.1351 5.59509 49.8313 25.1745 49.3636 25.3701C48.8958 25.5657 47.9088 26.4567 47.9088 26.4567C47.9088 26.4567 50.0502 29.3164 52.5992 32.7977ZM53.0713 24.3488L60.0404 9.99775C60.0404 9.99775 60.2421 10.3672 60.4481 10.6975C60.6541 11.0321 61.9587 14.2439 62.5165 15.0697C63.0744 15.8955 68.975 26.8217 69.1767 27.3042C69.3784 27.7866 66.6019 32.3414 66.177 34.232C65.7522 36.1182 64.6364 37.6915 64.4133 38.3956C64.1901 39.0953 63.3018 40.912 62.7998 40.8251C62.2977 40.7382 54.3201 30.9158 53.6678 29.6381C53.0155 28.3559 53.067 24.3531 53.067 24.3531L53.0713 24.3488Z" fill="#F55959"/>
<path d="M56.9592 26.7522C58.0278 27.5867 59.2894 26.9478 59.0835 27.0477C58.8775 27.1477 58.4011 27.7388 58.075 28.3385C57.6072 29.1947 58.4827 29.6989 58.7916 29.3773C59.1006 29.0513 59.9246 28.1125 60.1434 28.1473C60.7828 28.2386 60.4352 30.9115 60.6283 31.4026C60.8214 31.8937 61.1905 32.211 61.5638 32.1545C61.9372 32.1023 62.538 31.9937 62.3706 31.1853C62.2075 30.3725 61.8728 29.4642 62.0016 29.2904C62.126 29.1165 62.3835 28.9861 62.6581 29.2773C62.9328 29.5729 64.2588 30.316 64.8896 30.3334C65.7222 30.3552 65.4818 29.2469 65.0699 29.0991C64.6579 28.9557 63.5293 28.5037 63.3405 27.9604C63.1516 27.4172 63.4735 27.0477 63.6022 27.0477C63.731 27.0477 64.6965 27.1477 65.4518 26.9999C66.2114 26.8478 66.2285 26.3045 66.0097 25.9568C65.8466 25.7048 64.5978 25.4005 63.8855 25.5048C63.1688 25.6092 63.628 24.3401 63.7868 24.088C63.9455 23.8359 64.0228 23.0188 63.7438 22.7711C63.4606 22.5234 62.8813 22.5799 62.5895 22.9841C62.2977 23.3883 62.0531 23.9185 61.8385 24.0054C61.6239 24.0923 61.478 24.0445 61.4094 23.8577C61.3407 23.6708 61.2592 21.376 60.4481 21.3108C59.637 21.2413 60.1863 23.4969 60.1091 23.7968C60.0318 24.0967 58.9547 23.0015 58.5299 22.9797C58.1007 22.958 57.5085 23.31 57.9334 24.0054C58.3539 24.7008 58.6457 24.6573 58.6457 25.0833C58.6457 25.5092 57.5514 25.7439 57.1524 25.77C56.7533 25.8004 56.7103 26.5523 56.955 26.7435L56.9592 26.7522Z" fill="#F55959"/>
<path d="M6.97803 7.74187C7.11535 8.07217 9.25243 24.9961 9.12798 26.087C9.00354 27.1779 9.35543 29.0728 9.48417 30.6939C9.61291 32.3107 10.6686 41.6419 10.2437 42.3547C10.1279 42.5503 10.1493 42.8241 9.76739 43.1544C9.19235 43.6499 8.41991 43.9324 8.46283 44.4191C8.52291 45.0928 8.93058 45.5796 9.98625 45.5491C11.0419 45.5187 12.2864 45.4666 12.4924 45.5969C12.6984 45.723 13.3335 46.1359 14.0029 45.9533C14.6724 45.7664 15.2732 45.4231 15.0715 44.8842C14.8698 44.3452 14.5394 44.5278 14.4063 44.0497C14.2776 43.5673 17.2 34.1752 17.8694 30.5896C18.5432 26.978 19.1096 20.311 19.5044 19.0245C19.8992 17.738 21.7016 8.54156 22.1307 8.11998C22.5599 7.6984 23.7099 7.3681 24.2549 7.38983C24.7999 7.41156 25.6711 7.52456 25.5853 6.89436C25.5037 6.26417 25.0617 5.72525 23.4611 5.7774C21.8604 5.82521 19.0968 6.11206 18.7234 6.06859C18.3458 6.02079 17.4017 6.21202 17.4231 6.6814C17.4446 7.15079 17.9896 8.15475 18.5603 8.68933C19.1311 9.22391 18.4059 11.3666 18.1484 12.2532C17.8909 13.1355 15.4749 24.3703 15.3676 25.4612C15.2603 26.5477 14.2218 32.0108 13.6725 32.0847C13.1232 32.1586 12.8057 32.1412 12.8014 31.8935C12.8014 31.6458 11.8272 18.755 11.6556 17.8554C11.4882 16.9557 10.424 7.61148 10.8188 7.35071C11.2136 7.08994 12.1105 7.37679 12.2092 6.87698C12.3894 5.98167 11.4582 5.39494 9.39405 5.16459C7.32562 4.93425 4.62208 4.66044 3.97838 5.19067C3.33897 5.7209 4.39035 6.21202 5.2057 6.79875C6.01677 7.38548 6.84499 7.40721 6.97803 7.73317V7.74187Z" fill="#F55959"/>
<path d="M8.54865 26.3869C8.38987 25.3656 7.99936 21.3497 7.55736 20.9194C7.11535 20.4848 6.50169 18.4899 6.50169 18.4899C6.50169 18.4899 8.15814 25.9914 8.33409 29.3684C8.51003 32.728 9.12369 36.3222 9.12369 36.3222C9.12369 36.3222 8.71602 27.4039 8.55295 26.3869H8.54865Z" fill="#F55959"/>
<path d="M80.8792 45.4364C80.8062 45.0973 84.5783 39.9906 87.3076 35.7227C88.7066 33.5322 89.685 31.1809 90.0197 30.6029C91.0196 28.8862 92.9936 27.3346 93.1953 26.3871C93.397 25.4397 91.3071 24.8399 91.3071 24.8399C90.6977 24.4922 83.4368 11.1582 83.0248 10.1586C82.6086 9.15894 82.085 8.93294 81.7932 8.70693C81.5014 8.48093 82.0807 7.65516 82.8618 7.10755C83.6428 6.55558 82.2567 6.10358 81.3598 6.06012C80.4586 6.01666 79.9093 5.28216 79.5188 4.96489C79.1283 4.64762 77.2787 4.68673 76.0857 4.5042C75.8626 4.46943 75.6523 4.46073 75.4592 4.47377C74.4894 4.53896 73.8027 5.47339 73.9486 6.44693C74.189 8.07239 74.6953 11.5015 75.1974 14.9524C75.884 19.694 76.5621 24.4661 76.5234 24.7095C76.4505 25.1963 75.987 25.2006 75.6866 24.8051C75.3905 24.4096 75.4077 23.8316 75.0816 23.7881C74.7511 23.7447 74.3091 24.2836 74.0216 26.0612C73.7341 27.8344 74.8026 28.834 75.2232 28.8731C75.6437 28.9122 76.1029 27.7605 76.1029 27.7605C76.1029 27.7605 77.386 26.335 76.8753 29.4251C76.3647 32.5022 76.635 43.4023 76.7123 44.089C76.7895 44.7714 76.841 44.9409 76.369 45.5885C75.8969 46.236 73.5624 48.0658 74.3306 48.8568C75.0987 49.6478 76.6393 48.4352 77.3903 47.9528C78.1456 47.4704 78.8923 47.9267 80.2183 48.0745C81.5443 48.2222 82.3167 47.1879 82.4841 46.8054C82.6515 46.4186 80.9907 45.9362 80.8792 45.4277V45.4364ZM80.6431 12.8488C80.9478 13.4356 87.977 24.5226 87.2132 25.1876C86.4493 25.8569 80.4758 25.783 80.1711 25.2528C79.8707 24.7225 80.008 13.4834 80.008 13.4834C79.9823 12.8966 80.3341 12.2577 80.6388 12.8488H80.6431ZM80.4543 40.8207C79.6347 40.9207 79.4115 40.0167 79.8793 39.1909C80.347 38.3651 80.6689 35.0229 80.244 34.7274C79.8149 34.4275 80.2269 33.2454 80.1582 32.6804C80.0895 32.1154 79.9136 27.9909 79.9136 27.9909C80.0381 27.6388 81.6859 27.3563 83.7758 27.378C85.8614 27.3998 89.0842 27.3259 88.1916 28.1256C87.299 28.9253 81.274 40.7208 80.4543 40.8207Z" fill="#F55959"/>
<path d="M125.715 37.4783C128.084 41.8332 131.294 43.7629 131.195 44.9755C131.101 46.188 130.792 46.3793 131.53 47.2398C131.839 47.6005 133.551 46.4966 133.851 46.4923C134.152 46.4879 134.714 47.7613 135.843 47.8092C136.971 47.8526 136.675 45.6274 136.461 45.158C136.246 44.6886 136.199 42.8154 136.186 42.4677C136.173 42.12 145.296 27.2084 145.241 26.978C145.198 26.8085 137.267 11.9012 136.645 11.0276C136.023 10.154 134.499 8.28082 134.448 8.18085C134.062 7.46374 136.624 4.07373 135.834 2.90027C135.04 1.7268 133.431 5.42973 132.847 5.39931C132.264 5.36889 131.272 4.20412 130.238 4.26062C129.2 4.31712 127.852 4.69958 128.256 5.37758C128.659 6.05124 129.612 7.68539 129.612 7.68539C129.612 7.68539 120.355 26.0566 120.342 27.4083C120.329 28.7599 122.737 32.0065 125.711 37.4783H125.715ZM132.513 10.7842C132.71 11.0797 134.731 13.9482 135.276 14.6827C135.821 15.4172 142.211 26.2435 142.207 27.0475C142.207 27.2344 140.782 28.9425 140.07 30.3028C137.744 34.7533 134.8 41.3812 134.388 41.3203C133.851 41.2465 128.256 35.0575 128.256 35.0575C128.256 35.0575 124.702 29.6248 124.707 27.7082C124.707 25.7872 132.319 10.4843 132.517 10.7799L132.513 10.7842Z" fill="#F55959"/>
<path d="M131.229 28.0298C131.388 28.6382 130.234 28.573 130.959 29.5118C131.431 30.1246 132.161 29.5422 132.47 29.8117C132.779 30.0768 132.392 30.6201 132.555 31.0504C132.719 31.4806 133.225 31.8935 133.603 31.8457C133.984 31.7979 134.667 31.5893 134.555 30.8765C134.444 30.1681 134.508 29.3336 134.881 29.2989C135.315 29.2597 135.529 29.6161 135.894 30.0116C136.259 30.4071 136.812 30.6288 137.164 30.1203C137.495 29.6466 137.177 29.0902 136.413 28.6252C136.049 28.4035 136.001 28.0602 135.847 27.5821C135.692 27.1084 137.765 27.6169 137.872 26.9737C137.993 26.2348 137.452 25.9697 136.718 26.0653C135.984 26.1566 135.499 26.2392 135.392 25.835C135.285 25.4308 136.422 24.5442 136.598 24.3225C136.774 24.1008 136.95 23.349 136.684 23.1317C136.413 22.9143 135.907 23.023 135.748 23.0969C135.589 23.1708 134.16 24.2182 134.105 24.053C134.049 23.8879 134.469 22.6058 133.658 22.5493C133.418 22.5319 132.967 22.7362 132.886 23.123C132.693 24.0487 132.727 24.5311 132.658 24.718C132.56 24.9788 132.019 24.9353 131.856 24.6528C131.689 24.3703 130.959 23.6749 130.547 24.4312C130.2 25.0657 131.693 25.8306 131.667 26.2C131.641 26.5695 130.328 26.174 129.938 26.4782C129.616 26.7259 129.517 27.3735 129.663 27.6125C130.015 28.1906 131.071 27.4213 131.229 28.0341V28.0298Z" fill="#F55959"/>
<path d="M140.233 26.2131C140.233 26.2131 135.478 16.9297 134.242 15.9388C134.032 15.7736 133.182 15.8736 133.289 16.7384C133.551 18.8159 139.16 24.4355 140.233 26.2131Z" fill="#F55959"/>
<path d="M10.6214 64.5595C10.1365 64.9941 9.55286 65.5634 9.70306 65.9372C9.77172 66.1067 9.96054 66.4501 10.3682 66.5109C10.866 66.5804 11.6899 66.3371 12.9259 66.2588C15.1874 66.1154 15.6852 64.6725 17.4017 63.6903C19.1225 62.708 18.6548 61.2999 18.2857 61.0087C17.9167 60.7218 15.5994 58.514 15.5994 58.514C15.5994 58.514 17.6978 55.802 17.6249 55.1631C17.5476 54.5198 11.4539 50.2563 10.5012 49.5783C9.97341 49.2001 9.30396 49.9347 9.2353 50.2867C9.16664 50.6431 9.79747 51.3515 10.2137 51.7035C10.2137 51.7035 11.484 59.2094 11.3938 60.0004C11.3037 60.7914 10.9776 61.0999 11.1621 62.5907C11.3423 64.0814 11.102 64.1249 10.6214 64.5638V64.5595ZM15.4964 61.678C15.5865 62.1169 13.9515 62.5516 13.7541 62.5516C13.5567 62.5516 13.4966 62.2864 13.3979 61.6258C13.2992 60.9652 13.0675 59.9091 13.4966 60.0656C13.9257 60.222 15.4105 61.239 15.4964 61.678ZM12.6126 53.1378C12.9816 53.0291 14.7454 54.5981 14.7668 55.0197C14.7883 55.4412 13.4494 56.5191 13.1619 56.4974C12.8744 56.4756 12.7971 55.8107 12.8014 55.0849C12.81 54.3547 12.3937 53.2073 12.6126 53.1378Z" fill="#F55959"/>
<path d="M4.51908 56.8797C3.73376 56.5711 4.88813 56.4972 4.81089 55.8801C4.73364 55.2629 4.46329 54.9847 4.00412 55.0934C3.54923 55.2021 3.20593 56.1495 2.74246 56.1278C2.43349 56.1104 2.18888 55.5019 2.05156 55.2542C1.8327 54.8587 0.858566 54.5849 0.759865 55.1586C0.661164 55.7323 1.16754 56.1712 1.0388 56.2582C0.910062 56.3451 0.0818337 56.8058 0.16766 57.1361C0.253487 57.4664 0.626834 57.4664 0.618251 57.7098C0.609668 57.9532 0.274944 58.8746 0.592503 59.1484C0.97014 59.4743 1.3349 59.4135 1.74687 59.0962C1.93569 58.9484 2.04727 58.5269 2.35195 58.5051C2.65664 58.4834 3.22309 59.6047 3.8625 59.6743C4.50191 59.7438 4.58345 58.7746 4.68215 58.579C4.78085 58.3834 5.21856 58.3356 5.2014 58.0184C5.18423 57.7011 5.31297 57.1969 4.52337 56.8884L4.51908 56.8797Z" fill="#F55959"/>
<path d="M33.2624 57.0711C32.3698 57.032 32.2325 56.8755 32.387 56.3192C32.5415 55.7629 32.3226 55.3978 32.0609 55.337C31.7948 55.2761 31.503 55.1762 31.267 55.9281C31.0309 56.6799 30.5246 56.2757 30.2328 56.2714C29.9409 56.2671 29.7393 56.4539 29.8122 56.7929C29.8809 57.1319 30.001 57.2406 29.9882 57.5014C29.9796 57.7621 30.0783 58.1098 30.2285 58.3749C30.3787 58.6401 30.9752 59.1746 31.0052 59.4441C31.0395 59.7136 31.0696 60.3351 31.2884 60.3611C31.5073 60.3916 31.945 60.7132 32.3312 59.9005C32.4428 59.6658 32.5973 59.6658 32.6831 59.5615C32.8934 59.305 32.9277 59.3354 33.0093 59.305C33.1637 59.2485 33.4513 59.0834 33.5585 58.8009C33.5972 58.6922 33.7559 58.7748 33.786 58.6792C33.8375 58.5227 33.7645 58.2098 33.8546 58.1924C34.0006 58.1663 34.095 57.9229 34.095 57.7882C34.095 57.6274 34.1593 57.1059 33.2667 57.0668L33.2624 57.0711Z" fill="#F55959"/>
<path d="M43.7291 60.9478C43.7548 61.0652 44.4843 60.1699 44.8062 59.8961C45.2181 59.5527 45.3812 59.292 45.5057 59.4528C46.7974 61.1 48.9044 63.4817 49.3078 64.2205C49.8871 65.2853 50.1832 66.0242 50.9299 66.0546C51.6809 66.0894 52.2774 65.294 53.2987 62.8732C54.3201 60.448 55.5774 59.4137 55.5603 58.9703C55.5431 58.527 53.818 55.6977 53.4318 54.9849C53.0455 54.2721 52.8696 53.555 52.5263 53.1986C52.183 52.8423 50.2562 49.587 49.3765 49.3784C48.6941 49.2176 47.0334 54.1418 46.1451 55.1805C45.2568 56.2192 44.2612 57.145 44.4843 57.9012C44.6517 58.4749 44.3213 58.7878 44.0337 59.4919C43.875 59.883 43.6432 60.5828 43.7205 60.9435L43.7291 60.9478ZM48.6169 56.1975C48.9216 55.676 49.1147 55.0414 49.3636 54.5199C49.6425 53.9331 49.9644 53.4942 50.0759 53.4942C50.3506 53.4942 51.0629 55.1283 51.638 56.5495C51.9727 57.3753 52.3246 57.823 52.3418 58.3271C52.3503 58.527 52.0886 58.8052 51.9212 59.1572C51.6637 59.7005 51.432 60.3481 51.226 60.6349C50.8827 61.1087 50.8484 61.3433 50.5008 61.2825C50.342 61.2564 49.6811 60.3655 49.0889 59.6223C48.3809 58.7357 47.7372 57.9664 47.7329 57.8099C47.72 57.5274 48.2178 56.8755 48.6169 56.1931V56.1975Z" fill="#F55959"/>
<path d="M71.8674 56.5497C71.8502 56.4149 72.0262 54.9459 71.1035 55.0111C70.58 55.0503 70.7001 55.976 70.4126 56.3541C70.1294 56.7322 68.945 56.7322 68.5974 57.2451C68.2498 57.7579 68.3099 58.3186 68.769 58.362C69.2239 58.4098 69.55 58.6315 69.5543 58.8575C69.5629 59.0791 69.3698 59.5703 69.7131 59.5963C70.0564 59.6181 70.5242 59.3312 70.6014 59.5963C70.6787 59.8658 70.4126 60.1527 70.743 60.4917C71.0692 60.8263 71.8416 60.6959 71.936 60.1396C72.0347 59.5833 71.7944 59.1357 72.0176 59.0661C72.245 59.0009 73.0174 59.014 73.3779 58.8227C73.7384 58.6315 74.0302 58.0752 73.8886 57.9491C73.747 57.8231 72.9745 57.7796 72.7943 57.5754C72.6183 57.3755 72.5969 56.9713 72.3652 56.8669C72.1334 56.767 71.8802 56.6757 71.8674 56.541V56.5497Z" fill="#F55959"/>
<path d="M89.3202 59.0876C89.4747 59.7612 89.3674 64.2899 89.7193 64.6941C90.0712 65.0983 90.2128 66.237 90.3373 66.6847C90.4617 67.1323 92.7919 66.8063 92.8863 65.8893C92.9807 64.9723 92.7747 59.4309 93.1052 58.8268C93.4356 58.2183 97.3236 54.259 97.2077 53.1724C97.0961 52.0859 96.3065 51.9729 95.6886 52.3554C95.0749 52.7378 93.2597 55.8497 92.1439 56.4799C91.8264 56.6581 91.7835 53.5419 91.8049 52.9856C91.8349 52.2163 91.8264 50.8168 90.7235 50.995C89.6206 51.1732 89.346 51.2427 89.5305 52.3032C89.6378 52.9291 89.7537 53.3984 89.7966 53.82C89.8051 53.8896 89.8867 54.2025 89.5047 54.3111C88.5692 54.5806 88.1659 53.6679 86.8484 52.7291C86.1875 52.2597 85.4108 51.9903 84.8014 52.4466C84.2135 52.8856 84.5826 53.7592 84.8401 54.1721C85.3164 54.937 89.1614 58.4096 89.3159 59.0832L89.3202 59.0876Z" fill="#F55959"/>
<path d="M113.043 56.6148C112.854 56.48 112.614 55.7933 112.412 55.7542C112.021 55.676 112.039 54.6807 111.421 54.6199C111.421 54.6199 110.725 54.6633 110.61 55.2066C110.494 55.7499 110.343 56.2193 109.992 56.3236C109.635 56.4279 108.408 56.0324 108.241 56.3236C108.073 56.6104 108.794 57.1102 108.786 57.6491C108.777 58.1924 108.992 58.8704 109.206 58.8704C109.421 58.8704 109.91 58.3445 110.296 58.4358C110.682 58.5271 110.695 59.3572 110.961 59.505C111.228 59.6571 111.712 59.9657 112.506 59.6006C113.352 59.2094 113.94 58.6401 113.807 58.0664C113.674 57.4927 113.232 56.7538 113.043 56.6148Z" fill="#F55959"/>
<path d="M130.792 62.0261C130.255 62.3042 129.363 62.1043 129.388 62.6084C129.414 63.1126 129.543 65.0162 129.895 65.3813C130.247 65.7464 132.427 66.2592 132.989 65.9811C133.551 65.7029 134.907 65.4856 135.19 65.5421C135.474 65.5986 136.177 66.3287 136.855 65.8854C137.533 65.4421 137.25 64.373 136.847 63.8427C136.679 63.6211 135.667 61.7088 134.624 60.1311C133.143 57.8885 131.525 55.6763 131.521 54.3898C131.521 54.1378 132.199 53.7423 132.997 53.8292C133.796 53.9161 134.929 54.6767 135.238 54.7071C135.542 54.7375 136.297 54.342 136.079 53.6075C135.864 52.873 134.916 51.7735 134.045 51.4605C133.173 51.1476 130.586 51.4605 129.951 51.4562C129.315 51.4562 127.393 51.9343 126.977 52.4949C126.56 53.0556 128.015 53.2294 128.11 53.3424C128.204 53.4554 131.392 60.3484 131.547 61.1872C131.701 62.0304 131.324 61.7479 130.787 62.0261H130.792Z" fill="#F55959"/>
<path d="M149.004 56.7145C148.519 56.8622 148.27 56.997 148.034 56.6536C147.798 56.3103 147.867 55.8322 147.704 55.6236C147.536 55.4193 147.124 55.1325 147.099 55.0151C147.073 54.8978 146.979 54.511 146.635 54.524C146.137 54.5414 145.811 56.4667 145.644 56.6232C145.481 56.784 144.223 56.1408 143.945 56.4363C143.661 56.7319 143.451 57.1665 143.734 57.5315C144.018 57.8966 144.923 57.6272 145.12 57.8749C145.318 58.127 144.541 58.8745 144.468 59.3091C144.399 59.7394 145.176 60.1306 145.532 59.9958C145.884 59.8611 146.335 59.9132 146.476 60.0262C146.618 60.1392 147.043 60.7955 147.468 60.526C147.893 60.2522 148.129 59.7307 147.867 59.2744C147.605 58.818 147.699 58.1226 148.305 58.0661C148.91 58.0096 149.798 57.462 149.832 57.2012C149.892 56.6971 149.489 56.5623 149.004 56.7101V56.7145Z" fill="#F55959"/>
<path d="M77.0255 70.883C76.9654 70.4571 78.1284 69.5139 78.0082 69.1184C77.8838 68.7229 77.8538 68.3274 77.15 68.5404C76.4462 68.7534 76.7809 69.7008 75.9227 70.0789C75.0644 70.4571 72.9659 70.5223 72.4681 70.5005C71.9746 70.4788 72.0304 69.4401 71.4339 68.9359C70.8374 68.4317 69.108 68.1275 67.7519 68.5361C66.3959 68.9489 63.7009 68.184 62.9199 67.7277C62.1389 67.2713 60.8558 67.4756 58.6758 68.6317C56.2254 69.9312 53.5519 71.1568 50.3592 69.8182C48.4195 69.0054 44.8963 67.1409 43.0853 67.1409C39.5235 67.1409 37.3779 70.0051 34.125 70.0789C30.8722 70.1528 28.3875 67.2626 24.6712 67.2626C20.9549 67.2626 17.7364 71.1872 14.9728 71.1872C12.2092 71.1872 9.87897 71.7348 8.28259 69.3314C6.68622 66.928 6.86645 63.8292 5.9481 64.7375C5.11988 65.5589 5.9481 69.7573 6.77633 70.9438C7.60456 72.1303 8.24826 73.4994 9.07649 73.7732C9.90472 74.047 10.0892 74.3208 10.8274 74.7771C11.5655 75.2335 11.6556 75.9636 15.3376 74.7771C19.0195 73.5906 20.3112 72.5867 22.517 71.8565C24.7227 71.1264 26.1861 70.8352 27.1044 71.3828C28.0227 71.9304 31.1383 74.5946 34.7301 74.2295C38.322 73.8645 37.1547 73.6819 39.9183 72.3129C42.682 70.9438 43.0553 70.8439 44.0294 71.1872C45.1023 71.5653 43.6904 71.1264 45.7159 72.4954C47.7414 73.8644 51.7023 75.3248 55.8435 73.9557C59.9846 72.5867 61.611 70.9699 62.6581 70.9699C63.5722 70.9699 64.8338 71.5088 65.9238 72.4215C66.9967 73.3212 68.2583 74.1469 69.5457 74.1252C70.9104 74.0991 72.0175 72.465 72.6012 72.0391C72.893 71.8261 73.5667 71.6044 74.2147 71.461C74.8627 71.3176 75.4849 71.2481 75.6695 71.3393C76.0385 71.5219 77.356 72.9518 77.8194 72.8909C78.2786 72.8301 78.5232 72.5867 78.343 72.1912C78.1584 71.7957 77.0856 71.3089 77.0212 70.883H77.0255ZM69.6401 71.448C69.4041 71.448 69.2153 71.2611 69.2153 71.0264C69.2153 70.7917 69.4041 70.6048 69.6401 70.6048C69.8762 70.6048 70.065 70.7917 70.065 71.0264C70.065 71.2611 69.8762 71.448 69.6401 71.448Z" fill="#F55959"/>
<path d="M146.421 68.0884C146.146 68.1101 145.155 69.1141 144.464 69.2054C143.773 69.2966 143.752 70.0485 142.76 70.644C141.769 71.2394 140.825 72.013 139.559 71.7175C138.293 71.4219 136.405 70.0963 135.371 69.2966C134.336 68.497 132.242 67.7885 130.217 68.749C128.191 69.7095 127.822 71.4176 125.797 71.6001C123.771 71.7827 123.393 69.9833 122.067 69.0228C120.686 68.0189 118.132 66.4673 115.068 69.2749C112.008 72.0825 109.683 70.4831 108.854 68.9794C108.026 67.4756 106.413 67.0106 105.104 67.0627C103.949 67.1105 99.3748 67.8798 97.6926 68.7751C96.7485 69.2793 96.3365 68.3405 94.2638 68.8229C92.5601 69.2184 91.895 70.9134 90.3759 70.9178C88.8567 70.9221 87.8225 70.0311 87.5221 69.8269C87.2217 69.6226 86.6767 68.5274 85.9257 68.5708C85.4365 68.6013 85.1276 69.1489 85.4966 69.6052C85.8657 70.0616 86.8183 70.8526 86.754 71.1872C86.6939 71.5219 85.3979 72.2173 85.458 72.8127C85.5138 73.4081 85.9558 73.6037 86.4192 73.4429C86.8784 73.2821 86.9385 72.4042 87.3505 72.1782C87.7667 71.9478 89.273 71.9956 89.6292 72.2346C89.9853 72.4737 91.4144 72.2129 91.8521 72.2129C92.2898 72.2129 92.1868 73.7775 93.1867 74.1861C94.1866 74.599 95.6499 75.1553 97.1819 73.6037C97.5853 73.1952 98.4393 73.0343 99.1731 72.6345C100.383 71.9739 102.452 70.6961 103.73 70.5353C104.606 70.4266 104.902 71.3089 105.134 71.4045C105.915 71.7262 106.953 73.6428 108.447 74.2556C109.944 74.8728 112.107 74.9423 113.601 73.9123C115.098 72.8866 116.364 70.7135 117.283 70.6483C119.261 70.5092 119.814 72.2216 120.99 73.3647C122.278 74.6163 126.007 75.4638 128.058 74.0035C130.105 72.5432 131.028 71.561 132.341 71.5393C133.654 71.5175 135.104 73.7993 136.023 74.0513C136.945 74.3034 139.984 75.3769 142.331 73.2734C144.678 71.1742 146.751 68.7534 146.725 68.5708C146.7 68.3883 146.704 68.0667 146.425 68.0928L146.421 68.0884ZM95.3753 72.6475C95.1392 72.6475 94.9504 72.4607 94.9504 72.226C94.9504 71.9913 95.1392 71.8044 95.3753 71.8044C95.6113 71.8044 95.8001 71.9913 95.8001 72.226C95.8001 72.4607 95.6113 72.6475 95.3753 72.6475Z" fill="#F55959"/>
</g>
<defs>
<clipPath id="clip0_213_4550">
<rect width="149.682" height="74.8409" fill="white" transform="translate(0.159088 0.57959)"/>
</clipPath>
</defs>
</svg>
