<svg width="178" height="200" viewBox="0 0 178 200" fill="none" xmlns="http://www.w3.org/2000/svg">
<path fill-rule="evenodd" clip-rule="evenodd" d="M89 188V200L178 200V188L89 188ZM177.4 199.4V188.6L89.6 188.6V199.4L177.4 199.4Z" fill="#58F1F5"/>
<path fill-rule="evenodd" clip-rule="evenodd" d="M94.598 195.944H94.958C95.0327 195.944 95.07 195.906 95.07 195.832V191.384C95.07 191.336 95.0967 191.312 95.15 191.312H96.238C96.318 191.312 96.358 191.274 96.358 191.2V190.912C96.358 190.837 96.318 190.8 96.238 190.8H93.318C93.238 190.8 93.198 190.837 93.198 190.912V191.2C93.198 191.274 93.238 191.312 93.318 191.312H94.406C94.4593 191.312 94.486 191.336 94.486 191.384V195.832C94.486 195.906 94.5233 195.944 94.598 195.944ZM101.7 190.8H101.052C100.999 190.8 100.967 190.821 100.956 190.864L99.6441 194.176H99.6041L98.2921 190.864C98.2761 190.821 98.2441 190.8 98.1961 190.8H97.5481C97.4734 190.8 97.4361 190.837 97.4361 190.912V195.832C97.4361 195.906 97.4734 195.944 97.5481 195.944H97.9001C97.9694 195.944 98.0041 195.906 98.0041 195.832V191.576H98.0361L99.3001 194.72C99.3214 194.789 99.3667 194.824 99.4361 194.824H99.8201C99.8841 194.824 99.9321 194.789 99.9641 194.72L101.204 191.584H101.236V195.832C101.236 195.906 101.273 195.944 101.348 195.944H101.7C101.775 195.944 101.812 195.906 101.812 195.832V190.912C101.812 190.837 101.775 190.8 101.7 190.8ZM142.26 197.23H143.46C143.92 197.23 144.28 197.1 144.54 196.84C144.807 196.58 144.94 196.217 144.94 195.75V195.26C144.94 195.167 144.893 195.12 144.8 195.12H144.35C144.257 195.12 144.21 195.167 144.21 195.26V195.72C144.21 196.3 143.93 196.59 143.37 196.59H142.34C141.787 196.59 141.51 196.3 141.51 195.72V192.31C141.51 191.73 141.787 191.44 142.34 191.44H143.37C143.93 191.44 144.21 191.73 144.21 192.31V192.77C144.21 192.864 144.257 192.91 144.35 192.91H144.8C144.893 192.91 144.94 192.864 144.94 192.77V192.28C144.94 191.814 144.807 191.45 144.54 191.19C144.28 190.93 143.92 190.8 143.46 190.8H142.26C141.8 190.8 141.437 190.93 141.17 191.19C140.91 191.45 140.78 191.814 140.78 192.28V195.75C140.78 196.217 140.91 196.58 141.17 196.84C141.437 197.1 141.8 197.23 142.26 197.23ZM148.41 197.23H148.86C148.953 197.23 149 197.184 149 197.09V191.53C149 191.47 149.033 191.44 149.1 191.44H150.46C150.56 191.44 150.61 191.394 150.61 191.3V190.94C150.61 190.847 150.56 190.8 150.46 190.8H146.81C146.71 190.8 146.66 190.847 146.66 190.94V191.3C146.66 191.394 146.71 191.44 146.81 191.44H148.17C148.237 191.44 148.27 191.47 148.27 191.53V197.09C148.27 197.184 148.317 197.23 148.41 197.23ZM152.698 197.23H153.148C153.241 197.23 153.288 197.184 153.288 197.09V194.76C153.288 194.7 153.321 194.67 153.388 194.67H154.708L155.828 197.09C155.881 197.184 155.964 197.23 156.078 197.23H156.528C156.654 197.23 156.688 197.177 156.628 197.07L155.468 194.64V194.6C155.788 194.52 156.038 194.36 156.218 194.12C156.398 193.874 156.488 193.564 156.488 193.19V192.28C156.488 191.82 156.354 191.46 156.088 191.2C155.821 190.934 155.458 190.8 154.998 190.8H152.698C152.604 190.8 152.558 190.847 152.558 190.94V197.09C152.558 197.184 152.604 197.23 152.698 197.23ZM154.898 194.06H153.388C153.321 194.06 153.288 194.03 153.288 193.97V191.53C153.288 191.47 153.321 191.44 153.388 191.44H154.898C155.471 191.44 155.758 191.73 155.758 192.31V193.2C155.758 193.774 155.471 194.06 154.898 194.06ZM159.019 197.23H159.489C159.609 197.23 159.685 197.187 159.719 197.1L161.809 191.68C161.862 191.574 161.889 191.467 161.889 191.36V190.94C161.889 190.847 161.842 190.8 161.749 190.8H158.449C158.355 190.8 158.309 190.847 158.309 190.94V191.33C158.309 191.424 158.355 191.47 158.449 191.47H161.109L158.939 197.06C158.885 197.174 158.912 197.23 159.019 197.23ZM163.964 197.23H164.434C164.554 197.23 164.631 197.187 164.664 197.1L166.754 191.68C166.807 191.574 166.834 191.467 166.834 191.36V190.94C166.834 190.847 166.787 190.8 166.694 190.8H163.394C163.301 190.8 163.254 190.847 163.254 190.94V191.33C163.254 191.424 163.301 191.47 163.394 191.47H166.054L163.884 197.06C163.831 197.174 163.857 197.23 163.964 197.23ZM171.039 196.59H170.219C169.666 196.59 169.389 196.3 169.389 195.72V192.31C169.389 191.73 169.666 191.44 170.219 191.44H171.039C171.599 191.44 171.879 191.73 171.879 192.31V195.72C171.879 196.3 171.599 196.59 171.039 196.59ZM170.129 197.23H171.129C171.583 197.23 171.939 197.1 172.199 196.84C172.466 196.58 172.599 196.217 172.599 195.75V192.28C172.599 191.82 172.466 191.46 172.199 191.2C171.939 190.934 171.583 190.8 171.129 190.8H170.129C169.676 190.8 169.316 190.934 169.049 191.2C168.789 191.46 168.659 191.82 168.659 192.28V195.75C168.659 196.217 168.789 196.58 169.049 196.84C169.316 197.1 169.676 197.23 170.129 197.23Z" fill="#58F1F5"/>
<path fill-rule="evenodd" clip-rule="evenodd" d="M0 7.00001V185H178V7L0 7.00001ZM2 9.00001V183L176 183V9L2 9.00001Z" fill="#58F1F5"/>
<path d="M81 0H178V2H81V0Z" fill="#58F1F5"/>
<path d="M0 188H44.9964V189.6H0V188Z" fill="#58F1F5"/>
</svg>
