<svg width="114" height="114" viewBox="0 0 114 114" fill="none" xmlns="http://www.w3.org/2000/svg">
<path d="M1.4262 103V113.508H0.386353V103H1.4262Z" fill="white"/>
<path d="M3.89979 108.247C3.89979 107.215 4.12262 106.293 4.56827 105.481C5.01392 104.659 5.62297 104.023 6.39543 103.572C7.16789 103.111 8.02948 102.88 8.9802 102.88C10.1389 102.88 11.1292 103.161 11.9512 103.722C12.7831 104.273 13.3872 105.055 13.7635 106.067H12.5454C12.2483 105.356 11.7927 104.799 11.1787 104.398C10.5746 103.998 9.84179 103.797 8.9802 103.797C8.21765 103.797 7.52936 103.978 6.91536 104.338C6.31125 104.699 5.83589 105.22 5.48928 105.902C5.14266 106.573 4.96935 107.355 4.96935 108.247C4.96935 109.139 5.14266 109.921 5.48928 110.592C5.83589 111.263 6.31125 111.78 6.91536 112.14C7.52936 112.501 8.21765 112.682 8.9802 112.682C9.84179 112.682 10.5746 112.486 11.1787 112.095C11.7927 111.694 12.2483 111.143 12.5454 110.442H13.7635C13.3872 111.444 12.7831 112.221 11.9512 112.772C11.1193 113.323 10.129 113.599 8.9802 113.599C8.02948 113.599 7.16789 113.373 6.39543 112.922C5.62297 112.461 5.01392 111.825 4.56827 111.013C4.12262 110.201 3.89979 109.279 3.89979 108.247Z" fill="white"/>
<path d="M21.0942 113.614C20.1336 113.614 19.2621 113.388 18.4797 112.937C17.6974 112.476 17.0784 111.84 16.6229 111.028C16.1772 110.206 15.9544 109.279 15.9544 108.247C15.9544 107.215 16.1772 106.293 16.6229 105.481C17.0784 104.659 17.6974 104.023 18.4797 103.572C19.2621 103.111 20.1336 102.88 21.0942 102.88C22.0648 102.88 22.9412 103.111 23.7236 103.572C24.5059 104.023 25.1199 104.659 25.5656 105.481C26.0112 106.293 26.2341 107.215 26.2341 108.247C26.2341 109.279 26.0112 110.206 25.5656 111.028C25.1199 111.84 24.5059 112.476 23.7236 112.937C22.9412 113.388 22.0648 113.614 21.0942 113.614ZM21.0942 112.697C21.8667 112.697 22.5599 112.516 23.1739 112.155C23.7879 111.795 24.2732 111.279 24.6297 110.607C24.9862 109.926 25.1645 109.139 25.1645 108.247C25.1645 107.355 24.9862 106.573 24.6297 105.902C24.2732 105.23 23.7879 104.714 23.1739 104.353C22.5599 103.993 21.8667 103.812 21.0942 103.812C20.3218 103.812 19.6285 103.993 19.0145 104.353C18.4005 104.714 17.9153 105.23 17.5587 105.902C17.2022 106.573 17.024 107.355 17.024 108.247C17.024 109.139 17.2022 109.926 17.5587 110.607C17.9153 111.279 18.4005 111.795 19.0145 112.155C19.6285 112.516 20.3218 112.697 21.0942 112.697Z" fill="white"/>
<path d="M36.5596 113.508H35.5197L29.7708 104.669V113.508H28.731V103H29.7708L35.5197 111.825V103H36.5596V113.508Z" fill="white"/>
<path d="M50.2581 111.509H46.1284L45.4451 113.508H43.2614L46.99 103H49.4113L53.1399 113.508H50.9414L50.2581 111.509ZM49.6936 109.825L48.1932 105.436L46.6929 109.825H49.6936Z" fill="white"/>
<path d="M66.4325 103.015V113.508H64.3528V106.683L61.5749 113.508H60.0003L57.2075 106.683V113.508H55.1278V103.015H57.4898L60.7876 110.818L64.0854 103.015H66.4325Z" fill="white"/>
<path d="M71.1625 104.714V107.345H74.6535V109.014H71.1625V111.795H75.0991V113.508H69.0828V103H75.0991V104.714H71.1625Z" fill="white"/>
<path d="M82.9311 113.508L80.6434 109.419H79.663V113.508H77.5833V103.015H81.4753C82.2774 103.015 82.9608 103.161 83.5253 103.451C84.0898 103.732 84.5106 104.118 84.7879 104.609C85.0751 105.09 85.2187 105.631 85.2187 106.232C85.2187 106.924 85.0207 107.55 84.6245 108.112C84.2284 108.663 83.6392 109.044 82.8568 109.254L85.3376 113.508H82.9311ZM79.663 107.841H81.401C81.9655 107.841 82.3864 107.706 82.6637 107.435C82.941 107.154 83.0796 106.769 83.0796 106.278C83.0796 105.797 82.941 105.426 82.6637 105.165C82.3864 104.895 81.9655 104.759 81.401 104.759H79.663V107.841Z" fill="white"/>
<path d="M89.7736 103.015V113.508H87.6939V103.015H89.7736Z" fill="white"/>
<path d="M91.9175 108.247C91.9175 107.215 92.1453 106.293 92.6009 105.481C93.0663 104.659 93.6952 104.023 94.4874 103.572C95.2896 103.111 96.1859 102.88 97.1762 102.88C98.3349 102.88 99.35 103.181 100.221 103.782C101.093 104.383 101.702 105.215 102.049 106.278H99.657C99.4193 105.776 99.0826 105.401 98.6469 105.15C98.221 104.9 97.7258 104.774 97.1613 104.774C96.5572 104.774 96.0175 104.92 95.5421 105.21C95.0767 105.491 94.7103 105.892 94.4429 106.413C94.1854 106.934 94.0567 107.545 94.0567 108.247C94.0567 108.938 94.1854 109.55 94.4429 110.081C94.7103 110.602 95.0767 111.008 95.5421 111.299C96.0175 111.579 96.5572 111.719 97.1613 111.719C97.7258 111.719 98.221 111.594 98.6469 111.344C99.0826 111.083 99.4193 110.702 99.657 110.201H102.049C101.702 111.273 101.093 112.11 100.221 112.712C99.3599 113.303 98.3448 113.599 97.1762 113.599C96.1859 113.599 95.2896 113.373 94.4874 112.922C93.6952 112.461 93.0663 111.825 92.6009 111.013C92.1453 110.201 91.9175 109.279 91.9175 108.247Z" fill="white"/>
<path d="M110.777 111.509H106.647L105.964 113.508H103.78L107.509 103H109.93L113.659 113.508H111.46L110.777 111.509ZM110.213 109.825L108.712 105.436L107.212 109.825H110.213Z" fill="white"/>
<path fill-rule="evenodd" clip-rule="evenodd" d="M0.386353 93.3644H109.464L54.925 0.34082L0.386353 93.3644ZM62.7163 74.2827L46.5345 46.8526L30.3527 74.2827H62.7163Z" fill="#F01322"/>
</svg>
