<svg width="134" height="36" viewBox="0 0 134 36" fill="none" xmlns="http://www.w3.org/2000/svg">
<g clip-path="url(#clip0_87_944)">
<path d="M0.25 30.5993C0.25 27.9512 2.33594 26.0084 4.9225 26.0084C7.50906 26.0084 9.595 27.9512 9.595 30.5993C9.595 33.2475 7.52057 35.1903 4.9225 35.1903C2.32443 35.1903 0.25 33.2361 0.25 30.5993ZM1.27427 30.5993C1.27427 32.636 2.90274 34.2601 4.9225 34.2601C6.94226 34.2601 8.57073 32.636 8.57073 30.5993C8.57073 28.5627 6.94226 26.9386 4.9225 26.9386C2.90274 26.9386 1.27427 28.5627 1.27427 30.5993Z" fill="white"/>
<path d="M24.4958 26.1564C25.3963 26.1564 26.1501 26.2616 26.7572 26.7821C27.4161 27.3425 27.5772 28.1276 27.5772 28.6851C27.5772 29.9366 26.7831 31.174 24.7375 31.174H23.8628V35.0339H22.8673V26.1564H24.4958ZM23.8628 30.241H24.6828C25.8682 30.241 26.5817 29.655 26.5817 28.631C26.5817 27.2202 25.2496 27.0865 24.6022 27.0865H23.8628V30.241Z" fill="white"/>
<path d="M42.6593 27.0865V35.031H41.6638V27.0865H39.4829V26.1564H44.8401V27.0865H42.6593Z" fill="white"/>
<path d="M58.6275 26.1564V35.0339H57.632V26.1564H58.6275Z" fill="white"/>
<path d="M79.2509 28.1105C78.969 27.8317 78.5374 27.4989 78.0799 27.2856C77.6081 27.0723 77.0557 26.9386 76.532 26.9386C74.4576 26.9386 72.9241 28.5884 72.9241 30.6392C72.9241 33.0484 74.9036 34.2602 76.5464 34.2602C77.1535 34.2602 77.7433 34.0867 78.2152 33.8477C78.7273 33.5946 79.0898 33.2618 79.2509 33.1025V34.3256C78.2554 35.031 77.2197 35.1903 76.5464 35.1903C73.8822 35.1903 71.9027 33.1935 71.9027 30.625C71.9027 28.0565 73.9081 26.0056 76.6011 26.0056C77.1391 26.0056 78.1749 26.071 79.2538 26.8845V28.1077L79.2509 28.1105Z" fill="white"/>
<path d="M97.4806 32.5307H93.6568L92.5808 35.0338H91.476L95.6075 25.7325L99.6327 35.0338H98.5279L97.4777 32.5307H97.4806ZM97.0893 31.6006L95.5816 28.0479L94.0481 31.6006H97.0893Z" fill="white"/>
<path d="M113.339 26.1564V34.1009H115.817V35.031H112.344V26.1536H113.339V26.1564Z" fill="white"/>
<path d="M132.619 27.9114C132.498 27.6725 132.297 27.4051 132.093 27.2458C131.917 27.1121 131.595 26.9386 131.083 26.9386C130.194 26.9386 129.575 27.4848 129.575 28.3096C129.575 28.6567 129.67 28.8558 129.912 29.0805C130.182 29.3479 130.519 29.4929 130.853 29.638L131.713 30.0106C132.24 30.2382 132.723 30.4771 133.1 30.8497C133.557 31.302 133.747 31.8225 133.747 32.4597C133.747 34.0981 132.521 35.1875 130.907 35.1875C130.315 35.1875 129.575 35.068 128.957 34.4678C128.514 34.0412 128.243 33.4296 128.122 32.8977L129.092 32.6303C129.158 33.0968 129.374 33.495 129.63 33.7624C130.021 34.1493 130.464 34.2545 130.922 34.2545C132.147 34.2545 132.726 33.3898 132.726 32.4967C132.726 32.0984 132.605 31.7514 132.283 31.4584C132.027 31.2195 131.676 31.0602 131.207 30.8469L130.398 30.4743C130.047 30.315 129.604 30.1272 129.201 29.7432C128.81 29.3706 128.583 28.9582 128.583 28.2926C128.583 26.9216 129.647 26.0028 131.1 26.0028C131.653 26.0028 132.096 26.1081 132.542 26.401C132.904 26.64 133.215 27.0012 133.416 27.3852L132.622 27.9029L132.619 27.9114Z" fill="white"/>
<path d="M0.25 6.5752H3.13866V12.2897H12.4779L18.2783 6.5752H22.2459L14.9782 13.8257L21.7941 20.5414H17.9762L12.498 15.0829H3.13866V20.5414H0.25V6.5752Z" fill="white"/>
<path d="M24.9245 6.5752H27.793V20.5414H24.9245V6.5752Z" fill="white"/>
<path d="M42.783 15.0829H33.5301V20.5414H30.6414V6.5752H49.1904C50.1974 6.5752 50.9023 6.97342 51.3051 7.76986C51.4778 8.11119 51.5641 8.49519 51.5641 8.92185V12.7163C51.5641 13.7119 51.1699 14.4088 50.3787 14.807C50.0191 14.9919 49.6249 15.0829 49.1933 15.0829H46.4543L51.9554 20.5414H48.2899L42.7888 15.0829H42.783ZM48.2841 12.2698C48.5143 12.2698 48.6495 12.1645 48.6927 11.9512C48.7071 11.9085 48.7128 11.8744 48.7128 11.8459V9.79794C48.7128 9.57038 48.6064 9.42816 48.3906 9.37127C48.3474 9.35705 48.31 9.35136 48.2841 9.35136H33.5761V12.2726H48.2841V12.2698Z" fill="white"/>
<path d="M101.183 20.5413H82.6344V17.7481L100.254 17.7054C100.484 17.7054 100.62 17.5917 100.663 17.3641C100.677 17.3214 100.683 17.2873 100.683 17.2589L100.663 15.1255V15.0829H82.6316V8.92182C82.6316 7.94049 83.0344 7.25213 83.84 6.85391C84.1852 6.66902 84.5794 6.578 85.0254 6.578H103.531V9.39115L85.9547 9.37124C85.7245 9.37124 85.5893 9.47648 85.5461 9.68981C85.5317 9.73248 85.526 9.76946 85.526 9.79506V12.2896H103.557V18.1748C103.557 19.1703 103.163 19.8672 102.372 20.2654C102.012 20.4503 101.618 20.5413 101.186 20.5413H101.183Z" fill="white"/>
<path d="M106.423 6.5752H109.311V12.2897H124.451V6.5752H127.34V20.5414H124.451V15.0829H109.311V20.5414H106.423V6.5752Z" fill="white"/>
<path d="M130.881 6.5752H133.75V20.5414H130.881V6.5752Z" fill="white"/>
<path d="M56.4581 21.7788H0.25V24.006H58.8922C57.9916 23.3632 57.1745 22.6151 56.4581 21.7788Z" fill="white"/>
<path d="M77.5419 21.7788C76.8226 22.6122 76.0055 23.3603 75.1078 24.006H133.75V21.7788H77.5419Z" fill="white"/>
<path d="M78.5173 8.77971C79.5243 6.75732 79.1819 4.23715 77.4815 2.55609C75.7811 0.875029 73.2319 0.536541 71.1863 1.53209C69.88 1.06276 68.4702 0.806763 67 0.806763C60.2329 0.806763 54.7491 6.22825 54.7491 12.9184C54.7491 19.6085 60.2329 25.03 67 25.03C73.7671 25.03 79.2509 19.6085 79.2509 12.9184C79.2509 11.4649 78.992 10.0711 78.5173 8.77971ZM70.1102 2.72107C70.162 2.67271 70.2167 2.62436 70.2713 2.57885C70.4842 2.42525 70.7576 2.34845 71.0827 2.34845C72.2105 2.34845 73.9023 3.21884 75.3581 4.65813C77.2283 6.50701 78.1461 8.73989 77.4671 9.6814C77.4182 9.73544 77.3693 9.78949 77.3175 9.84353C76.4141 10.6257 74.0807 9.71837 72.1587 7.81829C70.2368 5.91821 69.319 3.61137 70.1102 2.72107ZM77.2168 2.82062C78.7129 4.29973 79.0841 6.47856 78.3274 8.30469C77.0844 5.32941 74.6791 2.95147 71.6696 1.72267C73.5168 0.974584 75.7207 1.34152 77.2168 2.82062ZM67 22.6691C61.5536 22.6691 57.14 18.3057 57.14 12.9212C57.14 7.53669 61.5536 3.17333 67 3.17333C67.8459 3.17333 68.6659 3.28426 69.4513 3.48338C69.3881 4.71786 70.2857 6.49563 71.8941 8.08283C73.4477 9.61882 75.1798 10.5034 76.4227 10.5034C76.4659 10.5034 76.5033 10.4978 76.5464 10.4949C76.7478 11.2714 76.8629 12.0821 76.8629 12.9212C76.8629 18.3057 72.4493 22.6691 67.0029 22.6691H67Z" fill="white"/>
<path d="M74.0605 8.25063C74.2734 8.25063 74.4547 8.18805 74.5871 8.05721C75.0244 7.62485 74.7079 6.66344 73.8534 5.81864C73.4707 5.44033 73.0363 5.1502 72.6335 5.00229C72.1846 4.84015 71.8135 4.87144 71.5891 5.09331C71.3646 5.31517 71.333 5.68211 71.497 6.12584C71.6437 6.52406 71.9372 6.95072 72.3227 7.33188C72.9183 7.92068 73.5714 8.25063 74.0605 8.25063Z" fill="white"/>
</g>
<defs>
<clipPath id="clip0_87_944">
<rect width="133.5" height="34.3864" fill="white" transform="translate(0.25 0.806763)"/>
</clipPath>
</defs>
</svg>
