<svg width="134" height="62" viewBox="0 0 134 62" fill="none" xmlns="http://www.w3.org/2000/svg">
<g clip-path="url(#clip0_203_1371)">
<path d="M6.18311 51.8162V52.9698C5.45143 52.4432 4.69983 52.1773 3.92833 52.1773C3.2514 52.1773 2.71383 52.3328 2.31066 52.6388C1.91247 52.9448 1.71337 53.321 1.71337 53.7623C1.71337 54.0282 1.77808 54.274 1.90749 54.4947C2.0369 54.7154 2.25591 54.921 2.56949 55.1166C2.88307 55.3122 3.13692 55.4577 3.34099 55.558C3.54507 55.6583 3.87358 55.8088 4.33648 56.0044C4.75459 56.185 5.0831 56.3405 5.32201 56.4709C5.56093 56.6013 5.81976 56.7719 6.10347 56.9825C6.38719 57.1932 6.59624 57.4289 6.73561 57.6898C6.87 57.9506 6.93968 58.2415 6.93968 58.5575C6.93968 59.3099 6.58629 59.9619 5.88447 60.5087C5.17767 61.0604 4.25186 61.3313 3.10207 61.3313C2.16632 61.3313 1.35997 61.1658 0.683038 60.8397V59.661C1.45454 60.1877 2.2808 60.4535 3.1618 60.4535C3.87856 60.4535 4.45096 60.283 4.86907 59.9419C5.28717 59.6008 5.49125 59.1945 5.47632 58.728C5.47632 58.4772 5.41659 58.2465 5.3021 58.0409C5.18762 57.8352 4.99848 57.6396 4.74463 57.464C4.4858 57.2885 4.25186 57.143 4.03286 57.0377C3.81385 56.9274 3.5152 56.7869 3.13692 56.6164C3.01746 56.5662 2.92786 56.5261 2.87311 56.501C2.46496 56.3204 2.14143 56.1649 1.89753 56.0345C1.65364 55.9041 1.38486 55.7336 1.09617 55.5229C0.802496 55.3122 0.593444 55.0715 0.454075 54.8006C0.319684 54.5348 0.25 54.2288 0.25 53.8928C0.25 53.1905 0.568556 52.5836 1.20567 52.072C1.84278 51.5554 2.69392 51.2996 3.76407 51.2996C4.59033 51.2996 5.39668 51.4751 6.18311 51.8162Z" fill="white"/>
<path d="M38.5115 51.4299V52.2626H36.2169V61.2159H34.7934V52.2626H32.4988V51.4299H38.5115Z" fill="white"/>
<path d="M67.8338 51.2996C68.3913 51.2996 68.879 51.3698 69.3071 51.5152C69.7352 51.6557 70.0786 51.8613 70.3424 52.1322C70.6062 52.398 70.8252 52.689 71.0044 52.9949C71.1786 53.3009 71.308 53.662 71.3926 54.0783C71.4723 54.4947 71.527 54.8658 71.5569 55.1919C71.5818 55.5229 71.5967 55.8991 71.5967 56.3204C71.5967 56.6414 71.5917 56.9274 71.5768 57.1832C71.5619 57.439 71.527 57.75 71.4773 58.1111C71.4225 58.4722 71.3429 58.7932 71.2433 59.0691C71.1438 59.345 70.9945 59.6359 70.8053 59.9318C70.6162 60.2278 70.3922 60.4786 70.1334 60.6692C69.8745 60.8598 69.551 61.0253 69.1578 61.1507C68.7646 61.2761 68.3265 61.3413 67.8388 61.3413C67.0374 61.3413 66.3754 61.1958 65.8478 60.8999C65.3202 60.604 64.9319 60.1927 64.688 59.661C64.4441 59.1293 64.2799 58.6077 64.2002 58.096C64.1206 57.5844 64.0758 56.9926 64.0758 56.3204C64.0758 55.7687 64.1007 55.2721 64.1455 54.8357C64.1903 54.3994 64.2998 53.9529 64.4591 53.4915C64.6233 53.035 64.8324 52.6488 65.1012 52.3429C65.365 52.0369 65.7333 51.7861 66.1962 51.5905C66.6641 51.3949 67.2066 51.2996 67.8338 51.2996ZM67.8338 52.1824C67.4804 52.1723 67.1718 52.2275 66.898 52.3378C66.6292 52.4482 66.4152 52.6237 66.2559 52.8545C66.0967 53.0852 65.9672 53.326 65.8577 53.5667C65.7482 53.8075 65.6736 54.1084 65.6337 54.4696C65.5939 54.8307 65.5641 55.1367 65.5541 55.3975C65.5392 55.6583 65.5342 55.9643 65.5342 56.3204C65.5342 56.7518 65.5442 57.123 65.5641 57.4239C65.584 57.7249 65.6337 58.086 65.7184 58.5073C65.803 58.9287 65.9175 59.2647 66.0718 59.5205C66.2261 59.7764 66.455 59.9971 66.7537 60.1826C67.0523 60.3682 67.4107 60.4635 67.8288 60.4635C68.2469 60.4635 68.6053 60.3682 68.9039 60.1826C69.2026 59.9971 69.4266 59.7764 69.5858 59.5205C69.7401 59.2647 69.8596 58.9287 69.9392 58.5073C70.0189 58.086 70.0736 57.7249 70.0935 57.4239C70.1135 57.123 70.1234 56.7518 70.1234 56.3204C70.1234 55.8891 70.1135 55.5179 70.0935 55.2169C70.0736 54.916 70.0238 54.5549 69.9392 54.1335C69.8596 53.7122 69.7401 53.3761 69.5858 53.1203C69.4315 52.8645 69.2026 52.6438 68.9039 52.4582C68.6053 52.2726 68.2469 52.1773 67.8288 52.1773L67.8338 52.1824Z" fill="white"/>
<path d="M98.5794 61.2108H97.1559V51.4299H98.679C99.112 51.4299 99.4654 51.4349 99.7442 51.45C100.023 51.465 100.341 51.4951 100.7 51.5403C101.058 51.5854 101.352 51.6657 101.586 51.781C101.815 51.8914 102.034 52.0368 102.248 52.2174C102.457 52.393 102.611 52.6287 102.716 52.9096C102.82 53.1905 102.87 53.5316 102.87 53.9228C102.87 54.2689 102.83 54.5749 102.76 54.8457C102.686 55.1116 102.551 55.3724 102.352 55.6232C102.158 55.874 101.86 56.0696 101.456 56.2151C101.058 56.3605 100.565 56.4358 99.9831 56.4408L103.378 61.2159H101.874L98.6242 56.4257H98.5844V61.2159L98.5794 61.2108ZM98.5794 52.2575V55.6834H99.0871C100.048 55.6834 100.675 55.563 100.969 55.3272C101.257 55.0915 101.407 54.6351 101.407 53.9579C101.407 53.5767 101.362 53.2708 101.272 53.045C101.183 52.8143 101.023 52.6438 100.794 52.5334C100.565 52.4231 100.312 52.3478 100.033 52.3127C99.7541 52.2776 99.3659 52.2626 98.8631 52.2626H98.5794V52.2575Z" fill="white"/>
<path d="M133.75 51.4299V52.2626H130.355V55.7135H133.646V56.5461H130.355V60.3882H133.75V61.2209H128.932V51.44H133.75V51.4299Z" fill="white"/>
<path d="M23.3354 35.299H0.25V24.3142L24.0272 2.71094H38.8252V25.3776H45.8683V35.299H38.8252V43.3344H23.3404V35.299H23.3354ZM10.6329 25.3776H23.3354V13.9715L10.6329 25.3776Z" fill="white"/>
<path d="M66.7338 29.33C66.7338 30.3783 66.9279 31.2912 67.3161 32.0687C68.013 33.2675 69.1926 34.07 70.8551 34.4663C72.4329 34.8826 74.0556 35.0932 75.7131 35.0932C77.2412 35.1334 78.824 34.8826 80.4566 34.3509C82.0643 33.7992 82.8905 32.7809 82.9453 31.3013C82.9951 30.258 82.2186 29.4203 80.6159 28.7933C78.9385 28.2065 75.7529 27.4441 71.0641 26.5111C68.8591 26.0547 66.7039 25.5531 64.5984 25.0013C62.3934 24.4496 60.3975 23.7474 58.6205 22.8897C56.8137 22.032 55.3504 20.9034 54.2205 19.499C53.0408 18.1898 52.4535 16.4945 52.4535 14.4229C52.5481 9.59766 54.7829 6.08154 59.1531 3.87456C63.3242 1.73279 68.2519 0.659401 73.9361 0.659401C79.8842 0.619274 85.006 1.58733 89.3065 3.55857C93.4825 5.66522 95.7622 9.21645 96.1554 14.2223H80.6258C80.8199 12.6724 80.1778 11.5689 78.6946 10.9068C77.2362 10.2246 75.6185 9.88857 73.8465 9.88857C72.632 9.88857 71.3777 10.0591 70.0935 10.4002C69.5112 10.5908 69.0134 10.8667 68.6003 11.2278C68.1623 11.609 67.9433 12.0905 67.9433 12.6824C68.0428 13.3846 68.5605 13.9665 69.5112 14.4229C70.4121 14.9345 71.5768 15.3809 73.0103 15.7621C76.0466 16.4644 79.5109 17.1866 83.4032 17.929C85.4738 18.3303 87.4499 18.8118 89.3363 19.3836C91.1979 19.9353 92.8902 20.6777 94.4183 21.6056C95.9713 22.5386 97.2007 23.6671 98.1016 24.9963C98.9279 26.4008 99.341 28.056 99.341 29.957C99.1917 35.2989 96.5536 39.0307 91.4318 41.1624C86.3797 43.3092 80.6607 44.3625 74.2746 44.3274C72.6918 44.3274 70.6112 44.1469 68.0329 43.7857C65.4347 43.4446 62.7966 42.7675 60.1237 41.7593C57.4757 40.7311 55.2359 39.2113 53.3992 37.1949C51.5426 35.2538 50.5372 32.6305 50.3928 29.325H66.7387L66.7338 29.33Z" fill="white"/>
<path d="M132.302 3.10707V7.99252H119.893V41.8746H113.118V7.99252H100.779V3.10707H132.302ZM133.75 1.64746H99.3359V9.44712H111.675V43.3292H121.346V9.45213H133.755V1.65248L133.75 1.64746Z" fill="white"/>
</g>
<defs>
<clipPath id="clip0_203_1371">
<rect width="133.5" height="60.6818" fill="white" transform="translate(0.25 0.65918)"/>
</clipPath>
</defs>
</svg>
