<svg width="134" height="32" viewBox="0 0 134 32" fill="none" xmlns="http://www.w3.org/2000/svg">
<g clip-path="url(#clip0_136_1559)">
<path d="M39.6676 31.1578L41.6681 21.7485H46.7657C47.3292 21.7485 47.7887 21.9545 48.1492 22.3665C48.5072 22.7785 48.6316 23.2438 48.5224 23.7652L48.2355 25.1104C48.1238 25.6292 47.8014 26.0971 47.2683 26.5091C46.7428 26.9211 46.1945 27.127 45.6233 27.127H41.9829L41.1248 31.1603H39.6676V31.1578ZM42.2672 25.7818H45.9076C46.0726 25.7818 46.2503 25.708 46.4433 25.5605C46.6362 25.413 46.7479 25.263 46.7784 25.1104L47.0652 23.7652C47.0982 23.6126 47.05 23.4625 46.9205 23.315C46.7911 23.1675 46.6438 23.0938 46.4788 23.0938H42.8384L42.2672 25.7818Z" fill="white"/>
<path d="M48.5909 29.1412L49.7333 23.7653C49.8425 23.2541 50.1624 22.7938 50.698 22.3793C51.2438 21.9572 51.7947 21.7461 52.3482 21.7461H55.26C55.8236 21.7461 56.2831 21.9521 56.6435 22.3641C57.0015 22.776 57.1259 23.2414 57.0167 23.7627L55.8743 29.1387C55.7626 29.6575 55.4402 30.1254 54.9071 30.5374C54.3816 30.9493 53.8333 31.1553 53.2621 31.1553H50.3502C49.7765 31.1553 49.3119 30.9493 48.9514 30.5374C48.6011 30.1254 48.4818 29.66 48.5935 29.1387L48.5909 29.1412ZM50.0481 29.1412C50.0151 29.2938 50.0634 29.4438 50.1928 29.5913C50.3223 29.7388 50.4696 29.8126 50.6346 29.8126H53.5464C53.7114 29.8126 53.8891 29.7388 54.082 29.5913C54.275 29.4438 54.3867 29.2938 54.4171 29.1412L55.5595 23.7653C55.5925 23.6127 55.5443 23.4626 55.4148 23.3151C55.2854 23.1676 55.1381 23.0939 54.9731 23.0939H52.0613C51.8963 23.0939 51.7186 23.1676 51.5256 23.3151C51.3352 23.4626 51.221 23.6127 51.1905 23.7653L50.0481 29.1412Z" fill="white"/>
<path d="M56.6283 31.1578L58.6288 21.7485H60.0859L58.3723 29.815H64.1985L63.9117 31.1603H56.6283V31.1578Z" fill="white"/>
<path d="M66.4199 23.75L66.8464 21.7461H68.3036L67.9381 23.4677L69.6872 25.5098L72.3071 23.4677L72.6726 21.7461H74.1298L73.7033 23.75C73.6627 23.9382 73.5612 24.0959 73.3987 24.2205L70.1543 26.7355L69.2124 31.1706H67.7553L68.6971 26.7355L66.5367 24.2205C66.4174 24.0959 66.3793 23.9382 66.4174 23.75H66.4199Z" fill="white"/>
<path d="M75.2518 23.0914L75.5387 21.7461H82.8221L82.5352 23.0914H79.6234L77.9098 31.1579H76.4526L78.1662 23.0914H75.2544H75.2518Z" fill="white"/>
<path d="M82.0885 31.1578L84.0889 21.7485H91.3723L91.0855 23.0938H85.2593L84.6881 25.7818H89.0571L88.7702 27.127H84.4012L83.83 29.815H89.6562L89.3693 31.1603H82.0859L82.0885 31.1578Z" fill="white"/>
<path d="M90.9915 29.1411L92.1339 23.7652C92.2456 23.2464 92.5629 22.7785 93.0859 22.3665C93.619 21.9545 94.1724 21.7485 94.7462 21.7485H97.658C98.2216 21.7485 98.6811 21.9545 99.0416 22.3665C99.4021 22.7785 99.5239 23.2438 99.4148 23.7652L99.2726 24.4365H97.8154L97.9576 23.7652C97.9906 23.6126 97.9423 23.4625 97.8129 23.315C97.6834 23.1675 97.5362 23.0938 97.3711 23.0938H94.4593C94.2943 23.0938 94.1166 23.1675 93.9237 23.315C93.7333 23.4625 93.619 23.6126 93.5886 23.7652L92.4462 29.1411C92.4132 29.2937 92.4614 29.4437 92.5909 29.5912C92.7203 29.7387 92.8676 29.8125 93.0326 29.8125H95.9444C96.1094 29.8125 96.2871 29.7387 96.4801 29.5912C96.673 29.4437 96.7847 29.2937 96.8152 29.1411L96.9573 28.4698H98.4145L98.2724 29.1411C98.1607 29.6599 97.8383 30.1278 97.3051 30.5398C96.7796 30.9518 96.2313 31.1578 95.6601 31.1578H92.7483C92.1847 31.1578 91.7252 30.9518 91.3647 30.5398C91.0067 30.1278 90.8824 29.6624 90.9915 29.1411Z" fill="white"/>
<path d="M98.8409 31.1578L100.841 21.7485H102.299L101.441 25.7818H105.81L106.668 21.7485H108.125L106.124 31.1578H104.667L105.525 27.1245H101.156L100.298 31.1578H98.8409Z" fill="white"/>
<path d="M107.485 31.1578L109.486 21.7485H110.854L113.847 28.6325L115.309 21.7485H116.766L114.766 31.1578H113.41L110.402 24.2738L108.94 31.1578H107.483H107.485Z" fill="white"/>
<path d="M123.852 23.2058L124.161 21.7461H118.571L118.262 23.2058H120.328L118.947 29.6982H116.881L116.571 31.1579H122.161L122.471 29.6982H120.404L121.785 23.2058H123.852Z" fill="white"/>
<path d="M124.745 29.1411L125.888 23.7652C126 23.2464 126.317 22.7785 126.84 22.3665C127.373 21.9545 127.926 21.7485 128.5 21.7485H131.412C131.975 21.7485 132.435 21.9545 132.795 22.3665C133.156 22.7785 133.278 23.2438 133.169 23.7652L133.027 24.4365H131.569L131.711 23.7652C131.744 23.6126 131.696 23.4625 131.567 23.315C131.437 23.1675 131.29 23.0938 131.125 23.0938H128.213C128.048 23.0938 127.871 23.1675 127.678 23.315C127.487 23.4625 127.373 23.6126 127.342 23.7652L126.2 29.1411C126.167 29.2937 126.215 29.4437 126.345 29.5912C126.474 29.7387 126.621 29.8125 126.786 29.8125H129.698C129.863 29.8125 130.041 29.7387 130.234 29.5912C130.427 29.4437 130.539 29.2937 130.569 29.1411L130.711 28.4698H132.168L132.026 29.1411C131.915 29.6599 131.592 30.1278 131.059 30.5398C130.534 30.9518 129.985 31.1578 129.414 31.1578H126.502C125.939 31.1578 125.479 30.9518 125.119 30.5398C124.761 30.1278 124.636 29.6624 124.745 29.1411Z" fill="white"/>
<path d="M46.1107 0.82959L42.0742 19.821H56.25C57.5194 19.821 58.7684 18.791 59.0375 17.5195L62.094 3.13103C62.3656 1.86206 61.5558 0.82959 60.2865 0.82959H46.1107ZM54.1176 15.4164H47.4105L49.5734 5.23666H56.2805C57.1056 5.23666 57.6336 5.90802 57.4584 6.73451L55.9327 13.916C55.7575 14.7425 54.9452 15.4139 54.1176 15.4139V15.4164Z" fill="white"/>
<path d="M75.4651 0.82959H70.9869L59.9235 19.821H64.3229L71.8856 7.14394L74.0587 19.821H78.4556L75.4651 0.82959Z" fill="white"/>
<path d="M96.0384 19.821L94.3933 12.4614C96.1221 12.2046 97.7113 10.7627 98.082 9.01307L99.0797 4.32117C99.4909 2.39355 98.2622 0.82959 96.3379 0.82959H84.2743L80.2378 19.821H84.1092L85.6629 12.5072H89.7577L91.6414 19.821H96.0409H96.0384ZM87.2064 5.23666H93.652C94.5862 5.23666 95.1854 5.99703 94.9848 6.93287C94.7843 7.8687 93.8653 8.62907 92.931 8.62907H86.4854L87.2064 5.23666Z" fill="white"/>
<path d="M113.707 19.821L112.062 12.4614C113.791 12.2046 115.38 10.7627 115.751 9.01307L116.749 4.32117C117.157 2.39355 115.929 0.82959 114.004 0.82959H101.941L97.9042 19.821H101.776L103.329 12.5072H107.424L109.308 19.821H113.707ZM104.875 5.23666H111.321C112.255 5.23666 112.854 5.99703 112.654 6.93287C112.453 7.8687 111.534 8.62907 110.6 8.62907H104.154L104.875 5.23666Z" fill="white"/>
<path d="M130.759 0.82959H126.281L115.218 19.821H119.617L127.18 7.14394L129.353 19.821H133.75L130.759 0.82959Z" fill="white"/>
<path d="M6.69817 0.82959L0.25 31.1705H19.6174C23.2984 31.1705 26.916 28.1824 27.7004 24.495L28.7413 19.6022H23.5294L22.6866 23.5694C22.4073 24.8841 21.1177 25.9497 19.8052 25.9497H6.57124L10.8006 6.05043H24.0295C25.342 6.05043 26.1798 7.11596 25.9005 8.43071L25.0577 12.3978H30.2695L31.6176 6.05043H33.7932C35.1057 6.05043 35.9434 7.11596 35.6642 8.43071L35.1666 10.7779C34.8873 12.0927 33.5977 13.1582 32.2852 13.1582H20.2596L21.5214 7.22531H16.3095L12.5802 24.7748H17.7921L19.1503 18.3791H32.0999C35.7809 18.3791 39.3985 15.391 40.183 11.7036L41.074 7.50505C41.8585 3.81765 39.5102 0.82959 35.8292 0.82959L6.69817 0.82959Z" fill="#EB3E13"/>
</g>
<defs>
<clipPath id="clip0_136_1559">
<rect width="133.5" height="30.3409" fill="white" transform="translate(0.25 0.82959)"/>
</clipPath>
</defs>
</svg>
