<svg width="150" height="14" viewBox="0 0 150 14" fill="none" xmlns="http://www.w3.org/2000/svg">
<g clip-path="url(#clip0_96_1358)">
<path d="M14.4897 13.7734H0.159058V0.931763H14.4897C15.8741 0.931763 17.0303 1.44183 17.9606 2.46198C18.7718 3.36311 19.175 4.41482 19.175 5.61957V9.07105C19.175 10.4701 18.6577 11.6336 17.6254 12.5614C16.7364 13.3727 15.692 13.7759 14.4897 13.7759V13.7734ZM14.5091 11.2061C15.1236 11.2061 15.6531 10.9195 16.0976 10.3438C16.3842 9.97704 16.5299 9.59327 16.5299 9.18764V5.52241C16.5299 4.89575 16.236 4.35896 15.6482 3.91447C15.2815 3.64 14.9026 3.50155 14.5115 3.50155H2.78714V11.2061H14.5115H14.5091Z" fill="#F2F2AA"/>
<path d="M31.1933 5.83331L36.8211 0.931763H40.7608L32.5073 8.14564V13.7734H29.8987V8.14564L21.7837 0.931763H25.7234L31.1933 5.83331Z" fill="#F2F2AA"/>
<path d="M59.954 9.40139V0.931763H62.6015V13.7734L46.0169 5.30381V13.7734H43.3694V0.931763L59.954 9.40139Z" fill="#F2F2AA"/>
<path d="M82.2636 0.931763C83.1793 0.931763 83.8181 1.29853 84.1849 2.02963C84.3427 2.34296 84.4205 2.69515 84.4205 3.08864V13.7734H81.7729V8.75529H67.8917V13.7734H65.2053V3.08864C65.2053 2.18751 65.5721 1.55356 66.3032 1.1868C66.6165 1.01677 66.976 0.931763 67.3816 0.931763H82.2612L82.2636 0.931763ZM81.4013 3.49912H68.2658C68.0569 3.49912 67.933 3.59628 67.8941 3.79302C67.882 3.83189 67.8747 3.86589 67.8747 3.89018C67.8747 4.02134 67.882 4.78645 67.8941 6.18307H81.7754V3.90961C81.7754 3.70072 81.6782 3.56956 81.4815 3.51856C81.4548 3.50641 81.428 3.49912 81.4037 3.49912H81.4013Z" fill="#F2F2AA"/>
<path d="M87.0267 0.931763H89.6524V11.1842H106.043V13.771H87.0267V0.931763Z" fill="#F2F2AA"/>
<path d="M125.707 0.931763C126.623 0.931763 127.262 1.29853 127.628 2.02963C127.786 2.34296 127.864 2.69515 127.864 3.08864V13.7734H125.217V8.75529H111.335V13.7734H108.649V3.08864C108.649 2.18751 109.016 1.55356 109.747 1.1868C110.06 1.01677 110.42 0.931763 110.825 0.931763H125.705L125.707 0.931763ZM124.845 3.49912H111.709C111.5 3.49912 111.377 3.59628 111.338 3.79302C111.323 3.83189 111.318 3.86589 111.318 3.89018C111.318 4.02134 111.326 4.78645 111.338 6.18307H125.219V3.90961C125.219 3.70072 125.122 3.56956 124.925 3.51856C124.898 3.50641 124.872 3.49912 124.847 3.49912H124.845Z" fill="#F2F2AA"/>
<path d="M141.51 8.75287H133.098V13.771H130.473V0.931763H147.332C148.247 0.931763 148.886 1.29853 149.253 2.02963C149.411 2.34296 149.489 2.69515 149.489 3.08864V6.57899C149.489 7.49469 149.129 8.13349 148.41 8.50026C148.082 8.67028 147.723 8.75529 147.332 8.75529H144.842L149.841 13.7734H146.508L141.51 8.75529V8.75287ZM146.508 6.16607C146.717 6.16607 146.841 6.06892 146.882 5.87217C146.895 5.83331 146.902 5.79931 146.902 5.77502V3.89261C146.902 3.68372 146.805 3.55256 146.608 3.49912C146.569 3.48698 146.535 3.47969 146.511 3.47969H133.14V6.16607H146.511H146.508Z" fill="#F2F2AA"/>
</g>
<defs>
<clipPath id="clip0_96_1358">
<rect width="149.682" height="12.8417" fill="white" transform="translate(0.159058 0.931763)"/>
</clipPath>
</defs>
</svg>
