<svg width="150" height="28" viewBox="0 0 150 28" fill="none" xmlns="http://www.w3.org/2000/svg">
<g clip-path="url(#clip0_136_1494)">
<path d="M40.2494 26.5159C40.177 26.6321 39.9221 26.9153 39.8041 26.9918C39.7129 27.0542 39.5734 27.1023 39.4688 27.1023H37.736V22.9634H39.4688C39.5734 22.9634 39.7129 23.0059 39.8041 23.0654C39.9221 23.1419 40.177 23.4393 40.2494 23.5555C40.3084 23.6518 40.3272 23.7679 40.3272 23.8869V26.1844C40.3272 26.3006 40.3084 26.4196 40.2494 26.5159ZM39.9275 23.7991C39.8417 23.6405 39.6244 23.4252 39.5198 23.3713C39.501 23.3572 39.4661 23.3515 39.4339 23.3515H38.1142V26.717H39.4339C39.4661 26.717 39.501 26.7114 39.5198 26.6972C39.6244 26.6434 39.8417 26.4224 39.9275 26.2638C39.9409 26.2354 39.9463 26.2099 39.9463 26.1731V23.9039C39.9463 23.8699 39.9409 23.8274 39.9275 23.8019V23.7991Z" fill="white"/>
<path d="M45.7616 27.1023V22.9634H48.0201V23.3487H46.1425V24.8388H47.9209V25.2241H46.1425V26.7142H48.0201V27.0995H45.7616V27.1023Z" fill="white"/>
<path d="M53.8676 23.3515V24.8416H55.646V25.2269H53.8676V27.1023H53.4868V22.9634H55.7453V23.3487H53.8676V23.3515Z" fill="white"/>
<path d="M61.1019 27.1023V22.9634H63.3605V23.3487H61.4828V24.8388H63.2612V25.2241H61.4828V26.7142H63.3605V27.0995H61.1019V27.1023Z" fill="white"/>
<path d="M70.9139 27.1023L69.1999 23.5696V27.1023H68.8324V22.9634H69.3367L71.0373 26.5301V22.9634H71.4048V27.1023H70.9112H70.9139Z" fill="white"/>
<path d="M79.5323 26.5498C79.4599 26.666 79.197 26.9493 79.079 27.0257C78.9878 27.0881 78.8483 27.1362 78.7437 27.1362H77.6546C77.55 27.1362 77.4052 27.0881 77.314 27.0257C77.1772 26.9351 77.0001 26.7226 76.9063 26.5923C76.8607 26.5243 76.8016 26.4195 76.7614 26.3232L77.1343 26.2127C77.1611 26.275 77.1799 26.2948 77.1799 26.2948C77.2711 26.4592 77.4696 26.6688 77.5795 26.7283C77.5983 26.7424 77.6385 26.7481 77.6707 26.7481H78.7142C78.7463 26.7481 78.7732 26.7424 78.7919 26.7283C78.8966 26.6745 79.1192 26.4733 79.205 26.3147C79.2184 26.2863 79.2238 26.2608 79.2238 26.224V25.7821C79.2238 25.6433 79.138 25.4931 79.0146 25.4563L77.2174 24.9379C76.9626 24.8614 76.8097 24.5781 76.8097 24.2891V23.8613C76.8097 23.7452 76.8285 23.6205 76.8875 23.5242C76.9599 23.4081 77.2228 23.1163 77.3408 23.0426C77.432 22.9803 77.5715 22.9321 77.6761 22.9321H78.6552C78.7598 22.9321 78.8966 22.9803 78.9904 23.0426C79.1272 23.1333 79.307 23.3457 79.3982 23.4761C79.4438 23.544 79.5108 23.6489 79.5484 23.7452L79.1675 23.8613C79.1407 23.799 79.1219 23.7707 79.1219 23.7707C79.036 23.6064 78.8322 23.3967 78.7222 23.3372C78.7034 23.3231 78.6686 23.3174 78.6364 23.3174H77.711C77.6788 23.3174 77.6466 23.3231 77.6251 23.3372C77.5205 23.3911 77.3033 23.578 77.2174 23.7367C77.204 23.765 77.1906 23.7905 77.1906 23.8273V24.2608C77.1906 24.3996 77.2764 24.5356 77.3945 24.5724L79.1863 25.0965C79.4411 25.173 79.6074 25.4478 79.6074 25.7367V26.2042C79.6074 26.3203 79.5886 26.445 79.5296 26.5413L79.5323 26.5498Z" fill="white"/>
<path d="M84.9453 27.1023V22.9634H87.2038V23.3487H85.3261V24.8388H87.1045V25.2241H85.3261V26.7142H87.2038V27.0995H84.9453V27.1023Z" fill="white"/>
<path d="M101.265 26.5498C101.192 26.666 100.929 26.9493 100.811 27.0257C100.72 27.0881 100.581 27.1362 100.476 27.1362H99.387C99.2824 27.1362 99.1375 27.0881 99.0463 27.0257C98.9095 26.9351 98.7325 26.7226 98.6386 26.5923C98.593 26.5243 98.534 26.4195 98.4938 26.3232L98.8666 26.2127C98.8934 26.275 98.9122 26.2948 98.9122 26.2948C99.0034 26.4592 99.2019 26.6688 99.3119 26.7283C99.3307 26.7424 99.3709 26.7481 99.4031 26.7481H100.447C100.479 26.7481 100.506 26.7424 100.524 26.7283C100.629 26.6745 100.852 26.4733 100.937 26.3147C100.951 26.2863 100.956 26.2608 100.956 26.224V25.7821C100.956 25.6433 100.87 25.4931 100.747 25.4563L98.9498 24.9379C98.6949 24.8614 98.5421 24.5781 98.5421 24.2891V23.8613C98.5421 23.7452 98.5608 23.6205 98.6198 23.5242C98.6923 23.4081 98.9551 23.1163 99.0732 23.0426C99.1644 22.9803 99.3038 22.9321 99.4085 22.9321H100.388C100.492 22.9321 100.629 22.9803 100.723 23.0426C100.86 23.1333 101.039 23.3457 101.131 23.4761C101.176 23.544 101.243 23.6489 101.281 23.7452L100.9 23.8613C100.873 23.799 100.854 23.7707 100.854 23.7707C100.768 23.6064 100.565 23.3967 100.455 23.3372C100.436 23.3231 100.401 23.3174 100.369 23.3174H99.4433C99.4111 23.3174 99.3789 23.3231 99.3575 23.3372C99.2529 23.3911 99.0356 23.578 98.9498 23.7367C98.9364 23.765 98.923 23.7905 98.923 23.8273V24.2608C98.923 24.3996 99.0088 24.5356 99.1268 24.5724L100.919 25.0965C101.173 25.173 101.34 25.4478 101.34 25.7367V26.2042C101.34 26.3203 101.321 26.445 101.262 26.5413L101.265 26.5498Z" fill="white"/>
<path d="M107.895 25.3374V27.1023H107.514V25.3374L106.294 22.9634H106.715L107.705 24.9294L108.708 22.9634H109.121L107.893 25.3374H107.895Z" fill="white"/>
<path d="M116.755 26.5498C116.683 26.666 116.42 26.9493 116.302 27.0257C116.211 27.0881 116.071 27.1362 115.967 27.1362H114.878C114.773 27.1362 114.628 27.0881 114.537 27.0257C114.4 26.9351 114.223 26.7226 114.129 26.5923C114.084 26.5243 114.025 26.4195 113.984 26.3232L114.357 26.2127C114.384 26.275 114.403 26.2948 114.403 26.2948C114.494 26.4592 114.692 26.6688 114.802 26.7283C114.821 26.7424 114.861 26.7481 114.894 26.7481H115.937C115.969 26.7481 115.996 26.7424 116.015 26.7283C116.119 26.6745 116.342 26.4733 116.428 26.3147C116.441 26.2863 116.447 26.2608 116.447 26.224V25.7821C116.447 25.6433 116.361 25.4931 116.237 25.4563L114.44 24.9379C114.185 24.8614 114.033 24.5781 114.033 24.2891V23.8613C114.033 23.7452 114.051 23.6205 114.11 23.5242C114.183 23.4081 114.446 23.1163 114.564 23.0426C114.655 22.9803 114.794 22.9321 114.899 22.9321H115.878C115.983 22.9321 116.119 22.9803 116.213 23.0426C116.35 23.1333 116.53 23.3457 116.621 23.4761C116.667 23.544 116.734 23.6489 116.771 23.7452L116.39 23.8613C116.364 23.799 116.345 23.7707 116.345 23.7707C116.259 23.6064 116.055 23.3967 115.945 23.3372C115.926 23.3231 115.891 23.3174 115.859 23.3174H114.934C114.902 23.3174 114.869 23.3231 114.848 23.3372C114.743 23.3911 114.526 23.578 114.44 23.7367C114.427 23.765 114.413 23.7905 114.413 23.8273V24.2608C114.413 24.3996 114.499 24.5356 114.617 24.5724L116.409 25.0965C116.664 25.173 116.83 25.4478 116.83 25.7367V26.2042C116.83 26.3203 116.812 26.445 116.752 26.5413L116.755 26.5498Z" fill="white"/>
<path d="M123.405 23.3513V27.1022H123.024V23.3513H121.903V22.9661H124.529V23.3513H123.407H123.405Z" fill="white"/>
<path d="M129.711 27.1023V22.9634H131.969V23.3487H130.092V24.8388H131.87V25.2241H130.092V26.7142H131.969V27.0995H129.711V27.1023Z" fill="white"/>
<path d="M140.467 27.1023V23.3912L139.147 27.1363H138.893L137.479 23.3912V27.1023H137.111V22.9634H137.656L139.024 26.5301L140.298 22.9634H140.837V27.1023H140.47H140.467Z" fill="white"/>
<path d="M148.798 26.5498C148.726 26.666 148.463 26.9493 148.345 27.0257C148.254 27.0881 148.114 27.1362 148.01 27.1362H146.921C146.816 27.1362 146.671 27.0881 146.58 27.0257C146.443 26.9351 146.266 26.7226 146.172 26.5923C146.127 26.5243 146.068 26.4195 146.028 26.3232L146.4 26.2127C146.427 26.275 146.446 26.2948 146.446 26.2948C146.537 26.4592 146.736 26.6688 146.846 26.7283C146.864 26.7424 146.905 26.7481 146.937 26.7481H147.98C148.012 26.7481 148.039 26.7424 148.058 26.7283C148.163 26.6745 148.385 26.4733 148.471 26.3147C148.485 26.2863 148.49 26.2608 148.49 26.224V25.7821C148.49 25.6433 148.404 25.4931 148.281 25.4563L146.484 24.9379C146.229 24.8614 146.076 24.5781 146.076 24.2891V23.8613C146.076 23.7452 146.095 23.6205 146.154 23.5242C146.226 23.4081 146.489 23.1163 146.607 23.0426C146.698 22.9803 146.838 22.9321 146.942 22.9321H147.921C148.026 22.9321 148.163 22.9803 148.257 23.0426C148.393 23.1333 148.573 23.3457 148.664 23.4761C148.71 23.544 148.777 23.6489 148.814 23.7452L148.434 23.8613C148.407 23.799 148.388 23.7707 148.388 23.7707C148.302 23.6064 148.098 23.3967 147.988 23.3372C147.97 23.3231 147.935 23.3174 147.902 23.3174H146.977C146.945 23.3174 146.913 23.3231 146.891 23.3372C146.787 23.3911 146.569 23.578 146.484 23.7367C146.47 23.765 146.457 23.7905 146.457 23.8273V24.2608C146.457 24.3996 146.543 24.5356 146.661 24.5724L148.452 25.0965C148.707 25.173 148.873 25.4478 148.873 25.7367V26.2042C148.873 26.3203 148.855 26.445 148.796 26.5413L148.798 26.5498Z" fill="white"/>
<path d="M55.4502 1.24609H39.7692C38.7714 1.24609 37.6261 2.08748 37.2103 3.12717L36.309 5.37654H42.5428L36.7006 19.9549H43.1731L49.0153 5.37654H53.7979L55.4529 1.24609H55.4502Z" fill="white"/>
<path d="M55.461 4.88073L54.549 7.15559C54.152 8.14713 54.3827 9.03667 55.1311 9.39079L62.36 12.813C62.5853 12.9206 62.655 13.1869 62.5343 13.4844L62.1293 14.4929C61.8772 15.1219 61.1824 15.6318 60.5789 15.6318H58.4894C58.0119 15.6318 57.7866 15.2295 57.9851 14.7309L58.138 14.3513H51.6655L50.5818 17.0539C49.9488 18.6347 50.665 19.9124 52.1832 19.9124H62.926C64.8599 19.9124 67.0809 18.2806 67.8883 16.2692L69.2563 12.8555C69.7579 11.6033 69.4655 10.4815 68.5186 10.0339L61.4587 6.69949C61.3273 6.63716 61.287 6.48135 61.3568 6.30854L61.4534 6.06774C61.6894 5.47849 62.3412 4.99972 62.9072 4.99972H64.4495C65.6485 4.99972 65.5278 6.01108 65.5278 6.01108H72.0003L72.6334 4.43029C73.3469 2.6512 72.5395 1.20923 70.8281 1.20923H60.4663C58.5162 1.20923 56.2738 2.85517 55.4583 4.8864L55.461 4.88073Z" fill="white"/>
<path d="M85.6212 1.20361L80.2967 14.4902C80.0446 15.1191 79.3499 15.629 78.7464 15.629H76.8285C76.351 15.629 76.1257 15.2267 76.3242 14.7281L81.7452 1.20361H76.5629C75.8494 1.20361 75.0313 1.8042 74.7336 2.54643L68.9209 17.0511C68.2879 18.6319 69.0041 19.9096 70.5223 19.9096H81.0934C83.0274 19.9096 85.2483 18.2778 86.0557 16.2664L92.0937 1.20361H85.6239H85.6212Z" fill="white"/>
<path d="M106.959 1.20352C106.356 1.20352 105.661 1.71345 105.412 2.34236L102.807 8.84115C102.724 9.04796 102.431 9.12445 102.399 8.94881L100.956 1.20068H95.6505C95.2347 1.20068 94.7922 1.34516 94.3925 1.59446C93.8292 1.92875 93.333 2.47551 93.0889 3.08176L86.3455 19.9095H92.378L95.79 11.3936C95.8731 11.1868 96.1655 11.1103 96.1977 11.286L97.8044 19.9095H104.682L112.182 1.20352H106.959Z" fill="white"/>
<path d="M120.559 7.48975C119.368 8.11866 118.196 8.81557 117.056 9.5918L118.096 13.0197H113.593L113.909 11.9885C111.425 14.1132 109.199 16.6515 107.41 19.6941L107.281 20.1275H111.431L112.63 16.1841H119.057L120.256 20.1275H124.405L120.556 7.49258L120.559 7.48975Z" fill="white"/>
<path d="M143.619 1.35376V19.9124H140.271V9.71097L139.552 8.9914L136.709 19.7453H132.278L129.435 8.9914L128.716 9.71097V19.9124H125.363V5.28306C127.396 4.4955 129.435 3.85809 131.417 3.33399L134.491 14.9519L137.924 1.99967C140.027 1.67388 141.961 1.47558 143.619 1.35376Z" fill="white"/>
<path d="M149.485 1.20361V19.9124H145.649V1.24044C146.001 1.21778 146.331 1.20928 146.639 1.20361H149.482H149.485Z" fill="white"/>
<path d="M3.35382 17.1077C4.03514 16.0482 4.73791 14.5439 5.45946 12.5948L6.54313 13.2294C6.14077 14.626 5.52115 16.1105 4.6789 17.6771C4.75937 18.0171 4.69767 18.1219 4.49918 17.9944L3.3565 17.1049L3.35382 17.1077ZM5.58016 11.1982C5.10003 10.6061 4.45626 10.0338 3.65424 9.48424L4.37579 8.46721C5.21805 8.97431 5.89936 9.52673 6.42242 10.1188L5.58016 11.1982ZM6.18101 7.3227C5.41922 6.68812 4.75669 6.15835 4.19608 5.73341L4.91763 4.71638C5.51847 5.01384 6.19979 5.50111 6.96425 6.17818L6.18101 7.3227ZM15.4458 7.89495H17.1893V8.91198H15.4458V11.1358H12.2565V12.2804H15.9877V13.4872H12.2565V14.5666H17.0096V15.7734H12.2565V18.442H11.0521V15.7734H6.72016V14.5666H11.0521V13.4872H7.56242V12.2804H11.0521V11.1358H7.98354V10.1188H11.0521V8.91198H6.84087V7.89495H11.0521V6.62296H7.98354V5.60593H11.0521V3.88916H12.1948C12.514 3.93165 12.5355 4.05914 12.2538 4.27161V5.60593H15.4431V7.89212L15.4458 7.89495ZM14.4238 7.89495V6.62296H12.2592V7.89495H14.4238ZM14.4238 8.91198H12.2592V10.1188H14.4238V8.91198Z" fill="white"/>
<path d="M18.0879 17.2975C19.0509 16.0255 19.9522 14.4815 20.7944 12.6599L21.6957 13.4872C21.0144 15.0963 20.2311 16.6006 19.3486 17.9972C19.4291 18.2522 19.3674 18.357 19.1689 18.3145L18.0853 17.2975H18.0879ZM20.6737 11.2605C19.9522 10.6259 19.1904 10.0763 18.3884 9.60885L19.1099 8.46433C19.9924 8.84678 20.773 9.37655 21.457 10.0536L20.6737 11.2605ZM19.8905 4.71634C20.8132 5.22344 21.5348 5.75603 22.0551 6.30563L21.2129 7.57762C20.6898 7.02803 19.9897 6.45577 19.1072 5.86085L19.8905 4.71634ZM28.5544 15.3286C29.276 15.9632 30.298 16.5156 31.623 16.9802L31.2019 18.3768C28.0743 17.3173 26.2476 15.3257 25.7273 12.405H24.2842V16.5354L26.9906 15.9008L27.1113 16.9802L22.2375 18.2522C22.1973 18.5468 22.0954 18.612 21.9371 18.442L21.6957 16.9802L23.0798 16.7252V6.05066H26.0277V4.0166H27.1704C27.4896 4.0591 27.511 4.18658 27.2294 4.39905V6.05066H30.1773V12.405H26.8673C26.988 13.167 27.3072 13.8894 27.8302 14.5665L30.4777 12.5325L31.3199 13.5495C31.3602 13.762 31.2609 13.8243 31.0195 13.7393L28.5518 15.3286H28.5544ZM24.2815 8.78446H28.9756V7.06769H24.2815V8.78446ZM24.2815 11.3908H28.9756V9.80149H24.2815V11.3908Z" fill="white"/>
<path d="M33.7501 20.6688H0.159119V5.67683C0.159119 3.23483 2.02066 1.24609 4.3087 1.24609H33.7501V20.6688ZM0.877986 19.9011H33.0312V2.01382H4.3087C2.41765 2.01382 0.877986 3.65694 0.877986 5.67683V19.9039V19.9011Z" fill="white"/>
</g>
<defs>
<clipPath id="clip0_136_1494">
<rect width="149.682" height="26.2955" fill="white" transform="translate(0.159119 0.84082)"/>
</clipPath>
</defs>
</svg>
