<svg width="134" height="86" viewBox="0 0 134 86" fill="none" xmlns="http://www.w3.org/2000/svg">
<g clip-path="url(#clip0_204_4007)">
<path d="M18.2549 69.1868V85.4383V85.4547H26.2101V81.0343H22.8943V73.6071H30.493V81.0343H27.1772V85.4547H35.1324V85.4383V69.1868H18.2549Z" fill="white"/>
<path d="M100.296 69.1868V73.3915H102.197L99.7076 76.9442L97.2152 73.3915H99.1135V69.1868H89.3374L99.7076 85.4356L110.075 69.1868H100.296Z" fill="white"/>
<path d="M70.8822 69.1868V85.4383V85.4547H78.8374V81.0343H75.5188V73.6071H83.1203V81.0343H79.8017V85.4547H87.7569V85.4383V69.1868H70.8822Z" fill="white"/>
<path d="M115.148 69.1868H110.512V85.4383H115.148V69.1868Z" fill="white"/>
<path d="M69.6249 69.1868H52.7502V73.0832H56.58V85.4383H60.675V73.0832H61.7002V85.4383H65.7952V73.0832H69.6249V69.1868Z" fill="white"/>
<path d="M51.4627 69.1868H36.5471V72.914L43.8336 81.0316H36.5471V85.4519H51.4627V81.5528L44.3337 73.6071H51.4627V69.1868Z" fill="white"/>
<path d="M0.25 69.1868V85.4383H4.88937V73.6071H11.1369V73.8117L5.82332 75.4844V80.1148L9.76361 78.876L12.104 85.4383H16.9037L14.0797 77.5172L16.9037 76.6277V69.1868H0.25Z" fill="white"/>
<path d="M117.066 69.1868V85.4383H133.75V80.2922L126.712 77.8664V79.7846L129.03 80.5814V81.018H121.705V73.6071H129.03V74.0464L126.712 74.8431V76.7614L133.75 74.3329V69.1868H117.066Z" fill="white"/>
<path d="M39.2078 27.9064C39.6402 27.5724 40.1403 27.1797 40.4241 26.9586C40.4961 26.9089 40.5502 26.8683 40.5862 26.8412C40.8385 26.6472 40.9421 26.2816 40.9466 25.9566C40.9601 25.6316 40.9016 25.3518 40.9016 25.3518C40.9016 25.3518 40.5232 25.5278 40.0457 25.7986C39.5817 26.0694 38.96 26.4395 38.6176 26.7961C38.4239 26.9812 38.2843 27.1662 38.2392 27.3197C38.0275 28.0283 38.4104 28.5699 38.4104 28.5699C38.4104 28.5699 38.7753 28.272 39.2078 27.9154V27.9064Z" fill="white"/>
<path d="M39.46 25.3428C39.924 25.0494 40.4601 24.7064 40.7664 24.5123C40.843 24.4671 40.8971 24.4355 40.9376 24.4085C41.2034 24.237 41.3115 23.8804 41.3611 23.5599C41.4061 23.2395 41.3746 22.9551 41.3746 22.9551C41.3746 22.9551 40.9827 23.095 40.4781 23.3207C39.9691 23.5419 39.3564 23.8578 38.978 24.1828C38.7663 24.3498 38.6086 24.5213 38.5501 24.6657C38.2663 25.3518 38.5951 25.925 38.5951 25.925C38.5951 25.925 38.987 25.6632 39.4555 25.3473L39.46 25.3428Z" fill="white"/>
<path d="M39.9511 22.8107C40.4421 22.5624 41.0142 22.2691 41.3385 22.1066C41.4196 22.0705 41.4782 22.0434 41.5232 22.0208C41.816 21.8809 41.9242 21.5243 42.0143 21.2129C42.0908 20.897 42.0863 20.6126 42.0863 20.6126C42.0863 20.6126 41.6809 20.7119 41.1538 20.8879C40.6133 21.0595 40.0096 21.3257 39.5907 21.6101C39.3609 21.7545 39.1898 21.9125 39.1132 22.0524C38.7618 22.7114 39.0321 23.3072 39.0321 23.3072C39.0321 23.3072 39.451 23.0815 39.9466 22.8152L39.9511 22.8107Z" fill="white"/>
<path d="M40.6718 20.3373C41.1854 20.1342 41.7845 19.8995 42.1224 19.7686C42.2035 19.7415 42.2665 19.7189 42.3116 19.7009C42.6269 19.5926 42.744 19.236 42.8657 18.9381C42.9693 18.6312 42.9963 18.3468 42.9963 18.3468C42.9963 18.3468 42.5819 18.41 42.0413 18.5364C41.4827 18.6538 40.8836 18.8749 40.4241 19.1141C40.1808 19.236 39.9961 19.3759 39.906 19.5068C39.4916 20.1252 39.7033 20.748 39.7033 20.748C39.7033 20.748 40.1403 20.563 40.6673 20.3418L40.6718 20.3373Z" fill="white"/>
<path d="M41.6178 17.9406C42.1494 17.7872 42.7711 17.6111 43.1224 17.5118C43.208 17.4893 43.2711 17.4757 43.3206 17.4622C43.6405 17.381 43.8072 17.047 43.9378 16.7491C44.0729 16.4557 44.127 16.1759 44.127 16.1759C44.127 16.1759 43.708 16.1984 43.1585 16.2752C42.6089 16.3474 41.9827 16.5099 41.5007 16.7039C41.2484 16.8032 41.0457 16.9251 40.9466 17.047C40.4736 17.6247 40.6268 18.2611 40.6268 18.2611C40.6268 18.2611 41.0818 18.1167 41.6268 17.9497L41.6178 17.9406Z" fill="white"/>
<path d="M42.7801 15.6433C43.3251 15.5395 43.9603 15.4221 44.3207 15.3544C44.4063 15.3409 44.4739 15.3318 44.5234 15.3228C44.8478 15.2686 45.0595 14.9617 45.1991 14.6684C45.3613 14.3885 45.4424 14.1132 45.4424 14.1132C45.4424 14.1132 45.0234 14.0951 44.4648 14.1177C43.9243 14.1493 43.2756 14.2441 42.7801 14.393C42.5188 14.4698 42.3071 14.5691 42.1944 14.6819C41.9332 14.9437 41.8205 15.2416 41.78 15.4672C41.7305 15.6929 41.771 15.8599 41.771 15.8599C41.771 15.8599 42.2305 15.7471 42.7846 15.6388L42.7801 15.6433Z" fill="white"/>
<path d="M46.6542 12.7185C46.8299 12.4477 46.9425 12.1859 46.9425 12.1859C46.9425 12.1859 46.5235 12.1273 45.9694 12.1047C45.4379 12.0957 44.7712 12.1227 44.2666 12.2266C43.9964 12.2762 43.7801 12.3574 43.654 12.4567C43.3657 12.6914 43.2305 12.9803 43.163 13.2015C43.0999 13.4226 43.1269 13.5987 43.1269 13.5987C43.1269 13.5987 43.5774 13.5174 44.1495 13.4678C44.7036 13.4181 45.3478 13.3594 45.7127 13.3278C45.8028 13.3233 45.8703 13.3188 45.9154 13.3143C46.2442 13.2917 46.4875 13.0074 46.6497 12.723L46.6542 12.7185Z" fill="white"/>
<path d="M48.6137 10.4031C48.6137 10.4031 48.1948 10.2993 47.6587 10.2361C47.1317 10.1774 46.4605 10.1413 45.9514 10.1955C45.6766 10.2226 45.4514 10.2812 45.3208 10.367C45.0144 10.5746 44.8478 10.8454 44.7622 11.0621C44.6901 11.2877 44.6946 11.4593 44.6946 11.4593C44.6946 11.4593 45.1451 11.4141 45.7217 11.4186C46.2803 11.4186 46.9245 11.4186 47.2939 11.4232C47.3839 11.4232 47.4515 11.4277 47.4966 11.4322C48.1407 11.4412 48.5867 10.3896 48.6137 10.4031Z" fill="white"/>
<path d="M50.4427 8.78276C50.4427 8.78276 50.3391 8.75117 50.1724 8.70152C50.0012 8.64736 49.767 8.58868 49.5102 8.53452C48.9876 8.42619 48.3254 8.3269 47.8119 8.33593C47.5371 8.33593 47.3074 8.37203 47.1677 8.44876C46.4965 8.7963 46.447 9.47784 46.447 9.47784C46.447 9.47784 46.5641 9.47784 46.7488 9.48686C46.929 9.48686 47.1812 9.50041 47.4695 9.52749C48.0236 9.58165 48.6723 9.64484 49.0372 9.68094C49.1273 9.69449 49.1904 9.70351 49.2399 9.70803C49.8886 9.78476 50.4202 8.76471 50.4427 8.78276Z" fill="white"/>
<path d="M52.4113 7.33393C52.4113 7.33393 52.0194 7.1579 51.5103 7.00896C51.0013 6.85099 50.3481 6.69302 49.8345 6.65239C49.5598 6.62531 49.3255 6.64337 49.1814 6.70204C48.4786 6.98188 48.375 7.66793 48.375 7.66793C48.375 7.66793 48.83 7.70855 49.3841 7.80333C49.9336 7.90714 50.5733 8.03352 50.9337 8.10122C51.0193 8.11928 51.0869 8.13733 51.1319 8.14636C51.7761 8.29079 52.3888 7.31136 52.4158 7.33393H52.4113Z" fill="white"/>
<path d="M52.9609 6.70204C53.0464 6.72912 53.1095 6.75169 53.1546 6.76523C53.4699 6.86453 53.8033 6.69302 54.06 6.48991C54.3123 6.2868 54.506 6.07015 54.506 6.07015C54.506 6.07015 54.1366 5.86705 53.6456 5.66845C53.1501 5.46535 52.5149 5.24419 52.0058 5.15392C51.7356 5.09975 51.5013 5.09524 51.3481 5.14489C50.9923 5.25321 50.758 5.46986 50.6364 5.67748C50.5058 5.87607 50.4607 6.03856 50.4607 6.03856C50.4607 6.03856 50.9112 6.13786 51.4473 6.25972C51.9833 6.41769 52.6095 6.60275 52.9654 6.70656L52.9609 6.70204Z" fill="white"/>
<path d="M55.1096 5.49694C55.1907 5.53305 55.2538 5.56013 55.2988 5.57818C55.907 5.83997 56.7043 5.00497 56.7043 5.00497C56.7043 5.00497 56.362 4.78381 55.889 4.53557C55.416 4.28281 54.8033 4.00298 54.3033 3.86757C54.0375 3.79084 53.8033 3.75925 53.6456 3.79535C53.2762 3.86306 53.0374 4.07519 52.8888 4.26476C52.7401 4.44981 52.6816 4.60327 52.6816 4.60327C52.6816 4.60327 53.1185 4.74319 53.6456 4.9147C54.1726 5.10427 54.7808 5.36154 55.1141 5.49694H55.1096Z" fill="white"/>
<path d="M57.362 4.49946C57.4386 4.54459 57.5017 4.57619 57.5422 4.59876C58.1233 4.91921 58.9973 4.16997 58.9973 4.16997C58.9973 4.16997 58.6774 3.91722 58.2269 3.62384C57.7765 3.32595 57.1908 2.99195 56.7088 2.80239C56.4521 2.69858 56.2223 2.64893 56.0601 2.66698C55.6862 2.69858 55.434 2.91071 55.2673 3.0732C55.1006 3.2402 55.0286 3.39365 55.0286 3.39365C55.0286 3.39365 55.452 3.57871 55.961 3.79536C56.4566 4.012 57.0467 4.34149 57.3665 4.50397L57.362 4.49946Z" fill="white"/>
<path d="M59.6955 3.71411C59.7676 3.76376 59.8261 3.80438 59.8667 3.83146C60.4163 4.20608 61.3578 3.54711 61.3578 3.54711C61.3578 3.54711 61.0604 3.26728 60.6415 2.92876C60.2226 2.59025 59.6685 2.19758 59.2 1.96288C58.9522 1.8365 58.727 1.75977 58.5693 1.76428C57.8305 1.81393 57.4746 2.39617 57.4746 2.39617C57.4746 2.39617 57.8801 2.61733 58.3666 2.88814C58.8396 3.1409 59.3937 3.52003 59.6955 3.71411Z" fill="white"/>
<path d="M62.092 3.14541C62.1596 3.20409 62.2137 3.24922 62.2497 3.28082C62.7633 3.7096 63.7633 3.14993 63.7633 3.14993C63.7633 3.14993 63.493 2.8385 63.1056 2.46388C62.7182 2.08474 62.2047 1.63791 61.7587 1.36258C61.5244 1.21364 61.3082 1.11434 61.146 1.10532C60.4118 1.10983 60.0018 1.64242 60.0018 1.64242C60.0018 1.64242 60.3847 1.9042 60.8442 2.21563C61.2947 2.51804 61.7992 2.91522 62.092 3.15444V3.14541Z" fill="white"/>
<path d="M64.5336 2.79787C64.5967 2.86106 64.6462 2.91071 64.6778 2.94682C65.1508 3.42525 66.1959 2.96939 66.1959 2.96939C66.1959 2.96939 65.2139 1.62888 64.3624 0.987964C64.1417 0.807425 63.9345 0.703615 63.7813 0.690074C63.0471 0.622372 62.5921 1.10983 62.5921 1.10983C62.5921 1.10983 62.9479 1.40772 63.3804 1.76428C63.8039 2.12536 64.2678 2.52706 64.5336 2.79787Z" fill="white"/>
<path d="M66.9977 2.6715C67.0563 2.74371 67.0968 2.79787 67.1284 2.83398C67.5518 3.35755 68.6375 3.01001 68.6375 3.01001C68.6375 3.01001 67.7816 1.57472 66.9932 0.85256C66.7905 0.676534 66.5968 0.559183 66.4392 0.527588C65.7139 0.38767 65.2139 0.825479 65.2139 0.825479C65.2139 0.825479 65.5427 1.15948 65.9391 1.55666C66.313 1.95385 66.7455 2.41423 66.9932 2.67601L66.9977 2.6715Z" fill="white"/>
<path d="M69.4619 2.79787C69.5114 2.87009 69.552 2.92425 69.579 2.96036C69.7727 3.21311 70.1376 3.31693 70.4619 3.32144C70.7863 3.33498 71.0656 3.2763 71.0656 3.2763C71.0656 3.2763 70.8899 2.89717 70.6196 2.41874C70.3493 1.95385 69.9799 1.33099 69.624 0.987964C69.4393 0.793884 69.2546 0.653966 69.1015 0.608831C68.3942 0.396697 67.8537 0.780344 67.8537 0.780344C67.8537 0.780344 68.151 1.14594 68.5068 1.57923C68.8402 2.01253 69.2321 2.51352 69.4528 2.79787H69.4619Z" fill="white"/>
<path d="M71.9034 3.14541C71.9485 3.22214 71.98 3.2763 72.0071 3.31692C72.1782 3.58322 72.5341 3.69154 72.854 3.74119C73.1738 3.78633 73.4576 3.75473 73.4576 3.75473C73.4576 3.75473 73.3179 3.36206 73.0927 2.85655C72.872 2.34652 72.5566 1.73269 72.2323 1.35356C72.0656 1.14142 71.8944 0.983451 71.7503 0.924775C71.0656 0.640426 70.4935 0.96991 70.4935 0.96991C70.4935 0.96991 70.7547 1.36258 71.0701 1.83199C71.3629 2.29688 71.7052 2.83398 71.8989 3.1409L71.9034 3.14541Z" fill="white"/>
<path d="M74.3 3.71411C74.336 3.79535 74.3631 3.85403 74.3856 3.89917C74.5252 4.19254 74.8811 4.30087 75.1919 4.39114C75.5073 4.46786 75.7911 4.46335 75.7911 4.46335C75.7911 4.46335 75.692 4.05714 75.5163 3.52906C75.3451 2.98744 75.0793 2.38263 74.7955 1.96288C74.6514 1.73269 74.4937 1.56118 74.354 1.48445C73.6963 1.1324 73.1017 1.40321 73.1017 1.40321C73.1017 1.40321 73.327 1.82296 73.5927 2.31944C73.8405 2.81141 74.1333 3.38463 74.2955 3.7096L74.3 3.71411Z" fill="white"/>
<path d="M76.638 4.49946C76.665 4.5807 76.6875 4.64389 76.7055 4.68903C76.8137 5.00497 77.1695 5.12232 77.4668 5.24419C77.7732 5.348 78.057 5.37508 78.057 5.37508C78.057 5.37508 77.9939 4.95984 77.8678 4.41822C77.7506 3.85854 77.5299 3.25825 77.2912 2.79787C77.1695 2.55415 77.0299 2.36909 76.8992 2.27882C76.2821 1.86358 75.6604 2.07572 75.6604 2.07572C75.6604 2.07572 75.8451 2.51352 76.0659 3.0416C76.2686 3.55614 76.5028 4.15643 76.6335 4.49495L76.638 4.49946Z" fill="white"/>
<path d="M78.8904 5.49694C78.9129 5.5827 78.9264 5.64589 78.9399 5.69553C79.021 6.01599 79.3543 6.18299 79.6517 6.31388C79.9445 6.44929 80.2238 6.50345 80.2238 6.50345C80.2238 6.50345 80.2012 6.08369 80.1247 5.53305C80.0526 4.9824 79.8904 4.35503 79.6967 3.87208C79.5976 3.61933 79.476 3.41622 79.3543 3.31692C78.7777 2.84301 78.1426 2.99647 78.1426 2.99647C78.1426 2.99647 78.2867 3.45233 78.4534 3.99846C78.6066 4.53105 78.7822 5.15392 78.8813 5.50597L78.8904 5.49694Z" fill="white"/>
<path d="M81.0391 6.70204C81.0526 6.7878 81.0617 6.8555 81.0707 6.90515C81.1247 7.23012 81.431 7.44225 81.7239 7.58217C82.0032 7.74466 82.2779 7.8259 82.2779 7.8259C82.2779 7.8259 82.296 7.40615 82.2734 6.84647C82.2419 6.30486 82.1473 5.65491 81.9987 5.15843C81.9221 4.89665 81.823 4.68451 81.7103 4.57168C81.4491 4.30989 81.1518 4.19706 80.9265 4.15643C80.7013 4.10679 80.5346 4.14741 80.5346 4.14741C80.5346 4.14741 80.6472 4.60778 80.7553 5.16294C80.8589 5.70907 80.9761 6.34548 81.0436 6.70656L81.0391 6.70204Z" fill="white"/>
<path d="M83.0708 8.10122C83.0753 8.19149 83.0798 8.2592 83.0843 8.30433C83.1068 8.63382 83.3906 8.87754 83.6744 9.04003C83.9447 9.21606 84.206 9.32889 84.206 9.32889C84.206 9.32889 84.2646 8.90914 84.2871 8.35398C84.2961 7.82139 84.2691 7.15339 84.1655 6.64788C84.1159 6.37707 84.0348 6.16042 83.9357 6.03405C83.7015 5.74518 83.4132 5.60978 83.1924 5.54208C82.9717 5.47889 82.796 5.50597 82.796 5.50597C82.796 5.50597 82.8771 5.95732 82.9266 6.53053C82.9762 7.08569 83.0348 7.73112 83.0663 8.09671L83.0708 8.10122Z" fill="white"/>
<path d="M84.9673 9.67643C84.9673 9.7667 84.9628 9.8344 84.9583 9.87954C84.9493 10.525 85.9989 10.9718 85.9854 10.9989C85.9854 10.9989 86.089 10.5791 86.1521 10.042C86.2106 9.51395 86.2467 8.84144 86.1926 8.33141C86.1656 8.05609 86.107 7.83041 86.0214 7.69952C85.8142 7.39261 85.5439 7.22561 85.3277 7.13985C85.1024 7.06763 84.9313 7.07215 84.9313 7.07215C84.9313 7.07215 84.9763 7.5235 84.9718 8.10122C84.9718 8.6609 84.9718 9.30633 84.9673 9.67643Z" fill="white"/>
<path d="M87.6026 12.8359C87.6026 12.8359 87.6341 12.7321 87.6837 12.5651C87.7377 12.3936 87.7963 12.1589 87.8504 11.9016C87.9585 11.378 88.0576 10.7145 88.0486 10.2C88.0486 9.92467 88.0125 9.69449 87.9359 9.55457C87.5891 8.88206 86.9089 8.83241 86.9089 8.83241C86.9089 8.83241 86.9089 8.94976 86.8999 9.13481C86.8999 9.31535 86.8863 9.56811 86.8593 9.85697C86.8052 10.4121 86.7422 11.0621 86.7061 11.4277C86.6926 11.5179 86.6836 11.5811 86.6791 11.6308C86.6025 12.2807 87.6206 12.8133 87.6026 12.8359Z" fill="white"/>
<path d="M89.0486 14.8083C89.0486 14.8083 89.2243 14.4156 89.373 13.9056C89.5306 13.3955 89.6883 12.7411 89.7288 12.2266C89.7559 11.9512 89.7379 11.7165 89.6793 11.5721C89.4 10.868 88.7153 10.7642 88.7153 10.7642C88.7153 10.7642 88.6747 11.22 88.5801 11.7752C88.4765 12.3258 88.3504 12.9668 88.2828 13.3278C88.2648 13.4136 88.2468 13.4813 88.2378 13.5264C88.0936 14.1719 89.0712 14.7857 89.0486 14.8128V14.8083Z" fill="white"/>
<path d="M89.6117 15.553C89.5126 15.8689 89.6838 16.2029 89.8865 16.4602C90.0892 16.713 90.3055 16.907 90.3055 16.907C90.3055 16.907 90.5082 16.5369 90.7064 16.045C90.9091 15.5485 91.1298 14.9121 91.2199 14.4021C91.274 14.1312 91.2785 13.8965 91.2289 13.7431C91.1208 13.3865 90.9046 13.1518 90.6974 13.03C90.4992 12.8991 90.337 12.8539 90.337 12.8539C90.337 12.8539 90.2379 13.3053 90.1163 13.8424C89.9586 14.3795 89.7739 15.0069 89.6703 15.3634C89.6433 15.4492 89.6207 15.5124 89.6072 15.5575L89.6117 15.553Z" fill="white"/>
<path d="M90.7965 17.7014C90.5352 18.3107 91.3686 19.1096 91.3686 19.1096C91.3686 19.1096 91.5893 18.7666 91.8371 18.2927C92.0894 17.8188 92.3686 17.2049 92.5038 16.7039C92.5804 16.4376 92.6119 16.2029 92.5759 16.045C92.5083 15.6749 92.2966 15.4356 92.1074 15.2867C91.9227 15.1378 91.7695 15.0791 91.7695 15.0791C91.7695 15.0791 91.6299 15.5169 91.4587 16.045C91.2695 16.573 91.0127 17.1824 90.8776 17.5164C90.8415 17.5976 90.8145 17.6608 90.7965 17.7059V17.7014Z" fill="white"/>
<path d="M91.774 19.9491C91.4542 20.5314 92.202 21.407 92.202 21.407C92.202 21.407 92.4542 21.0865 92.747 20.6352C93.0444 20.1838 93.3777 19.5971 93.5669 19.1141C93.6705 18.8569 93.7201 18.6267 93.7021 18.4642C93.6705 18.0896 93.4588 17.8368 93.2966 17.6698C93.13 17.5028 92.9768 17.4306 92.9768 17.4306C92.9768 17.4306 92.7921 17.8549 92.5759 18.3649C92.3596 18.8614 92.0308 19.4527 91.8686 19.7731C91.8236 19.8498 91.792 19.913 91.7695 19.9536L91.774 19.9491Z" fill="white"/>
<path d="M92.6615 22.1066C92.6119 22.1788 92.5714 22.2375 92.5443 22.2781C92.1704 22.8287 92.8281 23.7721 92.8281 23.7721C92.8281 23.7721 93.1074 23.4742 93.4453 23.0544C93.7831 22.6347 94.1751 22.0795 94.4093 21.6101C94.5354 21.3619 94.612 21.1362 94.6075 20.9782C94.558 20.238 93.9769 19.8814 93.9769 19.8814C93.9769 19.8814 93.7561 20.2876 93.4858 20.7751C93.2336 21.249 92.8552 21.8042 92.6615 22.1066Z" fill="white"/>
<path d="M93.2291 24.5078C93.1705 24.5755 93.1255 24.6296 93.0939 24.6657C92.666 25.1803 93.2246 26.1823 93.2246 26.1823C93.2246 26.1823 93.5354 25.9115 93.9093 25.5233C94.2877 25.1351 94.7337 24.6206 95.0084 24.1738C95.1571 23.9391 95.2562 23.7224 95.2652 23.5599C95.2607 22.8242 94.7292 22.4135 94.7292 22.4135C94.7292 22.4135 94.4679 22.7971 94.157 23.2575C93.8552 23.7089 93.4588 24.2144 93.2201 24.5078H93.2291Z" fill="white"/>
<path d="M94.6075 25.7986C94.2471 26.2229 93.8462 26.6878 93.5759 26.9541C93.5129 27.0173 93.4633 27.0669 93.4273 27.0985C92.9498 27.5724 93.4047 28.6195 93.4047 28.6195C93.4047 28.6195 94.7427 27.6356 95.3823 26.7826C95.5625 26.5614 95.6661 26.3538 95.6797 26.2003C95.7472 25.4646 95.2607 25.0088 95.2607 25.0088C95.2607 25.0088 94.9634 25.3653 94.6075 25.7986Z" fill="white"/>
<path d="M95.5445 27.6446C95.5445 27.6446 95.2112 27.9741 94.8147 28.3713C94.4183 28.7459 93.9588 29.1792 93.6976 29.4275C93.6255 29.4861 93.5714 29.5268 93.5354 29.5584C93.0128 29.9826 93.3597 31.0704 93.3597 31.0704C93.3597 31.0704 94.7922 30.2128 95.513 29.423C95.6887 29.2198 95.8058 29.0258 95.8373 28.8678C95.977 28.1411 95.54 27.6401 95.54 27.6401L95.5445 27.6446Z" fill="white"/>
<path d="M94.7922 30.944C94.3598 31.278 93.8597 31.6707 93.5759 31.8918C93.5039 31.9415 93.4498 31.9821 93.4138 32.0092C93.1615 32.2033 93.0579 32.5688 93.0534 32.8938C93.0399 33.2188 93.0984 33.4986 93.0984 33.4986C93.0984 33.4986 93.4768 33.3226 93.9543 33.0518C94.4183 32.781 95.04 32.4109 95.3823 32.0543C95.576 31.8693 95.7157 31.6842 95.7607 31.5307C95.9725 30.8221 95.5896 30.2805 95.5896 30.2805C95.5896 30.2805 95.2247 30.5784 94.7922 30.935V30.944Z" fill="white"/>
<path d="M94.5354 33.5077C94.0715 33.801 93.5354 34.1441 93.2291 34.3381C93.1525 34.3833 93.0984 34.4149 93.0579 34.4419C92.7921 34.6135 92.684 34.97 92.6344 35.2905C92.5894 35.6109 92.6209 35.8953 92.6209 35.8953C92.6209 35.8953 93.0128 35.7554 93.5174 35.5297C94.0264 35.3085 94.6391 34.9926 95.0175 34.6676C95.2292 34.5006 95.3869 34.3291 95.4454 34.1847C95.7292 33.4986 95.4004 32.9254 95.4004 32.9254C95.4004 32.9254 95.0084 33.1872 94.54 33.5031L94.5354 33.5077Z" fill="white"/>
<path d="M94.0489 36.0352C93.5579 36.2835 92.9858 36.5768 92.6615 36.7393C92.5804 36.7754 92.5218 36.8025 92.4768 36.8251C92.184 36.965 92.0758 37.3216 91.9857 37.633C91.9092 37.9489 91.9137 38.2333 91.9137 38.2333C91.9137 38.2333 92.3191 38.134 92.8462 37.958C93.3867 37.7864 93.9904 37.5201 94.4093 37.2358C94.6391 37.0914 94.8102 36.9334 94.8868 36.7935C95.2382 36.1345 94.9679 35.5387 94.9679 35.5387C94.9679 35.5387 94.549 35.7644 94.0534 36.0307L94.0489 36.0352Z" fill="white"/>
<path d="M93.3282 38.5086C92.8146 38.7117 92.2155 38.9464 91.8776 39.0773C91.7965 39.1044 91.7335 39.127 91.6884 39.145C91.3731 39.2533 91.256 39.6099 91.1343 39.9078C91.0307 40.2147 91.0037 40.4991 91.0037 40.4991C91.0037 40.4991 91.4181 40.4359 91.9587 40.3095C92.5173 40.1921 93.1164 39.971 93.5759 39.7318C93.8192 39.6099 94.0039 39.47 94.094 39.3391C94.5084 38.7207 94.2967 38.0979 94.2967 38.0979C94.2967 38.0979 93.8597 38.2829 93.3327 38.5041L93.3282 38.5086Z" fill="white"/>
<path d="M92.3822 40.9053C91.8506 41.0587 91.2289 41.2348 90.8776 41.334C90.792 41.3566 90.7289 41.3702 90.6794 41.3837C90.3595 41.4649 90.1928 41.7989 90.0622 42.0968C89.9271 42.3902 89.873 42.67 89.873 42.67C89.873 42.67 90.2919 42.6475 90.8415 42.5707C91.3911 42.4985 92.0173 42.336 92.4993 42.142C92.7516 42.0427 92.9543 41.9208 93.0534 41.7989C93.5264 41.2212 93.3732 40.5848 93.3732 40.5848C93.3732 40.5848 92.9182 40.7247 92.3732 40.8962L92.3822 40.9053Z" fill="white"/>
<path d="M91.2199 43.2026C90.6749 43.3064 90.0397 43.4238 89.6793 43.4915C89.5937 43.505 89.5261 43.5141 89.4766 43.5231C89.1522 43.5773 88.9405 43.8842 88.8009 44.1775C88.6387 44.4574 88.5576 44.7327 88.5576 44.7327C88.5576 44.7327 88.9766 44.7508 89.5351 44.7282C90.0757 44.6966 90.7244 44.6018 91.2199 44.4529C91.4812 44.3761 91.6929 44.2768 91.8056 44.164C92.0668 43.9022 92.1794 43.6043 92.22 43.3787C92.2695 43.153 92.229 42.986 92.229 42.986C92.229 42.986 91.7695 43.0988 91.2154 43.2071L91.2199 43.2026Z" fill="white"/>
<path d="M89.846 45.3872C89.2919 45.4368 88.6477 45.4955 88.2828 45.5271C88.1927 45.5316 88.1251 45.5361 88.0801 45.5406C87.7513 45.5632 87.508 45.8475 87.3458 46.1319C87.1701 46.4027 87.0575 46.6645 87.0575 46.6645C87.0575 46.6645 87.4765 46.7232 88.0305 46.7457C88.5621 46.7547 89.2288 46.7277 89.7334 46.6239C90.0036 46.5742 90.2199 46.493 90.346 46.3937C90.6343 46.159 90.7695 45.8701 90.837 45.6489C90.9001 45.4278 90.8731 45.2518 90.8731 45.2518C90.8731 45.2518 90.4226 45.333 89.8505 45.3826L89.846 45.3872Z" fill="white"/>
<path d="M86.7061 47.4273C86.616 47.4273 86.5485 47.4227 86.5034 47.4182C85.8592 47.4092 85.4133 48.4608 85.3862 48.4473C85.3862 48.4473 85.8052 48.5511 86.3413 48.6143C86.8683 48.673 87.5395 48.7091 88.0486 48.6549C88.3234 48.6278 88.5486 48.5692 88.6792 48.4834C88.9856 48.2758 89.1522 48.005 89.2378 47.7883C89.3099 47.5627 89.3054 47.3911 89.3054 47.3911C89.3054 47.3911 88.8549 47.4363 88.2783 47.4318C87.7197 47.4318 87.0755 47.4318 86.7061 47.4273Z" fill="white"/>
<path d="M86.535 49.3229C85.9809 49.2688 85.3322 49.2056 84.9673 49.1695C84.8772 49.1559 84.8141 49.1469 84.7646 49.1424C84.1159 49.0657 83.5843 50.0857 83.5618 50.0676C83.5618 50.0676 83.6654 50.0992 83.8321 50.1489C84.0033 50.2031 84.2375 50.2617 84.4943 50.3159C85.0169 50.4242 85.6791 50.5235 86.1926 50.5145C86.4674 50.5145 86.6971 50.4784 86.8368 50.4016C87.508 50.0541 87.5575 49.3726 87.5575 49.3726C87.5575 49.3726 87.4404 49.3726 87.2557 49.3635C87.0755 49.3635 86.8233 49.35 86.535 49.3229Z" fill="white"/>
<path d="M83.0708 50.7492C82.9852 50.7311 82.9176 50.7131 82.8726 50.7041C82.2284 50.5596 81.6157 51.539 81.5887 51.5165C81.5887 51.5165 81.9806 51.6925 82.4897 51.8415C82.9987 51.9994 83.6519 52.1574 84.1655 52.198C84.4402 52.2251 84.6745 52.207 84.8186 52.1484C85.5214 51.8685 85.625 51.1825 85.625 51.1825C85.625 51.1825 85.17 51.1419 84.6159 51.0471C84.0663 50.9433 83.4267 50.8169 83.0663 50.7492H83.0708Z" fill="white"/>
<path d="M81.0391 52.1484C80.9535 52.1213 80.8905 52.0987 80.8454 52.0852C80.5301 51.9859 80.1967 52.1574 79.94 52.3605C79.6877 52.5636 79.494 52.7803 79.494 52.7803C79.494 52.7803 79.8634 52.9834 80.3544 53.182C80.8499 53.3851 81.4851 53.6062 81.9941 53.6965C82.2644 53.7507 82.4987 53.7552 82.6518 53.7055C83.0077 53.5972 83.242 53.3805 83.3636 53.1729C83.4942 52.9743 83.5393 52.8119 83.5393 52.8119C83.5393 52.8119 83.0888 52.7126 82.5527 52.5907C82.0167 52.4327 81.3905 52.2477 81.0346 52.1439L81.0391 52.1484Z" fill="white"/>
<path d="M78.8904 53.349C78.8093 53.3128 78.7462 53.2858 78.7012 53.2677C78.093 53.0059 77.2957 53.8409 77.2957 53.8409C77.2957 53.8409 77.638 54.0621 78.111 54.3103C78.584 54.5631 79.1967 54.8429 79.6967 54.9783C79.9625 55.0551 80.1967 55.0866 80.3544 55.0505C80.7238 54.9828 80.9626 54.7707 81.1112 54.5811C81.2599 54.3961 81.3184 54.2381 81.3184 54.2381C81.3184 54.2381 80.8815 54.0982 80.3544 53.9267C79.8274 53.7371 79.2192 53.4798 78.8859 53.3444L78.8904 53.349Z" fill="white"/>
<path d="M76.638 54.3509C76.5614 54.3058 76.4983 54.2742 76.4578 54.2517C75.8767 53.9312 75.0027 54.6804 75.0027 54.6804C75.0027 54.6804 75.3226 54.9332 75.773 55.2266C76.2235 55.5245 76.8091 55.8585 77.2912 56.048C77.5479 56.1518 77.7777 56.2015 77.9398 56.1834C78.3137 56.1518 78.566 55.9397 78.7327 55.7772C78.8994 55.6102 78.9714 55.4568 78.9714 55.4568C78.9714 55.4568 78.548 55.2717 78.039 55.0551C77.5434 54.8384 76.9533 54.5089 76.6335 54.3464L76.638 54.3509Z" fill="white"/>
<path d="M74.3 55.1363C74.2279 55.0867 74.1694 55.046 74.1288 55.0189C73.5792 54.6443 72.6377 55.3033 72.6377 55.3033C72.6377 55.3033 72.935 55.5831 73.354 55.9216C73.7729 56.2602 74.327 56.6528 74.7955 56.8875C75.0433 57.0139 75.2685 57.0906 75.4262 57.0861C76.165 57.0365 76.5208 56.4542 76.5208 56.4542C76.5208 56.4542 76.1154 56.2331 75.6289 55.9623C75.1559 55.7095 74.6018 55.3304 74.3 55.1363Z" fill="white"/>
<path d="M71.9034 55.705C71.8359 55.6463 71.7818 55.6012 71.7458 55.5696C71.2322 55.1408 70.2322 55.7005 70.2322 55.7005C70.2322 55.7005 70.5025 56.0119 70.8899 56.3865C71.2773 56.7657 71.7908 57.2125 72.2368 57.4878C72.471 57.6368 72.6873 57.7361 72.8495 57.7451C73.5837 57.7406 73.9937 57.208 73.9937 57.208C73.9937 57.208 73.6108 56.9462 73.1513 56.6348C72.7008 56.3324 72.1963 55.9352 71.9034 55.696V55.705Z" fill="white"/>
<path d="M69.4619 56.0525C69.3988 55.9893 69.3492 55.9397 69.3177 55.9036C68.8447 55.4252 67.7996 55.881 67.7996 55.881C67.7996 55.881 68.7816 57.2215 69.633 57.8624C69.8538 58.043 70.061 58.1468 70.2142 58.1603C70.9484 58.228 71.4034 57.7406 71.4034 57.7406C71.4034 57.7406 71.0475 57.4427 70.6151 57.0861C70.1916 56.725 69.7276 56.3233 69.4619 56.0525Z" fill="white"/>
<path d="M66.9977 56.1744C66.9392 56.1022 66.8986 56.048 66.8671 56.0119C66.4437 55.4883 65.358 55.8359 65.358 55.8359C65.358 55.8359 66.2139 57.2712 67.0022 57.9933C67.205 58.1694 67.3987 58.2867 67.5563 58.3183C68.2816 58.4582 68.7816 58.0204 68.7816 58.0204C68.7816 58.0204 68.4528 57.6864 68.0564 57.2892C67.6825 56.892 67.25 56.4317 67.0022 56.1699L66.9977 56.1744Z" fill="white"/>
<path d="M64.5336 56.0525C64.4841 55.9803 64.4435 55.9262 64.4165 55.8901C64.2228 55.6373 63.8579 55.5335 63.5336 55.529C63.2092 55.5154 62.9299 55.5741 62.9299 55.5741C62.9299 55.5741 63.1056 55.9532 63.3759 56.4317C63.6462 56.8966 64.0156 57.5194 64.3715 57.8624C64.5562 58.0565 64.7409 58.1964 64.894 58.2416C65.6013 58.4537 66.1418 58.0701 66.1418 58.0701C66.1418 58.0701 65.8445 57.7045 65.4886 57.2712C65.1553 56.8379 64.7634 56.3369 64.5426 56.0525H64.5336Z" fill="white"/>
<path d="M62.092 55.705C62.047 55.6283 62.0155 55.5741 61.9884 55.5335C61.8172 55.2672 61.4614 55.1589 61.1415 55.1092C60.8217 55.0641 60.5379 55.0957 60.5379 55.0957C60.5379 55.0957 60.6775 55.4883 60.9028 55.9939C61.1235 56.5039 61.4388 57.1177 61.7632 57.4969C61.9299 57.709 62.1011 57.867 62.2452 57.9256C62.9299 58.21 63.502 57.8805 63.502 57.8805C63.502 57.8805 63.2408 57.4878 62.9254 57.0184C62.6326 56.5535 62.2903 56.0164 62.0965 55.7095L62.092 55.705Z" fill="white"/>
<path d="M59.6955 55.1363C59.6595 55.0551 59.6324 54.9964 59.6099 54.9512C59.4703 54.6579 59.1144 54.5495 58.8036 54.4593C58.4882 54.3825 58.2044 54.3871 58.2044 54.3871C58.2044 54.3871 58.3035 54.7933 58.4792 55.3214C58.6504 55.863 58.9162 56.4678 59.2 56.8875C59.3441 57.1177 59.5018 57.2892 59.6414 57.366C60.2991 57.718 60.8938 57.4472 60.8938 57.4472C60.8938 57.4472 60.6685 57.0274 60.4027 56.531C60.155 56.039 59.8622 55.4658 59.7 55.1408L59.6955 55.1363Z" fill="white"/>
<path d="M57.362 54.3509C57.335 54.2697 57.3125 54.2065 57.2945 54.1614C57.1863 53.8454 56.8305 53.7281 56.5331 53.6062C56.2268 53.5024 55.943 53.4753 55.943 53.4753C55.943 53.4753 56.0061 53.8906 56.1322 54.4322C56.2493 54.9919 56.4701 55.5922 56.7088 56.0525C56.8305 56.2963 56.9701 56.4813 57.1007 56.5716C57.7179 56.9868 58.3396 56.7747 58.3396 56.7747C58.3396 56.7747 58.1549 56.3369 57.9341 55.8088C57.7314 55.2943 57.4972 54.694 57.3665 54.3555L57.362 54.3509Z" fill="white"/>
<path d="M55.1096 53.349C55.0871 53.2632 55.0736 53.2 55.0601 53.1504C54.979 52.8299 54.6456 52.6629 54.3483 52.532C54.0555 52.3966 53.7762 52.3424 53.7762 52.3424C53.7762 52.3424 53.7987 52.7622 53.8753 53.3128C53.9474 53.8635 54.1096 54.4909 54.3033 54.9738C54.4024 55.2266 54.524 55.4297 54.6456 55.529C55.2223 56.0029 55.8574 55.8494 55.8574 55.8494C55.8574 55.8494 55.7178 55.3936 55.5466 54.8474C55.3934 54.3148 55.2178 53.692 55.1186 53.3399L55.1096 53.349Z" fill="white"/>
<path d="M52.9609 52.1484C52.9473 52.0626 52.9383 51.9949 52.9293 51.9453C52.8753 51.6203 52.5689 51.4082 52.2761 51.2682C51.9968 51.1058 51.722 51.0245 51.722 51.0245C51.722 51.0245 51.704 51.4443 51.7266 52.0039C51.7581 52.5456 51.8527 53.1955 52.0013 53.692C52.0779 53.9538 52.177 54.1659 52.2896 54.2787C52.5509 54.5405 52.8482 54.6534 53.0735 54.694C53.2987 54.7436 53.4654 54.703 53.4654 54.703C53.4654 54.703 53.3528 54.2426 53.2447 53.6875C53.141 53.1413 53.0239 52.5049 52.9564 52.1439L52.9609 52.1484Z" fill="white"/>
<path d="M50.9292 50.7492C50.9247 50.6589 50.9202 50.5912 50.9157 50.5461C50.8932 50.2166 50.6094 49.9729 50.3256 49.8104C50.0553 49.6344 49.794 49.5215 49.794 49.5215C49.794 49.5215 49.7354 49.9413 49.7129 50.4964C49.7039 51.029 49.7309 51.697 49.8345 52.2025C49.8841 52.4733 49.9652 52.69 50.0643 52.8164C50.2985 53.1052 50.5868 53.2406 50.8076 53.3083C51.0283 53.3715 51.204 53.3444 51.204 53.3444C51.204 53.3444 51.1229 52.8931 51.0734 52.3199C51.0238 51.7647 50.9652 51.1193 50.9337 50.7537L50.9292 50.7492Z" fill="white"/>
<path d="M49.0327 49.1695C49.0327 49.0792 49.0372 49.0115 49.0417 48.9664C49.0507 48.3209 48.0011 47.8741 48.0146 47.847C48.0146 47.847 47.911 48.2668 47.8479 48.8039C47.7894 49.3319 47.7533 50.0045 47.8074 50.5145C47.8344 50.7898 47.893 51.0155 47.9786 51.1464C48.1858 51.4533 48.4561 51.6203 48.6723 51.706C48.8976 51.7783 49.0687 51.7737 49.0687 51.7737C49.0687 51.7737 49.0237 51.3224 49.0282 50.7447C49.0282 50.185 49.0282 49.5396 49.0327 49.1695Z" fill="white"/>
<path d="M46.3974 46.0145C46.3974 46.0145 46.3659 46.1183 46.3163 46.2853C46.2623 46.4569 46.2037 46.6916 46.1496 46.9488C46.0415 47.4724 45.9424 48.1359 45.9514 48.6504C45.9514 48.9257 45.9875 49.1559 46.064 49.2958C46.4109 49.9684 47.0911 50.018 47.0911 50.018C47.0911 50.018 47.0911 49.9007 47.1001 49.7156C47.1001 49.5351 47.1137 49.2823 47.1407 48.9934C47.1947 48.4383 47.2578 47.7883 47.2939 47.4227C47.3074 47.3325 47.3164 47.2693 47.3209 47.2196C47.3975 46.5697 46.3794 46.0371 46.3974 46.0145Z" fill="white"/>
<path d="M44.9514 44.0421C44.9514 44.0421 44.7757 44.4348 44.627 44.9448C44.4694 45.4549 44.3117 46.1093 44.2711 46.6239C44.2441 46.8992 44.2621 47.1339 44.3207 47.2783C44.6 47.9824 45.2847 48.0862 45.2847 48.0862C45.2847 48.0862 45.3253 47.6304 45.4199 47.0752C45.5235 46.5246 45.6496 45.8836 45.7172 45.5226C45.7352 45.4368 45.7532 45.3691 45.7622 45.324C45.9064 44.6785 44.9288 44.0647 44.9514 44.0376V44.0421Z" fill="white"/>
<path d="M44.3838 43.2974C44.4829 42.9815 44.3117 42.6475 44.109 42.3902C43.9063 42.1374 43.69 41.9434 43.69 41.9434C43.69 41.9434 43.4873 42.3135 43.2891 42.8054C43.0864 43.3019 42.8657 43.9383 42.7756 44.4484C42.7215 44.7192 42.717 44.9539 42.7665 45.1073C42.8747 45.4639 43.0909 45.6986 43.2981 45.8205C43.4963 45.9513 43.6585 45.9965 43.6585 45.9965C43.6585 45.9965 43.7576 45.5451 43.8792 45.008C44.0369 44.4709 44.2216 43.8435 44.3252 43.487C44.3522 43.4012 44.3748 43.338 44.3883 43.2929L44.3838 43.2974Z" fill="white"/>
<path d="M43.2035 41.149C43.4648 40.5397 42.6314 39.7408 42.6314 39.7408C42.6314 39.7408 42.4107 40.0838 42.1629 40.5577C41.9106 41.0316 41.6313 41.6455 41.4962 42.1465C41.4196 42.4128 41.3881 42.6475 41.4241 42.8054C41.4917 43.1756 41.7034 43.4148 41.8926 43.5637C42.0773 43.7127 42.235 43.7713 42.235 43.7713C42.235 43.7713 42.3746 43.3335 42.5458 42.8054C42.735 42.2774 42.9918 41.668 43.1269 41.334C43.163 41.2528 43.19 41.1896 43.208 41.1445L43.2035 41.149Z" fill="white"/>
<path d="M42.2215 38.9013C42.5413 38.319 41.7935 37.4434 41.7935 37.4434C41.7935 37.4434 41.5412 37.7639 41.2484 38.2152C40.9511 38.6666 40.6178 39.2533 40.4286 39.7363C40.325 39.9935 40.2754 40.2237 40.2934 40.3862C40.325 40.7608 40.5367 41.0136 40.6989 41.1806C40.8655 41.3476 41.0187 41.4198 41.0187 41.4198C41.0187 41.4198 41.2034 40.9955 41.4196 40.4855C41.6358 39.989 41.9647 39.3978 42.1269 39.0773C42.1719 39.0006 42.2035 38.9374 42.226 38.8968L42.2215 38.9013Z" fill="white"/>
<path d="M41.3385 36.7393C41.3881 36.6671 41.4286 36.6084 41.4557 36.5678C41.8296 36.0172 41.1719 35.0738 41.1719 35.0738C41.1719 35.0738 40.8926 35.3717 40.5547 35.7915C40.2168 36.2112 39.8249 36.7664 39.5907 37.2358C39.4645 37.484 39.388 37.7097 39.3925 37.8677C39.442 38.6079 40.0231 38.9645 40.0231 38.9645C40.0231 38.9645 40.2439 38.5582 40.5142 38.0708C40.7664 37.5969 41.1448 37.0417 41.3385 36.7393Z" fill="white"/>
<path d="M40.7709 34.3381C40.8295 34.2704 40.8745 34.2163 40.9061 34.1802C41.334 33.6656 40.7754 32.6636 40.7754 32.6636C40.7754 32.6636 40.4646 32.9344 40.0907 33.3226C39.7123 33.7108 39.2663 34.2253 38.9915 34.6721C38.8429 34.9068 38.7438 35.1235 38.7348 35.286C38.7393 36.0217 39.2708 36.4324 39.2708 36.4324C39.2708 36.4324 39.5321 36.0487 39.8429 35.5884C40.1448 35.137 40.5412 34.6315 40.7799 34.3381H40.7709Z" fill="white"/>
<path d="M39.3925 33.0473C39.7529 32.623 40.1538 32.1581 40.4241 31.8918C40.4871 31.8286 40.5367 31.779 40.5727 31.7474C41.0502 31.2735 40.5952 30.2263 40.5952 30.2263C40.5952 30.2263 39.2573 31.2103 38.6176 32.0633C38.4375 32.2845 38.3338 32.4921 38.3203 32.6456C38.2528 33.3813 38.7393 33.8371 38.7393 33.8371C38.7393 33.8371 39.0366 33.4806 39.3925 33.0473Z" fill="white"/>
<path d="M39.1853 30.4791C39.5817 30.1045 40.0412 29.6712 40.3024 29.423C40.3745 29.3643 40.4286 29.3237 40.4646 29.2921C40.9872 28.8678 40.6403 27.78 40.6403 27.78C40.6403 27.78 39.2078 28.6376 38.487 29.4275C38.3113 29.6306 38.1942 29.8247 38.1627 29.9826C38.023 30.7093 38.46 31.2103 38.46 31.2103C38.46 31.2103 38.7933 30.8808 39.1898 30.4836L39.1853 30.4791Z" fill="white"/>
<path d="M66.5113 9.38291H66.7681C66.7545 9.11661 66.5248 6.58003 62.5246 6.11063L62.3804 6.09257L62.4254 5.95717C62.4345 5.92557 62.6732 5.23049 63.7994 5.23049C64.6553 5.23049 65.822 6.13771 66.3131 6.55295C66.2725 6.06098 66.25 5.0996 66.6059 4.6979C66.714 4.57604 66.8491 4.51736 67.0023 4.50834C67.1555 4.51736 67.2906 4.57604 67.3987 4.6979C67.7546 5.0996 67.7321 6.06098 67.6915 6.55295C68.1826 6.13771 69.3493 5.23049 70.2052 5.23049C71.3314 5.23049 71.5701 5.92557 71.5792 5.95717L71.6242 6.09257L71.48 6.11063C67.4798 6.57551 67.2456 9.11661 67.2365 9.38291H67.4933C68.5384 6.38143 71.908 6.22798 71.908 6.22798C71.872 5.61865 71.5972 4.91004 70.5025 4.91004C68.5925 4.91004 68.0159 5.93009 68.0159 5.93009C68.0879 4.16531 67.0068 4.30974 67.0068 4.30974C67.0068 4.30974 65.9257 4.16531 65.9977 5.93009C65.9977 5.93009 65.4211 4.91004 63.5111 4.91004C62.4164 4.91004 62.1416 5.62317 62.1056 6.22798C62.1056 6.22798 65.4752 6.38143 66.5203 9.38291H66.5113Z" fill="white"/>
<path d="M63.7949 5.46971C63.1372 5.46971 62.8399 5.73149 62.7228 5.89849C66.5338 6.41303 66.9527 8.87288 66.9978 9.32423C67.0428 8.87288 67.4663 6.41303 71.2728 5.89849C71.1512 5.73149 70.8584 5.46971 70.2007 5.46971C69.2051 5.46971 67.6375 6.91854 67.6195 6.93208L67.3762 7.15775L67.4212 6.82827C67.4798 6.40852 67.5519 5.23952 67.214 4.85587C67.1555 4.78817 67.0789 4.75206 66.9933 4.74304C66.9077 4.75206 66.8356 4.78366 66.7726 4.85587C66.4347 5.23952 66.5113 6.40852 66.5653 6.82827L66.6104 7.15775L66.3671 6.93208C66.3671 6.93208 64.7814 5.46971 63.7859 5.46971H63.7949Z" fill="white"/>
<path d="M65.9527 9.85231C65.9527 9.96063 66.0383 10.0464 66.1464 10.0464H67.8492C67.9573 10.0464 68.0429 9.96063 68.0429 9.85231C68.0429 9.74398 67.9573 9.65823 67.8492 9.65823H66.1464C66.0383 9.65823 65.9527 9.74398 65.9527 9.85231Z" fill="white"/>
<path d="M49.0102 26.4935C49.1364 26.4935 49.2445 26.3897 49.2445 26.2588C49.2445 26.128 49.1409 26.0241 49.0102 26.0241C48.8796 26.0241 48.776 26.128 48.776 26.2588C48.776 26.3897 48.8796 26.4935 49.0102 26.4935Z" fill="white"/>
<path d="M66.4843 11.3959C66.4843 11.3959 65.6554 18.1842 56.9521 18.0443C52.9699 17.9811 49.5733 19.773 47.4381 22.3908C47.5732 22.4585 48.5102 22.964 49.5958 23.8712C51.7942 21.4114 54.8439 20.6621 57.7495 19.9986C58.9838 19.7143 60.2632 19.4209 61.4794 18.9966C63.7453 18.2023 65.1013 16.3292 65.8491 14.8442C66.3851 13.7836 66.6374 12.592 66.4797 11.414V11.3959H66.4843Z" fill="white"/>
<path d="M66.5969 13.7249C66.0428 15.2234 64.6013 18.1616 61.5605 19.2223C60.3307 19.6511 59.0469 19.9445 57.8035 20.2333C54.8034 20.9194 51.9248 21.6325 49.7805 24.0292C50.1139 24.318 50.4563 24.6475 50.7851 25.0086C53.0735 23.0136 54.5015 22.7428 56.5512 22.4269C57.4477 22.287 58.4612 22.129 59.7586 21.7995C62.8534 21.0142 64.5697 19.3171 65.4797 17.9992C66.0473 17.1732 66.3761 16.2073 66.4978 15.2143C66.5563 14.7359 66.5879 14.2394 66.5969 13.7294V13.7249Z" fill="white"/>
<path d="M47.2894 22.5849C47.2894 22.5849 46.7759 22.7699 46.6272 22.9821C47.1813 23.2799 50.9788 25.4374 52.1275 28.9037C52.2762 28.7774 52.4293 28.6555 52.587 28.5382C51.4833 24.7243 47.3344 22.6074 47.2894 22.5849Z" fill="white"/>
<path d="M65.813 18.1707C65.8761 17.9901 65.9392 17.8096 65.9932 17.6245C65.1689 19.0237 63.385 21.1225 59.8172 22.0297C58.5063 22.3637 57.4882 22.5217 56.5873 22.6616C54.506 22.9821 53.1816 23.2393 50.9428 25.1891C51.2311 25.5186 51.5104 25.8752 51.7671 26.2588C52.0149 25.9203 53.2582 24.5843 57.8035 23.8125C60.2677 23.3928 62.0876 22.4359 63.2994 21.5648C64.4706 20.7253 65.331 19.5337 65.813 18.1752V18.1707Z" fill="white"/>
<path d="M57.8396 24.0427C52.8618 24.8867 51.9248 26.4349 51.9158 26.4529L51.8798 26.4304C52.069 26.7237 52.2401 27.0352 52.3933 27.3601C52.8888 26.8682 54.6727 25.3246 57.4567 25.3246C57.5152 25.3246 57.5693 25.3246 57.6279 25.3246C58.7541 25.3246 59.7992 25.1214 60.592 24.6882C61.4524 24.2187 62.0515 22.6119 62.0515 22.6119C60.9389 23.2077 59.5424 23.7539 57.8396 24.0382V24.0427Z" fill="white"/>
<path d="M48.3255 27.0713C48.9201 27.7528 49.9067 27.0442 49.9157 27.0352L50.0103 26.9675L50.0824 27.0577C50.704 27.8702 51.15 28.7232 51.4338 29.5988C51.587 29.4138 51.7581 29.2332 51.9383 29.0662C50.8392 25.5863 46.9786 23.4289 46.5011 23.1761C46.3749 23.3657 46.5236 23.6997 46.411 23.8938C46.8074 24.1195 47.5417 24.5753 48.3435 25.2523L48.4291 25.3246L48.366 25.4148C48.339 25.4509 47.7038 26.3536 48.33 27.0668L48.3255 27.0713ZM49.0102 25.7894C49.267 25.7894 49.4787 26.0016 49.4787 26.2588C49.4787 26.5161 49.267 26.7282 49.0102 26.7282C48.7534 26.7282 48.5417 26.5161 48.5417 26.2588C48.5417 26.0016 48.7534 25.7894 49.0102 25.7894Z" fill="white"/>
<path d="M55.9296 27.0216C59.2271 26.6244 59.9073 25.6134 59.9073 25.6134C59.4298 25.7172 58.1639 25.5638 57.6234 25.5638C57.5648 25.5638 57.5107 25.5638 57.4522 25.5638C54.6052 25.5638 52.8438 27.2247 52.4879 27.5948C52.6005 27.8521 52.6951 28.1184 52.7807 28.3937C53.9294 27.5993 55.2313 27.1074 55.9251 27.0261L55.9296 27.0216Z" fill="white"/>
<path d="M52.533 14.0544L52.3888 14.1446C52.3888 14.1446 51.3932 14.7765 51.3077 15.44C51.2806 15.6567 51.3527 15.8462 51.5239 16.0313C51.6951 16.2118 51.8978 16.3021 52.1185 16.284C52.8348 16.257 53.6006 15.3227 53.6096 15.3136L53.6997 15.2008L53.7898 15.3136C54.2087 15.8282 54.5961 16.4149 54.952 17.0558C55.0827 16.8979 55.2268 16.7264 55.3845 16.5458C55.0331 15.8914 54.6412 15.3001 54.2177 14.781L54.2313 14.4064C54.6457 14.9119 55.1998 15.7198 55.5467 16.3562C55.6638 16.2208 55.7854 16.0809 55.907 15.9365C54.2313 12.9395 52.2717 12.2941 51.9338 12.2038C51.8122 12.2986 51.6906 12.3934 51.5644 12.4927C51.8933 12.601 52.7312 13.0343 53.488 13.6662L53.1321 13.6888C52.2537 12.9576 51.5419 12.7274 51.3392 12.6732C51.1725 12.8041 51.0058 12.944 50.8347 13.084C51.141 13.1878 51.7041 13.4225 52.3933 13.9506L52.5285 14.0544H52.533ZM53.8168 13.9867C53.8799 14.0408 53.9159 14.1176 53.9114 14.2078C53.8934 14.7043 52.5465 15.7244 52.3257 15.8778C52.114 16.0268 52.141 15.7244 52.1861 15.6883C52.7177 15.2504 53.6637 14.4831 53.6727 14.2033C53.6727 14.1807 53.6682 14.1762 53.6637 14.1717C53.524 14.0634 52.6591 14.7178 51.8888 15.5213C51.7807 15.6296 51.641 15.4355 51.7176 15.3588C52.2717 14.7765 53.4249 13.6572 53.8168 13.9957V13.9867Z" fill="white"/>
<path d="M60.0514 6.82827C60.2091 6.89597 60.3487 6.95465 60.4704 7.0043C60.7181 6.46719 60.5605 6.14673 60.4569 5.88946C60.3533 5.62768 59.8802 5.05898 59.6956 5.8353C59.655 6.00681 59.6235 6.13771 59.5919 6.24603C59.6235 6.40852 59.7181 6.68384 60.0514 6.82827Z" fill="white"/>
<path d="M56.0692 15.7514C56.5332 15.1963 56.9476 14.6637 57.0603 14.3297C57.2359 13.8152 57.4296 13.4812 57.5648 13.2826C57.317 12.8448 56.9882 12.1452 56.9747 11.4772H57.2089C57.2224 12.0459 57.4882 12.6507 57.718 13.0704C58.0333 13.2239 58.5243 13.3412 59.2766 13.278C60.6596 13.1607 61.9569 11.5268 62.0245 10.8994C62.0921 10.2766 62.4795 9.40096 63.1687 9.50477C63.858 9.60407 64.2003 9.86134 64.5247 9.78912C64.5517 9.78461 64.5742 9.76655 64.6013 9.7485C64.5112 9.62663 64.2634 9.35582 63.7093 9.23396C62.9885 9.07599 62.3444 9.16174 62.3444 9.16174C62.3669 9.1482 62.9435 8.82323 63.7589 8.99926C64.3265 9.12112 64.6148 9.39193 64.7499 9.55893C64.8851 9.27909 64.9121 8.81421 64.8355 8.53437C64.7319 8.1417 64.1237 7.94762 63.6553 7.93407C63.1868 7.92053 63.0786 8.34029 62.7273 7.97921C62.3804 7.61362 62.1056 7.48724 61.7632 7.5414C61.4209 7.59556 61.538 7.81672 61.3848 7.87089C61.2497 7.91602 60.4208 7.67229 60.4028 7.22997C60.2677 7.17581 60.119 7.11713 59.9433 7.0404C59.673 6.92305 59.5244 6.738 59.4388 6.56197C59.3667 6.64322 59.2766 6.66578 59.1189 6.68835C58.9162 6.71995 58.6414 6.76057 58.4387 6.71995C58.3531 6.95916 58.1594 7.406 57.8035 7.73548C57.8035 7.73548 58.2585 6.86438 58.227 6.60711C58.1955 6.56649 58.1729 6.52135 58.1729 6.45365C58.1729 6.07 57.9207 5.75857 57.763 5.66379C57.6053 5.57352 56.9341 5.82176 56.7404 6.31825C56.5422 6.81473 56.6368 7.24351 56.5017 7.60008C56.3665 7.95664 56.0016 8.11461 55.5061 8.52534C55.1052 8.85934 54.8304 9.03537 54.5106 9.55442C54.8349 9.63566 55.5331 9.75301 56.1413 9.44158C56.9972 9.00377 58.218 8.09205 58.2315 8.08302C58.2315 8.08302 57.1188 9.20688 56.2494 9.6492C55.907 9.82523 55.5421 9.87939 55.2223 9.87939C54.8574 9.87939 54.5601 9.81169 54.3934 9.76204C54.3529 9.83425 54.3168 9.90647 54.2763 9.99223C53.9835 10.6015 53.1546 11.256 52.1546 12.0323C52.7807 12.2399 54.5196 13.0433 56.0557 15.7514H56.0692ZM56.8125 7.78513C56.8125 7.78513 56.5557 6.39046 57.781 5.99779C57.9207 5.95265 58.0513 6.17833 57.8396 6.22798C56.8125 6.45816 56.8125 7.78964 56.8125 7.78964V7.78513ZM61.1461 8.05594C61.1146 8.26807 60.8308 10.3398 60.0965 10.6241C60.0514 10.6422 59.9523 10.6783 59.8487 10.6783C59.7766 10.6783 59.7001 10.6557 59.646 10.5925C59.4793 10.3984 59.7001 9.96515 59.8037 9.79363C59.8037 9.79363 59.7046 10.2089 59.8262 10.4436C59.8307 10.4436 59.8757 10.4571 60.0109 10.403C60.5244 10.2044 61.1461 8.05594 61.1461 8.05594ZM59.6145 7.76256C60.1866 7.62716 60.3442 8.03337 60.3848 8.18232C60.4839 8.58402 60.2136 9.17077 59.8712 9.30166C59.664 9.37839 59.5334 9.55893 59.4118 9.73496C59.2856 9.9155 59.1505 10.1006 58.9387 10.1637C58.8802 10.1818 58.8171 10.1908 58.7495 10.1908C58.4838 10.1908 58.1729 10.069 58.0063 9.92452C57.8801 9.8162 57.8621 9.71239 57.8756 9.6492C57.8756 9.6492 58.0964 9.81169 58.1955 9.87488C58.3666 9.9832 58.7045 9.99674 58.8757 9.93806C59.0108 9.89744 59.1099 9.76204 59.2271 9.59955C59.2856 9.51831 59.3757 9.4145 59.4118 9.35582C59.6235 9.00377 59.3937 8.30418 59.3937 8.30418C59.4613 8.48923 59.7902 8.70137 59.6775 9.16626C59.7181 9.13918 59.7496 9.10307 59.7992 9.08502C60.0199 9.00377 60.2451 8.55242 60.1686 8.24551C60.119 8.04691 59.9478 7.97018 59.6595 8.00178C58.7 8.12364 57.308 9.96063 57.299 9.97417C57.299 9.97417 57.9702 8.15524 59.6325 7.76708L59.6145 7.76256ZM58.7541 10.6061C58.9117 10.597 58.8216 10.7956 58.7811 10.8227C58.7405 10.8498 58.673 10.8453 58.6279 10.8453C57.5197 10.8453 56.7224 10.087 56.6864 10.0509C56.6864 10.0509 57.6819 10.6783 58.7495 10.6015L58.7541 10.6061Z" fill="white"/>
<path d="M51.677 36.5722C51.677 36.5722 53.3393 36.9287 54.1006 36.1524C54.8664 35.3761 59.8532 31.2327 60.9704 30.7994L57.4116 27.0622C57.4116 27.0622 54.9971 26.9765 52.2942 29.2603C50.3076 30.9393 50.4968 35.006 51.677 36.5722Z" fill="white"/>
<path d="M51.4428 36.7933C50.9968 36.2291 49.9472 33.1239 50.6815 30.8897C50.8076 30.5106 51.0058 30.1585 51.2536 29.8245C50.9923 28.9534 50.5644 28.1003 49.9607 27.2924C49.5238 27.5723 48.6949 27.8521 48.1498 27.2292C47.5281 26.5206 47.9471 25.654 48.1138 25.3742C47.357 24.7468 46.6722 24.3226 46.2983 24.1059C44.7487 26.9629 44.546 30.4203 46.3479 33.5165C46.402 33.6113 46.456 33.7016 46.5146 33.7919C46.5146 33.7919 46.5101 33.7828 46.5056 33.7828C43.0954 29.477 45.6992 24.7197 45.9154 24.3722C46.1317 24.0292 45.974 23.8577 46.0236 23.3973C46.0731 22.9324 46.2803 22.7383 46.5461 22.6165C46.8119 22.4946 47.1317 22.1877 47.1317 22.1877C50.4923 18.6626 53.2402 18.3647 53.8844 18.1978C54.5241 18.0308 54.506 17.7735 54.506 17.7735C54.506 17.6877 54.6232 17.5027 54.8079 17.2635C54.4745 16.6451 54.1051 16.0809 53.7087 15.5799C53.47 15.8462 52.8077 16.5007 52.141 16.5278C51.8437 16.5413 51.5824 16.4285 51.3662 16.1983C51.1455 15.9636 51.0509 15.7018 51.0869 15.4129C51.1635 14.7991 51.8347 14.253 52.1365 14.0408C51.4023 13.5037 50.8302 13.3187 50.6364 13.2645C48.9652 14.7088 43.2351 21.5964 42.7756 25.7082C42.3161 29.8651 45.6632 33.1645 45.7037 33.5707C45.7443 33.9769 46.1452 37.2086 46.3344 37.8044C46.5236 38.3956 46.402 40.0069 45.6767 39.3841C44.9469 38.7567 45.4785 33.7332 44.1 33.2006C42.9108 32.7402 42.4558 33.3089 42.4558 33.3089C43.154 33.4985 42.9783 34.3425 42.9108 34.69C42.8882 34.8074 42.9693 34.9067 43.0729 34.9924C43.3612 34.9022 44.1541 34.7126 44.4334 35.182C44.6136 35.4889 44.5235 35.8229 44.5775 36.6083C44.6136 37.1364 44.7983 38.1113 44.8613 38.3054C44.8613 38.3054 44.528 37.6644 44.4874 37.1002C44.4379 36.4142 44.3793 35.5566 44.2261 35.2994C44.0775 35.0511 43.627 35.0917 43.2982 35.1685C43.4243 35.2723 43.5189 35.3806 43.4378 35.5205C43.2486 35.8545 42.9828 35.5521 42.6495 35.5882C42.3161 35.6289 42.208 36.0712 42.208 36.0712C42.208 36.0712 42.9648 36.1118 43.3297 36.3059C43.6946 36.5045 43.6631 37.529 43.654 37.7953C43.654 37.8901 43.7622 38.0391 43.8793 38.188C44.8929 38.5671 45.019 40.0069 45.019 40.0069C44.6406 39.0185 44.127 38.5987 43.8072 38.4182C43.3342 38.3054 42.9918 38.8289 42.9918 38.8289C43.3747 38.7025 45.2938 40.5937 45.2938 40.9773C45.2938 42.0967 45.6226 43.4327 45.8659 43.8073C46.1136 44.1819 46.4966 43.9562 47.0687 44.1187C47.6408 44.2857 47.2669 45.8474 47.2669 45.8474C47.2669 45.8474 48.1138 44.6649 47.839 44.3895C47.5642 44.1142 47.1182 43.5771 47.4651 43.3244C47.8119 43.0716 48.0867 42.5345 48.0282 42.0245C47.9696 41.5144 48.4426 38.689 48.6588 37.5471C48.7309 37.1725 48.785 37.0055 48.8345 36.9287C48.8841 36.9784 48.9291 37.0235 48.9787 37.0687C51.0284 38.9869 51.7852 37.1995 51.4563 36.7798L51.4428 36.7933Z" fill="white"/>
<path d="M66.5203 37.1093C66.4077 34.3335 64.6283 33.8912 62.6462 31.8556C62.6462 31.8556 57.0152 36.0035 55.88 36.3736C55.88 36.3736 53.97 40.0746 55.362 42.1238C57.2314 44.8589 61.7227 46.204 62.6507 47.391C63.5787 48.5735 64.6373 50.8077 64.1237 51.8052C63.6147 52.7891 62.6687 52.2972 62.5561 51.9677C62.4345 51.6382 61.9209 50.898 60.5425 50.898C59.164 50.898 58.6144 51.8639 58.7 52.3197C58.7946 52.7846 59.3712 52.9922 59.9118 52.7169C60.137 52.6131 61.0064 52.1302 61.6867 52.1482C62.52 52.1572 62.5561 52.5951 62.5561 52.5951C62.5561 52.5951 62.3759 52.3965 61.6777 52.3874H61.6506C61.3308 52.3874 61.1596 52.577 61.1101 52.7169C61.0019 53.0419 60.9794 53.4481 61.4209 53.4255C61.5065 53.4255 62.0921 53.1773 62.475 53.1547C63.0021 53.1277 63.3489 53.3217 63.3489 53.3217C63.0066 53.3217 62.5381 53.3353 62.4435 53.5113C62.3444 53.6873 62.5921 54.0213 62.8669 54.0665C63.1507 54.1251 66.25 54.6261 66.3446 54.3598C66.4392 54.0935 65.9392 52.7982 65.9932 51.8052C66.0383 50.8122 66.0293 49.228 65.6509 48.9527C65.2635 48.6773 64.9887 48.7541 65.1959 48.4607C65.4031 48.1673 66.2365 47.9687 66.1149 47.3323C66.0022 46.6959 63.867 45.2967 63.885 43.0219C63.903 41.6182 65.0833 40.2461 64.5742 37.1048C64.5742 37.1048 65.304 38.0255 64.9977 39.2622C64.9977 39.2622 65.822 38.6755 65.9437 37.8585C65.9437 37.9533 65.9257 39.3525 64.84 40.5305C64.84 40.5305 66.6464 39.8941 66.5203 37.1138V37.1093Z" fill="white"/>
<path d="M60.4028 46.38C60.4028 46.38 60.101 46.1227 59.5424 45.8609C57.8801 45.0756 54.506 43.2386 54.4745 40.2281C54.4565 38.03 55.4385 37.3756 55.2403 36.5361C55.2403 36.5361 54.898 36.1208 54.2313 36.9062C53.5691 37.7005 52.4924 39.1223 52.4924 41.5821C52.4924 44.042 54.9475 44.6965 55.6773 46.204C56.4071 47.6979 56.0827 49.6703 54.7989 49.6703C53.515 49.6703 53.2853 47.048 52.3032 46.1859C51.3212 45.3329 49.7535 46.0821 49.704 46.5921C49.6679 47.1021 49.8301 47.6754 50.3707 47.5129C50.9112 47.3504 50.9923 47.0841 51.5194 47.0841C52.1816 47.0841 52.7402 48.2034 52.7402 48.2034C52.551 47.9687 51.9744 47.3143 51.5194 47.3233C50.8256 47.3368 50.6004 47.9101 50.7085 48.1086C50.9067 48.4878 51.2941 48.7451 51.8122 48.6367C52.069 48.5781 52.2176 48.6819 52.2762 48.8443C52.542 48.8714 52.9204 48.9978 53.3618 49.3724C54.1727 50.063 54.1547 50.4421 54.1547 50.4421C54.1547 50.4421 53.9925 50.2255 53.2087 49.553C52.8213 49.2235 52.3032 49.1783 52.2176 49.3273C52.0464 49.5936 51.9924 49.914 52.5375 50.1713C53.0961 50.4376 54.2493 50.9837 54.5151 51.5254C54.7718 52.067 55.5241 51.4577 56.0557 51.8864C56.5828 52.3017 56.7945 52.6447 56.9161 52.1437C57.0287 51.6337 56.5737 49.9953 57.5873 49.219C58.5964 48.4426 60.1595 48.1132 60.4028 46.389V46.38Z" fill="white"/>
<path d="M49.5328 47.2917C49.5328 47.2917 49.2445 47.4677 49.2219 47.9055C49.2219 47.9055 49.5283 47.5264 49.6409 47.4813C49.6409 47.4813 49.6904 47.3143 49.5328 47.2917Z" fill="white"/>
<path d="M50.4653 48.1312C50.4653 48.1312 49.9157 48.3975 50.1094 49.1783C50.1094 49.1783 50.3752 48.4291 50.5509 48.3795C50.5509 48.3795 50.695 48.2034 50.4608 48.1312H50.4653Z" fill="white"/>
<path d="M51.4113 49.5439C51.4113 49.5439 51.8527 49.6613 51.9203 49.7425C51.9879 49.8238 52.096 49.6116 51.9654 49.5439C51.9654 49.5439 51.7987 49.3679 51.4113 49.5439Z" fill="white"/>
<path d="M58.6685 52.7079C58.6685 52.7079 58.3937 52.9155 58.4432 53.4075C58.4432 53.4075 58.5649 53.0193 58.8667 52.8433C58.9703 52.7801 58.7631 52.6041 58.6685 52.7034V52.7079Z" fill="white"/>
<path d="M60.8578 53.3082C60.8217 53.3172 60.4704 53.3804 60.6911 54.089C60.6911 54.089 60.7587 53.5339 61.0064 53.4436C61.0425 53.4301 61.047 53.254 60.8578 53.3082Z" fill="white"/>
<path d="M62.3038 53.7911C62.3038 53.7911 61.7858 53.904 61.8083 54.5449C61.8083 54.5449 61.9975 54.0665 62.3038 53.9897C62.4209 53.9581 62.3759 53.7821 62.3038 53.7911Z" fill="white"/>
<path d="M68.0429 10.746V10.6963C68.0429 10.5203 67.8988 10.3759 67.7231 10.3759H66.277C66.1013 10.3759 65.9572 10.5203 65.9572 10.6963V10.746C65.9572 10.922 66.1013 11.0664 66.277 11.0664H67.7231C67.8988 11.0664 68.0429 10.922 68.0429 10.746Z" fill="white"/>
<path d="M84.9899 26.0287C84.8637 26.0287 84.7556 26.1325 84.7556 26.2634C84.7556 26.3943 84.8592 26.4981 84.9899 26.4981C85.1205 26.4981 85.2241 26.3943 85.2241 26.2634C85.2241 26.1325 85.1205 26.0287 84.9899 26.0287Z" fill="white"/>
<path d="M77.0434 18.0488C68.3402 18.1887 67.5113 11.4004 67.5113 11.4004C67.5113 11.4049 67.5113 11.4095 67.5113 11.4185C67.3582 12.5965 67.6104 13.7881 68.142 14.8487C68.8943 16.3337 70.2457 18.2113 72.5116 19.0012C73.7279 19.4254 75.0073 19.7188 76.2416 20.0031C79.1472 20.6711 82.2014 21.4204 84.3952 23.8757C85.4809 22.9685 86.4179 22.463 86.553 22.3953C84.4223 19.773 81.0212 17.9856 77.0389 18.0488H77.0434Z" fill="white"/>
<path d="M84.2151 24.0292C82.0708 21.6325 79.1877 20.9194 76.192 20.2333C74.9487 19.949 73.6649 19.6556 72.4351 19.2223C69.3943 18.1571 67.9528 15.2234 67.3987 13.7249C67.4077 14.2349 67.4438 14.7314 67.4978 15.2098C67.615 16.2073 67.9483 17.1687 68.5159 17.9946C69.4214 19.3126 71.1422 21.0097 74.237 21.795C75.5344 22.1245 76.5524 22.2825 77.4444 22.4224C79.494 22.7383 80.9176 23.0136 83.2105 25.0041C83.5438 24.643 83.8817 24.3135 84.2151 24.0247V24.0292Z" fill="white"/>
<path d="M81.4131 28.5382C81.5707 28.6555 81.7239 28.7774 81.8726 28.9038C83.0213 25.4374 86.8278 23.289 87.3774 22.9911C87.2333 22.7789 86.7107 22.5894 86.7107 22.5894C86.6702 22.6119 82.5168 24.7288 81.4131 28.5427V28.5382Z" fill="white"/>
<path d="M83.0573 25.1846C80.8185 23.2393 79.494 22.9821 77.4128 22.6571C76.5119 22.5172 75.4893 22.3592 74.1829 22.0252C70.6151 21.118 68.8312 19.0237 68.0069 17.62C68.0654 17.8051 68.124 17.9856 68.1871 18.1662C68.6691 19.5247 69.5295 20.7163 70.7007 21.5558C71.917 22.4269 73.7324 23.3838 76.1965 23.8035C80.7419 24.5753 81.9852 25.9113 82.233 26.2498C82.4897 25.8662 82.7645 25.5096 83.0573 25.1801V25.1846Z" fill="white"/>
<path d="M82.1158 26.4304L82.0798 26.4529C82.0798 26.4529 81.1338 24.8913 76.156 24.0427C74.4532 23.7539 73.0567 23.2122 71.944 22.6165C71.944 22.6165 72.5432 24.2233 73.4036 24.6927C74.2009 25.1305 75.2415 25.3291 76.3677 25.3291C76.4263 25.3291 76.4804 25.3291 76.5389 25.3291C79.3229 25.3291 81.1068 26.8727 81.6023 27.3646C81.7554 27.0397 81.9266 26.7282 82.1158 26.4349V26.4304Z" fill="white"/>
<path d="M87.5891 23.8983C87.4765 23.7042 87.6297 23.3747 87.508 23.1852C87.0305 23.4379 83.1654 25.5908 82.0663 29.0707C82.2465 29.2377 82.4131 29.4183 82.5708 29.6033C82.8546 28.7277 83.3006 27.8702 83.9222 27.0622L83.9943 26.972L84.0889 27.0397C84.0889 27.0397 85.0845 27.7573 85.6791 27.0758C86.3053 26.3627 85.6701 25.46 85.6431 25.4238L85.58 25.3336L85.6656 25.2614C86.4674 24.5843 87.2017 24.1285 87.5981 23.9028L87.5891 23.8983ZM84.9899 26.7328C84.7331 26.7328 84.5214 26.5206 84.5214 26.2634C84.5214 26.0061 84.7331 25.794 84.9899 25.794C85.2466 25.794 85.4584 26.0061 85.4584 26.2634C85.4584 26.5206 85.2466 26.7328 84.9899 26.7328Z" fill="white"/>
<path d="M74.0883 25.6134C74.0883 25.6134 74.7685 26.6244 78.066 27.0216C78.7598 27.1074 80.0616 27.5948 81.2104 28.3892C81.2914 28.1139 81.3906 27.8476 81.5032 27.5903C81.1473 27.2247 79.3859 25.5593 76.5389 25.5593C76.4804 25.5593 76.4263 25.5593 76.3677 25.5593C75.8317 25.5593 74.5658 25.7127 74.0838 25.6089L74.0883 25.6134Z" fill="white"/>
<path d="M78.0931 15.9455C78.2147 16.0854 78.3318 16.2254 78.4534 16.3653C78.8048 15.7289 79.3544 14.921 79.7688 14.4154L79.7824 14.7901C79.3589 15.3046 78.967 15.9004 78.6156 16.5548C78.7733 16.7354 78.9174 16.9114 79.0481 17.0649C79.404 16.4239 79.7914 15.8327 80.2103 15.3227L80.3004 15.2098L80.3905 15.3227C80.3905 15.3227 81.1653 16.266 81.8816 16.2931C82.1023 16.3066 82.305 16.2208 82.4762 16.0403C82.6474 15.8598 82.7195 15.6657 82.6924 15.449C82.6068 14.781 81.6203 14.1582 81.6113 14.1537L81.4671 14.0634L81.6023 13.9596C82.2915 13.4315 82.8546 13.1923 83.1609 13.093C82.9898 12.9531 82.8231 12.8177 82.6564 12.6823C82.4537 12.7364 81.7419 12.9666 80.8635 13.6978L80.5076 13.6752C81.2644 13.0479 82.1023 12.6146 82.4312 12.5017C82.3095 12.4024 82.1834 12.3076 82.0618 12.2129C81.7284 12.3031 79.7643 12.9531 78.0886 15.9455H78.0931ZM80.1833 13.9912C80.5752 13.6527 81.7284 14.772 82.2825 15.3543C82.3591 15.4355 82.2194 15.6296 82.1113 15.5167C81.3365 14.7133 80.4716 14.0589 80.3364 14.1672C80.3319 14.1717 80.3229 14.1762 80.3274 14.1988C80.3364 14.4786 81.2824 15.2459 81.814 15.6837C81.8591 15.7198 81.8861 16.0222 81.6744 15.8733C81.4536 15.7198 80.1067 14.6998 80.0887 14.2033C80.0887 14.113 80.1157 14.0363 80.1833 13.9822V13.9912Z" fill="white"/>
<path d="M73.9487 6.82827C74.2775 6.68384 74.3766 6.41303 74.4082 6.24603C74.3766 6.13771 74.3451 6.00681 74.3045 5.8353C74.1198 5.05898 73.6468 5.62317 73.5432 5.88946C73.4396 6.14673 73.282 6.46719 73.5297 7.0043C73.6559 6.95465 73.791 6.90049 73.9487 6.82827Z" fill="white"/>
<path d="M70.3358 7.93859C69.8673 7.95213 69.2592 8.14621 69.1556 8.53888C69.0835 8.81872 69.106 9.28361 69.2412 9.56344C69.3763 9.39645 69.6646 9.12564 70.2322 9.00377C71.0431 8.82323 71.6197 9.15272 71.6467 9.16626C71.6467 9.16626 71.0025 9.0805 70.2818 9.23847C69.7277 9.35582 69.4799 9.62663 69.3898 9.75301C69.4124 9.76655 69.4349 9.78461 69.4664 9.79363C69.7908 9.86585 70.1331 9.61309 70.8224 9.50928C71.5116 9.40999 71.9035 10.2811 71.9666 10.904C72.0341 11.5268 73.327 13.1652 74.7145 13.2826C75.4668 13.3457 75.9623 13.2239 76.2731 13.0749C76.4984 12.6552 76.7687 12.0504 76.7822 11.4772H77.0164C77.0029 12.1542 76.6741 12.8493 76.4263 13.2871C76.5614 13.4857 76.7551 13.8197 76.9308 14.3342C77.0434 14.6637 77.4579 15.2008 77.9219 15.756C79.4625 13.0433 81.2014 12.2445 81.823 12.0368C80.823 11.2605 79.9941 10.6061 79.7013 9.99674C79.6607 9.91098 79.6202 9.83877 79.5841 9.76655C79.4175 9.8162 79.1156 9.8839 78.7553 9.8839C78.4354 9.8839 78.0705 9.82974 77.7282 9.65371C76.8542 9.20688 75.7461 8.08753 75.7461 8.08753C75.7596 8.09656 76.9804 9.00829 77.8363 9.44609C78.4444 9.75752 79.1427 9.64017 79.467 9.55893C79.1472 9.03988 78.8724 8.86385 78.4715 8.52986C77.9714 8.11913 77.6065 7.96116 77.4759 7.60459C77.3453 7.24802 77.4354 6.81924 77.2372 6.32276C77.0389 5.82628 76.3722 5.57803 76.2146 5.6683C76.0569 5.75857 75.8046 6.07452 75.8046 6.45816C75.8046 6.52587 75.7821 6.571 75.7506 6.61162C75.719 6.8734 76.174 7.74 76.174 7.74C75.8181 7.41051 75.6244 6.96367 75.5389 6.72446C75.3361 6.76508 75.0613 6.72446 74.8586 6.69287C74.701 6.6703 74.6109 6.64773 74.5388 6.56649C74.4532 6.74251 74.3045 6.92757 74.0343 7.04492C73.8586 7.12165 73.7099 7.18032 73.5748 7.23448C73.5567 7.67229 72.7279 7.92053 72.5927 7.8754C72.4396 7.82124 72.5567 7.60008 72.2143 7.54591C71.872 7.49175 71.6017 7.61813 71.2503 7.98372C70.9034 8.34932 70.7908 7.92505 70.3223 7.93859H70.3358ZM76.156 6.22798C75.9443 6.17833 76.0749 5.95265 76.2146 5.99779C77.4399 6.39046 77.1876 7.77159 77.1831 7.78513C77.1831 7.78513 77.1831 6.45365 76.156 6.22346V6.22798ZM75.3632 10.8498C75.3181 10.8498 75.2505 10.8498 75.21 10.8272C75.1695 10.8001 75.0794 10.6015 75.237 10.6106C76.3047 10.6828 77.3002 10.0599 77.3002 10.0599C77.2642 10.0915 76.4668 10.8543 75.3587 10.8543L75.3632 10.8498ZM73.6108 8.18232C73.6468 8.03337 73.8045 7.62716 74.3811 7.76256C76.0389 8.15072 76.7146 9.96966 76.7146 9.96966C76.7056 9.95612 75.3136 8.11913 74.3541 7.99726C74.0658 7.96116 73.8946 8.0424 73.8451 8.24099C73.7685 8.54791 73.9982 8.99926 74.2144 9.0805C74.264 9.09856 74.291 9.13466 74.3361 9.16174C74.2235 8.64269 74.5748 8.56145 74.6424 8.3764C74.6424 8.3764 74.3901 8.99926 74.6019 9.35582C74.6334 9.4145 74.728 9.51831 74.7866 9.59955C74.8992 9.75752 74.9983 9.89744 75.1379 9.93806C75.3091 9.99223 75.647 9.9832 75.8181 9.87488C75.9127 9.8162 76.138 9.6492 76.138 9.6492C76.147 9.71239 76.1335 9.81169 76.0073 9.92452C75.8407 10.069 75.5298 10.1908 75.2641 10.1908C75.1965 10.1908 75.1334 10.1818 75.0749 10.1637C74.8586 10.1006 74.728 9.9155 74.6019 9.73496C74.4757 9.55893 74.3496 9.38291 74.1424 9.30166C73.7955 9.16626 73.5252 8.58402 73.6288 8.18232H73.6108ZM73.9847 10.403C74.1198 10.4526 74.1604 10.4436 74.1694 10.4436C74.291 10.2134 74.1919 9.79363 74.1919 9.79363C74.2955 9.96966 74.5163 10.3984 74.3496 10.5925C74.2955 10.6557 74.2189 10.6783 74.1469 10.6783C74.0433 10.6783 73.9442 10.6422 73.8991 10.6241C73.1648 10.3398 72.881 8.26807 72.8495 8.05594C72.8495 8.05594 73.4712 10.2044 73.9847 10.403Z" fill="white"/>
<path d="M82.3185 36.5722C83.4988 35.006 83.6925 30.9393 81.7014 29.2603C78.9985 26.9765 76.584 27.0622 76.584 27.0622L73.0252 30.7994C74.1424 31.2327 79.1292 35.3761 79.895 36.1524C80.6608 36.9287 82.3185 36.5722 82.3185 36.5722Z" fill="white"/>
<path d="M90.1974 38.4317C89.8776 38.6078 89.364 39.032 88.9856 40.0205C88.9856 40.0205 89.1117 38.5762 90.1253 38.2015C90.2469 38.0571 90.3551 37.9037 90.3506 37.8089C90.3415 37.5426 90.31 36.518 90.6749 36.3194C91.0398 36.1208 91.7966 36.0847 91.7966 36.0847C91.7966 36.0847 91.6885 35.6424 91.3551 35.6018C91.0218 35.5611 90.756 35.8681 90.5668 35.5341C90.4902 35.3942 90.5803 35.2858 90.7064 35.182C90.3821 35.1053 89.9271 35.0602 89.7785 35.3129C89.6253 35.5702 89.5667 36.4232 89.5172 37.1138C89.4766 37.6825 89.1433 38.3189 89.1433 38.3189C89.2108 38.1203 89.391 37.1499 89.4271 36.6218C89.4811 35.8365 89.391 35.498 89.5712 35.1956C89.8505 34.7216 90.6434 34.9157 90.9317 35.006C91.0353 34.9157 91.1164 34.8209 91.0938 34.7036C91.0263 34.3606 90.8461 33.512 91.5488 33.3225C91.5488 33.3225 91.0938 32.7538 89.9046 33.2141C88.5261 33.7467 89.0577 38.7748 88.3279 39.3976C87.5981 40.025 87.481 38.4137 87.6702 37.8179C87.8594 37.2266 88.2603 33.995 88.3009 33.5842C88.3414 33.178 91.693 29.8787 91.229 25.7217C90.774 21.6054 85.0439 14.7179 83.3682 13.278C83.1744 13.3322 82.6023 13.5173 81.8681 14.0544C82.1654 14.2665 82.8366 14.8126 82.9177 15.4265C82.9537 15.7153 82.8591 15.9771 82.6384 16.2118C82.4222 16.442 82.1609 16.5548 81.8636 16.5413C81.1923 16.5142 80.5346 15.8598 80.2959 15.5935C79.8995 16.0945 79.5301 16.6587 79.1967 17.277C79.3814 17.5162 79.5031 17.7013 79.4986 17.787C79.4986 17.787 79.4805 18.0443 80.1202 18.2113C80.7599 18.3783 83.5123 18.6762 86.8729 22.2012C86.8729 22.2012 87.1927 22.5126 87.4585 22.63C87.7243 22.7473 87.9315 22.9459 87.981 23.4108C88.0306 23.8757 87.8729 24.0427 88.0892 24.3857C88.3054 24.7288 90.9091 29.486 87.499 33.7964C87.499 33.7964 87.4945 33.8054 87.49 33.8054C87.5441 33.7151 87.5981 33.6249 87.6567 33.5301C89.4586 30.4338 89.2559 26.981 87.7063 24.1195C87.3324 24.3361 86.6476 24.7604 85.8908 25.3877C86.0575 25.6676 86.4765 26.5342 85.8548 27.2428C85.3097 27.8656 84.4808 27.5858 84.0439 27.306C83.4402 28.1139 83.0078 28.9669 82.751 29.838C82.9988 30.172 83.197 30.5241 83.3231 30.9032C84.0574 33.1374 83.0078 36.2427 82.5618 36.8069C82.2329 37.2266 82.9898 39.014 85.0394 37.0957C85.0845 37.0506 85.134 37.0055 85.1836 36.9558C85.2286 37.028 85.2872 37.1995 85.3593 37.5742C85.5755 38.7206 86.0485 41.5415 85.9899 42.0515C85.9314 42.5616 86.2062 43.0987 86.553 43.3514C86.8999 43.6042 86.4539 44.1413 86.1791 44.4166C85.9043 44.6919 86.7512 45.8745 86.7512 45.8745C86.7512 45.8745 86.3773 44.3128 86.9495 44.1458C87.5216 43.9788 87.9045 44.209 88.1522 43.8344C88.4 43.4598 88.7243 42.1238 88.7243 41.0044C88.7243 40.6208 90.6434 38.7251 91.0263 38.856C91.0263 38.856 90.6839 38.3324 90.2109 38.4453L90.1974 38.4317Z" fill="white"/>
<path d="M75.3046 52.3107C75.3902 51.8548 74.8406 50.889 73.4622 50.889C72.0837 50.889 71.5701 51.6292 71.4485 51.9587C71.3359 52.2881 70.3899 52.7846 69.8809 51.7962C69.3718 50.8032 70.4304 48.569 71.3539 47.382C72.2819 46.1994 76.7687 44.8544 78.6426 42.1147C80.0301 40.0701 78.1246 36.3645 78.1246 36.3645C76.9894 35.9944 71.3584 31.8465 71.3584 31.8465C69.3718 33.8821 67.5969 34.329 67.4843 37.1002C67.3627 39.8851 69.1646 40.517 69.1646 40.517C68.0789 39.3435 68.0609 37.9398 68.0609 37.845C68.1826 38.6574 69.0069 39.2487 69.0069 39.2487C68.7051 38.0075 69.4304 37.0912 69.4304 37.0912C68.9213 40.2371 70.1016 41.6092 70.1196 43.0084C70.1376 45.2832 68.0024 46.6824 67.8897 47.3188C67.7681 47.9552 68.597 48.1538 68.8087 48.4472C69.0159 48.7405 68.7411 48.6638 68.3537 48.9391C67.9753 49.2145 67.9663 50.7942 68.0114 51.7917C68.0699 52.7846 67.5654 54.0845 67.66 54.3463C67.7546 54.6126 70.8539 54.1071 71.1377 54.0529C71.4125 54.0078 71.6602 53.6693 71.5611 53.4978C71.462 53.3217 70.9935 53.3082 70.6557 53.3082C70.6557 53.3082 71.007 53.1141 71.5296 53.1412C71.9125 53.1638 72.4936 53.4075 72.5837 53.412C73.0297 53.4301 73.0027 53.0238 72.8945 52.7034C72.845 52.559 72.6783 52.3739 72.354 52.3739H72.3269C71.6287 52.3829 71.4485 52.5815 71.4485 52.5815C71.4485 52.5815 71.4846 52.1437 72.3179 52.1347C72.9982 52.1166 73.8676 52.5996 74.0928 52.7034C74.6334 52.9787 75.21 52.7711 75.3046 52.3062V52.3107Z" fill="white"/>
<path d="M81.6924 46.1814C80.7103 47.0435 80.4941 49.6658 79.1967 49.6658C77.8994 49.6658 77.5885 47.6979 78.3183 46.1994C79.0481 44.6919 81.5032 44.051 81.5032 41.5776C81.5032 39.1042 80.4265 37.696 79.7643 36.9017C79.0931 36.1163 78.7553 36.5315 78.7553 36.5315C78.5571 37.3756 79.5391 38.0255 79.5211 40.2236C79.494 43.2341 76.12 45.0711 74.4532 45.8564C73.8946 46.1227 73.5928 46.3755 73.5928 46.3755C73.8406 48.0996 75.3992 48.4291 76.4083 49.2054C77.4173 49.9817 76.9669 51.6201 77.0795 52.1302C77.2011 52.6312 77.4083 52.2927 77.9399 51.8729C78.467 51.4486 79.2238 52.0534 79.4805 51.5118C79.7463 50.9702 80.8995 50.4241 81.4581 50.1578C82.0077 49.9005 81.9491 49.58 81.778 49.3138C81.6879 49.1648 81.1743 49.2099 80.7869 49.5394C80.0031 50.2119 79.8409 50.4286 79.8409 50.4286C79.8409 50.4286 79.8229 50.0494 80.6338 49.3589C81.0797 48.9798 81.4581 48.8579 81.7194 48.8308C81.778 48.6683 81.9266 48.5645 82.1834 48.6232C82.7014 48.727 83.0889 48.4697 83.2871 48.0951C83.3907 47.8965 83.1699 47.3233 82.4762 47.3098C82.0212 47.3007 81.4446 47.9552 81.2554 48.1899C81.2554 48.1899 81.814 47.0705 82.4762 47.0705C83.0033 47.0705 83.0844 47.3323 83.6249 47.4993C84.1655 47.6663 84.3277 47.0931 84.2916 46.5786C84.2466 46.0685 82.6744 45.3193 81.6924 46.1724V46.1814Z" fill="white"/>
<path d="M84.4673 47.2917C84.3097 47.3098 84.3592 47.4813 84.3592 47.4813C84.4718 47.5219 84.7781 47.9055 84.7781 47.9055C84.7556 47.4722 84.4673 47.2917 84.4673 47.2917Z" fill="white"/>
<path d="M83.5303 48.1312C83.2961 48.2034 83.4402 48.3795 83.4402 48.3795C83.6159 48.4291 83.8817 49.1783 83.8817 49.1783C84.0799 48.3975 83.5258 48.1312 83.5258 48.1312H83.5303Z" fill="white"/>
<path d="M82.0347 49.5439C81.9041 49.6116 82.0122 49.8193 82.0798 49.7425C82.1474 49.6613 82.5888 49.5439 82.5888 49.5439C82.2014 49.3679 82.0347 49.5439 82.0347 49.5439Z" fill="white"/>
<path d="M75.3316 52.7079C75.2415 52.6086 75.0298 52.7846 75.1334 52.8478C75.4352 53.0238 75.5569 53.412 75.5569 53.412C75.6064 52.92 75.3316 52.7124 75.3316 52.7124V52.7079Z" fill="white"/>
<path d="M73.1378 53.3082C72.9486 53.254 72.9531 53.4301 72.9891 53.4436C73.2369 53.5384 73.3045 54.089 73.3045 54.089C73.5252 53.3849 73.1738 53.3217 73.1378 53.3082Z" fill="white"/>
<path d="M71.6963 53.7911C71.6242 53.7821 71.5792 53.9581 71.6963 53.9897C72.0026 54.0665 72.1918 54.5449 72.1918 54.5449C72.2143 53.904 71.6963 53.7911 71.6963 53.7911Z" fill="white"/>
<path d="M66.4437 31.5035C66.5023 31.9052 66.6329 32.1805 66.8131 32.3069C66.8672 32.3475 66.9527 32.3566 66.9978 32.3656C67.0428 32.3566 67.1239 32.3475 67.1825 32.3069C67.3627 32.1805 67.4933 31.9007 67.5519 31.5035C67.678 30.6776 67.2816 29.7839 66.9978 29.2287C66.714 29.7839 66.3221 30.6776 66.4437 31.5035Z" fill="white"/>
<path d="M72.7279 31.9594C70.8404 30.8942 68.2817 29.3686 67.8942 28.4389C67.651 27.8566 67.8762 27.0487 68.2051 26.5071C68.5069 26.0106 68.8898 25.7082 69.2592 25.6766C69.9034 25.627 70.3899 25.9384 70.6602 26.1731C70.5926 25.8165 70.3719 25.2839 69.6511 25.1982C68.5474 25.0628 67.8177 26.2092 67.8087 26.2227L67.6465 26.4845L67.5924 26.1821C67.5834 26.137 67.3942 25.0176 67.5294 24.4986C67.633 24.1059 67.8177 23.2303 67.0023 22.287C66.1869 23.2303 66.3716 24.1104 66.4752 24.4986C66.6104 25.0176 66.4212 26.1325 66.4122 26.1821L66.3581 26.4845L66.1959 26.2227C66.1959 26.2227 65.4572 25.0628 64.3535 25.1982C63.6327 25.2839 63.412 25.821 63.3444 26.1731C63.6147 25.9339 64.1012 25.627 64.7454 25.6766C65.1148 25.7082 65.5022 26.0106 65.7995 26.5071C66.1284 27.0532 66.3536 27.8611 66.1104 28.4389C65.7229 29.3686 63.1642 30.8942 61.2767 31.9594C59.655 32.8756 56.1007 35.6424 55.3034 36.2653C55.434 36.3014 55.5692 36.3149 55.6953 36.2833C55.9611 36.2066 58.0738 34.6991 60.1235 33.336C60.5695 33.0426 61.4749 32.3701 62.4029 31.7473C63.1147 31.2733 63.412 31.2508 64.4481 30.5602C65.4887 29.8651 66.6059 28.5698 66.6059 28.5698C66.7455 28.9444 65.8716 29.8651 65.8716 30.9077C65.8716 33.4308 67.0068 33.2773 67.0068 33.2773C67.0068 33.2773 68.142 33.4353 68.142 30.9077C68.142 29.8606 67.2681 28.9444 67.4077 28.5698C67.4077 28.5698 68.5249 29.8651 69.5655 30.5602C70.6061 31.2553 70.8989 31.2733 71.6107 31.7473C72.5432 32.3656 73.4486 33.0381 73.8901 33.336C75.9398 34.6991 78.0525 36.2066 78.3183 36.2833C78.4444 36.3194 78.5796 36.3014 78.7102 36.2653C77.9129 35.6424 74.3541 32.8711 72.7369 31.9594H72.7279ZM67.7861 31.5396C67.7141 32.0181 67.5519 32.343 67.3086 32.51C67.205 32.5822 67.0789 32.6003 66.9978 32.6138C66.9167 32.6048 66.7906 32.5822 66.687 32.51C66.4437 32.343 66.2815 32.0181 66.2095 31.5396C66.0383 30.3977 66.723 29.1926 66.9978 28.7413C67.2726 29.1881 67.9573 30.3932 67.7861 31.5396Z" fill="white"/>
<path d="M76.0028 33.2367C75.192 32.5777 72.5071 30.7723 70.953 29.9825C69.3988 29.1926 68.6871 28.8992 68.588 28.1274C68.4889 27.3601 69.2772 25.2253 70.8899 27.0622C70.8899 27.0622 71.5611 26.7869 71.1061 25.6631C70.6512 24.5392 68.8628 24.3632 68.133 25.3877C68.133 25.3877 68.0564 24.8236 68.3312 24.124C68.606 23.4244 67.0023 21.2444 67.0023 21.2444C67.0023 21.2444 65.3896 23.4244 65.6644 24.124C65.9392 24.8236 65.8626 25.3877 65.8626 25.3877C65.1328 24.3632 63.3444 24.5392 62.8894 25.6631C62.4345 26.7869 63.1057 27.0622 63.1057 27.0622C64.7184 25.2253 65.5067 27.3601 65.4076 28.1274C65.3085 28.8947 64.6013 29.1926 63.0426 29.9825C61.4885 30.7723 58.8036 32.5777 57.9927 33.2367C57.3801 33.7332 54.7313 35.9132 54.7313 35.9132C54.7808 35.999 54.898 36.0892 55.0331 36.166C55.5557 35.7552 59.4253 32.7222 61.1461 31.7518C62.2182 31.147 65.4752 29.31 65.8806 28.3441C66.0608 27.9063 65.9437 27.2157 65.5878 26.6244C65.331 26.2002 65.0022 25.9294 64.7139 25.9068C63.8354 25.8255 63.2859 26.5567 63.2814 26.5612L63.0831 26.823L63.0696 26.4935C63.0696 26.4935 63.0291 25.1079 64.3175 24.9544C65.2409 24.8371 65.9121 25.6676 66.214 26.0332C66.2635 25.6721 66.3221 24.8732 66.241 24.5482C66.1329 24.133 65.8896 23.0362 67.0023 21.9259C68.115 23.0362 67.8672 24.1285 67.7546 24.5482C67.669 24.8732 67.7321 25.6721 67.7816 26.0332C68.0834 25.6676 68.7502 24.8371 69.6781 24.9544C70.9665 25.1079 70.926 26.48 70.926 26.4935L70.9124 26.823L70.7142 26.5612C70.7142 26.5612 70.1601 25.8255 69.2817 25.9068C68.9934 25.9294 68.6646 26.2002 68.4078 26.6244C68.0519 27.2157 67.9303 27.9063 68.115 28.3441C68.5159 29.3054 71.7774 31.147 72.8495 31.7518C74.5703 32.7222 78.4399 35.7552 78.9625 36.166C79.0976 36.0892 79.2147 35.999 79.2643 35.9132C79.2643 35.9132 76.6155 33.7332 76.0028 33.2367Z" fill="white"/>
</g>
<defs>
<clipPath id="clip0_204_4007">
<rect width="133.5" height="84.9545" fill="white" transform="translate(0.25 0.5)"/>
</clipPath>
</defs>
</svg>
