<svg width="126" height="84" viewBox="0 0 126 84" fill="none" xmlns="http://www.w3.org/2000/svg">
<g clip-path="url(#clip0_94_1118)">
<path d="M7.8459 83.2538C6.41293 81.3786 5.01501 79.5496 3.46372 77.5128V83.2214H0.29541V74.1966H8.22715C9.29202 75.4344 10.4095 76.7276 11.5927 78.104C12.64 76.7599 13.6523 75.4667 14.6558 74.1781H21.3255V83.203H16.0099V77.8315L15.8083 77.7345C14.3578 79.5727 12.9029 81.4155 11.448 83.2584H7.83713L7.8459 83.2538Z" fill="white"/>
<path d="M38.1311 80.8753V83.2215H22.6357V74.2013H38.118V76.4413H28.0127V77.85H33.3107V79.4989H28.0127C27.9908 79.9746 27.9732 80.358 27.9469 80.8753H38.1355H38.1311Z" fill="white"/>
<path d="M39.3143 83.2307V74.3029C39.4458 74.2613 39.5553 74.192 39.6693 74.192C43.6001 74.1966 47.5309 74.1412 51.4573 74.2705C52.5222 74.3075 53.6659 74.7232 54.5993 75.3005C56.9 76.7138 57.0884 79.7944 55.1033 81.7112C54.1173 82.6673 52.9122 83.1845 51.6326 83.2076C47.5528 83.2769 43.4774 83.2354 39.3099 83.2354L39.3143 83.2307ZM44.7263 80.8798C46.0103 80.8798 47.2154 80.9537 48.4117 80.8567C49.4722 80.7736 50.2128 79.8591 50.2522 78.8199C50.2917 77.7622 49.6343 76.7877 48.5563 76.6676C47.3118 76.5337 46.0453 76.6353 44.7263 76.6353V80.8752V80.8798Z" fill="white"/>
<path d="M62.7853 83.2076V76.4366H56.9745V74.1735H73.9686V76.3627H68.2104V83.2076H62.7853Z" fill="white"/>
<path d="M90.4806 74.1827V76.4274H80.406V77.8407H85.6646V79.4757H80.4148V80.9121H90.4763V83.2307H74.9984V74.1827H90.4806Z" fill="white"/>
<path d="M106.822 79.7067C107.413 80.2101 108.014 80.7182 108.658 81.2632C107.764 82.307 106.712 82.8658 105.533 83.0321C102.234 83.494 98.9207 83.6141 95.6209 83.0783C94.7269 82.9351 93.8198 82.5379 93.0398 82.0345C90.8706 80.6304 90.7173 77.7068 92.6717 75.9563C93.982 74.7832 95.5552 74.1828 97.2073 74.0996C99.6131 73.9749 102.036 73.9795 104.447 74.0996C106.002 74.1781 107.334 75.0187 108.579 76.2381C108.079 76.6722 107.606 77.074 107.129 77.4897C104.767 76.1226 102.269 76.1734 99.7577 76.4644C98.408 76.6214 97.6411 77.3881 97.5973 78.5151C97.5535 79.5589 98.4693 80.8429 99.5868 80.9398C102.045 81.1569 104.556 81.4848 106.822 79.6974V79.7067Z" fill="white"/>
<path d="M120.35 83.2307V79.5358H115.1V83.2076H109.714V74.1874H115.012V77.8222H120.367V74.1827H125.709V83.2307H120.354H120.35Z" fill="white"/>
<path d="M95.7503 10.6589C86.6397 4.10597 75.0066 0.5 63 0.5C50.9933 0.5 39.3602 4.10597 30.2496 10.6589L29.7476 11.0189V31.3551L63 64.5837L96.2524 31.3551V11.0189L95.7503 10.6589ZM61.7877 40.7819L45.7339 24.7838C50.8342 23.1425 56.2589 22.2334 61.7877 22.1114V40.7819ZM64.2123 22.1114C69.7411 22.2273 75.1658 23.1425 80.266 24.7838L64.2123 40.7819V22.1114ZM64.2123 19.6952V2.94059C74.8107 3.16634 85.0172 6.30249 93.2339 11.867L82.1824 22.8802C76.5067 20.9155 70.4146 19.8294 64.2123 19.7013V19.6952ZM61.7877 19.6952C55.5854 19.8233 49.4933 20.9094 43.8175 22.8741L32.7661 11.8609C40.9827 6.30249 51.1893 3.16024 61.7877 2.93448V19.6952ZM41.3195 23.8015C38.0989 25.0889 35.0315 26.6753 32.1721 28.524V14.6859L41.3195 23.8015ZM43.1991 25.6746L61.7877 44.1987V59.9527L32.8212 31.0073C36.0172 28.8596 39.5072 27.0719 43.1991 25.6746ZM64.2123 44.1987L82.8008 25.6746C86.4928 27.0719 89.9827 28.8535 93.1788 31.0073L64.2123 59.9527V44.1987ZM84.6805 23.8015L93.8278 14.6859V28.524C90.9685 26.6692 87.9071 25.0889 84.6805 23.8015Z" fill="white"/>
</g>
<defs>
<clipPath id="clip0_94_1118">
<rect width="125.409" height="82.9318" fill="white" transform="translate(0.29541 0.5)"/>
</clipPath>
</defs>
</svg>
