<svg width="134" height="52" viewBox="0 0 134 52" fill="none" xmlns="http://www.w3.org/2000/svg">
<path d="M36.3688 0.727295L6.48317 17.0749L5.15607 17.9574C4.13891 18.6338 3.36274 19.6143 2.93896 20.7581L0.3334 27.7906C-0.0737476 28.8896 0.741363 30.0568 1.91588 30.0568H105.781L111.565 21.883H40.9481L42.3942 18.9982L46.2504 17.0749L65.7725 6.49704H123.871L127.954 0.727295H36.3688Z" fill="#E6E65C"/>
<path d="M111.556 30.0568L117.34 21.883H133.727L127.943 30.0568H111.556Z" fill="#E6E65C"/>
<path d="M0.227295 39.6086C0.227295 38.8018 0.86834 38.1477 1.65911 38.1477H20.2727V41.0694H4.04547C3.78188 41.0694 3.56819 41.2874 3.56819 41.5564V47.8867C3.56819 48.1557 3.78188 48.3737 4.04547 48.3737H20.2727V51.2954H1.65911C0.86834 51.2954 0.227295 50.6413 0.227295 49.8345V39.6086Z" fill="white"/>
<path d="M86.1359 39.6086C86.1359 38.8018 86.7769 38.1477 87.5677 38.1477H106.181V41.0694H89.954C89.6904 41.0694 89.4768 41.2874 89.4768 41.5564V47.8867C89.4768 48.1557 89.6904 48.3737 89.954 48.3737H106.181V51.2954H87.5677C86.7769 51.2954 86.1359 50.6413 86.1359 49.8345V39.6086Z" fill="white"/>
<path d="M25.5224 38.1477H22.1815V45.9389H38.886V47.8867C38.886 48.1557 38.6723 48.3737 38.4087 48.3737H22.1815V51.2954H40.3178C41.3722 51.2954 42.2269 50.4233 42.2269 49.3476V38.1477H38.886V43.0172H25.5224V38.1477Z" fill="white"/>
<path d="M44.1357 38.1477V41.0694H51.7721V51.2954H55.113V41.0694H62.7493V38.1477L44.1357 38.1477Z" fill="white"/>
<path d="M64.6592 38.1477V51.2954H84.2273V48.3737H68.0001V46.1824H84.2273V43.2607H68.0001V41.0694H84.2273V38.1477H64.6592Z" fill="white"/>
<path d="M108.091 38.1477H111.432V43.2607H124.318V38.1477H127.659V51.2954H124.318V46.1824H111.432V51.2954H108.091V38.1477Z" fill="white"/>
</svg>
