<svg width="114" height="110" viewBox="0 0 114 110" fill="none" xmlns="http://www.w3.org/2000/svg">
<path d="M0.363647 95.8881V97.8441H5.13048V109.756H7.16519V97.8441L9.19751 95.8881H0.363647Z" fill="#FE0000"/>
<path d="M12.0016 95.8905V109.758H14.0387V106.497L16.7205 109.758H18.8055V102.873H16.7732V106.153L14.2424 103.071L18.8055 98.0565V95.8905H12.004H12.0016ZM15.8122 97.8489L14.0363 99.805V97.8489H15.8122Z" fill="#FE0000"/>
<path d="M23.5698 95.8881V109.756H25.6022V102.822H27.6345V109.756H29.6668V95.8881H23.5674H23.5698ZM27.6345 100.864H25.6022V97.8487H27.6345V100.864Z" fill="#FE0000"/>
<path d="M45.3022 95.8881V109.756H47.3345V97.8464H49.3668V95.8881H45.3022Z" fill="#FE0000"/>
<path d="M51.3991 95.8881H55.4661V109.756H53.4314V97.8464H51.3991V95.8881Z" fill="#FE0000"/>
<path d="M51.3991 97.8464H49.3668L49.3668 109.756H51.3991L51.3991 97.8464Z" fill="#FE0000"/>
<path d="M60.2331 95.8881V109.756H62.2654V102.822H64.2977V109.756H66.3301V95.8881H60.2307H60.2331ZM64.2977 100.864H62.2654V97.8487H64.2977V100.864Z" fill="#FE0000"/>
<path d="M38.5007 107.798H36.4684V97.8464L34.4361 95.8881V109.756H40.5354V95.8881H38.5007V107.798Z" fill="#FE0000"/>
<path d="M109.572 95.8881H113.636V109.756H111.604V97.8464H109.572V95.8881Z" fill="#FE0000"/>
<path d="M109.572 97.8464H107.539V109.756H109.572V97.8464Z" fill="#FE0000"/>
<path d="M103.475 95.8881V109.756H105.507V97.8464H107.539V95.8881H103.475Z" fill="#FE0000"/>
<path d="M92.6085 95.8881V109.756H94.6408V102.822H96.6732V109.756H98.7055V95.8881H92.6061H92.6085ZM96.6732 100.864H94.6408V97.8487H96.6732V100.864Z" fill="#FE0000"/>
<path d="M81.7424 95.8881V109.756H87.8394V102.873H85.8071V107.798H83.7747V100.335H85.8071V98.3747H83.7747V97.8464H87.8394V95.8881H81.7424Z" fill="#FE0000"/>
<path d="M70.1046 95.8903V97.8463H74.8738V109.756H76.9061V97.8463L78.9384 95.8903H70.1046Z" fill="#FE0000"/>
<path d="M65.0067 0.386353H48.9934V21.713L65.0067 38.6548L18.8572 3.12844V23.2834L43.9101 42.5686L18.8572 61.8599V82.0148L48.9934 58.8098V84.763H65.0067V58.8098L95.1429 82.0148V61.8599L70.09 42.5686L95.1429 23.2834V3.12844L65.0067 26.3335V0.386353Z" fill="#FE0000"/>
</svg>
