<svg width="134" height="38" viewBox="0 0 134 38" fill="none" xmlns="http://www.w3.org/2000/svg">
<g clip-path="url(#clip0_136_1836)">
<path d="M8.51489 28.0519L7.7414 26.9298H6.92493V31.563C6.92493 31.6482 6.95644 31.7192 7.0166 31.7817C7.07676 31.8442 7.15125 31.8755 7.24006 31.8755C7.32886 31.8755 7.40335 31.8442 7.46351 31.7846C7.52367 31.7249 7.55518 31.6482 7.55518 31.563V27.7877L8.20836 28.711V28.8729C8.20836 28.9581 8.23987 29.0291 8.30003 29.0916C8.3602 29.1541 8.43468 29.1853 8.52349 29.1853C8.6123 29.1853 8.68105 29.1541 8.74408 29.0916C8.80711 29.0291 8.83862 28.9553 8.83862 28.8729V28.6968L9.47747 27.8019V31.5602C9.47747 31.6454 9.50898 31.7164 9.57201 31.7789C9.63503 31.8414 9.70952 31.8726 9.7926 31.8726C9.87568 31.8726 9.95589 31.8414 10.0189 31.7817C10.0819 31.7221 10.1135 31.6454 10.1135 31.5602V26.927H9.31418L8.51489 28.0491V28.0519Z" fill="white"/>
<path d="M16.1611 27.1315C16.121 27.0008 16.0208 26.9326 15.8661 26.9326C15.7114 26.9326 15.5968 27.0093 15.5481 27.1656L14.279 31.4436C14.2675 31.4834 14.2589 31.5203 14.2589 31.5601C14.2589 31.6482 14.2876 31.7249 14.3506 31.7874C14.4136 31.8498 14.4881 31.8811 14.5798 31.8811C14.6457 31.8811 14.7058 31.864 14.7603 31.8271C14.8147 31.793 14.8462 31.7533 14.8548 31.7135L15.1298 30.8045H16.5737L16.8229 31.6538C16.8687 31.8044 16.9719 31.8811 17.138 31.8811C17.2154 31.8811 17.2841 31.8498 17.3443 31.7902C17.4045 31.7305 17.4331 31.6538 17.4331 31.5686C17.4331 31.5402 17.4274 31.509 17.4188 31.4749L16.1611 27.1315ZM15.3189 30.1738L15.8603 28.3842L16.3875 30.1738H15.3218H15.3189Z" fill="white"/>
<path d="M24.4376 26.9327C24.3488 26.9327 24.2743 26.9639 24.2112 27.0264C24.1482 27.0889 24.1167 27.1656 24.1167 27.2508V30.7648L22.4122 26.9298H21.5785V31.563C21.5785 31.6511 21.61 31.7249 21.6702 31.7846C21.7303 31.8442 21.8048 31.8755 21.8936 31.8755C21.9824 31.8755 22.0569 31.8442 22.1171 31.7846C22.1772 31.7249 22.2088 31.6482 22.2088 31.563V28.0349L23.9076 31.8755H24.7527V27.248C24.7527 27.1599 24.7212 27.0832 24.661 27.0207C24.6009 26.9583 24.5264 26.927 24.4376 26.927V26.9327Z" fill="white"/>
<path d="M31.7571 26.9326C31.6683 26.9326 31.5938 26.9639 31.5336 27.0264C31.4735 27.0889 31.4419 27.1656 31.4419 27.2536V30.9437C31.4419 31.0289 31.4104 31.0999 31.3503 31.1596C31.2901 31.2192 31.2156 31.2476 31.1268 31.2476H29.8348C29.7488 31.2476 29.6772 31.2192 29.6142 31.1567C29.5512 31.0971 29.5197 31.026 29.5197 30.9437V27.2479C29.5197 27.1627 29.4881 27.0917 29.4251 27.0292C29.3621 26.9667 29.2876 26.9355 29.2045 26.9355C29.1215 26.9355 29.0441 26.9667 28.9839 27.0292C28.9209 27.0917 28.8894 27.1684 28.8894 27.2536V30.9437C28.8894 31.2022 28.9811 31.4237 29.1673 31.6055C29.3535 31.7902 29.5741 31.8811 29.8348 31.8811H31.1268C31.3847 31.8811 31.6081 31.7874 31.7943 31.6027C31.9805 31.4152 32.0751 31.1936 32.0751 30.9351V27.2536C32.0751 27.1656 32.0436 27.0889 31.9834 27.0264C31.9232 26.9639 31.8487 26.9326 31.7599 26.9326H31.7571Z" fill="white"/>
<path d="M39.0738 26.9326H36.2147V31.5658C36.2147 31.6538 36.2462 31.7277 36.3064 31.7874C36.3666 31.847 36.441 31.8783 36.5299 31.8783C36.6187 31.8783 36.6931 31.847 36.7533 31.7874C36.8135 31.7277 36.845 31.651 36.845 31.5658V29.1711H38.4435C38.5324 29.1711 38.6068 29.1398 38.667 29.0802C38.7272 29.0205 38.7587 28.9438 38.7587 28.8586C38.7587 28.7734 38.7272 28.6967 38.667 28.637C38.6068 28.5774 38.5324 28.5461 38.4435 28.5461H36.845V27.5633H39.0738C39.1597 27.5633 39.2314 27.532 39.2944 27.4695C39.3574 27.407 39.3889 27.3303 39.3889 27.2451C39.3889 27.1599 39.3574 27.0889 39.2944 27.0264C39.2314 26.9639 39.1569 26.9326 39.0738 26.9326Z" fill="white"/>
<path d="M45.4365 27.1315C45.3964 27.0008 45.2962 26.9326 45.1415 26.9326C44.9868 26.9326 44.8722 27.0093 44.8235 27.1656L43.5544 31.4436C43.5429 31.4834 43.5343 31.5203 43.5343 31.5601C43.5343 31.6482 43.563 31.7249 43.626 31.7874C43.689 31.8498 43.7635 31.8811 43.8552 31.8811C43.9211 31.8811 43.9812 31.864 44.0356 31.8271C44.0901 31.793 44.1216 31.7533 44.1302 31.7135L44.4052 30.8045H45.8491L46.0983 31.6538C46.1441 31.8044 46.2473 31.8811 46.4134 31.8811C46.4908 31.8811 46.5595 31.8498 46.6197 31.7902C46.6799 31.7305 46.7085 31.6538 46.7085 31.5686C46.7085 31.5402 46.7028 31.509 46.6942 31.4749L45.4365 27.1315ZM44.5943 30.1738L45.1357 28.3842L45.6629 30.1738H44.5971H44.5943Z" fill="white"/>
<path d="M52.2976 27.7394C52.3607 27.6229 52.4409 27.5633 52.5411 27.5633H53.7415C53.8303 27.5633 53.9048 27.532 53.965 27.4695C54.0251 27.407 54.0566 27.3303 54.0566 27.2451C54.0566 27.1599 54.0251 27.0889 53.965 27.0264C53.9048 26.9639 53.8303 26.9326 53.7415 26.9326H52.4953C52.3578 26.9326 52.2146 26.9809 52.0685 27.0803C51.9195 27.1798 51.8106 27.2934 51.7419 27.4212L51.0056 28.8018C50.9139 28.9722 50.8652 29.1768 50.8652 29.4097C50.8652 29.6199 50.9139 29.8273 51.0113 30.029L51.739 31.4237C51.802 31.5402 51.9138 31.6453 52.0742 31.7391C52.2346 31.8328 52.3893 31.8811 52.5383 31.8811H53.7157C53.8045 31.8811 53.879 31.8498 53.942 31.7902C54.0051 31.7305 54.0366 31.6538 54.0366 31.5686C54.0366 31.4834 54.0051 31.4067 53.942 31.347C53.879 31.2874 53.8017 31.2561 53.7157 31.2561H52.5784C52.4352 31.2561 52.332 31.1908 52.2719 31.0601L51.6044 29.7875C51.5442 29.6767 51.5155 29.546 51.5155 29.4012C51.5155 29.262 51.5413 29.1427 51.5986 29.0404L52.2976 27.7451V27.7394Z" fill="white"/>
<path d="M58.162 27.7849C58.162 27.873 58.1935 27.9469 58.2537 28.0065C58.3138 28.0662 58.3883 28.0974 58.4771 28.0974C58.5659 28.0974 58.6375 28.069 58.7006 28.0065C58.7607 27.9469 58.7922 27.8702 58.7922 27.7849V27.5662H59.4311V31.5687C59.4311 31.6568 59.4626 31.7306 59.5256 31.7903C59.5887 31.85 59.6631 31.8812 59.7548 31.8812C59.8408 31.8812 59.9124 31.85 59.9754 31.7903C60.0384 31.7306 60.0699 31.654 60.0699 31.5687V27.5662H60.7088V27.7935C60.7088 27.8787 60.7403 27.9525 60.8033 28.015C60.8664 28.0775 60.9437 28.1088 61.0297 28.1088C61.1156 28.1088 61.1872 28.0775 61.2502 28.0179C61.3133 27.9582 61.3448 27.8844 61.3448 27.7963V26.9441H58.162V27.7878V27.7849Z" fill="white"/>
<path d="M68.3492 26.9326C68.2604 26.9326 68.1859 26.9639 68.1258 27.0264C68.0656 27.0889 68.0341 27.1656 68.0341 27.2536V30.9437C68.0341 31.0289 68.0026 31.0999 67.9424 31.1596C67.8823 31.2192 67.8078 31.2476 67.719 31.2476H66.427C66.341 31.2476 66.2694 31.2192 66.2064 31.1567C66.1433 31.0971 66.1118 31.026 66.1118 30.9437V27.2479C66.1118 27.1627 66.0803 27.0917 66.0173 27.0292C65.9543 26.9667 65.8798 26.9355 65.7967 26.9355C65.7136 26.9355 65.6363 26.9667 65.5761 27.0292C65.5131 27.0917 65.4816 27.1684 65.4816 27.2536V30.9437C65.4816 31.2022 65.5732 31.4237 65.7595 31.6055C65.9457 31.7902 66.1663 31.8811 66.427 31.8811H67.719C67.9768 31.8811 68.2003 31.7874 68.3865 31.6027C68.5727 31.4152 68.6672 31.1936 68.6672 30.9351V27.2536C68.6672 27.1656 68.6357 27.0889 68.5756 27.0264C68.5154 26.9639 68.4409 26.9326 68.3521 26.9326H68.3492Z" fill="white"/>
<path d="M75.0472 26.9326H72.8184V31.5658C72.8184 31.6538 72.8499 31.7277 72.91 31.7874C72.9702 31.847 73.0447 31.8783 73.1335 31.8783C73.2223 31.8783 73.2968 31.847 73.3598 31.7874C73.4228 31.7277 73.4543 31.651 73.4543 31.5658V29.1796H73.9099L75.3852 31.7135C75.4511 31.8243 75.5457 31.8811 75.6717 31.8811C75.7548 31.8811 75.8293 31.8498 75.8952 31.7902C75.961 31.7305 75.9926 31.6567 75.9926 31.5715C75.9926 31.5061 75.9725 31.4436 75.9324 31.3783L74.6461 29.1824H75.0472C75.3079 29.1824 75.5313 29.0887 75.7147 28.9041C75.898 28.7194 75.9926 28.4978 75.9926 28.2365V27.8786C75.9926 27.6201 75.898 27.3985 75.7118 27.2138C75.5256 27.0264 75.3021 26.9355 75.0443 26.9355L75.0472 26.9326ZM75.3623 28.2422C75.3623 28.3302 75.3308 28.4041 75.2706 28.4637C75.2105 28.5234 75.136 28.5546 75.0472 28.5546H73.4486V27.5661H75.0472C75.136 27.5661 75.2105 27.5973 75.2706 27.657C75.3308 27.7166 75.3623 27.7933 75.3623 27.8786V28.2422Z" fill="white"/>
<path d="M82.9884 27.5662C83.0743 27.5662 83.146 27.5349 83.209 27.4724C83.272 27.4099 83.3035 27.3332 83.3035 27.248C83.3035 27.1628 83.272 27.0918 83.209 27.0293C83.146 26.9668 83.0715 26.9355 82.9884 26.9355H80.4359C80.347 26.9355 80.2726 26.9668 80.2124 27.0293C80.1522 27.0918 80.1207 27.1685 80.1207 27.2565C80.1207 27.3418 80.1522 27.4128 80.2124 27.4753C80.2726 27.5378 80.347 27.569 80.4359 27.569H81.4042V31.2591H80.4359C80.347 31.2591 80.2726 31.2903 80.2124 31.35C80.1522 31.4096 80.1207 31.4863 80.1207 31.5715C80.1207 31.6568 80.1522 31.7335 80.2124 31.7931C80.2726 31.8528 80.347 31.884 80.4359 31.884H82.9884C83.0743 31.884 83.146 31.8528 83.209 31.7931C83.272 31.7335 83.3035 31.6568 83.3035 31.5715C83.3035 31.4863 83.272 31.4096 83.2119 31.35C83.1517 31.2903 83.0772 31.2591 82.9884 31.2591H82.0344V27.569H82.9884V27.5662Z" fill="white"/>
<path d="M90.308 26.9327C90.2192 26.9327 90.1448 26.9639 90.0817 27.0264C90.0187 27.0889 89.9872 27.1656 89.9872 27.2508V30.7648L88.2826 26.9298H87.449V31.563C87.449 31.6511 87.4805 31.7249 87.5407 31.7846C87.6008 31.8442 87.6753 31.8755 87.7641 31.8755C87.8529 31.8755 87.9274 31.8442 87.9876 31.7846C88.0477 31.7249 88.0792 31.6482 88.0792 31.563V28.0349L89.7781 31.8755H90.6232V27.248C90.6232 27.1599 90.5917 27.0832 90.5315 27.0207C90.4713 26.9583 90.3969 26.927 90.308 26.927V26.9327Z" fill="white"/>
<path d="M95.4991 28.8302L96.3843 27.7024C96.4559 27.6115 96.5418 27.5661 96.6392 27.5661H97.6391C97.7164 27.5661 97.788 27.5348 97.8539 27.4752C97.9198 27.4155 97.9542 27.3388 97.9542 27.2451C97.9542 27.157 97.9227 27.086 97.8625 27.0235C97.8024 26.9639 97.7279 26.9326 97.6391 26.9326H96.5905C96.4616 26.9326 96.3356 26.9639 96.2124 27.0264C96.0921 27.0889 95.9975 27.1656 95.9288 27.2536L94.9977 28.4268C94.8287 28.6399 94.7456 28.9012 94.7456 29.2108V30.9437C94.7456 31.2022 94.8401 31.4237 95.0264 31.6055C95.2126 31.7902 95.4389 31.8811 95.6996 31.8811H96.983C97.2437 31.8811 97.4672 31.7902 97.6505 31.6055C97.8367 31.4237 97.9284 31.2022 97.9284 30.9437V29.6398H96.645C96.5562 29.6398 96.4788 29.671 96.4187 29.7307C96.3585 29.7903 96.3298 29.8642 96.3298 29.9523C96.3298 30.0403 96.3585 30.1142 96.4187 30.1738C96.4788 30.2335 96.5533 30.2647 96.645 30.2647H97.2981V30.9437C97.2981 31.0289 97.2666 31.0999 97.2036 31.1624C97.1406 31.2249 97.0661 31.2561 96.983 31.2561H95.6996C95.6108 31.2561 95.5363 31.2249 95.4761 31.1624C95.416 31.0999 95.3845 31.0232 95.3845 30.9351V29.2052C95.3845 29.0461 95.4217 28.9211 95.4962 28.833L95.4991 28.8302Z" fill="white"/>
<path d="M17.7798 6.008C17.0922 6.008 16.5365 6.56193 16.5365 7.24086V15.0045L8.05951 6.37729C7.70714 6.01652 7.16855 5.90573 6.69873 6.09606C6.2289 6.28638 5.92236 6.73805 5.92236 7.23802V23.1089C5.92236 23.7907 6.47814 24.3418 7.16569 24.3418C7.85324 24.3418 8.40902 23.7879 8.40902 23.1089V10.2719L16.5336 18.5383V23.1089C16.5336 23.7907 17.0894 24.3418 17.7769 24.3418C18.4645 24.3418 19.0203 23.7879 19.0203 23.1089V7.24086C19.0203 6.55909 18.4645 6.008 17.7769 6.008H17.7798Z" fill="white"/>
<path d="M30.4852 6.00806H25.7497C23.5295 6.00806 21.7218 7.80053 21.7218 10.0021V20.3564C21.7218 22.5579 23.5295 24.3504 25.7497 24.3504H30.4852C32.7055 24.3504 34.5132 22.5579 34.5132 20.3564V10.0021C34.5132 7.80053 32.7055 6.00806 30.4852 6.00806ZM32.0236 20.3564C32.0236 21.1972 31.3332 21.8818 30.4852 21.8818H25.7497C24.9017 21.8818 24.2113 21.1972 24.2113 20.3564V10.0021C24.2113 9.16122 24.9017 8.47661 25.7497 8.47661H30.4852C31.3332 8.47661 32.0236 9.16122 32.0236 10.0021V20.3564Z" fill="white"/>
<path d="M42.8725 15.016L49.9629 8.12168C50.4528 7.64445 50.4614 6.86326 49.9801 6.3775C49.4988 5.89174 48.711 5.88322 48.2211 6.36046L40.2111 14.1468L39.8502 14.4962V7.23823C39.8502 6.55646 39.2944 6.00537 38.6069 6.00537C37.9193 6.00537 37.3635 6.55931 37.3635 7.23823V23.1092C37.3635 23.7909 37.9193 24.342 38.6069 24.342C39.2944 24.342 39.8502 23.7881 39.8502 23.1092V17.9505L41.0964 16.7403L48.5191 23.9898C48.7626 24.2255 49.0777 24.3448 49.3928 24.3448C49.708 24.3448 50.0374 24.2227 50.2809 23.9756C50.7622 23.4898 50.7565 22.7086 50.2666 22.2314L42.8754 15.0132L42.8725 15.016Z" fill="white"/>
<path d="M65.8885 9.99938C65.8885 7.79785 64.0808 6.00537 61.8606 6.00537H57.1251C54.9049 6.00537 53.0972 7.79785 53.0972 9.99938V20.3537C53.0972 22.5552 54.9049 24.3477 57.1251 24.3477H61.8606C64.0808 24.3477 65.8885 22.5552 65.8885 20.3537V9.99938ZM63.399 20.3537C63.399 21.1945 62.7086 21.8791 61.8606 21.8791H57.1251C56.2771 21.8791 55.5867 21.1945 55.5867 20.3537V9.99938C55.5867 9.15854 56.2771 8.47393 57.1251 8.47393H61.8606C62.7086 8.47393 63.399 9.15854 63.399 9.99938V20.3537Z" fill="white"/>
<path d="M80.519 8.4767C81.2066 8.4767 81.7624 7.92277 81.7624 7.24384C81.7624 6.56492 81.2066 6.01099 80.519 6.01099H69.8935C69.2059 6.01099 68.6501 6.56492 68.6501 7.24384C68.6501 7.92277 69.2059 8.4767 69.8935 8.4767H73.9615V23.1148C73.9615 23.7965 74.5173 24.3476 75.2048 24.3476C75.8924 24.3476 76.4482 23.7937 76.4482 23.1148V8.4767H80.5162H80.519Z" fill="white"/>
<path d="M94.9978 16.4108V23.112C94.9978 23.7938 95.5536 24.3448 96.2412 24.3448C96.9287 24.3448 97.4845 23.7909 97.4845 23.112V9.99938C97.4845 7.79785 95.6768 6.00537 93.4566 6.00537H88.721C86.5008 6.00537 84.6931 7.79785 84.6931 9.99938V23.112C84.6931 23.7938 85.2489 24.3448 85.9364 24.3448C86.624 24.3448 87.1798 23.7909 87.1798 23.112V16.4108H94.995H94.9978ZM88.7239 8.47393H93.4594C94.3074 8.47393 94.9978 9.15853 94.9978 9.99938V13.9423H87.1826V9.99938C87.1826 9.15853 87.8731 8.47393 88.721 8.47393H88.7239Z" fill="white"/>
<path d="M105.174 8.01361C105.116 8.01361 105.056 8.03634 104.993 8.07895L104.48 8.44256L103.968 8.07895C103.907 8.0335 103.847 8.01361 103.79 8.01361C103.667 8.01361 103.607 8.09315 103.607 8.25223V9.63565C103.607 9.70098 103.629 9.75212 103.672 9.79189C103.715 9.83165 103.77 9.85154 103.833 9.85154C103.896 9.85154 103.95 9.83165 103.993 9.79189C104.036 9.75212 104.059 9.70098 104.059 9.63565V8.68402L104.343 8.88855C104.386 8.91695 104.432 8.934 104.477 8.934C104.523 8.934 104.572 8.91979 104.612 8.88855L104.896 8.68402V9.63565C104.896 9.70098 104.919 9.75212 104.962 9.79189C105.007 9.83165 105.059 9.85154 105.122 9.85154C105.185 9.85154 105.239 9.83165 105.282 9.79189C105.325 9.75212 105.348 9.70098 105.348 9.63565V8.25223C105.348 8.09315 105.288 8.01361 105.165 8.01361H105.174Z" fill="white"/>
<path d="M103.228 8.01361H101.934C101.865 8.01361 101.807 8.0335 101.767 8.07327C101.727 8.11304 101.707 8.16701 101.707 8.22667C101.707 8.28632 101.727 8.33745 101.767 8.37722C101.807 8.41699 101.865 8.43688 101.934 8.43688H102.355V9.62997C102.355 9.6953 102.378 9.74643 102.421 9.7862C102.466 9.82597 102.518 9.84586 102.581 9.84586C102.644 9.84586 102.698 9.82597 102.741 9.7862C102.784 9.74643 102.807 9.6953 102.807 9.62997V8.43688H103.228C103.297 8.43688 103.354 8.41699 103.395 8.37722C103.435 8.33745 103.455 8.28632 103.455 8.22667C103.455 8.16701 103.435 8.11304 103.395 8.07327C103.354 8.0335 103.297 8.01361 103.228 8.01361Z" fill="white"/>
<path d="M106.345 8.93116C106.345 7.39434 105.085 6.1416 103.535 6.1416C101.985 6.1416 100.722 7.3915 100.722 8.93116C100.722 10.4708 101.982 11.7179 103.535 11.7179C105.088 11.7179 106.345 10.468 106.345 8.93116ZM103.535 11.1014C102.329 11.1014 101.346 10.1271 101.346 8.93116C101.346 7.73523 102.329 6.75803 103.535 6.75803C104.741 6.75803 105.724 7.73239 105.724 8.93116C105.724 10.1299 104.741 11.1014 103.535 11.1014Z" fill="white"/>
<path d="M119.77 4.97681L120.426 6.31477L120.288 6.99938L113.65 7.61581L113.513 8.26632L117.973 9.67246L118.561 10.6326L120.6 11.2831H121.153V13.9903L118.008 14.1267L115.831 13.0642L104.921 13.1324L113.928 16.493L117.04 15.2601L115.656 17.1463L115.309 22.1857L112.923 27.5006L110.677 29.4891L109.64 31.6821H111.783L112.717 29.9692L112.82 29.3868L113.407 29.3527L113.719 30.1765L114.928 31.3071L116.346 31.1367L120.01 26.9211L122.153 26.6825L120.735 29.1511L119.698 28.671L118.695 31.6878H119.351L126.161 26.5462L126.402 24.694L128.96 23.2197L126.539 9.23216L119.764 4.98249L119.77 4.97681ZM124.889 18.6178L122.551 17.6093L122.19 10.7008L124.889 18.6178ZM113.943 27.8415L116.034 23.6941L117.922 22.9072L113.943 27.8415ZM116.346 28.6823L118.558 23.8986L120.148 25.3729L116.343 28.6795L116.346 28.6823ZM121.36 23.0777L120.701 23.2992L119.924 20.1461L121.474 19.4274L121.36 23.0777ZM121.222 15.8339L121.085 17.0668L118.873 19.7512L119.068 20.9727L117.65 21.6005L116.727 19.1206L116.681 17.0753L119.148 14.9164H120.752L121.477 15.5328L121.225 15.8311L121.222 15.8339ZM121.964 24.177L125.405 20.9898L125.803 21.2113V22.0181L126.27 22.8078L121.964 24.1799V24.177Z" fill="white"/>
<path d="M128.931 0.79541H5.06574C2.41006 0.79541 0.25 2.93729 0.25 5.57345V32.4293C0.25 35.0626 2.41006 37.2073 5.06574 37.2073H128.931C131.587 37.2073 133.75 35.0655 133.75 32.4293V5.57345C133.75 2.94013 131.59 0.79541 128.931 0.79541ZM132.088 32.4265C132.088 34.1536 130.673 35.5569 128.931 35.5569H5.06574C3.32394 35.5569 1.90872 34.1536 1.90872 32.4265V5.57345C1.90872 3.84631 3.32394 2.44301 5.06574 2.44301H128.931C130.673 2.44301 132.088 3.84631 132.088 5.57345V32.4293V32.4265Z" fill="white"/>
</g>
<defs>
<clipPath id="clip0_136_1836">
<rect width="133.5" height="36.4091" fill="white" transform="translate(0.25 0.79541)"/>
</clipPath>
</defs>
</svg>
