<svg width="150" height="18" viewBox="0 0 150 18" fill="none" xmlns="http://www.w3.org/2000/svg">
<g clip-path="url(#clip0_152_766)">
<path d="M100.839 0.909058H98.4284C98.0932 0.909058 97.8215 1.18074 97.8215 1.51588V16.4841C97.8215 16.8192 98.0932 17.0909 98.4284 17.0909H100.839C101.175 17.0909 101.446 16.8192 101.446 16.4841V1.51588C101.446 1.18074 101.175 0.909058 100.839 0.909058Z" fill="#AF6EDB"/>
<path d="M117.659 10.3021C117.659 10.8277 117.036 11.1047 116.646 10.7527L106.34 1.45933L105.798 1.03705C105.691 0.954099 105.56 0.909058 105.425 0.909058H103.325C102.99 0.909058 102.718 1.18074 102.718 1.51588V16.4841C102.718 16.8192 102.99 17.0909 103.325 17.0909H105.733C106.069 17.0909 106.34 16.8192 106.34 16.4841V7.71136C106.34 7.18571 106.963 6.90869 107.353 7.26071L117.659 16.5541L118.187 16.9636C118.294 17.0461 118.425 17.0909 118.559 17.0909H120.68C121.015 17.0909 121.286 16.8192 121.286 16.4841V1.51588C121.286 1.18074 121.015 0.909058 120.68 0.909058H118.266C117.931 0.909058 117.659 1.18074 117.659 1.51588V10.3021Z" fill="#AF6EDB"/>
<path d="M144.494 13.0933H142.083C141.748 13.0933 141.476 13.365 141.476 13.7001V16.4841C141.476 16.8192 141.748 17.0909 142.083 17.0909H144.494C144.829 17.0909 145.101 16.8192 145.101 16.4841V13.7001C145.101 13.365 144.829 13.0933 144.494 13.0933Z" fill="#AF6EDB"/>
<path d="M130.443 0.909058C126.053 0.909058 122.495 3.93286 122.495 9.04447C122.495 14.1561 126.053 17.0909 130.443 17.0909H138.678C139.013 17.0909 139.285 16.8192 139.285 16.4841V13.7001C139.285 13.365 139.013 13.0933 138.678 13.0933H130.443C128.112 13.0933 126.215 11.8876 126.215 9.04447C126.215 6.20139 128.112 4.90663 130.443 4.90663H149.234C149.569 4.90663 149.841 4.63495 149.841 4.29981V1.51588C149.841 1.18074 149.569 0.909058 149.234 0.909058H130.443Z" fill="#AF6EDB"/>
<path d="M19.5565 0.909058H0.765876C0.430739 0.909058 0.159058 1.18074 0.159058 1.51588V4.29981C0.159058 4.63495 0.430739 4.90663 0.765876 4.90663H19.5565C21.8874 4.90663 23.7853 6.20139 23.7853 9.04447C23.7853 11.8876 21.8874 13.0933 19.5565 13.0933H11.2387C10.9036 13.0933 10.6319 12.8216 10.6319 12.4865V7.12651C10.6319 6.79137 10.3602 6.51969 10.0251 6.51969H7.61406C7.27893 6.51969 7.00725 6.79137 7.00725 7.12651V16.4841C7.00725 16.8192 7.27893 17.0909 7.61406 17.0909H19.5565C23.9467 17.0909 27.5053 14.1588 27.5053 9.04447C27.5053 3.93017 23.9467 0.909058 19.5565 0.909058Z" fill="#AF6EDB"/>
<path d="M38.6557 0.909058C28.7528 0.909058 28.8363 8.0349 28.8407 8.23629C28.8408 8.24263 28.8408 8.24381 28.8408 8.25015V16.4841C28.8408 16.8192 29.1125 17.0909 29.4476 17.0909H31.8586C32.1937 17.0909 32.4654 16.8192 32.4654 16.4841V12.845C32.4654 12.5099 32.7371 12.2382 33.0722 12.2382H44.2416C44.5767 12.2382 44.8484 12.5099 44.8484 12.845V16.4841C44.8484 16.8192 45.1201 17.0909 45.4552 17.0909H47.8662C48.2014 17.0909 48.4731 16.8192 48.4731 16.4841V8.25015C48.4731 8.24381 48.473 8.24263 48.4732 8.23629C48.4775 8.0349 48.561 0.909058 38.6557 0.909058ZM32.4654 8.24064C32.4641 8.24064 32.463 8.24148 32.463 8.24013C32.4632 8.18757 32.5033 4.14866 38.6557 4.14866C43.3565 4.14866 44.489 6.50646 44.7618 7.64255C44.8401 7.96842 44.5767 8.24064 44.2416 8.24064H32.4654Z" fill="#AF6EDB"/>
<path d="M49.7328 0.909058C49.3977 0.909058 49.126 1.18074 49.126 1.51588V4.30251C49.126 4.63765 49.3977 4.90933 49.7328 4.90933H55.991C56.3262 4.90933 56.5978 5.18101 56.5978 5.51615V16.4841C56.5978 16.8192 56.8695 17.0909 57.2047 17.0909H59.6157C59.9508 17.0909 60.2225 16.8192 60.2225 16.4841V5.51615C60.2225 5.18101 60.4942 4.90933 60.8293 4.90933H67.0875C67.4227 4.90933 67.6943 4.63765 67.6943 4.30251V1.51588C67.6943 1.18074 67.4227 0.909058 67.0875 0.909058H49.7328Z" fill="#AF6EDB"/>
<path d="M78.1624 0.909058C68.258 0.909058 68.3407 8.03707 68.3449 8.23638C68.3451 8.24266 68.345 8.24378 68.345 8.25005V16.4841C68.345 16.8192 68.6167 17.0909 68.9518 17.0909H71.3629C71.698 17.0909 71.9697 16.8192 71.9697 16.4841V12.845C71.9697 12.5099 72.2414 12.2382 72.5765 12.2382H83.7458C84.081 12.2382 84.3527 12.5099 84.3527 12.845V16.4841C84.3527 16.8192 84.6243 17.0909 84.9595 17.0909H87.3705C87.7056 17.0909 87.9773 16.8192 87.9773 16.4841V8.25026C87.9773 8.24385 87.9773 8.24261 87.9774 8.2362C87.9819 8.03273 88.0662 0.909058 78.1624 0.909058ZM71.9721 8.24064C71.9708 8.24064 71.9697 8.24148 71.9697 8.24012C71.9699 8.18748 72.01 4.14866 78.1624 4.14866C82.8632 4.14866 83.9957 6.50646 84.2685 7.64255C84.3468 7.96842 84.0834 8.24064 83.7483 8.24064H71.9721Z" fill="#AF6EDB"/>
</g>
<defs>
<clipPath id="clip0_152_766">
<rect x="0.159058" y="0.909058" width="149.682" height="16.1818" rx="0.2" fill="white"/>
</clipPath>
</defs>
</svg>
