<svg width="110" height="110" viewBox="0 0 110 110" fill="none" xmlns="http://www.w3.org/2000/svg">
<g clip-path="url(#clip0_255_1063)">
<path d="M55.0001 0.386353C24.8871 0.386353 0.386475 24.887 0.386475 55C0.386475 85.113 24.8871 109.614 55.0001 109.614C85.1131 109.614 109.614 85.113 109.614 55C109.614 24.887 85.1131 0.386353 55.0001 0.386353ZM55.0001 107.838C25.864 107.838 2.16253 84.1361 2.16253 55C2.16253 25.8638 25.864 2.16241 55.0001 2.16241C84.1363 2.16241 107.838 25.8638 107.838 55C107.838 84.1361 84.1363 107.838 55.0001 107.838Z" fill="white"/>
<path d="M94.5928 55.0001C94.5928 33.168 76.8323 15.4075 55.0001 15.4075C33.168 15.4075 15.4075 33.168 15.4075 55.0001C15.4075 76.8323 33.168 94.5928 55.0001 94.5928C76.8323 94.5928 94.5928 76.8323 94.5928 55.0001ZM55.0001 93.2608C33.9051 93.2608 16.7395 76.0952 16.7395 55.0001C16.7395 33.9051 33.9051 16.7395 55.0001 16.7395C76.0952 16.7395 93.2608 33.9051 93.2608 55.0001C93.2608 76.0952 76.0952 93.2608 55.0001 93.2608Z" fill="white"/>
<path d="M101.12 45.1074L101.231 45.0896C101.435 45.0585 101.675 45.2761 101.955 45.7423C102.234 46.2085 102.416 46.688 102.492 47.1809C102.598 47.8691 102.514 48.4819 102.23 49.0102C101.95 49.5431 101.497 49.8583 100.871 49.956C100.241 50.0537 99.7123 49.8938 99.2861 49.4765C98.8598 49.0591 98.5934 48.5041 98.4824 47.807C98.4203 47.4118 98.4203 47.0255 98.4824 46.6436C98.5446 46.2618 98.6289 45.9776 98.7355 45.7911C98.8421 45.6047 98.922 45.4981 98.9664 45.4715C99.0108 45.4448 99.0907 45.4226 99.1973 45.4048L99.2594 45.2716L97.8652 44.6056L97.8031 44.73C97.8164 44.7522 97.8342 44.7877 97.8564 44.8321C97.8786 44.8765 97.8963 44.9253 97.9052 44.983C97.8963 45.0541 97.8697 45.1518 97.8386 45.2672C97.8031 45.3871 97.7454 45.5736 97.6566 45.8355C97.5722 46.0975 97.51 46.435 97.4701 46.8523C97.4301 47.2697 97.4479 47.6915 97.51 48.1178C97.6743 49.1701 98.0739 50.0093 98.7089 50.6398C99.3438 51.2703 100.134 51.51 101.084 51.3591C102.026 51.2125 102.709 50.7419 103.122 49.9427C103.535 49.1434 103.664 48.2243 103.5 47.1809C103.424 46.6969 103.278 46.244 103.065 45.8222C102.852 45.396 102.652 45.0585 102.461 44.8099C102.27 44.5612 102.168 44.4191 102.146 44.3836C102.128 44.3481 102.114 44.317 102.11 44.2815C102.101 44.2371 102.11 44.1971 102.132 44.1572C102.154 44.1172 102.172 44.0817 102.19 44.0462L102.083 43.9485L101.018 45.0008L101.107 45.1118L101.12 45.1074Z" fill="white"/>
<path d="M97.2615 36.2092C96.7376 36.3957 96.298 36.7153 95.9517 37.1682C95.6009 37.6211 95.4011 38.0696 95.3523 38.5092C95.3034 38.9487 95.3034 39.335 95.3567 39.6592C95.41 39.9833 95.4943 40.3163 95.6142 40.6537C95.9561 41.6217 96.5022 42.3454 97.2482 42.825C97.9941 43.3045 98.8067 43.3889 99.6858 43.0781C100.21 42.8916 100.649 42.5719 100.996 42.119C101.346 41.6661 101.546 41.2176 101.595 40.7736C101.648 40.3296 101.644 39.9433 101.591 39.6236C101.537 39.2995 101.449 38.9709 101.329 38.6379C100.987 37.67 100.441 36.9462 99.6947 36.4667C98.9488 35.9872 98.1362 35.9028 97.2571 36.2136L97.2615 36.2092ZM99.3217 37.6611C99.8235 37.9364 100.179 38.3715 100.387 38.9665C100.6 39.5704 100.596 40.1343 100.374 40.6582C100.152 41.1821 99.7657 41.5418 99.2152 41.7371C98.6513 41.9369 98.1229 41.9014 97.6256 41.6261C97.1283 41.3553 96.7731 40.9157 96.56 40.3119C96.3468 39.7036 96.3424 39.1397 96.56 38.6202C96.7731 38.1007 97.1638 37.741 97.7322 37.5412C98.2872 37.3458 98.82 37.3814 99.3173 37.6567L99.3217 37.6611Z" fill="white"/>
<path d="M90.9562 30.4462C90.8896 30.424 90.823 30.3796 90.7564 30.3085L90.6365 30.3796L91.5689 31.9913L91.6932 31.9203C91.6311 31.7205 91.671 31.5828 91.8087 31.5029L94.828 29.7624L93.6558 34.4778C93.6424 34.5222 93.6247 34.5666 93.6025 34.6066C93.5803 34.6465 93.5536 34.6776 93.5181 34.6998C93.4693 34.7309 93.4204 34.7353 93.3805 34.7176C93.3405 34.6998 93.2961 34.6687 93.2517 34.6243L93.1274 34.6954L94.2063 36.5647L94.3307 36.4936C94.2996 36.3959 94.2951 36.3116 94.3085 36.2494C94.3262 36.1828 94.3706 36.1295 94.4506 36.0851L98.7575 33.5987C98.833 33.5542 98.904 33.5409 98.9706 33.5631C99.0372 33.5853 99.1038 33.6297 99.1704 33.7008L99.2903 33.6297L98.3579 32.018L98.238 32.089C98.2691 32.1867 98.2735 32.271 98.2602 32.3332C98.2469 32.3954 98.198 32.4531 98.1181 32.4975L95.0233 34.2824L96.1955 29.5137C96.2222 29.4027 96.2444 29.3228 96.2621 29.2695C96.2843 29.2162 96.3154 29.1763 96.3598 29.1496C96.4042 29.1319 96.4397 29.1274 96.4708 29.1363C96.5019 29.1452 96.5419 29.1763 96.5951 29.234L96.715 29.163L95.7204 27.4402L95.6005 27.5112C95.6316 27.6089 95.6361 27.6933 95.6183 27.7554C95.6005 27.822 95.5561 27.8753 95.4807 27.9197L91.1737 30.4018C91.0983 30.4462 91.0272 30.4595 90.9606 30.4373L90.9562 30.4462Z" fill="white"/>
<path d="M86.7338 24.9582C86.787 24.9715 86.8359 24.9849 86.8758 25.0071C86.9158 25.0293 86.9469 25.0515 86.9647 25.0737C87.0091 25.1447 87.0446 25.2202 87.0712 25.3045C87.0979 25.3889 87.1467 25.5443 87.2177 25.7752C87.2888 26.0061 87.4087 26.2858 87.5729 26.6188C87.7417 26.9518 87.937 27.2538 88.1635 27.5246C88.6519 28.1151 89.1892 28.5325 89.7708 28.7723C90.3525 29.0121 90.8942 28.9277 91.4003 28.5103C91.9598 28.0485 92.1418 27.5646 91.942 27.0584C91.7422 26.5522 91.3693 25.8862 90.8231 25.0603C90.2725 24.2345 90.1216 23.7194 90.3569 23.524C90.5922 23.3287 90.8675 23.3198 91.1739 23.5063C91.4803 23.6928 91.7689 23.9503 92.0353 24.27C92.3195 24.6119 92.5637 25.047 92.7679 25.5665C92.9721 26.0904 92.9499 26.4545 92.6969 26.6677L92.7457 26.8097L94.2864 26.4235L94.2554 26.2769C94.1621 26.2547 94.0911 26.2192 94.0467 26.1659C94.0111 26.1215 93.9845 26.0638 93.9667 25.9883C93.949 25.9128 93.909 25.753 93.8469 25.5088C93.7847 25.2646 93.6559 24.9671 93.465 24.6163C93.2741 24.2655 93.0476 23.9281 92.7812 23.604C92.2884 23.009 91.7378 22.5783 91.1251 22.3163C90.5168 22.0544 89.9573 22.1298 89.4511 22.5472C88.865 23.0312 88.6919 23.5773 88.9316 24.1812C89.1714 24.785 89.5044 25.3933 89.9218 26.0105C90.3391 26.6277 90.57 27.0184 90.61 27.1916C90.65 27.3648 90.5922 27.5157 90.4413 27.6401C90.1971 27.8043 89.944 27.791 89.682 27.609C89.4245 27.4225 89.1581 27.1694 88.8872 26.8408C88.461 26.3302 88.2256 25.8862 88.1768 25.5177C88.128 25.1491 88.1102 24.9316 88.1235 24.865C88.1368 24.8028 88.1768 24.7406 88.239 24.6874L88.2034 24.5364L86.6982 24.8294L86.7293 24.9627L86.7338 24.9582Z" fill="white"/>
<path d="M86.494 18.0005L83.5591 21.3484L82.0805 20.0519C82.0095 19.9897 81.9695 19.9231 81.9606 19.8565C81.9518 19.7855 81.9695 19.71 82.0095 19.6301L81.894 19.528L80.895 20.6646L81.0105 20.7667C81.1215 20.7001 81.2058 20.6691 81.2591 20.6824C81.3168 20.6957 81.3745 20.7268 81.4367 20.7801L85.4328 24.2833C85.5039 24.3455 85.5438 24.4121 85.5527 24.4787C85.5616 24.5453 85.5438 24.6252 85.5039 24.7051L85.6193 24.8073L86.6184 23.6706L86.5029 23.5685C86.3919 23.6351 86.3075 23.6662 86.2543 23.6528C86.1965 23.6395 86.1388 23.6084 86.0767 23.5552L84.5981 22.2586L87.533 18.9108C87.5907 18.8442 87.6529 18.8086 87.7239 18.8086C87.795 18.8086 87.8705 18.8264 87.9593 18.8752L88.0525 18.7687L86.5739 17.4722L86.4807 17.5787C86.5562 17.6942 86.5917 17.7785 86.5873 17.8363C86.5784 17.894 86.5517 17.9473 86.5029 18.005L86.494 18.0005Z" fill="white"/>
<path d="M78.8126 18.8128L78.7327 18.9283L80.3578 20.0561L80.4377 19.9406C80.3666 19.8651 80.3267 19.7941 80.3134 19.7275C80.3 19.6609 80.3178 19.5943 80.3711 19.5188L83.2039 15.4295C83.2527 15.3584 83.3149 15.314 83.3815 15.3051C83.4481 15.2962 83.528 15.3051 83.6213 15.3406L83.7012 15.2252L82.0761 14.0974L81.9962 14.2129C82.1383 14.3683 82.1605 14.5103 82.0716 14.6391L79.2388 18.7285C79.15 18.8572 79.008 18.8839 78.8126 18.8084V18.8128Z" fill="white"/>
<path d="M72.5697 15.749C72.663 15.6602 72.7385 15.6114 72.7962 15.6114C72.8539 15.6114 72.9205 15.6292 72.9915 15.6647L77.6759 18.1734C77.7602 18.2178 77.8135 18.271 77.8357 18.3376C77.8579 18.4042 77.8579 18.4797 77.8402 18.5685L77.9734 18.6396L78.6882 17.3031L78.555 17.232C78.4618 17.3209 78.3863 17.3697 78.3286 17.3697C78.2709 17.3697 78.2043 17.3519 78.1332 17.3164L76.3971 16.3884L78.4973 12.4633C78.5373 12.3879 78.5905 12.339 78.6616 12.3213C78.7282 12.3035 78.8081 12.3079 78.9058 12.3301L78.9724 12.2058L77.2363 11.2778L77.1697 11.4022C77.2718 11.4954 77.3251 11.5709 77.3295 11.6286C77.334 11.6863 77.3207 11.7485 77.2851 11.8151L75.185 15.7402L73.4489 14.8122C73.3645 14.7678 73.3112 14.7101 73.289 14.6479C73.2668 14.5813 73.2668 14.5058 73.2846 14.417L73.1514 14.346L72.4365 15.6824L72.5697 15.7535V15.749Z" fill="white"/>
<path d="M67.2104 13.4137C67.1216 13.3604 67.0639 13.3027 67.0328 13.2406C67.0018 13.1784 67.0018 13.1074 67.0328 13.023L67.9564 10.2568L67.9963 10.1325C68.1739 9.60409 68.427 9.28884 68.7645 9.17784C69.1019 9.07128 69.5681 9.11568 70.172 9.31548C70.4784 9.41761 70.7448 9.53749 70.9668 9.67957C71.1888 9.81722 71.3531 9.97706 71.4463 10.1591C71.5396 10.3412 71.584 10.5054 71.5707 10.6564C71.5573 10.8074 71.5129 10.9983 71.4374 11.2203L71.3797 11.3935L70.4562 14.1597C70.4295 14.244 70.3807 14.3018 70.3141 14.3284C70.2475 14.3595 70.1676 14.3728 70.0743 14.3639L70.0299 14.4971L71.9037 15.1232L71.9481 14.99C71.8593 14.9367 71.8015 14.879 71.7705 14.8168C71.7394 14.7546 71.7394 14.6836 71.7705 14.5992L72.805 11.4911C73.0803 10.6653 73.0092 10.017 72.5919 9.55525C72.1745 9.09348 71.4907 8.70274 70.5317 8.38306C69.5637 8.05893 68.7778 7.96124 68.1695 8.08557C67.5612 8.20989 67.1216 8.68498 66.8508 9.50641L65.8162 12.6145C65.763 12.7699 65.6342 12.8365 65.4255 12.8187L65.3811 12.952L67.1572 13.5425L67.2016 13.4093L67.2104 13.4137Z" fill="white"/>
<path d="M58.7698 11.9482C58.8231 11.926 58.8942 11.9216 58.9741 11.9349L64.2268 12.7385C64.32 12.7519 64.3911 12.7874 64.431 12.8407C64.4754 12.894 64.5021 12.965 64.5109 13.0582L64.6619 13.0804L64.8928 11.5841L64.7418 11.5619C64.6841 11.6774 64.6308 11.7484 64.5775 11.7662C64.5243 11.7884 64.4532 11.7928 64.3733 11.7795L62.4285 11.482L63.1034 7.08182C63.1167 6.99302 63.1523 6.93086 63.21 6.89534C63.2677 6.85981 63.3432 6.83317 63.4409 6.82429L63.4631 6.68665L61.5183 6.38916L61.4961 6.5268C61.6204 6.58009 61.6959 6.63337 61.7225 6.68665C61.7447 6.73993 61.7536 6.80209 61.7403 6.87757L61.0654 11.2777L59.1206 10.9803C59.0274 10.9669 58.9563 10.9314 58.9164 10.8781C58.872 10.8249 58.8453 10.7494 58.8364 10.6606L58.6855 10.6384L58.4546 12.1347L58.6056 12.1569C58.6633 12.0414 58.7166 11.9704 58.7698 11.9526V11.9482Z" fill="white"/>
<path d="M57.6821 11.771C57.58 11.7444 57.5089 11.7044 57.4645 11.6556C57.4201 11.6067 57.3979 11.5401 57.4024 11.4513L57.5933 6.48283C57.5933 6.39403 57.6244 6.32742 57.6777 6.28302C57.731 6.23862 57.8064 6.20754 57.8997 6.18534V6.04326L55.9283 5.96777V6.10986C56.1236 6.16314 56.2213 6.2697 56.2169 6.42955L56.0259 11.3981C56.0215 11.5579 55.9149 11.6556 55.7107 11.6955V11.8376L57.6821 11.9131V11.771Z" fill="white"/>
<path d="M47.9892 10.8915C48.34 11.3444 48.7219 11.6508 49.1348 11.8062C49.5477 11.966 49.9207 12.0593 50.2493 12.0903C50.5778 12.1214 50.9197 12.1214 51.2749 12.0903C52.2962 12.0015 53.1353 11.6597 53.788 11.0558C54.4407 10.4519 54.7249 9.68823 54.645 8.76025C54.5961 8.20523 54.4008 7.70349 54.05 7.2506C53.6992 6.79771 53.3174 6.49134 52.9 6.33149C52.4826 6.17165 52.1097 6.07397 51.7855 6.04732C51.4614 6.02068 51.1195 6.02068 50.7643 6.04732C49.7431 6.13613 48.9039 6.47802 48.2512 7.08188C47.5985 7.68573 47.3143 8.44944 47.3943 9.37742C47.4431 9.93244 47.6385 10.4342 47.9892 10.8871V10.8915ZM49.3124 7.75234C49.7031 7.33496 50.2137 7.10408 50.8442 7.04635C51.4836 6.99307 52.0253 7.1396 52.4782 7.48593C52.9311 7.83226 53.1797 8.29847 53.233 8.88013C53.2819 9.47511 53.1176 9.97684 52.7269 10.3898C52.3406 10.8027 51.8255 11.0336 51.1906 11.0913C50.5467 11.1446 50.0006 11.007 49.5522 10.6651C49.1037 10.3276 48.8551 9.85696 48.8018 9.25754C48.7529 8.667 48.9217 8.16527 49.3124 7.75234Z" fill="white"/>
<path d="M38.7982 8.84942C38.856 8.8805 38.8959 8.94266 38.9226 9.02703L40.2413 13.8224C40.2635 13.9067 40.259 13.9778 40.2235 14.0355C40.188 14.0932 40.1258 14.1465 40.0415 14.1953L40.077 14.333L41.8708 13.8401L41.8353 13.7025C41.6266 13.7114 41.5023 13.6403 41.4623 13.4849L40.5388 10.1237L44.8057 12.4459C44.8457 12.4726 44.8812 12.4992 44.9167 12.5303C44.9523 12.5614 44.9745 12.5969 44.9833 12.6369C45.0011 12.6946 44.9922 12.739 44.9656 12.7745C44.9389 12.81 44.899 12.8455 44.8413 12.8766L44.8768 13.0143L46.9548 12.4415L46.9192 12.3038C46.8171 12.3038 46.7328 12.295 46.675 12.2594C46.6173 12.2284 46.5774 12.1662 46.5507 12.0818L45.232 7.28649C45.2098 7.20213 45.2142 7.13109 45.2498 7.07337C45.2853 7.01565 45.3474 6.96236 45.4318 6.91352L45.3963 6.77588L43.6025 7.26873L43.638 7.40638C43.7401 7.40638 43.8245 7.41526 43.8822 7.45078C43.9399 7.48186 43.9799 7.54402 44.0065 7.62838L44.9567 11.0739L40.6365 8.73842C40.5388 8.68514 40.4633 8.64517 40.4189 8.60965C40.3745 8.57413 40.3434 8.53417 40.3301 8.48533C40.3256 8.43649 40.3301 8.40097 40.3434 8.37433C40.3612 8.34769 40.4011 8.31661 40.4722 8.28108L40.4366 8.14344L38.5229 8.67182L38.5585 8.80946C38.6606 8.80502 38.745 8.81834 38.8027 8.85386L38.7982 8.84942Z" fill="white"/>
<path d="M30.3352 12.8097C30.4374 12.8497 30.5617 12.9252 30.7171 13.0362L34.8908 16.0244C34.9485 16.0732 34.9929 16.1132 35.024 16.1443C35.0551 16.1754 35.0773 16.2064 35.0906 16.2375C35.1261 16.313 35.1261 16.3752 35.0906 16.4373C35.0507 16.495 35.0063 16.5483 34.9574 16.5883L35.0196 16.7126L37.031 15.7225L36.9688 15.5981C36.7867 15.6292 36.6624 15.5804 36.5958 15.4472C36.5736 15.3983 36.5603 15.3451 36.5559 15.2873C36.5514 15.2252 36.5514 15.1674 36.5559 15.1053L36.6491 10.0258C36.6491 9.86149 36.6669 9.73272 36.6979 9.64836C36.7246 9.564 36.7956 9.47964 36.9022 9.39971L36.84 9.27539L34.9619 10.1989L35.024 10.3233C35.1217 10.3011 35.2016 10.2966 35.2682 10.3099C35.3348 10.3233 35.3837 10.3632 35.4147 10.4254C35.4325 10.4609 35.4414 10.4964 35.4458 10.5319C35.4458 10.5675 35.4503 10.6208 35.4547 10.7007L35.4369 11.6331L32.8528 12.903L32.0935 12.3524C32.0047 12.2991 31.9337 12.2236 31.8893 12.1304C31.8538 12.0638 31.8538 12.0016 31.8893 11.9439C31.9204 11.8906 31.9781 11.8329 32.058 11.7841L31.9958 11.6597L29.9045 12.6899L29.9667 12.8142C30.1088 12.7698 30.2287 12.7698 30.3308 12.8053L30.3352 12.8097ZM35.4281 12.5344L35.4147 14.8744L33.5677 13.4491L35.4281 12.5344Z" fill="white"/>
<path d="M24.4432 18.1644C24.3677 17.9779 24.4032 17.8358 24.5408 17.7337L27.6889 15.4204L30.3219 19.008C30.4151 19.1368 30.3929 19.2789 30.2597 19.4343L30.3441 19.5497L31.9381 18.382L31.8537 18.2665C31.725 18.3154 31.6362 18.3331 31.5829 18.3154C31.5296 18.2976 31.4808 18.2577 31.4364 18.1955L28.4926 14.1861C28.4393 14.115 28.4215 14.044 28.4348 13.9774C28.4482 13.9108 28.4837 13.8397 28.5503 13.7642L28.4659 13.6488L23.9681 16.9478C23.8926 17.0055 23.8215 17.0277 23.7505 17.0233C23.6839 17.0189 23.6128 16.9878 23.5418 16.9345L23.4175 17.0233L24.3188 18.2488L24.4432 18.16V18.1644Z" fill="white"/>
<path d="M15.3896 26.3832C15.4962 26.3788 15.6427 26.3965 15.8336 26.4365L20.8554 27.4888C20.9309 27.511 20.9886 27.5287 21.0242 27.5465C21.0641 27.5643 21.0952 27.582 21.1218 27.6042C21.184 27.6575 21.2106 27.7197 21.1973 27.7863C21.184 27.8529 21.1662 27.9195 21.1396 27.9772L21.2462 28.066L22.6892 26.3477L22.5826 26.2589C22.4272 26.361 22.294 26.3654 22.183 26.2722C22.1431 26.2367 22.1076 26.1967 22.0809 26.1434C22.0543 26.0901 22.0276 26.0369 22.0099 25.9747L20.0518 21.2859C19.9896 21.135 19.9541 21.0106 19.9452 20.9218C19.9363 20.833 19.9674 20.7265 20.034 20.611L19.9274 20.5222L18.5821 22.1251L18.6887 22.2139C18.7686 22.1562 18.8396 22.1207 18.9062 22.1029C18.9728 22.0896 19.0305 22.1029 19.0883 22.1473C19.1193 22.1739 19.1415 22.2006 19.1593 22.2317C19.1771 22.2627 19.1993 22.3116 19.2348 22.3826L19.5944 23.244L17.7429 25.4508L16.8282 25.2554C16.7261 25.2421 16.6329 25.2021 16.5529 25.1355C16.4952 25.0867 16.4686 25.029 16.4775 24.9668C16.4863 24.9046 16.513 24.8291 16.5663 24.7492L16.4597 24.6604L14.9634 26.4454L15.0699 26.5342C15.1809 26.4365 15.2919 26.3876 15.3985 26.3832H15.3896ZM19.9408 24.0788L20.8732 26.2278L18.6087 25.6683L19.9408 24.0832V24.0788Z" fill="white"/>
<path d="M11.0296 33.7274C11.1672 33.6874 11.3892 33.6519 11.7001 33.6164L13.7248 33.3411C13.5294 33.8428 13.4717 34.2913 13.556 34.6909C13.636 35.0905 13.889 35.4057 14.3064 35.6455C14.9236 35.9963 15.452 36.0274 15.8871 35.7476C16.3222 35.4679 16.7396 34.9706 17.1437 34.2557L19.0929 30.8058L18.9686 30.7347C18.8975 30.8102 18.8309 30.859 18.7688 30.8768C18.7021 30.8946 18.6355 30.8812 18.5556 30.8413L14.2265 28.3992C14.151 28.3548 14.1022 28.3015 14.0889 28.2349C14.0711 28.1683 14.08 28.0884 14.1066 27.9907L13.9823 27.9197L13.0099 29.6424L13.1342 29.7135C13.2763 29.5581 13.414 29.5226 13.5516 29.598L15.2433 30.5527L14.4085 32.0312L12.2817 32.2888C12.2506 32.2932 12.184 32.3065 12.0775 32.3198C11.9709 32.3376 11.891 32.3287 11.8421 32.3021C11.7889 32.2754 11.7711 32.231 11.78 32.1778C11.7889 32.1245 11.8022 32.0756 11.8244 32.0268L11.7001 31.9558L10.5723 33.9494L10.6966 34.0204C10.7854 33.865 10.8964 33.7673 11.034 33.7318L11.0296 33.7274ZM14.6527 33.8295C14.6971 33.5675 14.817 33.2567 15.0257 32.8926L16.0825 31.0233L17.4234 31.7826L16.3666 33.6519C16.158 34.0204 15.9537 34.2913 15.7539 34.46C15.5541 34.6287 15.3099 34.6287 15.0168 34.4644C14.7327 34.3046 14.6083 34.0915 14.6527 33.8339V33.8295Z" fill="white"/>
<path d="M7.53517 43.0517C7.5929 43.0207 7.66838 43.0207 7.7483 43.0517L12.4637 44.6369C12.5481 44.6635 12.6014 44.7123 12.6324 44.7745C12.6591 44.8367 12.6724 44.9166 12.6635 45.0143L12.7967 45.0587L13.5604 42.7898L13.4272 42.7454C13.3784 42.8963 13.2807 42.9452 13.1342 42.8963C13.0987 42.8786 13.0587 42.8431 13.0143 42.7898C12.9699 42.7365 12.9433 42.7054 12.9344 42.6965L10.741 40.1257L14.0888 39.4241C14.1643 39.4019 14.2442 39.4064 14.3286 39.433C14.3819 39.4641 14.4129 39.4996 14.4307 39.544C14.4485 39.5884 14.4529 39.6417 14.4485 39.7083L14.5817 39.7527L15.3587 37.4394L15.2255 37.395C15.1722 37.4838 15.1145 37.5415 15.0523 37.5726C14.9902 37.6037 14.9191 37.6037 14.8392 37.5726L10.1282 35.9875C10.0439 35.9608 9.99057 35.912 9.95949 35.8498C9.93285 35.7877 9.91953 35.7078 9.92841 35.6101L9.7952 35.5657L9.20022 37.3328L9.33343 37.3772C9.38671 37.2884 9.44443 37.2307 9.50215 37.1996C9.55988 37.1686 9.63092 37.1686 9.71528 37.1996L13.1031 38.3408L8.62301 39.2909L11.5713 42.8875L8.17899 41.7463C8.02803 41.6975 7.96587 41.5687 7.98807 41.36L7.85486 41.3156L7.22437 43.1894L7.35757 43.2338C7.41085 43.145 7.46857 43.0873 7.53073 43.0562L7.53517 43.0517Z" fill="white"/>
<path d="M7.81479 51.1817C8.56961 51.2927 9.08911 51.0529 9.37328 50.4713C9.65744 49.8896 9.88833 49.2369 10.0659 48.5132C10.2435 47.7894 10.3812 47.3543 10.4789 47.2078C10.581 47.0612 10.7275 47.0035 10.9273 47.0302C11.2115 47.1012 11.3758 47.2966 11.4113 47.6118C11.4468 47.9271 11.4379 48.2956 11.3758 48.7174C11.2825 49.3746 11.1138 49.8496 10.8696 50.1338C10.6298 50.418 10.4789 50.5778 10.4256 50.6134C10.3679 50.6489 10.3013 50.6578 10.2169 50.6444L10.1281 50.7732L11.3536 51.6923L11.4335 51.5813C11.4069 51.5325 11.3847 51.4881 11.3713 51.4437C11.358 51.3993 11.358 51.3637 11.3625 51.3327C11.3847 51.2527 11.4202 51.1728 11.4646 51.0973C11.509 51.0218 11.5933 50.8798 11.7132 50.6711C11.8331 50.4624 11.9663 50.1871 12.0995 49.8408C12.2327 49.4944 12.326 49.1481 12.3748 48.7973C12.4858 48.0381 12.4325 47.3632 12.2238 46.7682C12.0152 46.1732 11.5845 45.8313 10.9362 45.7381C10.2169 45.636 9.73737 45.8224 9.4976 46.3109C9.25783 46.7948 9.01363 47.5186 8.76498 48.4821C8.52077 49.4456 8.24104 49.9029 7.93467 49.8585C7.6283 49.8141 7.44182 49.6143 7.37078 49.2636C7.30417 48.9083 7.29973 48.5265 7.3619 48.1136C7.42406 47.674 7.5839 47.2033 7.83255 46.6972C8.0812 46.1954 8.36981 45.9645 8.69394 46.0134L8.76498 45.8802L7.44182 44.9966L7.35302 45.1165C7.40186 45.2008 7.41962 45.2763 7.41074 45.3474C7.40186 45.4051 7.37522 45.4628 7.33082 45.5294C7.28641 45.5916 7.19317 45.7292 7.05553 45.9423C6.91788 46.151 6.78024 46.4485 6.64703 46.8259C6.51383 47.2033 6.41615 47.5985 6.35843 48.0114C6.24742 48.7751 6.3007 49.4722 6.51383 50.1027C6.72696 50.7332 7.15765 51.0929 7.81035 51.1861L7.81479 51.1817Z" fill="white"/>
<path d="M8.85817 64.7815L8.74717 64.7993C8.54292 64.8304 8.30316 64.6128 8.02343 64.1466C7.7437 63.6804 7.56609 63.2009 7.49061 62.7036C7.38405 62.0153 7.47285 61.407 7.75702 60.8742C8.04119 60.3414 8.49408 60.0306 9.12014 59.9329C9.75064 59.8352 10.279 59.9951 10.7053 60.4169C11.1315 60.8343 11.3979 61.3937 11.5045 62.0864C11.5667 62.4816 11.5622 62.8679 11.5045 63.2497C11.4423 63.6316 11.358 63.9157 11.247 64.1022C11.1404 64.2887 11.0605 64.3953 11.0161 64.4219C10.9717 64.4485 10.8918 64.4707 10.7852 64.4885L10.723 64.6217L12.1172 65.2922L12.1794 65.1678C12.1661 65.1456 12.1483 65.1101 12.1261 65.0657C12.1039 65.0213 12.0861 64.9725 12.0817 64.9148C12.0906 64.8437 12.1172 64.746 12.1528 64.6306C12.1883 64.5151 12.2504 64.3242 12.3348 64.0623C12.4192 63.8003 12.4813 63.4628 12.5213 63.0499C12.5612 62.6325 12.5479 62.2107 12.4813 61.7845C12.3215 60.7321 11.9219 59.893 11.2869 59.2625C10.652 58.632 9.86164 58.3922 8.91145 58.5387C7.96571 58.6852 7.28637 59.1559 6.86899 59.9507C6.45162 60.7455 6.32286 61.6646 6.48714 62.7124C6.56262 63.1964 6.70471 63.6493 6.91783 64.0756C7.13096 64.5018 7.33077 64.8393 7.51725 65.0879C7.70374 65.3366 7.8103 65.4786 7.82806 65.5142C7.84582 65.5497 7.85914 65.5808 7.86358 65.6163C7.87246 65.6607 7.86358 65.7007 7.84138 65.7406C7.81918 65.7806 7.80142 65.8161 7.78366 65.8516L7.88578 65.9493L8.95142 64.9014L8.86261 64.7904L8.85817 64.7815Z" fill="white"/>
<path d="M12.6902 73.6885C13.2141 73.5064 13.6537 73.1867 14.0044 72.7338C14.3552 72.2809 14.555 71.8369 14.6038 71.3929C14.6527 70.9533 14.6527 70.567 14.6038 70.2429C14.5506 69.9143 14.4662 69.5858 14.3508 69.2483C14.0133 68.2804 13.4672 67.5566 12.7212 67.0727C11.9753 66.5931 11.1627 66.5043 10.2836 66.8151C9.75967 67.0016 9.32009 67.3169 8.96932 67.7698C8.61855 68.2227 8.41874 68.6711 8.36546 69.1151C8.31218 69.5591 8.31662 69.9454 8.36546 70.2651C8.41874 70.5892 8.50755 70.9178 8.62299 71.2508C8.96044 72.2188 9.50658 72.9425 10.2525 73.4265C10.9985 73.906 11.811 73.9948 12.6902 73.684V73.6885ZM10.6344 72.2321C10.1371 71.9568 9.78187 71.5217 9.56874 70.9223C9.35561 70.3184 9.36449 69.7545 9.5865 69.2306C9.80851 68.7066 10.1948 68.347 10.7498 68.1516C11.3137 67.9562 11.8421 67.9918 12.3394 68.2626C12.8367 68.5335 13.1874 68.973 13.4006 69.5769C13.6137 70.1852 13.6137 70.7491 13.4006 71.2686C13.1874 71.7881 12.7923 72.1477 12.2239 72.3475C11.6645 72.5429 11.1361 72.5029 10.6388 72.2277L10.6344 72.2321Z" fill="white"/>
<path d="M18.9818 79.465C19.0484 79.4872 19.115 79.5316 19.1816 79.6027L19.3059 79.5316L18.3779 77.9154L18.2536 77.9865C18.3158 78.1863 18.2758 78.3239 18.1382 78.4038L15.1144 80.1355L16.2999 75.4245C16.3133 75.3801 16.331 75.3357 16.3532 75.2957C16.3754 75.2558 16.4021 75.2247 16.4376 75.2025C16.4864 75.1714 16.5353 75.167 16.5752 75.1847C16.6152 75.2025 16.6596 75.2336 16.704 75.278L16.8239 75.2069L15.7494 73.3376L15.625 73.4087C15.6561 73.5064 15.6606 73.5907 15.6428 73.6529C15.625 73.7151 15.5806 73.7728 15.5007 73.8172L11.1894 76.2903C11.1139 76.3347 11.0428 76.3436 10.9762 76.3259C10.9096 76.3037 10.843 76.2593 10.7764 76.1882L10.6521 76.2593L11.5801 77.8755L11.7 77.8044C11.6689 77.7067 11.6644 77.6224 11.6822 77.5602C11.7 77.498 11.7444 77.4403 11.8243 77.3959L14.9235 75.6199L13.7424 80.3841C13.7158 80.4951 13.6936 80.5751 13.6714 80.6283C13.6492 80.6816 13.6181 80.7216 13.5693 80.7482C13.5249 80.766 13.4893 80.7704 13.4583 80.7615C13.4316 80.7527 13.3872 80.7171 13.3339 80.6639L13.2096 80.7349L14.1998 82.4577L14.3241 82.3866C14.293 82.2889 14.2886 82.2046 14.3063 82.1424C14.3241 82.0758 14.3685 82.0225 14.4484 81.9781L18.7598 79.505C18.8353 79.4606 18.9063 79.4517 18.9729 79.4695L18.9818 79.465Z" fill="white"/>
<path d="M23.1954 84.9617C23.1422 84.9483 23.0933 84.935 23.0534 84.9128C23.0134 84.8906 22.9823 84.8684 22.9646 84.8462C22.9202 84.7752 22.8846 84.6997 22.858 84.6109C22.8314 84.5265 22.7825 84.3711 22.7115 84.1402C22.6404 83.9094 22.525 83.6296 22.3563 83.2966C22.192 82.9636 21.9966 82.6617 21.7702 82.3864C21.2817 81.7958 20.7489 81.3785 20.1673 81.1343C19.5856 80.8901 19.0439 80.9789 18.5377 81.3918C17.9783 81.8536 17.7962 82.3375 17.9916 82.8437C18.187 83.3499 18.5599 84.0159 19.1061 84.8462C19.6522 85.6765 19.8076 86.1871 19.5679 86.3869C19.3281 86.5868 19.0572 86.5912 18.7509 86.4003C18.4445 86.2093 18.1559 85.9563 17.8895 85.6321C17.6053 85.2902 17.3611 84.8551 17.1613 84.3312C16.9571 83.8072 16.9837 83.4431 17.2368 83.2344L17.1879 83.0924L15.6472 83.4787L15.6783 83.6252C15.7715 83.6474 15.8426 83.6829 15.887 83.7362C15.9225 83.7806 15.9491 83.8383 15.9669 83.9138C15.9847 83.9893 16.0246 84.1491 16.0868 84.3933C16.149 84.6375 16.2733 84.935 16.4642 85.2902C16.6551 85.641 16.8816 85.9785 17.148 86.3026C17.6408 86.8976 18.1914 87.3283 18.7997 87.5947C19.408 87.8611 19.9675 87.7856 20.4736 87.3682C21.0597 86.8842 21.2329 86.3381 20.9976 85.7387C20.7578 85.1348 20.4292 84.5265 20.0119 83.9093C19.5945 83.2922 19.3636 82.897 19.3281 82.7238C19.2926 82.5507 19.3458 82.3997 19.4968 82.2754C19.741 82.1155 19.9941 82.1244 20.2561 82.3109C20.5136 82.4974 20.78 82.7505 21.0509 83.079C21.4727 83.5941 21.708 84.0337 21.7568 84.4066C21.8057 84.7752 21.8234 84.9927 21.8101 85.0593C21.7968 85.1215 21.7568 85.1837 21.6902 85.237L21.7258 85.3879L23.231 85.0993L23.1999 84.9661L23.1954 84.9617Z" fill="white"/>
<path d="M23.4174 91.9195L26.3612 88.5805L27.8353 89.8814C27.9063 89.9436 27.9463 90.0102 27.9507 90.0768C27.9596 90.1479 27.9419 90.2233 27.9019 90.3033L28.0174 90.4054L29.0164 89.2687L28.9009 89.1666C28.7899 89.2332 28.7056 89.2598 28.6478 89.2509C28.5901 89.2376 28.5324 89.2065 28.4702 89.1533L24.483 85.6411C24.412 85.579 24.372 85.5124 24.3676 85.4458C24.3587 85.3792 24.3764 85.2992 24.4164 85.2193L24.301 85.1172L23.3019 86.2539L23.4174 86.356C23.5284 86.2894 23.6127 86.2627 23.6705 86.2716C23.7282 86.2849 23.7859 86.316 23.8481 86.3693L25.3222 87.6703L22.3784 91.0092C22.3207 91.0758 22.2585 91.1114 22.1875 91.1114C22.1164 91.1114 22.0409 91.0936 21.9521 91.0448L21.8589 91.1513L23.333 92.4523L23.4263 92.3457C23.3508 92.2303 23.3152 92.1459 23.3241 92.0882C23.333 92.0305 23.3597 91.9772 23.4085 91.9195H23.4174Z" fill="white"/>
<path d="M31.0944 91.1248L31.1744 91.0094L29.5537 89.8816L29.4738 89.997C29.5448 90.0725 29.5848 90.1436 29.5981 90.2102C29.6114 90.2768 29.5892 90.3434 29.5404 90.4189L26.6987 94.4993C26.6499 94.5704 26.5877 94.6103 26.5211 94.6237C26.4545 94.6325 26.3746 94.6237 26.2813 94.5837L26.2014 94.6991L27.8221 95.8269L27.902 95.7115C27.7643 95.5561 27.7377 95.414 27.8265 95.2852L30.6682 91.2047C30.757 91.076 30.8991 91.0493 31.0944 91.1248Z" fill="white"/>
<path d="M37.3371 94.2105C37.2439 94.2993 37.1684 94.3481 37.1107 94.3481C37.053 94.3481 36.9864 94.3304 36.9153 94.2904L32.2354 91.7729C32.1511 91.7285 32.0978 91.6707 32.0756 91.6086C32.0534 91.542 32.0534 91.4665 32.0711 91.3777L31.9379 91.3066L31.2186 92.6387L31.3518 92.7097C31.4451 92.6209 31.5206 92.5721 31.5783 92.5721C31.636 92.5721 31.7026 92.5898 31.7737 92.6298L33.5053 93.5622L31.3962 97.4829C31.3563 97.5583 31.2986 97.6072 31.232 97.6249C31.1654 97.6427 31.0854 97.6383 30.9877 97.6161L30.9211 97.7404L32.6528 98.6728L32.7194 98.5485C32.6173 98.4553 32.564 98.3798 32.5596 98.3221C32.5551 98.2643 32.5684 98.2022 32.604 98.1356L34.713 94.2149L36.4447 95.1474C36.529 95.1918 36.5823 95.2495 36.6045 95.3116C36.6267 95.3782 36.6267 95.4537 36.6045 95.5425L36.7377 95.6136L37.457 94.2815L37.3238 94.2105H37.3371Z" fill="white"/>
<path d="M42.6744 96.5553C42.7632 96.6086 42.821 96.6663 42.852 96.7329C42.8831 96.7951 42.8831 96.8661 42.852 96.9505L41.9241 99.7167L41.8841 99.841C41.7065 100.369 41.449 100.685 41.1115 100.791C40.7741 100.898 40.3079 100.849 39.704 100.649C39.3976 100.547 39.1312 100.423 38.9092 100.285C38.6872 100.143 38.5274 99.9831 38.4297 99.8055C38.332 99.6234 38.292 99.4591 38.3054 99.3037C38.3187 99.1483 38.3631 98.9663 38.4386 98.7398L38.4963 98.5667L39.4243 95.8005C39.4509 95.7161 39.4997 95.6584 39.5663 95.6317C39.633 95.6007 39.7129 95.5918 39.8061 95.5962L39.8505 95.463L37.9768 94.8325L37.9324 94.9657C38.0212 95.019 38.0789 95.0767 38.11 95.1433C38.1411 95.2055 38.1411 95.2765 38.11 95.3609L37.0666 98.469C36.7868 99.2948 36.8579 99.9431 37.2708 100.405C37.6882 100.871 38.372 101.262 39.3266 101.582C40.2945 101.906 41.0804 102.008 41.6887 101.883C42.297 101.759 42.7366 101.288 43.0119 100.467L44.0553 97.3589C44.1086 97.2035 44.2374 97.1369 44.4461 97.1547L44.4905 97.0215L42.7144 96.4265L42.67 96.5597L42.6744 96.5553Z" fill="white"/>
<path d="M51.1239 98.0381C51.0706 98.0603 50.9996 98.0648 50.9196 98.0515L45.6714 97.2345C45.5781 97.2211 45.5071 97.1856 45.4671 97.1323C45.4227 97.0791 45.3961 97.0036 45.3872 96.9148L45.2363 96.8926L45.0054 98.3889L45.1563 98.4111C45.2141 98.2957 45.2673 98.2246 45.3251 98.2069C45.3783 98.1847 45.4494 98.1802 45.5293 98.1935L47.4741 98.4955L46.7903 102.896C46.777 102.984 46.7415 103.047 46.6837 103.082C46.626 103.122 46.5505 103.144 46.4529 103.153L46.4307 103.291L48.3754 103.593L48.3976 103.455C48.2733 103.402 48.1978 103.349 48.1712 103.295C48.149 103.242 48.1401 103.18 48.1534 103.104L48.8372 98.7041L50.782 99.0061C50.8752 99.0194 50.9463 99.0549 50.9862 99.1082C51.0262 99.1615 51.0573 99.237 51.0662 99.3258L51.2171 99.348L51.448 97.8516L51.297 97.8294C51.2393 97.9449 51.186 98.0159 51.1283 98.0337L51.1239 98.0381Z" fill="white"/>
<path d="M52.2118 98.2246C52.314 98.2512 52.385 98.2912 52.4294 98.34C52.4738 98.3889 52.496 98.4555 52.4916 98.5443L52.2873 103.513C52.2873 103.602 52.2562 103.668 52.203 103.713C52.1497 103.757 52.0742 103.788 51.981 103.81V103.952L53.9524 104.032V103.89C53.757 103.837 53.6593 103.73 53.6682 103.571L53.8725 98.602C53.8769 98.4422 53.9835 98.3445 54.1877 98.3045V98.1624L52.2163 98.0825V98.2246H52.2118Z" fill="white"/>
<path d="M61.9046 99.1217C61.5539 98.6688 61.172 98.3624 60.7591 98.2025C60.3462 98.0427 59.9732 97.9495 59.6446 97.9139C59.3161 97.8829 58.9742 97.8829 58.6189 97.9139C57.5977 97.9983 56.7585 98.3402 56.1058 98.944C55.4531 99.5435 55.1645 100.312 55.24 101.24C55.2844 101.795 55.4842 102.296 55.835 102.749C56.1858 103.202 56.5676 103.509 56.985 103.673C57.4024 103.837 57.7753 103.93 58.0995 103.957C58.4236 103.984 58.7655 103.984 59.1207 103.957C60.1419 103.873 60.9811 103.531 61.6338 102.927C62.2865 102.327 62.5751 101.559 62.4952 100.631C62.4508 100.076 62.251 99.5745 61.9046 99.1217ZM60.5726 102.256C60.1819 102.669 59.6713 102.905 59.0363 102.958C58.3969 103.011 57.8552 102.865 57.4024 102.518C56.9495 102.172 56.7008 101.706 56.652 101.124C56.6031 100.529 56.7719 100.027 57.1626 99.6145C57.5533 99.2016 58.0639 98.9707 58.7033 98.9174C59.3471 98.8641 59.8933 99.0062 60.3417 99.3437C60.7902 99.6811 61.0388 100.152 61.0877 100.751C61.1365 101.342 60.9633 101.843 60.5726 102.256Z" fill="white"/>
<path d="M71.0869 101.195C71.0292 101.164 70.9892 101.102 70.967 101.017L69.6616 96.222C69.6394 96.1377 69.6439 96.0666 69.6794 96.0089C69.7149 95.9512 69.7771 95.8979 69.8614 95.8491L69.8259 95.7114L68.0276 96.1998L68.0632 96.3375C68.2719 96.3286 68.3962 96.3996 68.4361 96.555L69.3508 99.9162L65.0883 97.5852C65.0483 97.5585 65.0128 97.5319 64.9773 97.5008C64.9418 97.4697 64.9196 97.4342 64.9107 97.3942C64.8974 97.3365 64.9018 97.2921 64.9284 97.2566C64.9551 97.2211 64.995 97.1855 65.0528 97.1545L65.0172 97.0168L62.9348 97.5852L62.9703 97.7228C63.0725 97.7228 63.1568 97.7317 63.2145 97.7672C63.2723 97.7983 63.3122 97.8604 63.3389 97.9448L64.6443 102.74C64.6665 102.825 64.662 102.896 64.6265 102.958C64.591 103.015 64.5288 103.069 64.4445 103.118L64.48 103.255L66.2782 102.767L66.2427 102.629C66.1406 102.629 66.0562 102.62 65.9985 102.585C65.9408 102.554 65.9008 102.492 65.8742 102.407L64.9329 98.9616L69.2442 101.306C69.3419 101.359 69.4174 101.399 69.4618 101.435C69.5062 101.47 69.5373 101.51 69.5506 101.559C69.5551 101.608 69.5506 101.643 69.5373 101.67C69.5195 101.697 69.4796 101.728 69.4085 101.763L69.4441 101.901L71.3622 101.377L71.3267 101.239C71.2245 101.239 71.1402 101.231 71.0825 101.195H71.0869Z" fill="white"/>
<path d="M79.5629 97.2522C79.4607 97.2122 79.3364 97.1367 79.181 97.0213L75.0162 94.0242C74.9584 93.9754 74.914 93.9354 74.883 93.9043C74.8519 93.8732 74.8297 93.8422 74.8164 93.8111C74.7808 93.7356 74.7808 93.6734 74.8164 93.6113C74.8519 93.5491 74.9007 93.5003 74.9496 93.4603L74.8874 93.3315L72.8716 94.3173L72.9337 94.446C73.1158 94.4149 73.2401 94.4682 73.3023 94.597C73.3245 94.6458 73.3378 94.6991 73.3422 94.7568C73.3467 94.8145 73.3422 94.8767 73.3422 94.9389L73.2357 100.018C73.2357 100.183 73.2135 100.307 73.1868 100.396C73.1602 100.48 73.0892 100.565 72.9781 100.644L73.0403 100.773L74.9185 99.8541L74.8563 99.7253C74.7586 99.7475 74.6787 99.752 74.6121 99.7387C74.5455 99.7253 74.4967 99.6854 74.4656 99.6232C74.4478 99.5877 74.439 99.5522 74.4345 99.5166C74.4345 99.4811 74.4301 99.4278 74.4256 99.3479L74.4478 98.4155L77.0364 97.1501L77.7913 97.7006C77.8801 97.7539 77.9511 97.8294 77.9955 97.9226C78.031 97.9892 78.031 98.0514 77.9955 98.1091C77.9644 98.1624 77.9067 98.2201 77.8268 98.269L77.8889 98.3977L79.9802 97.3765L79.9181 97.2477C79.776 97.2921 79.6561 97.2921 79.554 97.2522H79.5629ZM74.47 97.5141L74.4878 95.1742L76.3304 96.6039L74.47 97.5141Z" fill="white"/>
<path d="M85.4593 91.915C85.5348 92.1015 85.4993 92.2436 85.3617 92.3457L82.2047 94.6502L79.5806 91.0537C79.4874 90.9249 79.5096 90.7828 79.6428 90.6274L79.5584 90.512L77.96 91.6753L78.0443 91.7907C78.1731 91.7419 78.2619 91.7241 78.3152 91.7463C78.3684 91.7641 78.4173 91.804 78.4617 91.8662L81.3922 95.8801C81.4455 95.9511 81.4632 96.0222 81.4499 96.0888C81.4366 96.1554 81.3966 96.2264 81.3345 96.3019L81.4188 96.4173L85.9256 93.1272C86.001 93.0695 86.0721 93.0473 86.1431 93.0517C86.2097 93.0606 86.2808 93.0872 86.3518 93.145L86.4761 93.0562L85.5792 91.8262L85.4549 91.915H85.4593Z" fill="white"/>
<path d="M94.535 83.7189C94.4284 83.7234 94.2819 83.7056 94.091 83.6612L89.0692 82.5956C88.9937 82.5734 88.9404 82.5556 88.9005 82.5379C88.8605 82.5201 88.8294 82.5023 88.8028 82.4801C88.7406 82.4268 88.714 82.3647 88.7273 82.2981C88.7406 82.2315 88.7584 82.1649 88.785 82.1072L88.6784 82.0139L87.231 83.7278L87.3375 83.8211C87.4929 83.7189 87.6261 83.7145 87.7371 83.8122C87.7771 83.8477 87.8126 83.8877 87.8393 83.9409C87.8659 83.9942 87.8925 84.0475 87.9103 84.1097L89.8595 88.8029C89.9217 88.9538 89.9572 89.0782 89.9661 89.167C89.975 89.2558 89.9439 89.3623 89.8773 89.4778L89.9838 89.5666L91.3336 87.9681L91.2271 87.8793C91.1472 87.9371 91.0761 87.9726 91.0095 87.9859C90.9429 87.9992 90.8852 87.9859 90.8319 87.9415C90.8008 87.9149 90.7786 87.8882 90.7609 87.8571C90.7431 87.8261 90.7209 87.7772 90.6854 87.7062L90.3302 86.8448L92.1861 84.6425L93.1008 84.8423C93.2029 84.8556 93.2962 84.8956 93.3761 84.9622C93.4338 85.011 93.4605 85.0687 93.4516 85.1309C93.4427 85.1931 93.4161 85.2685 93.3628 85.3485L93.4693 85.4373L94.9701 83.6568L94.8635 83.5635C94.7525 83.6612 94.6415 83.71 94.535 83.7145V83.7189ZM89.9794 86.01L89.0559 83.861L91.3203 84.4293L89.9838 86.0145L89.9794 86.01Z" fill="white"/>
<path d="M98.9174 76.3791C98.7797 76.4191 98.5577 76.4546 98.2469 76.4901L96.2222 76.761C96.4176 76.2592 96.4753 75.8108 96.3954 75.4112C96.3155 75.0116 96.0668 74.6919 95.645 74.4565C95.0278 74.1058 94.4994 74.0702 94.0643 74.35C93.6292 74.6297 93.2074 75.127 92.8033 75.8374L90.8452 79.283L90.9695 79.354C91.0406 79.2785 91.1072 79.2297 91.1738 79.2119C91.2359 79.1942 91.307 79.2075 91.3869 79.2519L95.7116 81.7073C95.7871 81.7517 95.8359 81.805 95.8492 81.8716C95.867 81.9382 95.8581 82.0181 95.8315 82.1113L95.9558 82.1824L96.9326 80.464L96.8083 80.393C96.6662 80.5484 96.5286 80.5839 96.3909 80.504L94.6993 79.5449L95.5384 78.0708L97.6653 77.8177C97.6963 77.8133 97.7629 77.8 97.8695 77.7866C97.9761 77.7733 98.056 77.7778 98.1048 77.8088C98.1581 77.8355 98.1759 77.8799 98.167 77.9332C98.1581 77.9864 98.1448 78.0353 98.1226 78.0841L98.2469 78.1552L99.3792 76.1615L99.2548 76.0905C99.166 76.2459 99.055 76.3392 98.9174 76.3791ZM95.2942 76.2681C95.2498 76.5256 95.1255 76.8409 94.9213 77.205L93.8601 79.0743L92.5191 78.315L93.5803 76.4457C93.789 76.0772 93.9933 75.8063 94.1931 75.6421C94.3929 75.4778 94.6371 75.4733 94.9301 75.6421C95.2143 75.8063 95.3386 76.015 95.2942 76.277V76.2681Z" fill="white"/>
<path d="M102.434 67.0681C102.376 67.0991 102.301 67.0991 102.221 67.0681L97.5099 65.4741C97.4256 65.4474 97.3723 65.3986 97.3412 65.3364C97.3146 65.2743 97.3013 65.1943 97.3101 65.0967L97.1769 65.0522L96.4088 67.3212L96.542 67.3656C96.5908 67.2146 96.6885 67.1657 96.835 67.2146C96.8706 67.2323 96.9105 67.2679 96.9549 67.3212C96.9993 67.3744 97.026 67.4055 97.0348 67.4144L99.2194 69.9897L95.8715 70.6823C95.7961 70.7045 95.7161 70.7001 95.6318 70.6735C95.5785 70.6424 95.5474 70.6069 95.5296 70.5625C95.5119 70.5181 95.5074 70.4648 95.5119 70.4026L95.3787 70.3582L94.5928 72.6715L94.726 72.7159C94.7793 72.6271 94.837 72.5694 94.8991 72.5383C94.9613 72.5072 95.0279 72.5072 95.1123 72.5383L99.8232 74.1323C99.9076 74.159 99.9609 74.2078 99.992 74.27C100.023 74.3321 100.032 74.412 100.023 74.5097L100.156 74.5541L100.756 72.7914L100.622 72.747C100.569 72.8358 100.511 72.8935 100.454 72.9246C100.396 72.9557 100.325 72.9557 100.241 72.9246L96.8528 71.779L101.333 70.8377L98.3935 67.2324L101.781 68.3779C101.928 68.4267 101.994 68.5555 101.972 68.7642L102.105 68.8086L102.74 66.9349L102.607 66.8905C102.554 66.9793 102.496 67.037 102.434 67.0681Z" fill="white"/>
<path d="M103.464 60.0261C103.251 59.3956 102.82 59.0315 102.172 58.9383C101.417 58.8273 100.898 59.0626 100.613 59.6443C100.325 60.2259 100.094 60.8786 99.9163 61.6024C99.7387 62.3261 99.6011 62.7612 99.499 62.9033C99.3968 63.0499 99.2503 63.1076 99.0505 63.0765C98.7663 63.001 98.6065 62.8056 98.5665 62.4904C98.531 62.1751 98.5443 61.8066 98.6065 61.3848C98.7042 60.7277 98.8729 60.257 99.1127 59.9684C99.3524 59.6842 99.5034 59.5244 99.5611 59.4933C99.6188 59.4622 99.6899 59.4489 99.7698 59.4622L99.8586 59.3335L98.6331 58.4099L98.5532 58.5209C98.5799 58.5698 98.6021 58.6142 98.6109 58.6586C98.6243 58.703 98.6243 58.7385 98.6198 58.7696C98.5976 58.8495 98.5621 58.9294 98.5177 59.0049C98.4733 59.0804 98.3889 59.2225 98.2646 59.4311C98.1403 59.6354 98.0115 59.9107 97.8783 60.257C97.7451 60.6033 97.6519 60.9497 97.5986 61.3004C97.4876 62.0597 97.5364 62.7346 97.7451 63.3296C97.9538 63.9246 98.38 64.2709 99.0327 64.3641C99.752 64.4707 100.232 64.2798 100.476 63.7958C100.72 63.3118 100.964 62.5881 101.213 61.629C101.462 60.6655 101.737 60.2082 102.048 60.2526C102.354 60.297 102.54 60.4968 102.607 60.852C102.674 61.2072 102.678 61.5891 102.616 62.002C102.549 62.4416 102.394 62.9122 102.141 63.4139C101.888 63.9157 101.599 64.1421 101.275 64.0933L101.204 64.2265L102.523 65.1145L102.611 64.9946C102.563 64.9103 102.545 64.8348 102.558 64.7637C102.567 64.706 102.594 64.6483 102.638 64.5817C102.683 64.5195 102.776 64.3819 102.913 64.1688C103.051 63.9556 103.189 63.667 103.322 63.2896C103.455 62.9122 103.553 62.517 103.615 62.1041C103.726 61.3404 103.677 60.6433 103.464 60.0128V60.0261Z" fill="white"/>
<path d="M67.6592 51.5544C67.8501 51.8297 68.0366 52.0872 68.2275 52.3181C69.8171 54.1697 71.8906 53.9432 71.8906 53.9432C71.8906 53.9432 72.3879 52.2293 70.9182 51.5322C71.5576 51.177 72.2148 50.5065 72.4856 50.0226C72.5433 49.9204 72.5789 49.8094 72.6099 49.694C74.7545 50.4266 75.3717 49.0635 76.5661 48.7261C77.3165 48.5129 77.9336 48.7038 77.9336 48.7038C73.6889 44.7477 72.6632 48.7038 72.6632 48.7038C72.6632 48.7038 72.6499 48.7038 72.6233 48.7038C72.57 48.3486 72.4856 48.0867 72.4856 48.0867C69.715 47.3629 69.3553 50.4355 69.3109 51.248C68.7426 51.2569 68.192 51.3635 67.6592 51.5589V51.5544Z" fill="white"/>
<path d="M47.7984 65.8117C48.0248 65.8206 48.2601 65.825 48.4955 65.825C49.5078 65.825 50.4669 65.6918 51.3815 65.4565C52.6248 65.1368 53.7792 64.6217 54.8582 63.9735C56.4788 63.0055 57.9352 61.7445 59.2717 60.4036C60.7547 58.9251 62.0956 57.3488 63.3655 55.9812L62.9969 55.1065C61.3807 56.8071 59.7334 58.7785 57.8775 60.4036C55.7462 62.2685 53.3485 63.676 50.4092 63.676C49.7387 63.676 49.1304 63.6449 48.5709 63.5739C45.8403 63.2453 44.3262 62.0909 42.6389 59.9507C42.63 59.9374 42.63 59.9241 42.6389 59.9152C44.8901 58.1614 49.126 55.3152 49.126 48.2865C49.126 44.539 49.1615 34.3178 49.1748 30.304C49.1748 29.891 49.3657 29.5003 49.6898 29.2428L54.1167 25.7129C54.5829 25.3399 55.2356 25.291 55.7462 25.6063C58.6056 27.3735 61.2031 29.6246 60.5327 34.2468C60.5327 34.2468 62.1933 33.6962 62.6062 31.3785C63.9116 32.2088 67.3261 32.1821 67.3261 32.1821C67.3261 32.1821 67.4903 29.8511 65.8519 28.5101C65.8519 28.5101 67.0197 28.7099 67.6679 27.2802C67.6679 27.2802 65.3946 24.6694 63.4454 24.8337C62.584 24.9048 63.1967 28.2881 61.9535 27.1559C61.4029 26.6542 57.7265 22.9111 50.2537 22.9111C38.2432 22.9111 33.6299 32.5595 32.4977 39.3085C31.6496 44.3703 28.7324 44.9209 28.7324 44.9209C28.7324 44.9209 32.2224 46.6481 33.1282 51.5766C34.0117 56.3942 36.8179 65.4565 47.8028 65.8206L47.7984 65.8117ZM38.1322 36.2715C38.1899 35.934 38.2654 35.5877 38.3542 35.2281C40.2146 27.7198 45.4096 24.1455 50.2493 24.1455C51.6746 24.1455 52.607 24.3009 53.162 24.443C53.464 24.5185 53.5439 24.9048 53.3041 25.1001L38.736 36.6311C38.4652 36.8443 38.0745 36.6134 38.1366 36.2759L38.1322 36.2715ZM38.7494 37.8833L43.7179 33.9626C44.0154 33.7273 44.4549 33.936 44.4549 34.3178C44.4549 37.8255 44.4638 45.9776 44.4638 47.9757C44.4638 55.2264 41.2936 58.0459 41.2936 58.0459C41.2936 58.0459 38.5185 53.8367 38.2831 50.3112C37.9945 46.0353 40.3434 44.952 40.3434 44.952C40.3434 44.952 38.2254 44.2105 37.8391 40.019C37.7637 39.1975 38.1011 38.3894 38.7494 37.8788V37.8833Z" fill="white"/>
<path d="M71.9881 66.0692C69.284 59.8441 72.4143 56.0612 72.4143 56.0612C72.4143 56.0612 70.363 56.5007 67.7966 53.6102C67.69 53.4948 67.5834 53.3704 67.4769 53.2417C67.3703 53.1085 67.2593 52.9708 67.1572 52.8287C67.0817 52.7355 67.0107 52.6378 66.9396 52.5357C66.8464 52.4114 66.7576 52.2782 66.6643 52.145C66.4157 51.7853 66.167 51.3901 65.9184 50.955C65.6564 50.5065 65.39 50.0137 65.1281 49.4809L60.7989 39.2686C58.268 33.2966 52.5358 36.9109 52.336 37.0396C55.382 35.7564 57.1713 38.4827 57.7175 39.5083C57.8374 39.7303 57.8551 39.9923 57.7752 40.2321L50.1515 62.5171C50.2358 62.5171 50.3202 62.5171 50.4046 62.5171C51.6922 62.5171 52.9354 62.2063 54.2009 61.5625H52.709C52.1051 61.5625 51.6744 60.9675 51.8698 60.3947L57.9928 42.3411C58.1393 41.9149 58.7343 41.8927 58.9074 42.3101L64.4132 55.4973L64.7196 56.2254L66.5489 60.6034C66.7398 61.0607 66.4024 61.5669 65.9051 61.5669H59.7466C59.2848 62.0154 58.8319 62.4372 58.3879 62.819H66.5445C67.1039 62.819 67.6101 63.1565 67.8277 63.6715L69.1508 66.8374C69.3728 67.3702 69.213 67.9874 68.7556 68.3426L61.7358 73.7817C61.3051 74.1147 60.7146 74.1325 60.2705 73.8172C58.7875 72.7783 55.049 70.5804 49.4499 70.203C49.0059 70.1719 48.7129 69.7323 48.855 69.315L49.6631 66.9306C49.3167 66.9617 48.9748 66.9839 48.6285 66.9839L47.8249 69.3327C47.665 69.8034 47.2432 70.1364 46.7503 70.1897C37.688 71.2065 35.9209 79.6738 39.7793 82.8618C43.8421 86.2185 45.7558 87.0977 45.7558 87.0977C46.1864 86.5249 45.0675 86.3473 45.7114 85.8988C46.2264 85.5392 47.9403 84.7489 46.7859 82.218C46.2131 80.9659 43.8998 80.8371 43.8998 80.8371C43.8998 80.8371 43.0339 82.9328 44.4814 84.5624C43.0295 84.3581 40.1656 82.4533 39.5484 80.0601C38.949 77.729 40.7384 73.1468 47.6872 73.2223C52.1051 73.2711 56.6696 76.5346 58.4634 77.9599C58.9252 78.3284 59.5823 78.2973 60.0086 77.8888L69.0309 69.1817C69.4083 68.8177 70.0344 68.9464 70.2386 69.4304L70.5672 70.2163C73.3911 77.0763 69.8479 79.9135 69.8479 79.9135C73.4267 81.7296 74.2081 78.5105 74.2081 78.5105C75.7089 80.2954 77.5782 80.1622 77.5782 80.1622C78.3286 78.6614 77.6492 76.9431 77.6492 76.9431C80.5797 77.8356 81.2768 74.8918 81.2768 74.8918C78.2442 75.7487 75.5402 74.2479 71.9881 66.0692Z" fill="white"/>
</g>
<defs>
<clipPath id="clip0_255_1063">
<rect width="109.227" height="109.227" fill="white" transform="translate(0.386475 0.386353)"/>
</clipPath>
</defs>
</svg>
