<svg width="142" height="36" viewBox="0 0 142 36" fill="none" xmlns="http://www.w3.org/2000/svg">
<g clip-path="url(#clip0_98_2108)">
<path d="M2.95366 35.2046V30.7559H0.20459V29.9841H6.61684V30.7559H3.94225V35.2046H2.95028H2.95366Z" fill="#E66A5C"/>
<path d="M13.0901 35.2046V29.9841H18.4833V30.7559H14.0821V32.0602H18.2598V32.832H14.0821V34.4328H18.4833V35.2046H13.0901Z" fill="#E66A5C"/>
<path d="M26.7406 35.2046C25.5489 35.2046 25.0952 34.6923 25.0952 33.9441V31.2446C25.0952 30.4964 25.5489 29.9841 26.7406 29.9841H30.9624V30.7559H26.7406C26.2937 30.7559 26.0838 30.9278 26.0838 31.2379V33.9509C26.0838 34.2609 26.2937 34.4328 26.7406 34.4328H30.9624V35.2046H26.7406Z" fill="#E66A5C"/>
<path d="M42.8863 35.2046V32.832H38.5968V35.2046H37.6049V29.9841H38.5968V32.0602H42.8863V29.9841H43.8783V35.2046H42.8863Z" fill="#E66A5C"/>
<path d="M57.1125 35.2046L51.5196 31.1401V35.2046H50.6562V29.9841H51.5128L56.7333 33.8633V29.9841H57.5966V35.2046H57.1125Z" fill="#E66A5C"/>
<path d="M65.9792 35.2046C64.7875 35.2046 64.3339 34.6923 64.3339 33.9441V31.2446C64.3339 30.4964 64.7875 29.9841 65.9792 29.9841H69.4427C70.6344 29.9841 71.0881 30.4964 71.0881 31.2446V33.9441C71.0881 34.6923 70.6344 35.2046 69.4427 35.2046H65.9792ZM70.0995 31.2379C70.0995 30.9278 69.8896 30.7559 69.4427 30.7559H65.9792C65.5324 30.7559 65.3224 30.9278 65.3224 31.2379V33.9509C65.3224 34.2609 65.5324 34.4328 65.9792 34.4328H69.4427C69.8896 34.4328 70.0995 34.2609 70.0995 33.9509V31.2379Z" fill="#E66A5C"/>
<path d="M77.8287 35.2046V29.9841H78.8275V34.4328H83.0797V35.2046H77.8287Z" fill="#E66A5C"/>
<path d="M91.0493 35.2046C89.8576 35.2046 89.4039 34.6923 89.4039 33.9441V31.2446C89.4039 30.4964 89.8576 29.9841 91.0493 29.9841H94.5127C95.7045 29.9841 96.1581 30.4964 96.1581 31.2446V33.9441C96.1581 34.6923 95.7045 35.2046 94.5127 35.2046H91.0493ZM95.1695 31.2379C95.1695 30.9278 94.9596 30.7559 94.5127 30.7559H91.0493C90.6024 30.7559 90.3925 30.9278 90.3925 31.2379V33.9509C90.3925 34.2609 90.6024 34.4328 91.0493 34.4328H94.5127C94.9596 34.4328 95.1695 34.2609 95.1695 33.9509V31.2379Z" fill="#E66A5C"/>
<path d="M104.73 35.2046C103.488 35.2046 102.862 34.8272 102.862 34.079V31.1132C102.862 30.365 103.488 29.9875 104.73 29.9875H108.834V30.7593H104.73C104.141 30.7593 103.85 30.8773 103.85 31.1166V34.0824C103.85 34.3183 104.141 34.4396 104.73 34.4396H107.046C107.635 34.4396 107.926 34.3284 107.926 34.0992V32.3636H108.918V34.0992C108.918 34.8407 108.292 35.2114 107.05 35.2114H104.734L104.73 35.2046Z" fill="#E66A5C"/>
<path d="M115.676 35.2046V29.9841H116.668V35.2046H115.676Z" fill="#E66A5C"/>
<path d="M123.483 35.2046V29.9841H128.876V30.7559H124.475V32.0602H128.653V32.832H124.475V34.4328H128.876V35.2046H123.483Z" fill="#E66A5C"/>
<path d="M135.59 35.2046V34.4328H140.147C140.594 34.4328 140.804 34.2609 140.804 33.9509V33.2903C140.804 32.9803 140.594 32.8084 140.147 32.8084H137.062C135.871 32.8084 135.417 32.2961 135.417 31.5479V31.2446C135.417 30.4964 135.871 29.9841 137.062 29.9841H141.501V30.7559H137.062C136.616 30.7559 136.406 30.9278 136.406 31.2379V31.558C136.406 31.8681 136.616 32.04 137.062 32.04H140.147C141.338 32.04 141.792 32.5522 141.792 33.3004V33.9441C141.792 34.6923 141.338 35.2046 140.147 35.2046H135.59Z" fill="#E66A5C"/>
<path d="M29.3949 0.818237H0.20459V12.0512H29.3949V0.818237Z" fill="#E66A5C"/>
<path d="M88.1174 0.818237H105.309C109.792 0.818237 113.431 4.44122 113.431 8.90677C113.431 13.3723 109.792 16.9953 105.306 16.9953H88.114V0.818237H88.1174Z" fill="#E66A5C"/>
<path d="M7.72731 15.199H0.20459V26.4319H7.72731V15.199Z" fill="#E66A5C"/>
<path d="M18.5612 15.199H11.0385V26.4319H18.5612V15.199Z" fill="#E66A5C"/>
<path d="M29.3948 15.199H21.8721V26.4319H29.3948V15.199Z" fill="#E66A5C"/>
<path d="M116.065 0.818207V26.4319H127.349V0.818207H116.065Z" fill="#E66A5C"/>
<path d="M130.511 19.8296V26.4319H141.796V19.8296H130.511Z" fill="#E66A5C"/>
<path d="M130.511 10.3256V16.9279H141.796V10.3256H130.511Z" fill="#E66A5C"/>
<path d="M130.511 0.81827V7.42053L141.796 7.42053V0.81827L130.511 0.81827Z" fill="#E66A5C"/>
<path d="M98.9885 19.9172H88.1174V26.4319H98.9885V19.9172Z" fill="#E66A5C"/>
<path d="M113.431 19.9172H102.56V26.4319H113.431V19.9172Z" fill="#E66A5C"/>
<path d="M44.8195 26.4319C51.9247 26.4319 57.6846 20.6981 57.6846 13.6251C57.6846 6.55205 51.9247 0.818237 44.8195 0.818237C37.7143 0.818237 31.9543 6.55205 31.9543 13.6251C31.9543 20.6981 37.7143 26.4319 44.8195 26.4319Z" fill="#E66A5C"/>
<path d="M72.6555 26.4319C79.7607 26.4319 85.5207 20.6981 85.5207 13.6251C85.5207 6.55205 79.7607 0.818237 72.6555 0.818237C65.5503 0.818237 59.7904 6.55205 59.7904 13.6251C59.7904 20.6981 65.5503 26.4319 72.6555 26.4319Z" fill="#E66A5C"/>
</g>
<defs>
<clipPath id="clip0_98_2108">
<rect width="141.591" height="34.3864" fill="white" transform="translate(0.20459 0.818237)"/>
</clipPath>
</defs>
</svg>
