<svg width="126" height="74" viewBox="0 0 126 74" fill="none" xmlns="http://www.w3.org/2000/svg">
<g clip-path="url(#clip0_95_1178)">
<path d="M3.67775 36.9666C3.75713 37.2375 3.82816 37.5709 3.89918 37.971C3.97021 38.3711 4.03288 38.867 4.08301 39.4671C4.13315 40.0672 4.17493 40.7715 4.2 41.5884C4.22506 42.4052 4.2376 43.3595 4.2376 44.4556V60.5712C4.2376 61.9339 4.2 63.1925 4.12061 64.3427C4.04123 65.493 3.86576 66.5682 3.59002 67.5642C3.31427 68.5602 2.91319 69.4979 2.39095 70.3731C1.86871 71.2482 1.16264 72.0901 0.272736 72.9027L0.619504 73.3861C1.65145 72.6402 2.60402 71.8817 3.47303 71.1107C4.34204 70.3397 5.09825 69.4604 5.73748 68.4769C6.3767 67.4933 6.87387 66.364 7.229 65.0887C7.58412 63.8135 7.7596 62.309 7.7596 60.5712V44.4556C7.7596 43.3637 7.77213 42.4052 7.7972 41.5884C7.82227 40.7715 7.85987 40.0631 7.91418 39.4671C7.96432 38.867 8.02698 38.3711 8.09801 37.971C8.16903 37.5709 8.24424 37.2375 8.31944 36.9666V36.8875H3.67775V36.9666Z" fill="#FFDD99"/>
<path d="M13.8719 36.9666C13.9513 37.2375 14.0181 37.5709 14.0849 37.971C14.1476 38.3711 14.2061 38.867 14.2604 39.4671C14.3106 40.0672 14.3523 40.7715 14.3774 41.5884C14.4025 42.4052 14.415 43.3595 14.415 44.4556V57.0205C14.415 58.1124 14.4025 59.0709 14.3774 59.8877C14.3523 60.7045 14.3147 61.4088 14.2604 62.0006C14.2103 62.5924 14.1518 63.0883 14.0849 63.4884C14.0223 63.8885 13.9513 64.2219 13.8719 64.4928V64.5719H18.4968V64.4928C18.4175 64.2219 18.3464 63.8885 18.2754 63.4884C18.2044 63.0883 18.1459 62.5924 18.0999 62.0006C18.054 61.4088 18.0164 60.7045 17.983 59.8877C17.9495 59.0709 17.9328 58.1165 17.9328 57.0205V44.4556C17.9328 43.3637 17.9495 42.4052 17.983 41.5884C18.0164 40.7715 18.054 40.0631 18.0999 39.4671C18.1459 38.867 18.2044 38.3711 18.2754 37.971C18.3464 37.5709 18.4216 37.2375 18.4968 36.9666V36.8875H13.8719V36.9666Z" fill="#FFDD99"/>
<path d="M44.655 36.9666C44.7344 37.2375 44.8054 37.5709 44.8764 37.971C44.9474 38.3711 45.0101 38.867 45.0602 39.4671C45.1104 40.0672 45.1521 40.7715 45.1772 41.5883C45.2023 42.4052 45.2148 43.3595 45.2148 44.4556V58.0415L25.2861 36.8916H24.0494V36.9708C24.1288 37.2417 24.1998 37.5751 24.2708 37.9751C24.3418 38.3752 24.4045 38.8711 24.4547 39.4713C24.5048 40.0714 24.5466 40.7757 24.5716 41.5925C24.5967 42.4093 24.6092 43.3637 24.6092 44.4597V57.0246C24.6092 58.1165 24.5967 59.075 24.5716 59.8919C24.5466 60.7087 24.509 61.413 24.4547 62.0048C24.4045 62.5965 24.3418 63.0925 24.2708 63.4926C24.1998 63.8926 24.1246 64.226 24.0494 64.4969V64.5761H27.492V64.4969C27.4168 64.226 27.3416 63.8926 27.2789 63.4926C27.2163 63.0925 27.1578 62.5965 27.1035 62.0048C27.0533 61.413 27.0115 60.7087 26.9865 59.8919C26.9614 59.075 26.9489 58.1207 26.9489 57.0246V43.8263L46.8776 64.9595H47.5545V44.4639C47.5545 43.372 47.567 42.4135 47.5921 41.5967C47.6171 40.7798 47.6547 40.0714 47.709 39.4754C47.7592 38.8753 47.8177 38.3794 47.8845 37.9793C47.9472 37.5792 48.0182 37.2458 48.0976 36.9749V36.8958H44.655V36.9749V36.9666Z" fill="#FFDD99"/>
<path d="M73.8128 54.1659C73.9047 54.4618 73.9799 54.7827 74.0468 55.1327C74.1094 55.4786 74.1679 55.8954 74.2222 56.3788C74.2765 56.8622 74.3141 57.429 74.3392 58.0875C74.3643 58.7418 74.3768 59.5211 74.3768 60.4213V61.1756C74.3768 61.3798 74.2515 61.609 74.0008 61.859C73.7501 62.1091 73.3783 62.3425 72.8895 62.555C72.4006 62.7676 71.799 62.9426 71.0888 63.0843C70.3785 63.226 69.5722 63.2968 68.6698 63.2968C66.6309 63.2968 64.8469 62.9468 63.322 62.2466C61.7929 61.5465 60.5186 60.5755 59.4992 59.3419C58.4798 58.1083 57.711 56.6455 57.1971 54.9619C56.6791 53.2782 56.4242 51.4487 56.4242 49.4817C56.4242 47.6938 56.6958 46.0977 57.2347 44.6974C57.7779 43.2971 58.5341 42.1094 59.5075 41.1467C60.481 40.1799 61.6466 39.4464 63.0003 38.938C64.3539 38.4295 65.8455 38.1753 67.4707 38.1753C68.3104 38.1753 69.1377 38.2545 69.9566 38.417C70.7754 38.5796 71.5609 38.8004 72.3087 39.0838C73.0566 39.3672 73.7585 39.7006 74.4186 40.0882C75.0745 40.4758 75.6553 40.8925 76.1608 41.3426L76.3154 41.2676L74.9993 37.6961C74.4687 37.5044 73.9131 37.3293 73.324 37.1751C72.7391 37.0209 72.1291 36.8876 71.494 36.7792C70.8632 36.6709 70.2239 36.5875 69.5805 36.5292C68.9371 36.4708 68.3021 36.4417 67.6838 36.4417C66.0836 36.4417 64.5963 36.625 63.2259 36.9918C61.8514 37.3585 60.5938 37.8711 59.4532 38.5254C58.3126 39.1797 57.2974 39.9548 56.4075 40.8508C55.5176 41.7468 54.7698 42.7262 54.164 43.7931C53.5582 44.8599 53.0944 45.9852 52.7811 47.1687C52.4635 48.3523 52.309 49.5567 52.309 50.7777C52.309 52.9407 52.6892 54.9035 53.4495 56.6747C54.2099 58.4459 55.2837 59.9587 56.6707 61.2214C58.0578 62.4842 59.7164 63.4552 61.6508 64.147C63.5852 64.8388 65.7243 65.1805 68.0723 65.1805C69.1168 65.1805 70.0944 65.1055 71.0052 64.9596C71.916 64.8096 72.7641 64.6012 73.5496 64.3345C74.335 64.0636 75.0703 63.7469 75.7472 63.3802C76.424 63.0134 77.0549 62.6134 77.6356 62.1758C77.7526 62.0716 77.8236 61.9424 77.857 61.7882C77.8905 61.634 77.9072 61.4881 77.9072 61.3464V60.5546C77.9072 59.667 77.9197 58.8835 77.9448 58.2083C77.9698 57.5332 78.0074 56.9456 78.0618 56.4413C78.1119 55.9412 78.1746 55.5037 78.2456 55.1369C78.3166 54.7702 78.3918 54.4534 78.467 54.1826V54.1034H73.8253V54.1826L73.8128 54.1659Z" fill="#FFDD99"/>
<path d="M102.193 36.9666C102.273 37.2375 102.34 37.5709 102.407 37.971C102.469 38.3711 102.528 38.867 102.582 39.4671C102.632 40.0672 102.674 40.7715 102.699 41.5884C102.724 42.4052 102.737 43.3595 102.737 44.4556V55.2827C102.737 56.8121 102.507 58.079 102.051 59.0751C101.592 60.0711 100.994 60.8629 100.251 61.4505C99.507 62.0381 98.6589 62.4424 97.7063 62.6757C96.7538 62.9091 95.7761 63.0216 94.786 63.0216C93.7958 63.0216 92.8181 62.905 91.8656 62.6757C90.913 62.4424 90.0607 62.034 89.3129 61.4505C88.565 60.8671 87.9634 60.0752 87.5038 59.0751C87.0442 58.079 86.8186 56.8121 86.8186 55.2827V44.4556C86.8186 43.3637 86.8312 42.4052 86.8562 41.5884C86.8813 40.7715 86.9189 40.0631 86.9732 39.4671C87.0233 38.867 87.086 38.3711 87.157 37.971C87.2281 37.5709 87.3033 37.2375 87.3785 36.9666V36.8875H82.7368V36.9666C82.8162 37.2375 82.8872 37.5709 82.9582 37.971C83.0292 38.3711 83.0919 38.867 83.142 39.4671C83.1922 40.0672 83.234 40.7715 83.259 41.5884C83.2841 42.4052 83.2966 43.3595 83.2966 44.4556V55.0701C83.2966 56.908 83.5807 58.4708 84.1489 59.7502C84.7171 61.0296 85.4984 62.0715 86.5011 62.8758C87.4996 63.6801 88.6736 64.2636 90.0231 64.622C91.3726 64.9804 92.8265 65.1637 94.3849 65.1637C95.9432 65.1637 97.3846 64.972 98.7007 64.5928C100.017 64.2135 101.145 63.6093 102.085 62.7799C103.025 61.9506 103.76 60.8837 104.291 59.5877C104.821 58.2874 105.085 56.7204 105.085 54.8784V44.4556C105.085 43.3637 105.101 42.4052 105.135 41.5884C105.168 40.7715 105.206 40.0631 105.252 39.4671C105.298 38.867 105.356 38.3711 105.427 37.971C105.498 37.5709 105.573 37.2375 105.649 36.9666V36.8875H102.206V36.9666H102.193Z" fill="#FFDD99"/>
<path d="M110.863 36.9666C110.942 37.2375 111.013 37.5709 111.084 37.971C111.155 38.3711 111.218 38.867 111.268 39.4671C111.318 40.0672 111.36 40.7715 111.385 41.5884C111.41 42.4052 111.423 43.3595 111.423 44.4556V60.5712C111.423 61.9339 111.385 63.1925 111.306 64.3427C111.226 65.493 111.051 66.5682 110.775 67.5642C110.499 68.5602 110.098 69.4979 109.576 70.3731C109.054 71.2482 108.348 72.0901 107.458 72.9027L107.804 73.3861C108.836 72.6402 109.789 71.8817 110.658 71.1107C111.527 70.3397 112.283 69.4604 112.922 68.4769C113.562 67.4933 114.059 66.364 114.414 65.0887C114.769 63.8135 114.945 62.309 114.945 60.5712V44.4556C114.945 43.3637 114.957 42.4052 114.982 41.5884C115.007 40.7715 115.045 40.0631 115.099 39.4671C115.149 38.867 115.212 38.3711 115.283 37.971C115.354 37.5709 115.429 37.2375 115.504 36.9666V36.8875H110.863V36.9666Z" fill="#FFDD99"/>
<path d="M125.168 41.5925C125.201 40.7757 125.239 40.0672 125.285 39.4713C125.331 38.8711 125.389 38.3752 125.46 37.9751C125.531 37.5751 125.607 37.2417 125.682 36.9708V36.8916H121.057V36.9708C121.132 37.2417 121.203 37.5751 121.27 37.9751C121.332 38.3752 121.391 38.8711 121.445 39.4713C121.495 40.0714 121.537 40.7757 121.562 41.5925C121.587 42.4093 121.6 43.3637 121.6 44.4597V57.0246C121.6 58.1165 121.587 59.075 121.562 59.8919C121.537 60.7087 121.5 61.413 121.445 62.0048C121.395 62.5965 121.337 63.0925 121.27 63.4926C121.207 63.8926 121.136 64.226 121.057 64.4969V64.5761H125.682V64.4969C125.602 64.226 125.531 63.8926 125.46 63.4926C125.389 63.0925 125.331 62.5965 125.285 62.0048C125.239 61.413 125.201 60.7087 125.168 59.8919C125.134 59.075 125.118 58.1207 125.118 57.0246V44.4597C125.118 43.3678 125.134 42.4093 125.168 41.5925Z" fill="#FFDD99"/>
<path d="M62.2065 31.4282C62.4613 31.4407 62.7162 31.449 62.9752 31.449C71.5233 31.449 78.4544 24.5352 78.4544 16.0086C78.4544 9.45731 74.3642 3.86457 68.5945 1.6183C67.4665 1.18072 66.2758 0.868156 65.0391 0.705625C64.7968 0.672285 64.5461 0.64728 64.2996 0.626443C63.8609 0.588935 63.4222 0.572266 62.9794 0.572266C62.2315 0.572266 61.5004 0.626443 60.7818 0.730629C53.274 1.79333 47.5043 8.23208 47.5043 16.0127C47.5043 23.7934 53.5247 30.5114 61.2706 31.3574C61.5798 31.3907 61.8931 31.4157 62.2106 31.4324L62.2065 31.4282ZM76.0981 16.0086C76.0981 22.5098 71.3436 27.9025 65.1143 28.9194C65.6491 28.3526 66.1337 27.74 66.564 27.0815C67.2033 26.098 67.7004 24.9686 68.0514 23.6934C68.4065 22.4223 68.582 20.9137 68.582 19.18V4.17296C73.0231 6.2692 76.0981 10.7784 76.0981 16.0086ZM49.8523 16.0086C49.8523 9.52816 54.5775 4.14795 60.7734 3.10609V17.2088C60.7734 18.5716 60.7358 19.8301 60.6564 20.9804C60.5771 22.1306 60.3974 23.2058 60.1258 24.2018C59.8459 25.202 59.449 26.1355 58.9226 27.0107C58.6886 27.4024 58.4171 27.7858 58.1079 28.1692C53.2698 26.2439 49.8523 21.5221 49.8523 16.0086ZM59.0981 28.5193C59.4114 28.2609 59.7164 28.0025 60.0089 27.7442C60.8779 26.9732 61.6341 26.0938 62.2733 25.1103C62.9125 24.1268 63.4097 22.9974 63.7607 21.7222C64.1158 20.4511 64.2912 18.9425 64.2912 17.2088V2.98523C64.5503 3.0144 64.8051 3.04357 65.06 3.08525V19.18C65.06 20.5428 65.0224 21.8014 64.943 22.9516C64.8636 24.1018 64.6882 25.177 64.4124 26.173C64.1367 27.1732 63.7356 28.1067 63.2133 28.9819C63.1924 29.0152 63.1716 29.0569 63.1423 29.0903C63.088 29.0903 63.0295 29.0903 62.9752 29.0903C61.6257 29.0903 60.3264 28.886 59.1022 28.5151L59.0981 28.5193Z" fill="#FFDD99"/>
</g>
<defs>
<clipPath id="clip0_95_1178">
<rect width="125.409" height="72.8182" fill="white" transform="translate(0.272736 0.568115)"/>
</clipPath>
</defs>
</svg>
