<svg width="150" height="58" viewBox="0 0 150 58" fill="none" xmlns="http://www.w3.org/2000/svg">
<g clip-path="url(#clip0_203_3932)">
<path d="M137.333 30.7019V38.0834L134.064 30.7019H131.799V43.6837H134.064V36.3048L137.333 43.6837H139.599V30.7019H137.333Z" fill="#FF2B00"/>
<path d="M92.0381 30.7019V38.0834L88.7665 30.7019H86.501V43.6837H88.7665V36.3048L92.0381 43.6837H94.3036V30.7019H92.0381Z" fill="#FF2B00"/>
<path d="M149.841 30.665H142.038V32.9564H144.808V43.6468H147.071V32.9564H149.841V30.665Z" fill="#FF2B00"/>
<path d="M129.356 32.9564V30.665H121.556V43.6468H129.356V41.3554H123.822V37.4617H129.356V35.1703H123.822V32.9564H129.356Z" fill="#FF2B00"/>
<path d="M84.0613 32.9564V30.665H76.2586V43.6468H84.0613V41.3554H78.5242V37.4617H84.0613V35.1703H78.5242V32.9564H84.0613Z" fill="#FF2B00"/>
<path d="M51.4486 30.6648V43.6466H53.7142V37.4615H56.9857V43.6466H59.2513V30.6648H51.4486ZM56.9857 35.1701H53.7142V32.9562H56.9857V35.1701Z" fill="#FF2B00"/>
<path d="M104.546 33.6663L103.125 30.6619H96.7434V43.6436H103.125L104.546 41.3523V33.6636V33.6663ZM99.009 41.3549V32.9559H102.281V41.3549H99.009Z" fill="#FF2B00"/>
<path d="M106.986 30.665V43.6468H109.251V32.9564H111.918V43.6468H114.184V32.9564H116.851V43.6468H119.116V30.665H106.986Z" fill="#FF2B00"/>
<path d="M61.6883 30.665V43.6468H63.9539V32.9564H66.6208V43.6468H68.8863V32.9564H71.5532V43.6468H73.8187V30.665H61.6883Z" fill="#FF2B00"/>
<path d="M67.2282 14.356V21.7375L63.9566 14.356H61.6911V27.3377H63.9566V19.9589L67.2282 27.3377H69.4937V14.356H67.2282Z" fill="#FF2B00"/>
<path d="M79.7362 17.3208L78.3156 14.3164H71.9336V27.2982H78.3156L79.7362 25.0068V17.3182V17.3208ZM74.1991 25.0095V16.6105H77.4707V25.0095H74.1991Z" fill="#FF2B00"/>
<path d="M51.4486 14.3604V17.816H53.7142V16.6409H56.9857V17.3165L51.4486 25.0092V27.3006H59.2513V25.0092H54.7334L59.2513 18.2886V14.3604H51.4486Z" fill="#FF2B00"/>
<path d="M23.7104 0.681885L0.159088 14.8425V43.1576L23.7104 57.3183L47.2618 43.1576V14.8425L23.7104 0.681885ZM23.7104 51.1872L5.42236 40.1949V17.8052L23.7104 6.81291L41.9985 17.8052V24.2023H7.41731V28.1445H42.0045V33.0239H23.7165V36.9662H42.0045V40.1949L23.7165 51.1872H23.7104Z" fill="#FF2B00"/>
</g>
<defs>
<clipPath id="clip0_203_3932">
<rect width="149.682" height="56.6364" fill="white" transform="translate(0.159088 0.681885)"/>
</clipPath>
</defs>
</svg>
