<svg width="134" height="82" viewBox="0 0 134 82" fill="none" xmlns="http://www.w3.org/2000/svg">
<g clip-path="url(#clip0_106_1256)">
<path d="M67.0688 0.522705C51.431 0.522705 38.7463 13.2007 38.7463 28.8409C38.7463 44.4811 51.4267 57.1591 67.0688 57.1591C82.7109 57.1591 95.3827 44.4811 95.3827 28.8409C95.3827 13.2007 82.6981 0.522705 67.0688 0.522705ZM67.0688 53.4018C53.5038 53.4018 42.5073 42.4037 42.5073 28.8409C42.5073 15.2781 53.5038 4.27994 67.0688 4.27994C80.6338 4.27994 91.626 15.2738 91.626 28.8409C91.626 42.408 80.6296 53.4018 67.0688 53.4018Z" fill="#E62E2E"/>
<path d="M75.8813 22.2198C73.3512 24.7503 72.9153 28.5759 74.565 31.5595L69.2398 36.8854V25.8061C72.5136 24.8614 74.9112 21.8479 74.9112 18.2702C74.9112 13.936 71.3981 10.4224 67.0645 10.4224C62.7308 10.4224 59.2178 13.936 59.2178 18.2702C59.2178 21.8479 61.6154 24.8614 64.8891 25.8061V36.8854L59.564 31.5595C61.2094 28.5759 60.7734 24.7503 58.2476 22.2198C55.1833 19.155 50.2129 19.155 47.1486 22.2198C44.0843 25.2846 44.0843 30.2515 47.1486 33.3206C49.6787 35.851 53.5037 36.287 56.4868 34.6414L64.8891 43.0449V50.9526H69.2356V43.0449L77.6378 34.6414C80.621 36.287 84.446 35.851 86.9761 33.3206C90.0404 30.2558 90.0404 25.2889 86.9761 22.2198C83.9118 19.155 78.9414 19.155 75.877 22.2198H75.8813Z" fill="#E62E2E"/>
<path d="M8.65451 65.25C4.01092 65.25 0.25 68.8523 0.25 73.3001C0.25 77.7478 4.01092 81.3501 8.65451 81.3501C10.5179 81.3501 12.2406 80.7702 13.635 79.7859L11.149 76.1958C10.471 76.7308 9.60114 77.0535 8.65451 77.0535C6.49262 77.0535 4.73582 75.3749 4.73582 73.3041C4.73582 71.2334 6.48836 69.5548 8.65451 69.5548H10.5606L14.1125 71.7848V81.346H18.5984V75.3463L16.4919 74.023H18.5984V69.4568L11.9037 65.2541H8.65451V65.25Z" fill="white"/>
<path d="M35.7101 65.25H20.3296V74.0189L22.436 75.3422H20.3296V79.2876H24.8154V77.8295L30.4099 81.342H38.6012L24.8154 72.6874V69.5466H33.1005C33.7316 70.2777 34.2987 71.2457 34.303 72.3566V72.6997H38.7888V69.8611C38.7888 67.1778 35.7101 65.2541 35.7101 65.2541V65.25Z" fill="white"/>
<path d="M48.6303 65.25C43.9868 65.25 40.2258 68.8523 40.2258 73.3001C40.2258 77.7478 43.9868 81.3501 48.6303 81.3501C50.4937 81.3501 52.2164 80.7702 53.6108 79.7859L51.1248 76.1958C50.4468 76.7308 49.577 77.0535 48.6303 77.0535C46.4685 77.0535 44.7116 75.3749 44.7116 73.3041C44.7116 71.2334 46.4642 69.5548 48.6303 69.5548H50.5364L54.0884 71.7848V81.346H58.5742V75.3463L56.4677 74.023H58.5742V69.4568L51.8796 65.2541H48.6303V65.25Z" fill="white"/>
<path d="M67.6865 65.25V69.5466H76.8927C76.6709 67.0267 73.8268 65.25 73.8268 65.25H67.6865Z" fill="white"/>
<path d="M59.6827 69.5507L71.7672 77.1393H66.2281C65.597 76.4082 65.0299 75.4402 65.0256 74.3293V73.9862H60.5398V76.8248C60.5398 79.5081 63.6185 81.4318 63.6185 81.4318H78.999V76.5307L67.8698 69.5466H59.6785L59.6827 69.5507Z" fill="white"/>
<path d="M88.508 65.25C83.8644 65.25 80.1035 68.8523 80.1035 73.3001C80.1035 77.7478 83.8644 81.3501 88.508 81.3501C90.3714 81.3501 92.0941 80.7702 93.4885 79.7859L91.0025 76.1958C90.3245 76.7308 89.4547 77.0535 88.508 77.0535C86.3461 77.0535 84.5893 75.3749 84.5893 73.3041C84.5893 71.2334 86.3419 69.5548 88.508 69.5548H90.4141L93.9661 71.7848V81.346H98.4519V75.3463L96.3454 74.023H98.4519V69.4568L91.7573 65.2541H88.508V65.25Z" fill="white"/>
<path d="M118.515 65.25H110.323L104.729 68.7665V65.25H100.243V74.0189L102.349 75.3422H100.243V79.2876H104.729V77.8295L110.323 81.342H118.515L105.697 73.296L118.515 65.25Z" fill="white"/>
<path d="M133.75 69.4527L127.055 65.25H123.806C119.163 65.25 115.402 68.8523 115.402 73.3001C115.402 77.7478 119.163 81.3501 123.806 81.3501C125.67 81.3501 127.392 80.7702 128.787 79.7859L126.301 76.1958C125.623 76.7308 124.753 77.0535 123.806 77.0535C121.644 77.0535 119.887 75.3749 119.887 73.3041C119.887 71.2334 121.64 69.5548 123.806 69.5548H125.712L129.264 71.7848V81.346H133.75V75.3463L131.644 74.023H133.75V69.4568V69.4527Z" fill="white"/>
</g>
<defs>
<clipPath id="clip0_106_1256">
<rect width="133.5" height="80.9091" fill="white" transform="translate(0.25 0.522705)"/>
</clipPath>
</defs>
</svg>
