<svg width="150" height="34" viewBox="0 0 150 34" fill="none" xmlns="http://www.w3.org/2000/svg">
<g clip-path="url(#clip0_113_1198)">
<path d="M25.0752 28.3671H0.93265C0.829449 28.3671 0.745789 28.4533 0.745789 28.5596V29.2439C0.745789 29.3503 0.829449 29.4365 0.93265 29.4365H25.0752C25.1784 29.4365 25.262 29.3503 25.262 29.2439V28.5596C25.262 28.4533 25.1784 28.3671 25.0752 28.3671Z" fill="#FF9933"/>
<path d="M147.895 28.3671H123.752C123.649 28.3671 123.565 28.4533 123.565 28.5596V29.2439C123.565 29.3503 123.649 29.4365 123.752 29.4365H147.895C147.998 29.4365 148.081 29.3503 148.081 29.2439V28.5596C148.081 28.4533 147.998 28.3671 147.895 28.3671Z" fill="#FF9933"/>
<path d="M32.1701 28.2634L32.035 28.8559C31.736 28.8263 31.3939 28.7967 30.8965 28.7818C30.8707 28.8411 30.8448 28.9003 30.816 28.9537C31.1265 29.1551 31.552 29.4869 31.7561 29.6972L31.3508 30.1356C31.1265 29.8305 30.8937 29.5935 30.5631 29.3417C30.2267 29.7802 29.7351 30.1653 29.0739 30.5504C29.0135 30.3874 28.9216 30.2245 28.7864 30.0912C29.6575 29.7061 30.1778 29.2677 30.4193 28.7848C29.8185 28.7937 29.4074 28.8292 29.0567 28.8589L29.1889 28.2723C29.5425 28.3019 29.9565 28.3168 30.5918 28.3168C30.6551 28.1153 30.7154 27.908 30.7873 27.6117H30.175C30.0025 27.8339 29.8645 27.9909 29.7322 28.139C29.6834 28.0353 29.5224 27.8783 29.3901 27.8339C29.9134 27.3599 30.2497 26.8682 30.5027 26.3142C30.6234 26.4268 30.8275 26.5305 30.9943 26.5749C31.0748 26.5956 31.069 26.649 30.9512 26.6786C30.8937 26.6934 30.7729 26.7911 30.5286 27.1466H31.3594C31.7273 27.1466 32.0666 27.1229 32.2649 27.0933L32.1413 27.6354C31.9516 27.6147 31.6239 27.5969 31.2731 27.6147C31.1898 27.9346 31.1294 28.142 31.0719 28.3197C31.5376 28.3108 31.8768 28.299 32.1643 28.2664L32.1701 28.2634ZM29.6403 32.7544L29.5368 33.2076H28.9934C29.1113 32.8817 29.1717 32.6655 29.2464 32.3307L29.5943 30.7933C29.6517 30.5326 29.692 30.3549 29.7121 30.1919C29.9019 30.2127 30.7442 30.2304 31.4341 30.2304C32.1241 30.2304 32.9721 30.2156 33.1475 30.1919C33.0986 30.3341 33.0526 30.503 32.9865 30.7933L32.6387 32.3307C32.5639 32.6655 32.5179 32.9173 32.4949 33.2076H31.9257L32.0292 32.7544H29.6403ZM32.3713 31.2406L32.4892 30.7133H30.1002L29.9824 31.2406H32.3713ZM32.1356 32.2804L32.2649 31.7027H29.876L29.7466 32.2804H32.1356ZM32.9664 29.7653C32.3742 29.7653 32.2822 29.7653 31.9918 29.8039C32.081 29.5135 32.2132 28.9862 32.3339 28.4471C32.4547 27.908 32.5582 27.4014 32.5984 27.1111C32.791 27.1496 32.9549 27.1555 33.5557 27.1555C34.1565 27.1555 34.329 27.1407 34.5245 27.1111C34.444 27.4073 34.3175 27.9198 34.1997 28.4471C34.0818 28.9744 33.9697 29.5224 33.9179 29.7979C33.6793 29.7772 33.5586 29.7683 32.9635 29.7683L32.9664 29.7653ZM33.8806 27.6947H33.0009L32.653 29.238H33.5327L33.8806 27.6947Z" fill="#FF9933"/>
<path d="M42.4647 28.7818C42.229 28.8114 42.0709 28.841 41.9012 28.9299C41.9156 28.7226 41.9156 28.4856 41.9012 28.2989C42.0709 28.2101 42.1542 28.1508 42.2922 27.9879C42.6286 27.588 42.9965 26.9866 43.2006 26.5837C43.3818 26.7407 43.4996 26.8059 43.6089 26.8355C43.7296 26.8652 43.7354 26.9096 43.5686 27.037C43.491 27.0962 43.3875 27.1999 43.2064 27.4221C42.893 27.8072 42.7579 27.9701 42.4848 28.2989L43.6721 28.2693C43.6146 28.0086 43.5427 27.7509 43.4824 27.585L43.8619 27.348C44.0257 27.8072 44.1551 28.2249 44.2586 28.6544L43.8044 28.9655C43.7986 28.8914 43.7785 28.7729 43.7526 28.6307L42.4647 28.7788V28.7818ZM41.5936 33.0476H41.1308C41.2745 32.5203 41.3435 32.2092 41.4097 31.8834L41.8092 29.9016C41.8639 29.6261 41.8955 29.4128 41.9099 29.2202C42.1513 29.2647 42.5366 29.2795 42.8729 29.2795C43.2093 29.2795 43.629 29.2647 43.8647 29.2202C43.7986 29.4128 43.744 29.629 43.6894 29.9016L43.1719 32.4758C43.0828 32.9143 42.9477 33.0239 42.3095 33.0979C42.344 32.8669 42.3325 32.6595 42.2663 32.4462C42.6084 32.5351 42.7464 32.4995 42.7924 32.2685L42.8959 31.756H41.8552L41.5965 33.0476H41.5936ZM43.1834 30.3252L43.3013 29.7475H42.2606L42.1427 30.3252H43.1834ZM42.0594 30.7399L41.9415 31.3265H42.9822L43.1 30.7399H42.0594ZM45.5695 30.1978C45.6298 30.4141 45.6988 30.5622 45.7793 30.6955C45.8311 30.7695 45.7851 30.8377 45.7103 30.8229C45.6528 30.808 45.1958 30.9947 44.2758 31.4538L44.1263 32.2033C44.089 32.3899 44.1033 32.4492 44.6438 32.4492C45.0031 32.4492 45.1814 32.2922 45.3625 31.6168C45.443 31.8686 45.5724 31.9871 45.7305 32.0404C45.3797 32.8935 45.2935 32.9676 44.546 32.9676C43.6347 32.9676 43.5916 32.9143 43.7239 32.2537L44.0631 30.5681C44.1292 30.2422 44.1695 29.9519 44.1838 29.7505C44.3448 29.786 44.5173 29.8038 44.6812 29.7949C44.7789 29.7949 44.7904 29.8482 44.6725 29.9519C44.5949 30.0171 44.5547 30.0704 44.5317 30.1889L44.3736 30.9739C44.8594 30.7281 45.2935 30.4407 45.5724 30.1948L45.5695 30.1978ZM46.2106 27.0873C46.2709 27.2947 46.3514 27.4724 46.4492 27.585C46.5067 27.6531 46.4693 27.7331 46.3629 27.7183C46.2738 27.7035 45.926 27.8368 44.9571 28.3108L44.8767 28.7107C44.8393 28.8973 44.8623 29.001 45.3912 29.001C45.7621 29.001 45.8483 28.927 46.0524 28.2812C46.1071 28.4737 46.2479 28.6159 46.406 28.6663C46.0668 29.4394 45.9662 29.4691 45.3021 29.4691C44.3908 29.4691 44.3419 29.4246 44.4742 28.764L44.7358 27.4636C44.8019 27.1288 44.845 26.8622 44.8623 26.6459C45.0233 26.6845 45.19 26.6993 45.3539 26.6904C45.4516 26.6904 45.4631 26.7437 45.3452 26.8474C45.2676 26.9155 45.2245 26.9807 45.2044 27.0844L45.0463 27.8635C45.4746 27.6561 45.9432 27.3362 46.2106 27.0844V27.0873Z" fill="#FF9933"/>
<path d="M71.0948 29.3772L70.9338 30.0971C70.3646 30.0526 69.6861 30.0289 68.6713 30.023L68.1567 32.3248C68.0561 32.778 67.737 33.0446 66.843 33.0594C66.8861 32.8432 66.8774 32.6299 66.8056 32.3099C67.4955 32.384 67.6364 32.2655 67.6968 32.0048L68.1395 30.023C67.0816 30.023 66.3629 30.0467 65.7592 30.0971L65.9201 29.3772C66.5066 29.4305 67.2081 29.4513 68.266 29.4513L68.4902 28.4411C69.0163 28.1745 69.3239 27.982 69.919 27.4843H67.7974C67.4179 27.4843 67.1736 27.4932 66.8947 27.5139L67.0413 26.8622C67.6249 26.9007 67.9957 26.9155 69.0537 26.9155C70.3416 26.9155 70.7929 26.9007 71.089 26.8622L70.9453 27.508C70.744 27.5169 70.5716 27.5909 70.4048 27.7094L68.9444 28.7788L68.7949 29.4542C69.8126 29.4453 70.4997 29.4246 71.0919 29.3802L71.0948 29.3772Z" fill="#FF9933"/>
<path d="M78.506 28.9151C78.4801 28.7285 78.3824 28.5744 78.2645 28.4708C78.7935 28.062 79.3771 27.3658 79.8801 26.483C80.0239 26.5867 80.1762 26.6756 80.251 26.7052C80.3574 26.7496 80.3574 26.803 80.2309 26.877C80.1791 26.9066 80.0325 27.0637 79.8571 27.2918C80.7713 27.2918 81.0099 27.2769 81.26 27.2325L80.389 28.4115C80.6937 28.4026 80.9783 28.3908 81.2227 28.3671C81.1508 28.5596 81.1105 28.6722 81.0732 28.8351L80.2567 32.2715C80.136 32.7839 80.0699 32.8639 79.3886 33.0269C79.4317 32.7958 79.4116 32.6269 79.3253 32.3751C79.6847 32.4344 79.7996 32.3544 79.8428 32.1737L80.0785 31.1784H79.5438C79.3656 31.9338 79.2649 32.461 79.2362 32.6625H78.7676C78.8395 32.4699 78.9746 31.9575 79.1586 31.1784H78.6497C78.4571 31.7945 78.0719 32.5884 77.6608 33.1513C77.5774 32.9646 77.4739 32.855 77.3302 32.781C77.7988 32.2685 78.1581 31.5131 78.4082 30.4585L78.8682 28.5211C78.736 28.6781 78.6152 28.8025 78.506 28.9151ZM78.9573 28.4174H79.9146L80.3976 27.7124H79.5438C79.3857 27.9138 79.1701 28.1716 78.9573 28.4174ZM79.5294 29.6113L79.7134 28.8381H79.2189L79.035 29.6113H79.5294ZM78.9372 30.0201L78.7647 30.7488H79.2592L79.4317 30.0201H78.9372ZM80.4494 29.6113L80.6333 28.8381H80.0986L79.9146 29.6113H80.4494ZM79.8198 30.0201L79.6473 30.7488H80.182L80.3545 30.0201H79.8198ZM81.3894 29.3891C81.3319 29.2262 81.2342 29.0988 81.0617 28.9892C81.7804 28.5656 82.0535 28.3286 82.3208 27.4754C82.0132 27.4754 81.6568 27.505 81.5245 27.5287L81.6568 26.9718C81.8724 27.0103 82.1397 27.0251 82.8671 27.0251C83.7209 27.0251 83.8934 27.0103 84.1837 26.9718C84.0601 27.3066 83.9566 27.6028 83.7036 28.3671C83.5081 28.9684 83.3644 29.0662 82.5192 29.1314C82.5652 28.8855 82.5451 28.7522 82.4617 28.5093C83.0625 28.6574 83.1919 28.5152 83.2954 28.219L83.5225 27.4754H82.7521C82.4703 28.3967 82.111 28.8499 81.3923 29.3891H81.3894ZM82.3266 29.3447C82.4876 29.3743 82.7204 29.3891 82.8699 29.3891C82.9418 29.3891 82.9447 29.4246 82.8728 29.4839C82.8326 29.5224 82.7693 29.6172 82.7521 29.7001L82.6284 30.2186C82.9705 30.2186 83.3155 30.1949 83.5398 30.1652L83.419 30.6777C83.2063 30.6481 82.8728 30.6244 82.5307 30.6244L82.3323 31.4568C82.7061 31.4479 83.1229 31.4361 83.3471 31.4035L83.2149 31.9604C83.0022 31.9397 82.5968 31.916 82.2231 31.9071C82.1167 32.3603 82.0247 32.7751 81.9644 33.1839H81.4124C81.5504 32.7691 81.6539 32.3603 81.7603 31.9071C81.2888 31.913 80.8029 31.9278 80.5327 31.9604L80.665 31.4035C80.9323 31.439 81.4038 31.4568 81.8666 31.4568L82.065 30.6244H81.352C81.2255 30.8614 81.0962 31.0539 80.9812 31.2109C80.8662 31.0687 80.8001 31.0243 80.6276 30.9888C80.9783 30.574 81.191 30.2097 81.4527 29.5491C81.605 29.6379 81.7401 29.6913 81.8321 29.712C81.9184 29.7268 81.9155 29.7653 81.8091 29.8601C81.7775 29.8897 81.6625 30.0467 81.5561 30.2156H82.1598C82.2403 29.8749 82.318 29.4424 82.3237 29.3387L82.3266 29.3447Z" fill="#FF9933"/>
<path d="M90.9596 31.7294C90.7123 32.1293 90.4651 32.5767 90.2437 33.021C90.1029 32.7988 89.9907 32.6566 89.8355 32.473C90.0942 32.1619 90.3098 31.8716 90.6577 31.368C90.9193 31.0125 91.1637 30.6245 91.3822 30.2246C91.4511 30.3816 91.5403 30.4852 91.707 30.5504C91.523 30.8022 91.2758 31.211 90.9624 31.7294H90.9596ZM91.6696 28.7612C91.5489 28.5005 91.1378 28.065 90.8676 27.8547L91.3218 27.3718C91.6869 27.6532 91.8967 27.8547 92.1612 28.1954L91.6696 28.7582V28.7612ZM91.0803 33.1839C91.017 33.021 90.9193 32.8581 90.7382 32.6952C92.0692 32.0286 92.6959 31.4717 93.1329 30.3282C92.3883 30.3431 92.0865 30.3579 91.8766 30.3964L92.0146 29.795C92.2417 29.8395 92.5292 29.8632 93.2393 29.8632H93.2968C93.4319 29.4395 93.5842 28.8234 93.7251 28.2161C93.2939 28.222 92.8713 28.2457 92.6471 28.2753L92.7879 27.6681C92.9604 27.6977 93.406 27.7125 93.8343 27.7214C93.9263 27.2681 94.0155 26.8238 94.0758 26.4535C94.3058 26.4831 94.5732 26.492 94.7284 26.4831C94.829 26.4742 94.8405 26.5364 94.7284 26.6164C94.6192 26.6905 94.5243 26.883 94.3116 27.7303C94.9526 27.7303 95.5477 27.7155 95.8295 27.6621C95.726 27.9436 95.6426 28.225 95.5247 28.6634L95.2056 29.8572C95.4701 29.8483 95.6972 29.8276 95.8726 29.798L95.7346 30.3993C95.5075 30.3549 95.059 30.3312 93.9867 30.3312C94.0126 31.4599 94.5128 32.0316 95.4615 32.2834C95.2056 32.55 95.0274 32.8403 94.9296 33.1069C93.8516 32.3189 93.5296 31.6968 93.636 30.3312H93.6101C93.1243 31.7117 92.5321 32.313 91.0774 33.1899L91.0803 33.1839ZM93.7653 29.8602H94.7313L95.1654 28.2131H94.1994C94.027 28.933 93.8861 29.4662 93.7653 29.8602Z" fill="#FF9933"/>
<path d="M106.805 29.3032C107.067 29.3032 107.317 29.2884 107.481 29.2647L106.619 31.9723C106.368 32.7662 106.202 32.944 105.066 33.1365C105.104 32.8462 105.029 32.5055 104.859 32.2389C105.575 32.4404 105.903 32.2686 106.049 31.8449L106.725 29.8779H104.931C104.416 31.3325 103.916 31.9782 102.536 33.1069C102.464 32.8403 102.269 32.6685 102.028 32.5885C103.114 32.0553 103.951 31.0451 104.379 29.8661C104.534 29.4366 104.678 28.9448 104.833 28.3583C103.997 28.3671 103.459 28.382 102.904 28.4116L103.065 27.7421C103.729 27.7806 104.638 27.7954 105.851 27.7954C107.064 27.7954 108.013 27.7806 108.668 27.7421L108.507 28.4116C107.878 28.3731 106.667 28.3583 105.443 28.3583C105.336 28.693 105.239 28.9892 105.132 29.3003H106.808L106.805 29.3032ZM105.644 27.7065C105.656 27.3866 105.589 26.9274 105.529 26.6964L106.294 26.4446C106.282 26.7112 106.325 27.1496 106.397 27.4251L105.644 27.7065Z" fill="#FF9933"/>
<path d="M120.277 30.8969L120.147 31.4598C119.676 31.4213 119.084 31.4005 118.276 31.3916C118.558 31.8449 119.262 32.3041 120.193 32.3426C120.055 32.5144 119.891 32.7958 119.808 33.0121C119.018 32.855 118.167 32.2774 117.891 31.3857H117.81L117.606 32.2685C117.526 32.6181 117.468 32.9291 117.431 33.1957H116.87C116.974 32.9054 117.057 32.6032 117.132 32.2685L117.336 31.3857H117.293C116.675 32.1796 115.657 32.8195 114.746 33.1305C114.728 32.9291 114.656 32.7306 114.513 32.5973C115.533 32.3011 116.266 31.9219 116.856 31.3887C116.028 31.3976 115.349 31.4183 114.878 31.4627L115.007 30.8999C115.551 30.9532 116.378 30.974 117.422 30.974C117.468 30.7518 117.494 30.5592 117.497 30.4318C117.664 30.4615 117.922 30.4763 118.069 30.4615C118.195 30.4467 118.204 30.4704 118.075 30.5948C117.986 30.6836 117.954 30.737 117.928 30.8555L117.902 30.974C118.969 30.968 119.696 30.9443 120.271 30.8999L120.277 30.8969ZM115.689 28.8411L115.812 28.3078C116.307 28.3523 116.755 28.376 117.339 28.376C117.551 28.1242 117.681 27.9464 117.848 27.6798C117.991 27.7539 118.169 27.8279 118.253 27.8665C118.405 27.9346 118.388 27.979 118.233 28.0679C118.181 28.0975 118.052 28.2101 117.873 28.3789H119.391C119.932 28.3789 120.38 28.3582 120.751 28.3108L120.627 28.8529C120.357 28.8144 119.981 28.7937 119.547 28.7848C119.374 29.0751 119.21 29.2528 118.805 29.5728C119.342 29.7209 119.866 29.8838 120.274 30.0319C120.147 30.1445 119.972 30.3667 119.857 30.5503C119.351 30.2897 118.888 30.0823 118.371 29.8986C117.83 30.2245 116.715 30.5207 115.64 30.6244C115.614 30.4378 115.556 30.2541 115.464 30.0616C116.068 30.0823 117.221 29.9431 117.827 29.7209C117.399 29.6024 116.922 29.4898 116.355 29.3802C116.606 29.158 116.798 28.9714 116.971 28.7877C116.534 28.7966 116.143 28.8114 115.689 28.847V28.8411ZM118.336 26.5541L118.914 26.4712C118.882 26.6874 118.865 26.9748 118.865 27.1407C120.035 27.1407 120.495 27.117 121.036 27.0666L120.829 27.9731H120.257L120.349 27.5732H116.577L116.465 28.056H115.919L116.146 27.0696C116.657 27.1229 117.117 27.1436 118.287 27.1436C118.316 26.9363 118.336 26.6904 118.336 26.5571V26.5541ZM117.471 28.7818C117.365 28.8944 117.255 29.0129 117.146 29.1373C117.491 29.2114 117.908 29.315 118.328 29.4335C118.601 29.2469 118.834 29.0395 119.038 28.7818H117.471Z" fill="#FF9933"/>
<path d="M58.3853 31.6109C58.3853 31.6109 58.3307 31.8064 58.1093 32.1264C58.0087 32.2715 57.6752 32.5085 57.2843 32.6418C56.9882 32.7425 55.8871 32.8166 55.8037 32.4966C55.7606 32.3308 55.821 32.079 55.821 32.079L56.0423 31.1132H57.4682L57.4107 31.365H57.9771C58.0202 31.0421 58.0777 30.74 58.1582 30.3934L58.6728 28.1568C58.7245 27.9317 58.8194 27.5999 58.8826 27.4399C58.4025 27.4755 57.9886 27.4873 56.8818 27.4873L57.0255 26.8652C57.0658 26.6934 57.1261 26.566 57.1836 26.5334C57.313 26.4594 57.3044 26.4179 57.1836 26.4179C56.9652 26.4238 56.7035 26.4238 56.5253 26.412C56.4937 26.7171 56.4362 27.0667 56.3471 27.4873C55.5393 27.4873 54.8637 27.4755 54.4037 27.4399C54.3951 27.6177 54.352 27.8606 54.283 28.1568L53.7425 30.5089C53.662 30.8525 53.5786 31.1695 53.478 31.4746H54.0386L54.122 31.1132H55.5163L55.2949 32.079C55.2949 32.079 55.0563 32.787 55.5191 33.0062C55.9906 33.2313 57.1549 33.1217 57.5804 32.9499C57.8621 32.8373 58.3163 32.5085 58.5262 32.2982C58.6642 32.1589 58.805 32.0908 58.805 32.0908L58.3968 31.6139L58.3853 31.6109ZM56.7783 27.908H58.2042L57.9483 29.0159H56.5224L56.7783 27.908ZM56.4276 29.4365H57.8535L57.566 30.6837H56.1401L56.4276 29.4365ZM54.8493 27.908H56.2436L55.9877 29.0159H54.5934L54.8493 27.908ZM54.2111 30.6837L54.4986 29.4365H55.8929L55.6054 30.6837H54.2111Z" fill="#FF9933"/>
<path d="M14.444 5.51849L14.6251 4.48759L9.64593 4.4787L9.06235 7.78468H14.0329L14.1967 6.86043H10.2784L10.5141 5.51552H14.4382L14.444 5.51849ZM15.3639 9.02887L15.1828 10.0094H18.0058L18.1783 9.02887H15.361H15.3639ZM15.7491 6.86339L15.5853 7.78764H18.4083L18.5722 6.86339H15.7491ZM14.9614 11.2803L14.9298 11.4195C15.1828 12.0445 15.6542 12.6992 16.2206 13.342C17.014 12.8147 18.0777 12.0208 19.2017 11.2832H14.9614V11.2803ZM14.9614 11.2803L14.9298 11.4195C15.1828 12.0445 15.6542 12.6992 16.2206 13.342C17.014 12.8147 18.0777 12.0208 19.2017 11.2832H14.9614V11.2803ZM18.5722 6.86339H15.7491L15.5853 7.78764H18.4083L18.5722 6.86339ZM18.1783 9.02887H15.361L15.1799 10.0094H18.003L18.1754 9.02887H18.1783ZM9.06235 7.78764H14.0329L14.1967 6.86339H10.2784L10.5141 5.51849H14.4382L14.6193 4.48759L9.64018 4.4787L9.0566 7.78468L9.06235 7.78764ZM60.2509 0.840942H55.8525L48.1423 8.46898C48.1423 8.46898 49.3842 2.87607 49.8729 0.840942H3.2179L0.159119 18.7631H45.8022C46.173 17.0124 46.5583 15.309 46.9665 13.6472L49.7263 11.1351C50.7181 13.6412 51.6064 16.177 52.3682 18.7631H56.9391C55.4356 14.995 53.7223 11.6387 52.6356 8.29717L60.2509 0.840942ZM21.9184 4.48759H16.1746L15.9849 5.51849H20.3114L19.9089 7.78764H21.4585L21.2371 9.02887H19.6876L19.2937 11.2417L20.0412 12.32C19.2305 12.8888 18.2473 13.585 17.1923 14.3552C18.1208 15.2468 19.0638 15.9933 19.5122 16.3725L18.3336 17.4597C17.6264 16.8909 15.6428 15.2379 14.5187 13.7301L14.1249 15.9341C14.0156 16.5651 13.7713 17.0124 13.4004 17.2701C13.0382 17.5308 12.4949 17.6582 11.779 17.6582C11.4944 17.6582 11.1811 17.6493 10.8361 17.6345L10.6722 16.1592C11.0488 16.174 11.3564 16.1829 11.5835 16.1829C12.032 16.1918 12.308 16.1592 12.4086 16.103C12.5121 16.0378 12.5811 15.9252 12.6041 15.7623L12.7996 14.6929C11.1868 15.6082 8.90424 16.9057 7.81182 17.3264L7.26848 16.0378C8.50464 15.5994 11.5318 13.8486 13.0986 12.9806L13.4062 11.2773H9.48782L9.70918 9.99755L13.6333 10.0064L13.8058 9.02591H8.82662C8.38677 11.5794 7.90668 13.4694 7.38635 14.7166C6.86601 15.9578 6.32555 16.9472 5.75921 17.6671L4.70417 16.728C5.79659 15.1728 6.6389 12.7081 7.24548 9.34288L8.36953 3.04493H14.4037L14.3577 1.91035L16.1286 1.61115C16.143 2.25102 16.1918 3.04493 16.1918 3.04493H22.1714L21.9127 4.48759H21.9184ZM8.61676 12.877L9.70343 11.6357C10.8447 12.0179 11.7417 12.3734 12.3942 12.7288L11.3162 13.9701C10.4653 13.5494 9.57119 13.185 8.61676 12.877ZM32.0837 11.7513C31.9744 12.3497 31.8163 12.797 31.5892 13.0902C31.3679 13.3835 31.1178 13.585 30.8188 13.7064C30.5284 13.819 30.057 13.8753 29.4188 13.8753L29.2606 12.3348C29.4188 12.3437 29.7091 12.3497 30.1346 12.3497C30.3876 12.3497 30.5514 12.1156 30.629 11.6446C30.882 10.2671 30.7642 8.91334 30.2754 7.59213C30.8015 6.59382 31.3995 5.33186 32.0521 3.81514H30.6204L28.1337 17.7322H26.6618L29.4216 2.24806H33.8747L33.5987 3.81218C33.5757 3.92474 32.9864 5.13338 31.8135 7.42031C32.2303 8.98443 32.3165 10.4271 32.0808 11.7483L32.0837 11.7513ZM35.1741 14.0619L35.6686 11.2803H32.5379L32.7736 9.93535H35.9129L36.2205 8.2083H35.4414C34.8521 8.83928 34.372 9.3014 34.0098 9.58579L33.0352 8.71782C34.3088 7.59213 35.292 6.48717 35.9934 5.42665L37.1979 5.87989C37.0571 6.09911 36.8443 6.422 36.554 6.82784H40.2998L40.0555 8.20534H37.609L37.3014 9.93238H40.2596L40.0239 11.2862L37.0657 11.2773L36.5712 14.0589H37.6407L38.0029 12.0475H39.3713L38.7647 15.4364H32.3769L32.9835 12.0475H34.3519L33.9897 14.0589H35.177L35.1741 14.0619ZM42.065 11.298C41.6567 13.1465 41.3261 14.4825 41.0818 15.312C40.8374 16.1385 40.5471 16.6806 40.2165 16.9502C39.8773 17.2168 39.5783 17.4034 39.3052 17.519C39.0378 17.6315 38.3996 17.6878 37.3848 17.6878C37.0312 17.6878 36.669 17.6789 36.2981 17.6641L36.0308 16.2126C36.416 16.2214 36.8185 16.2274 37.2267 16.2274C38.2271 16.2274 38.8222 16.18 39.0206 16.0733C39.2103 15.9667 39.3655 15.8126 39.492 15.6023C39.6099 15.392 39.9549 14.0145 40.5298 11.4669C41.1048 8.92222 41.536 6.78045 41.8206 5.04747H35.7778C35.0217 5.90655 34.3548 6.5642 33.7712 7.00855L32.8656 5.97173C34.2657 4.80456 35.4529 3.39448 36.4304 1.73261L37.8534 2.08217L36.8616 3.64628H43.557C42.9763 6.89598 42.4789 9.4436 42.0621 11.298H42.065ZM14.9327 11.4195C15.1857 12.0445 15.6571 12.6992 16.2235 13.342C17.0169 12.8147 18.0806 12.0208 19.2046 11.2832H14.9643L14.9327 11.4224V11.4195ZM15.5853 7.78764H18.4083L18.5722 6.86339H15.7491L15.5853 7.78764ZM18.1812 9.02887H15.3639L15.1828 10.0094H18.0058L18.1783 9.02887H18.1812ZM9.06523 7.78764H14.0357L14.1996 6.86339H10.2813L10.517 5.51849H14.4411L14.6222 4.48759L9.64306 4.4787L9.05948 7.78468L9.06523 7.78764Z" fill="#FF9933"/>
<path d="M70.1632 5.23414C69.9418 5.89771 69.7291 6.68569 69.525 7.60106H69.3611C68.9127 5.84142 67.5989 4.96753 65.4054 4.96753C64.4682 4.96753 63.6029 5.16304 62.8181 5.56C62.0247 5.95695 61.3721 6.46055 60.8431 7.07672C60.3228 7.69289 59.8743 8.40681 59.4977 9.20961C59.1269 10.0213 58.8451 10.8241 58.6468 11.618C58.457 12.4119 58.3392 13.2058 58.2845 13.9938C58.1581 15.6705 58.48 16.9206 59.2361 17.7234C59.9922 18.5262 61.0702 18.932 62.4702 18.932C64.6263 18.932 66.3167 18.0493 67.5443 16.2718H67.6477C67.5126 16.8969 67.4206 17.6997 67.3488 18.6625H70.7698C71.0285 17.2939 71.5402 15.0721 72.2877 12.0001C72.877 9.30144 73.3887 7.0471 73.8458 5.24007H70.1632V5.23414ZM68.6453 10.5367C68.5677 11.0403 68.4498 11.5973 68.2831 12.2223C68.1106 12.8474 67.8662 13.4784 67.5356 14.136C67.205 14.7847 66.7652 15.3357 66.2132 15.7742C65.6555 16.2126 65.0403 16.4318 64.3734 16.4318C62.6887 16.4318 61.9125 15.5313 62.0448 13.7242C62.085 13.1318 62.1856 12.5097 62.3524 11.852C62.5105 11.2033 62.7462 10.5308 63.0538 9.82578C63.3614 9.12963 63.7927 8.56086 64.359 8.1165C64.9167 7.66326 65.5549 7.44405 66.2621 7.44405C67.0555 7.44405 67.6707 7.71955 68.102 8.27055C68.5332 8.82154 68.7085 9.58287 68.6453 10.5397V10.5367Z" fill="#FF9933"/>
<path d="M87.2567 5.88289C86.722 5.27561 85.8078 4.96753 84.5199 4.96753C82.4271 4.96753 80.751 6.00435 79.4919 8.08096H79.3826C79.604 6.54054 79.7132 5.59258 79.7219 5.2371H76.3239C76.0881 6.68865 75.654 8.91041 75.0101 11.9083C74.4438 14.9566 74.0039 17.2109 73.6877 18.6595H77.4077C77.5572 17.5812 77.928 15.629 78.526 12.7822C78.8709 11.1677 79.3913 9.89687 80.0841 8.95485C80.7769 8.01578 81.556 7.54477 82.4271 7.54477C83.623 7.54477 84.1893 8.11947 84.1031 9.26293C84.0801 9.61841 84.0398 9.89391 83.9938 10.0983C83.2377 13.745 82.5938 16.6007 82.0591 18.6595H85.9832C86.2965 16.7221 86.9031 13.6413 87.7857 9.40216C87.8633 9.07927 87.9208 8.72082 87.9438 8.32387C88.0156 7.30186 87.7857 6.49314 87.2596 5.88289H87.2567Z" fill="#FF9933"/>
<path d="M100.843 5.23411C100.662 5.90656 100.489 6.70047 100.317 7.6188L100.213 7.60399C99.7735 5.84435 98.4598 4.97046 96.2807 4.97046C95.1164 4.97046 94.0786 5.26373 93.1644 5.82954C92.2531 6.40423 91.52 7.15963 90.9767 8.0987C90.4333 9.03776 90.0165 9.9946 89.7261 10.984C89.4358 11.9646 89.2547 12.9629 89.1828 13.9582C89.0649 15.629 89.3783 16.8613 90.1257 17.6641C90.8732 18.4758 91.9282 18.8728 93.288 18.8728C95.3722 18.8728 97.0712 17.8922 98.4023 15.9223L98.4799 15.9074C98.2125 16.9857 98.0084 17.91 97.8733 18.6624C97.3616 21.1686 95.7028 22.4157 92.9085 22.4157C91.0284 22.4157 89.3754 22.0513 87.938 21.3226L87.3803 23.9502C89.0707 24.6316 90.8646 24.9722 92.7763 24.9722C97.6922 24.9633 100.642 22.712 101.634 18.221L102.404 14.7195C103.034 11.6802 103.732 8.51935 104.488 5.24299H100.837L100.843 5.23411ZM99.5752 10.5278C99.5206 11.224 99.3538 11.9942 99.0635 12.8473C98.7731 13.7005 98.2844 14.5003 97.6002 15.2617C96.916 16.023 96.1456 16.4051 95.2802 16.4051C93.6129 16.4051 92.8482 15.4986 92.9747 13.6886C93.0149 13.0962 93.1155 12.48 93.2823 11.8253C93.4404 11.1766 93.6761 10.4952 93.9837 9.79908C94.2913 9.10293 94.7225 8.52527 95.2745 8.08092C95.8322 7.63657 96.4618 7.41736 97.169 7.41736C97.9797 7.41736 98.6006 7.69286 99.0347 8.24385C99.4688 8.80374 99.647 9.55617 99.5781 10.5308L99.5752 10.5278Z" fill="#FF9933"/>
<path d="M111.724 0.840942L111.086 3.58111H116.531C116.341 4.41649 116.16 5.2341 115.987 6.02209C115.806 6.80711 115.642 7.57732 115.476 8.31494C115.312 9.05257 115.185 9.58875 115.113 9.92053C114.225 13.973 113.564 16.9235 113.138 18.7631H117.244C117.919 15.472 118.572 12.5363 119.21 9.95312C119.613 7.95057 120.084 5.82657 120.627 3.58111H126.072L126.71 0.840942L111.724 0.840942Z" fill="#FF9933"/>
<path d="M132.405 5.23414C132.184 5.89771 131.974 6.68569 131.767 7.60106H131.603C131.163 5.84142 129.841 4.96753 127.648 4.96753C126.71 4.96753 125.845 5.16304 125.06 5.56C124.267 5.95695 123.614 6.46055 123.094 7.07672C122.568 7.69289 122.119 8.40681 121.74 9.20961C121.369 10.0213 121.087 10.8241 120.898 11.618C120.708 12.4119 120.584 13.2058 120.527 13.9938C120.409 15.6705 120.722 16.9206 121.478 17.7234C122.234 18.5262 123.312 18.932 124.712 18.932C126.877 18.932 128.567 18.0493 129.786 16.2718H129.896C129.761 16.8969 129.66 17.6997 129.588 18.6625H133.009C133.276 17.2939 133.779 15.0721 134.527 12.0001C135.116 9.30144 135.637 7.0471 136.085 5.24007H132.402L132.405 5.23414ZM130.887 10.5367C130.816 11.0403 130.692 11.5973 130.525 12.2223C130.361 12.8474 130.108 13.4784 129.778 14.136C129.447 14.7847 129.007 15.3357 128.455 15.7742C127.898 16.2126 127.291 16.4318 126.616 16.4318C124.931 16.4318 124.16 15.5313 124.287 13.7242C124.327 13.1318 124.428 12.5097 124.595 11.852C124.753 11.2033 124.988 10.5308 125.296 9.82578C125.604 9.12963 126.035 8.56086 126.601 8.1165C127.167 7.66326 127.797 7.44405 128.504 7.44405C129.306 7.44405 129.922 7.71955 130.344 8.27055C130.775 8.82154 130.956 9.58287 130.887 10.5397V10.5367Z" fill="#FF9933"/>
<path d="M148.547 6.25615C147.578 5.39707 146.173 4.96753 144.316 4.96753C141.815 4.96753 139.831 5.74663 138.362 7.30186C136.884 8.85709 136.048 11.0552 135.844 13.8753C135.734 15.4898 136.157 16.7369 137.134 17.6108C138.103 18.4877 139.518 18.9231 141.383 18.9231C143.861 18.9231 145.836 18.1381 147.308 16.5651C148.786 14.9832 149.628 12.7792 149.827 9.93538C149.944 8.33868 149.519 7.11523 148.553 6.25615H148.547ZM146.109 9.8791C145.96 12.0268 145.52 13.6739 144.787 14.8144C144.063 15.9667 143.097 16.5325 141.892 16.5325C141.099 16.5325 140.492 16.3133 140.084 15.8601C139.676 15.4157 139.5 14.767 139.558 13.9079C139.707 11.8165 140.156 10.1961 140.886 9.04372C141.625 7.90025 142.594 7.33444 143.795 7.33444C144.597 7.33444 145.195 7.55366 145.598 7.99208C146 8.43051 146.173 9.06149 146.109 9.88206V9.8791Z" fill="#FF9933"/>
</g>
<defs>
<clipPath id="clip0_113_1198">
<rect width="149.682" height="32.3636" fill="white" transform="translate(0.159119 0.840942)"/>
</clipPath>
</defs>
</svg>
