<svg width="94" height="106" viewBox="0 0 94 106" fill="none" xmlns="http://www.w3.org/2000/svg">
<g clip-path="url(#clip0_131_1015)">
<path d="M11.9231 93.4773L11.8721 93.5386L8.44446 97.9109L4.95564 93.4773H0.477295V105.614H1.80346V94.8053H4.31296L8.44446 100.046L12.5658 94.8053H15.0753V105.614H16.4014V93.4773H11.9231Z" fill="white"/>
<path d="M12.9022 95.2446L8.44426 100.925L3.98632 95.2446H2.31332V105.614H3.62928V97.2571L8.30144 103.203L8.44426 103.376L8.57688 103.203L13.249 97.2571V105.614H14.5752V95.2446H12.9022Z" fill="white"/>
<path d="M19.421 93.4773H18.0948V105.614H19.421V93.4773Z" fill="white"/>
<path d="M21.257 93.4773H19.9309V105.614H21.257V93.4773Z" fill="white"/>
<path d="M24.2766 104.286V93.4773H22.9504V105.614H35.0695V104.286H24.2766Z" fill="white"/>
<path d="M26.1026 102.518V93.4773H24.7765V103.846H35.1307V102.518H26.1026Z" fill="white"/>
<path d="M38.0891 93.4773H36.7629V105.614H38.0891V93.4773Z" fill="white"/>
<path d="M39.9151 93.4773H38.589V105.614H39.9151V93.4773Z" fill="white"/>
<path d="M53.7276 93.4773H41.6085V94.8053H53.7276V93.4773Z" fill="white"/>
<path d="M41.6085 95.3161V96.634H46.0869V105.614H47.413V95.3161H41.6085Z" fill="white"/>
<path d="M47.9231 95.3161V105.614H49.2492V96.634H53.7072V95.3161H47.9231Z" fill="white"/>
<path d="M65.908 98.8814H61.0114V100.21H65.908V98.8814Z" fill="white"/>
<path d="M57.2472 95.3161V103.775H65.908V102.447H58.5733V96.634H66.061V95.3161H57.2472Z" fill="white"/>
<path d="M55.421 93.4773V105.614H65.9079V104.286H56.7472V94.8053H66.0609V93.4773H55.421Z" fill="white"/>
<path d="M70.2331 95.3161C69.7945 95.3161 69.4272 95.6737 69.4272 96.1232V102.784C69.4272 103.336 69.8761 103.785 70.4269 103.785H79.353V102.457H71.1104C70.8758 102.457 70.7636 102.406 70.7636 102.099V97.0017C70.7636 96.6953 70.8656 96.6442 71.1104 96.6442H79.506V95.3161H70.2331Z" fill="white"/>
<path d="M79.5162 93.4773H69.4986C68.4581 93.4773 67.6012 94.3252 67.6012 95.3774V103.714C67.6012 104.756 68.4479 105.614 69.4986 105.614H79.3632V104.286H70.0699C69.2946 104.286 68.9274 103.918 68.9274 103.141V95.9495C68.9274 95.122 69.2436 94.8053 70.0699 94.8053H79.5162V93.4773Z" fill="white"/>
<path d="M82.536 93.4773H81.2098V105.614H82.536V93.4773Z" fill="white"/>
<path d="M90.3603 93.4773V97.9825H84.362V93.4773H83.0359V99.3105H91.6865V93.4773H90.3603Z" fill="white"/>
<path d="M93.5227 93.4773H92.1966V105.614H93.5227V93.4773Z" fill="white"/>
<path d="M83.0359 99.7498V105.614H84.362V101.078H90.3603V105.614H91.6865V99.7498H83.0359Z" fill="white"/>
</g>
<path d="M0.477295 0.431885V83.3637H93.5227V0.431885H0.477295ZM66.163 13.5884L46.9949 59.4178L27.837 13.5884H66.163ZM12.7902 16.3416L35.3145 70.2072H12.7902V16.3416ZM58.6753 70.2072L81.1997 16.3416V70.2072H58.6753Z" fill="#E6C72E"/>
<defs>
<clipPath id="clip0_131_1015">
<rect width="93.0455" height="12.1364" fill="white" transform="translate(0.477295 93.4773)"/>
</clipPath>
</defs>
</svg>
