<svg width="114" height="110" viewBox="0 0 114 110" fill="none" xmlns="http://www.w3.org/2000/svg">
<g clip-path="url(#clip0_131_1200)">
<path d="M5.45704 97.0151C5.76245 97.0151 5.9504 97.1387 6.02088 97.3909L8.45011 105.811L10.8793 97.3909C10.9498 97.1387 11.1378 97.0151 11.4432 97.0151H16.2452C16.5037 97.0151 16.6399 97.1585 16.6399 97.4107V109.213C16.6399 109.465 16.5037 109.608 16.2452 109.608H13.5764C13.318 109.608 13.1817 109.465 13.1817 109.213V100.021L10.3954 109.233C10.3249 109.485 10.1369 109.608 9.83152 109.608H6.90893C6.60352 109.608 6.42967 109.485 6.36388 109.233L3.54467 99.9521V109.218C3.54467 109.47 3.38961 109.613 3.14998 109.613H0.758338C0.49991 109.613 0.363647 109.47 0.363647 109.218V97.4156C0.363647 97.1635 0.49991 97.0201 0.758338 97.0201H5.46173L5.45704 97.0151Z" fill="white"/>
<path d="M27.7852 107.468H22.0246L21.3762 109.233C21.2916 109.485 21.1178 109.609 20.8312 109.609H18.012C17.7911 109.609 17.6877 109.431 17.7723 109.193L22.4757 97.3911C22.5603 97.139 22.7341 97.0154 23.0396 97.0154H26.9395C27.2308 97.0154 27.3859 97.139 27.4845 97.3911L32.1879 109.193C32.2725 109.426 32.1691 109.609 31.9671 109.609H28.9928C28.6827 109.609 28.5323 109.485 28.4478 109.233L27.7993 107.468H27.7852ZM23.0678 104.645H26.728L24.9002 99.6804L23.0725 104.645H23.0678Z" fill="white"/>
<path d="M36.7409 103.24L32.6202 97.4109C32.5027 97.2329 32.5873 97.0154 32.7752 97.0154H36.1254C36.3979 97.0154 36.5342 97.0698 36.6893 97.3219L39.1702 101.119L41.6652 97.3219C41.8202 97.0698 41.9706 97.0154 42.2478 97.0154H45.4288C45.6168 97.0154 45.7014 97.2329 45.5839 97.4109L41.449 103.24L45.6873 109.213C45.8235 109.391 45.7201 109.609 45.5322 109.609H42.182C41.9236 109.609 41.7732 109.554 41.6182 109.302L39.0198 105.361L36.4402 109.302C36.2711 109.554 36.1348 109.609 35.8576 109.609H32.6766C32.4886 109.609 32.3853 109.391 32.5215 109.213L36.7456 103.24H36.7409Z" fill="white"/>
<path d="M50.5035 109.213C50.5035 109.465 50.3484 109.609 50.0947 109.609H47.4446C47.1862 109.609 47.0499 109.465 47.0499 109.213V97.4109C47.0499 97.1588 47.1862 97.0154 47.4446 97.0154H50.0947C50.3531 97.0154 50.5035 97.1588 50.5035 97.4109V109.213Z" fill="white"/>
<path d="M63.5282 109.609C63.2557 109.609 63.1006 109.465 63.0489 109.213L61.3574 101.263L59.68 109.213C59.6283 109.465 59.4732 109.609 59.2007 109.609H55.0142C54.7557 109.609 54.5866 109.465 54.5349 109.213L51.6264 97.4109C51.5747 97.1588 51.6781 97.0154 51.9177 97.0154H54.7886C55.0612 97.0154 55.2162 97.1588 55.2679 97.4109L57.3212 106.657L59.2336 97.4109C59.2853 97.1588 59.4544 97.0154 59.7317 97.0154H63.1335C63.406 97.0154 63.5611 97.1588 63.6128 97.4109L65.5252 106.657L67.5785 97.4109C67.6302 97.1588 67.7993 97.0154 68.0766 97.0154H70.7971C71.0367 97.0154 71.1401 97.1588 71.0884 97.4109L68.1846 109.213C68.1329 109.465 67.9779 109.609 67.7054 109.609H63.5329H63.5282Z" fill="white"/>
<path d="M83.8548 97.0154C84.1132 97.0154 84.2495 97.1588 84.2495 97.4109V99.5172C84.2495 99.7694 84.1132 99.9128 83.8548 99.9128H75.6838V101.876H79.7481C79.9878 101.876 80.1428 102.019 80.1428 102.271V104.249C80.1428 104.501 79.9878 104.645 79.7481 104.645H75.6838V106.711H83.8548C84.1132 106.711 84.2495 106.855 84.2495 107.107V109.213C84.2495 109.465 84.1132 109.609 83.8548 109.609H72.6249C72.3665 109.609 72.2302 109.465 72.2302 109.213V97.4109C72.2302 97.1588 72.3665 97.0154 72.6249 97.0154H83.8548Z" fill="white"/>
<path d="M95.0705 107.468H89.3099L88.6615 109.233C88.5769 109.485 88.4031 109.609 88.1165 109.609H85.2972C85.0764 109.609 84.973 109.431 85.0576 109.193L89.761 97.3911C89.8456 97.139 90.0194 97.0154 90.3248 97.0154H94.2248C94.5161 97.0154 94.6711 97.139 94.7698 97.3911L99.4732 109.193C99.5578 109.426 99.4544 109.609 99.2524 109.609H96.2781C95.968 109.609 95.8176 109.485 95.733 109.233L95.0846 107.468H95.0705ZM90.353 104.645H94.0133L92.1855 99.6804L90.3577 104.645H90.353Z" fill="white"/>
<path d="M113.193 99.8931V102.395C113.193 104.407 112.357 105.451 110.337 105.451H110.285L113.569 109.208C113.706 109.371 113.621 109.604 113.433 109.604H110.064C109.74 109.604 109.604 109.53 109.416 109.297L106.474 105.629H104.083V109.208C104.083 109.46 103.928 109.604 103.674 109.604H101.024C100.765 109.604 100.629 109.46 100.629 109.208V97.406C100.629 97.1539 100.765 97.0105 101.024 97.0105H110.341C112.357 97.0105 113.198 97.8758 113.198 99.8881L113.193 99.8931ZM104.083 102.736H108.598C109.59 102.736 109.745 102.573 109.745 101.713V100.936C109.745 100.071 109.59 99.9128 108.598 99.9128H104.083V102.736Z" fill="white"/>
<path d="M66.2575 65.541L66.1893 65.4989V44.1339L60.2448 45.8123V65.4106C60.2448 65.4106 60.2575 65.4821 60.2746 65.5578C60.5047 66.4874 62.0047 71.1651 69.0785 71.9643C69.7561 72.0443 70.489 72.0821 71.2518 72.0821C72.0146 72.0821 72.7475 72.0443 73.4251 71.9643C80.5031 71.1651 82.0031 66.4874 82.229 65.5578C82.2546 65.461 82.2631 65.4063 82.2631 65.4021V39.6077L76.3228 41.2819V65.5073L76.2546 65.5494C76.212 65.5788 75.1253 66.2182 71.256 66.2182C67.3867 66.2182 66.3044 65.5746 66.2618 65.5494L66.2575 65.541Z" fill="#F52230"/>
<path d="M37.7066 65.5412L37.6384 65.4992V52.1855L31.6938 53.8639V65.4108C31.6938 65.4108 31.7066 65.4823 31.7237 65.558C31.9581 66.5171 33.5049 71.3378 40.9239 72.0067C41.4907 72.0571 42.0872 72.0824 42.7009 72.0824C43.4637 72.0824 44.1966 72.0445 44.8742 71.9646C51.9522 71.1654 53.4522 66.4877 53.6781 65.558C53.7036 65.4613 53.7122 65.4066 53.7122 65.4024V47.655L47.7719 49.3292V65.5034L47.7037 65.5454C47.6611 65.5749 46.5744 66.2143 42.7051 66.2143C38.8358 66.2143 37.7535 65.5707 37.7109 65.5454L37.7066 65.5412Z" fill="#F52230"/>
<path d="M62.0815 76.3183L62.1198 76.3351C62.2519 76.4024 62.384 76.4655 62.5204 76.5286C62.661 76.5917 62.7846 76.6464 62.9082 76.6969L63.0531 76.76C63.1639 76.8063 63.2789 76.8525 63.394 76.8946C63.4238 76.9114 63.4451 76.9156 63.4622 76.9241L63.509 76.9409C63.6198 76.9829 63.7306 77.025 63.8499 77.0671C63.8926 77.0839 63.9309 77.0965 63.965 77.1091L64.0034 77.1218C64.1525 77.1722 64.3102 77.2269 64.4678 77.2732C64.5999 77.3153 64.732 77.3573 64.8641 77.3952C65.0985 77.4625 65.3372 77.5298 65.5758 77.5845C65.6695 77.6097 65.759 77.6307 65.8485 77.6518C65.9721 77.6812 66.0914 77.7065 66.2107 77.7317C66.3982 77.7738 66.59 77.8116 66.7775 77.8453C67.0246 77.8916 67.2846 77.9336 67.5445 77.9715C67.6809 77.9925 67.8215 78.0135 67.9664 78.0304C68.1709 78.0556 68.3755 78.0809 68.58 78.1019C68.9891 78.1439 69.4152 78.1734 69.8456 78.1986C70.0161 78.207 70.1866 78.2113 70.3613 78.2197C70.651 78.2281 70.9451 78.2323 71.2476 78.2323C79.391 78.2323 83.6481 74.7451 85.7788 71.8215C88.0927 68.6498 88.489 65.4318 88.4933 65.3981V37.8369L82.5487 39.5153V65.415C82.5487 65.415 82.5359 65.5033 82.5103 65.6169C82.2845 66.5802 80.7888 71.4303 73.4507 72.2422C72.7647 72.3221 72.0189 72.3642 71.2434 72.3642C70.4678 72.3642 69.7263 72.3221 69.036 72.2422C61.7022 71.4303 60.2022 66.5802 59.9764 65.6169C59.9466 65.5033 59.938 65.436 59.938 65.436V45.8882L53.9935 47.5666V65.415C53.9935 65.415 53.9807 65.5033 53.9551 65.6169C53.7293 66.5802 52.2335 71.4303 44.8955 72.2422C44.2094 72.3221 43.4637 72.3642 42.6881 72.3642C42.0703 72.3642 41.4609 72.3389 40.8856 72.2884C33.1981 71.607 31.3871 66.433 31.3871 65.436C31.3871 64.2035 31.3871 53.9395 31.3871 53.9395L25.4468 55.6179V65.4066C25.4468 66.0207 25.8985 68.7255 28.157 71.8215C30.2919 74.7451 34.5447 78.2323 42.6881 78.2323C42.995 78.2323 43.289 78.2281 43.583 78.2197C43.7535 78.2155 43.9239 78.207 44.0944 78.1986C44.5248 78.1734 44.9509 78.1439 45.3557 78.1019C45.5645 78.0809 45.7734 78.0556 45.9736 78.0304C46.093 78.0178 46.2123 77.9967 46.3316 77.9799C46.6171 77.9378 46.8898 77.8916 47.1625 77.8453C47.3543 77.8116 47.5418 77.7738 47.725 77.7317C47.8358 77.7065 47.9424 77.6854 48.0489 77.6602C48.1767 77.6308 48.2833 77.6055 48.3898 77.5803C48.3898 77.5803 48.4154 77.5719 48.4367 77.5677C48.5901 77.5298 48.7435 77.4877 48.8969 77.4457L48.9779 77.4204C49.1526 77.3741 49.3103 77.3237 49.4637 77.2732C49.6341 77.2227 49.8003 77.168 49.9622 77.1091L49.9921 77.1007C50.1497 77.0418 50.3117 76.9871 50.4651 76.9283C50.6142 76.8694 50.7634 76.8105 50.9125 76.7516L50.9722 76.7263C51.1171 76.6632 51.262 76.6001 51.4026 76.5371C51.556 76.4697 51.7009 76.3982 51.8458 76.3267C51.9736 76.2636 52.1014 76.2005 52.225 76.1374L52.3273 76.0827C52.421 76.0323 52.5105 75.9818 52.6 75.9355C52.6426 75.9103 52.681 75.8892 52.7151 75.8682C52.8259 75.8051 52.9281 75.7462 53.0304 75.6831C53.1582 75.6074 53.2818 75.5317 53.4011 75.4518C53.5247 75.3718 53.6313 75.3003 53.7378 75.2246C54.2065 74.9007 54.6455 74.5642 55.0418 74.215C55.1398 74.1309 55.2378 74.0426 55.3315 73.9542C55.8727 73.4579 56.3798 72.911 56.8486 72.3221L56.9636 72.1749L57.0787 72.3179C57.3898 72.7049 57.7136 73.0751 58.046 73.4158C58.1312 73.5041 58.225 73.5925 58.3145 73.6808C58.404 73.7691 58.4977 73.8617 58.5957 73.9458C58.6937 74.0384 58.7917 74.1225 58.8897 74.2108C58.9664 74.2823 59.0474 74.3454 59.1241 74.4127C59.4906 74.7156 59.84 74.9806 60.1937 75.2204C60.3045 75.3003 60.4153 75.3718 60.5304 75.4476C60.6497 75.5275 60.7733 75.6032 60.8968 75.6789C60.9991 75.742 61.1014 75.8009 61.2037 75.8598C61.2505 75.8892 61.2846 75.9103 61.3272 75.9313C61.4167 75.9818 61.5105 76.0323 61.6 76.0785C61.634 76.0996 61.6681 76.1164 61.7022 76.1332C61.8215 76.1963 61.9281 76.251 62.0389 76.3057L62.0687 76.3225L62.0815 76.3183Z" fill="#F52230"/>
<path d="M71.2521 78.5268C70.9452 78.5268 70.6512 78.5226 70.3572 78.5142C70.1782 78.51 70.0077 78.5015 69.8373 78.4931C69.3984 78.4679 68.968 78.4384 68.5589 78.3964C68.3458 78.3711 68.1413 78.3501 67.9367 78.3249C67.7918 78.308 67.6512 78.287 67.5106 78.266C67.2464 78.2281 66.9864 78.1819 66.735 78.1356C66.539 78.1019 66.3473 78.0641 66.1598 78.022C66.0362 77.9968 65.9126 77.9673 65.7933 77.9379C65.7038 77.9168 65.6143 77.8958 65.5206 77.8706C65.2777 77.8117 65.0348 77.7444 64.7961 77.6771C64.6598 77.6392 64.5234 77.5971 64.3913 77.5509C64.2336 77.5004 64.076 77.4499 63.9226 77.3952L63.8842 77.3826C63.8458 77.37 63.8032 77.3532 63.7649 77.3405C63.6498 77.3027 63.5348 77.2564 63.4155 77.2143L63.3771 77.1975C63.3473 77.1891 63.3217 77.1765 63.2961 77.1639C63.1896 77.126 63.0703 77.0797 62.951 77.0293L62.8061 76.9662C62.6825 76.9157 62.5589 76.8568 62.4353 76.8021C62.2734 76.7264 62.1328 76.6633 62.0007 76.596C61.9709 76.5834 61.9581 76.575 61.941 76.5707C61.8174 76.5119 61.7109 76.453 61.6001 76.3941C61.5532 76.3688 61.5192 76.352 61.4851 76.331C61.3956 76.2847 61.3061 76.2342 61.2166 76.1837C61.1697 76.1585 61.1314 76.1333 61.0845 76.108C60.9865 76.0533 60.88 75.9902 60.7734 75.9271C60.6456 75.8514 60.522 75.7715 60.3984 75.6916C60.2791 75.6159 60.1641 75.5401 60.0533 75.4602C59.691 75.2162 59.3331 74.947 58.9624 74.6357C58.8814 74.5684 58.8004 74.4969 58.7237 74.4296C58.6257 74.3413 58.5234 74.2529 58.4254 74.1604C58.3317 74.0763 58.2337 73.9837 58.1399 73.8912C58.0462 73.8028 57.9524 73.7103 57.8629 73.6178C57.5689 73.3149 57.2749 72.9868 56.9936 72.6418C56.5462 73.1887 56.0646 73.6977 55.5618 74.1604C55.4681 74.2487 55.3658 74.3371 55.2635 74.4296C54.8587 74.7872 54.4112 75.1321 53.934 75.4602C53.8274 75.5359 53.7166 75.6075 53.6059 75.6832C53.4652 75.7715 53.3417 75.8514 53.2138 75.9314C53.1115 75.9944 53.005 76.0575 52.8985 76.1164C52.8644 76.1375 52.8218 76.1627 52.7834 76.1837C52.6897 76.2384 52.5959 76.2847 52.5064 76.3352L52.4042 76.3899C52.2721 76.4572 52.1442 76.5203 52.0164 76.5876C51.8672 76.6591 51.7181 76.7306 51.5647 76.8021C51.4155 76.8694 51.2621 76.9367 51.1087 77.004L51.0789 77.0166C50.9255 77.0797 50.7721 77.1428 50.6144 77.2017C50.461 77.2606 50.2991 77.3195 50.1371 77.3784C50.1286 77.3784 50.1116 77.3868 50.0902 77.3952C49.9368 77.4499 49.7664 77.5046 49.5959 77.5593C49.4383 77.6098 49.2806 77.6602 49.1144 77.7023L49.0334 77.7275C48.863 77.7738 48.7053 77.8159 48.5434 77.8579L48.5008 77.8706C48.39 77.9 48.2834 77.9253 48.1726 77.9505C48.0448 77.9799 47.934 78.0052 47.8232 78.0262C47.6357 78.0683 47.444 78.1061 47.2479 78.1398C46.971 78.1903 46.694 78.2365 46.4042 78.2786C46.2849 78.2954 46.1656 78.3122 46.042 78.3291C45.846 78.3543 45.6457 78.3753 45.4411 78.4006C45.0065 78.4427 44.5761 78.4763 44.1414 78.5015C43.971 78.51 43.8005 78.5142 43.6258 78.5226C43.3275 78.531 43.0292 78.5394 42.7224 78.5394C34.4469 78.5394 30.1174 74.9807 27.9441 71.9982C25.5876 68.7634 25.187 66.21 25.187 65.4487V55.7189L19.2424 57.3932V65.4318C19.2424 66.3068 19.5152 70.282 22.4938 74.926C25.2637 79.2503 31.025 84.4075 42.7267 84.4075C48.3729 84.4075 53.1499 83.2213 56.9212 80.8824L56.9979 80.832L57.0746 80.8824C60.8501 83.2213 65.6271 84.4075 71.2734 84.4075C82.975 84.4075 88.7363 79.2503 91.5062 74.926C94.5147 70.2315 94.7576 65.4739 94.7576 65.4276V36.0955L88.813 37.7739V65.436C88.8088 65.4865 88.4082 68.7676 86.0517 72.0024C83.8784 74.9849 79.5489 78.5436 71.2734 78.5436L71.2521 78.5268Z" fill="#F52230"/>
<path d="M47.7465 19.2526L47.8147 19.2947V40.6596L53.7593 38.9812V19.383C53.7593 19.383 53.7465 19.3115 53.7295 19.2358C53.4994 18.3061 51.9994 13.6285 44.9255 12.8292C44.248 12.7493 43.515 12.7114 42.7523 12.7114C41.9895 12.7114 41.2565 12.7493 40.579 12.8292C33.5009 13.6285 32.0009 18.3061 31.7751 19.2358C31.7495 19.3325 31.741 19.3872 31.741 19.3914V45.1859L37.6813 43.5117V19.2862L37.7495 19.2442C37.7921 19.2147 38.8787 18.5753 42.748 18.5753C46.6173 18.5753 47.6997 19.2189 47.7423 19.2442L47.7465 19.2526Z" fill="#F52230"/>
<path d="M76.2933 19.2526L76.3615 19.2947V32.6083L82.306 30.9299V19.383C82.306 19.383 82.2933 19.3115 82.2762 19.2358C82.0418 18.2767 80.495 13.456 73.076 12.7871C72.5092 12.7367 71.9126 12.7114 71.299 12.7114C70.5362 12.7114 69.8033 12.7493 69.1257 12.8292C62.0477 13.6285 60.5477 18.3061 60.3218 19.2358C60.2962 19.3325 60.2877 19.3872 60.2877 19.3914V37.1388L66.228 35.4646V19.2904L66.2962 19.2484C66.3388 19.2189 67.4255 18.5795 71.2948 18.5795C75.164 18.5795 76.2464 19.2231 76.289 19.2484L76.2933 19.2526Z" fill="#F52230"/>
<path d="M51.9184 8.47525L51.88 8.45843C51.7479 8.39112 51.6158 8.32802 51.4794 8.26493C51.3388 8.20183 51.2152 8.14714 51.0917 8.09667L50.9468 8.03357C50.836 7.9873 50.7209 7.94102 50.6059 7.89896C50.576 7.88213 50.5547 7.87793 50.5377 7.86951L50.4908 7.85269C50.38 7.81062 50.2692 7.76856 50.1499 7.72649C50.1073 7.70966 50.0689 7.69705 50.0348 7.68443L49.9965 7.6718C49.8474 7.62133 49.6897 7.56664 49.532 7.52037C49.3999 7.47831 49.2678 7.43624 49.1357 7.39838C48.9013 7.33108 48.6627 7.26377 48.4241 7.20909C48.3303 7.18385 48.2408 7.16281 48.1513 7.14178C48.0278 7.11234 47.9084 7.0871 47.7891 7.06186C47.6016 7.01979 47.4099 6.98193 47.2224 6.94828C46.9752 6.90201 46.7153 6.85994 46.4553 6.82209C46.319 6.80105 46.1783 6.78002 46.0335 6.76319C45.8289 6.73795 45.6244 6.71272 45.4198 6.69168C45.0107 6.64962 44.5846 6.62017 44.1542 6.59493C43.9837 6.58652 43.8133 6.58231 43.6386 6.5739C43.3488 6.56549 43.0548 6.56128 42.7522 6.56128C34.6088 6.56128 30.3517 10.0485 28.2211 12.972C25.9072 16.1438 25.5109 19.3618 25.5066 19.3954V46.9567L31.4512 45.2782V19.3786C31.4512 19.3786 31.4639 19.2903 31.4895 19.1767C31.7154 18.2134 33.2111 13.3632 40.5491 12.5514C41.2352 12.4715 41.9809 12.4294 42.7565 12.4294C43.532 12.4294 44.2735 12.4715 44.9639 12.5514C52.2976 13.3632 53.7976 18.2134 54.0235 19.1767C54.0533 19.2903 54.0618 19.3576 54.0618 19.3576V38.9053L60.0064 37.2269V19.3786C60.0064 19.3786 60.0192 19.2903 60.0447 19.1767C60.2706 18.2134 61.7663 13.3632 69.1043 12.5514C69.7904 12.4715 70.5361 12.4294 71.3117 12.4294C71.9296 12.4294 72.539 12.4546 73.1143 12.5051C80.8017 13.1866 82.6128 18.3606 82.6128 19.3576C82.6128 20.5901 82.6128 30.854 82.6128 30.854L88.5531 29.1756V19.387C88.5531 18.7729 88.1014 16.0681 85.8429 12.972C83.7079 10.0485 79.4551 6.56128 71.3117 6.56128C71.0049 6.56128 70.7109 6.56549 70.4168 6.5739C70.2464 6.57811 70.0759 6.58652 69.9055 6.59493C69.4751 6.62017 69.0489 6.64962 68.6441 6.69168C68.4353 6.71272 68.2265 6.73795 68.0262 6.76319C67.9069 6.77581 67.7876 6.79685 67.6683 6.81367C67.3828 6.85574 67.11 6.90201 66.8373 6.94828C66.6455 6.98193 66.458 7.01979 66.2748 7.06186C66.164 7.0871 66.0575 7.10813 65.9509 7.13337C65.8231 7.16281 65.7166 7.18805 65.61 7.21329C65.61 7.21329 65.5845 7.22171 65.5632 7.22591C65.4098 7.26377 65.2563 7.30584 65.1029 7.3479L65.022 7.37314C64.8473 7.41941 64.6896 7.46989 64.5362 7.52037C64.3657 7.57085 64.1995 7.62553 64.0376 7.68443L64.0078 7.69284C63.8501 7.75173 63.6882 7.80642 63.5348 7.86531C63.3856 7.9242 63.2365 7.98309 63.0873 8.04198L63.0277 8.06722C62.8828 8.13032 62.7379 8.19342 62.5973 8.25651C62.4439 8.32382 62.299 8.39533 62.1541 8.46684C62.0263 8.52994 61.8984 8.59304 61.7748 8.65613L61.6726 8.71082C61.5788 8.7613 61.4893 8.81178 61.3998 8.85805C61.3572 8.88329 61.3189 8.90432 61.2848 8.92535C61.174 8.98845 61.0717 9.04734 60.9694 9.11044C60.8416 9.18616 60.718 9.26188 60.5987 9.3418C60.4751 9.42172 60.3686 9.49324 60.2621 9.56895C59.7933 9.89286 59.3544 10.2294 58.9581 10.5785C58.8601 10.6627 58.7621 10.751 58.6683 10.8393C58.1271 11.3357 57.62 11.8825 57.1513 12.4715L57.0362 12.6187L56.9212 12.4757C56.6101 12.0887 56.2862 11.7185 55.9538 11.3778C55.8686 11.2894 55.7749 11.2011 55.6854 11.1128C55.5959 11.0244 55.5021 10.9319 55.4041 10.8477C55.3061 10.7552 55.2081 10.6711 55.1101 10.5827C55.0334 10.5112 54.9524 10.4481 54.8757 10.3808C54.5093 10.0779 54.1598 9.81293 53.8061 9.57316C53.6953 9.49324 53.5845 9.42173 53.4695 9.34601C53.3502 9.26608 53.2266 9.19036 53.103 9.11465C53.0007 9.05155 52.8985 8.99266 52.7962 8.93377C52.7493 8.90432 52.7152 8.88329 52.6726 8.86226C52.5831 8.81178 52.4894 8.7613 52.3999 8.71503C52.3658 8.69399 52.3317 8.67717 52.2976 8.66034C52.1783 8.59724 52.0718 8.54256 51.961 8.48787L51.9311 8.47105L51.9184 8.47525Z" fill="#F52230"/>
<path d="M42.748 6.26721C43.0548 6.26721 43.3488 6.27142 43.6428 6.27983C43.8218 6.28404 43.9923 6.29245 44.1627 6.30086C44.6017 6.3261 45.032 6.35555 45.4411 6.39761C45.6542 6.42285 45.8587 6.44389 46.0633 6.46913C46.2082 6.48595 46.3488 6.50698 46.4894 6.52802C46.7536 6.56588 47.0136 6.61215 47.265 6.65842C47.461 6.69207 47.6528 6.72993 47.8403 6.772C47.9638 6.79723 48.0874 6.82668 48.2067 6.85613C48.2962 6.87716 48.3857 6.89819 48.4795 6.92343C48.7224 6.98232 48.9653 7.04963 49.2039 7.11693C49.3403 7.15479 49.4766 7.19686 49.6087 7.24313C49.7664 7.29361 49.9241 7.34408 50.0775 7.39877L50.1158 7.41139C50.1542 7.42401 50.1968 7.44084 50.2351 7.45346C50.3502 7.49131 50.4653 7.53759 50.5846 7.57965L50.6229 7.59648C50.6527 7.60489 50.6783 7.61751 50.7039 7.63013C50.8104 7.66799 50.9297 7.71426 51.0491 7.76474L51.1939 7.82784C51.3175 7.87832 51.4411 7.93721 51.5647 7.99189C51.7266 8.06761 51.8672 8.13071 51.9993 8.19801C52.0292 8.21063 52.0419 8.21904 52.059 8.22325C52.1826 8.28214 52.2891 8.34103 52.3999 8.39993C52.4468 8.42517 52.4809 8.44199 52.515 8.46302C52.6044 8.50929 52.6939 8.55977 52.7834 8.61025C52.8303 8.63549 52.8686 8.66073 52.9155 8.68597C53.0135 8.74065 53.1201 8.80375 53.2266 8.86685C53.3544 8.94257 53.478 9.02249 53.6016 9.10242C53.7209 9.17813 53.836 9.25385 53.9468 9.33378C54.309 9.57775 54.6669 9.84697 55.0377 10.1583C55.1186 10.2256 55.1996 10.2971 55.2763 10.3644C55.3743 10.4527 55.4766 10.5411 55.5746 10.6336C55.6683 10.7177 55.7664 10.8103 55.8601 10.9028C55.9539 10.9912 56.0476 11.0837 56.1371 11.1762C56.4311 11.4791 56.7252 11.8072 57.0064 12.1522C57.4538 11.6053 57.9354 11.0963 58.4382 10.6336C58.532 10.5453 58.6342 10.4569 58.7365 10.3644C59.1413 10.0068 59.5888 9.66189 60.066 9.33378C60.1726 9.25806 60.2834 9.18655 60.3942 9.11083C60.5348 9.02249 60.6584 8.94257 60.7862 8.86264C60.8885 8.79955 60.995 8.73645 61.1015 8.67756C61.1356 8.65652 61.1783 8.63129 61.2166 8.61025C61.3104 8.55557 61.4041 8.5093 61.4936 8.45882L61.5959 8.40413C61.728 8.33683 61.8558 8.27373 61.9836 8.20642C62.1328 8.13491 62.2819 8.0634 62.4353 7.99189C62.5845 7.92459 62.7379 7.85728 62.8913 7.78998L62.9211 7.77736C63.0745 7.71426 63.228 7.65116 63.3856 7.59227C63.539 7.53338 63.701 7.47449 63.8629 7.4156C63.8714 7.4156 63.8885 7.40718 63.9098 7.39877C64.0632 7.34408 64.2336 7.2894 64.4041 7.23472C64.5618 7.18424 64.7194 7.13376 64.8856 7.09169L64.9666 7.06645C65.137 7.02018 65.2947 6.97812 65.4566 6.93605L65.4992 6.92343C65.61 6.89399 65.7166 6.86875 65.8274 6.84351C65.9552 6.81406 66.066 6.78882 66.1768 6.76779C66.3643 6.72572 66.5561 6.68787 66.7521 6.65421C67.0291 6.60373 67.3061 6.55746 67.5958 6.5154C67.7151 6.49857 67.8345 6.48174 67.958 6.46492C68.1541 6.43968 68.3543 6.41865 68.5589 6.39341C68.9935 6.35134 69.4239 6.31769 69.8586 6.29245C70.0291 6.28404 70.1995 6.27983 70.3742 6.27142C70.6725 6.26301 70.9708 6.25459 71.2776 6.25459C79.5531 6.25459 83.8827 9.81332 86.0559 12.7958C88.4125 16.0306 88.813 18.5839 88.813 19.3453V29.075L94.7576 27.4008V19.3622C94.7576 18.4872 94.4849 14.512 91.5062 9.86801C88.7363 5.54369 82.975 0.386475 71.2734 0.386475C65.6271 0.386475 60.8501 1.57272 57.0788 3.91155L57.0021 3.96203L56.9254 3.91155C53.1499 1.57272 48.3729 0.386475 42.7267 0.386475C31.025 0.386475 25.2637 5.54369 22.4938 9.86801C19.4853 14.5625 19.2424 19.3201 19.2424 19.3664V48.6985L25.187 47.0201V19.358C25.1913 19.3075 25.5918 16.0264 27.9483 12.7915C30.1216 9.80911 34.4511 6.25039 42.7267 6.25039L42.748 6.26721Z" fill="#F52230"/>
</g>
<defs>
<clipPath id="clip0_131_1200">
<rect width="113.273" height="109.227" fill="white" transform="translate(0.363647 0.386475)"/>
</clipPath>
</defs>
</svg>
