<svg width="134" height="40" viewBox="0 0 134 40" fill="none" xmlns="http://www.w3.org/2000/svg">
<g clip-path="url(#clip0_215_4607)">
<path d="M133.75 0.860596H126.858V22.0753H133.75V0.860596Z" fill="white"/>
<path opacity="0.8" d="M133.75 28.8774H126.858V33.1535H133.75V28.8774Z" fill="white"/>
<path opacity="0.7" d="M133.75 34.4163H126.858V39.2213H133.75V34.4163Z" fill="white"/>
<path opacity="0.9" d="M133.75 23.3389H126.858V27.6149H133.75V23.3389Z" fill="white"/>
<g opacity="0.8">
<path d="M68.9619 28.8123H62.0703V33.0883H68.9619V28.8123Z" fill="white"/>
<path d="M84.4498 28.8123H76.1699L78.8907 33.0883H87.207L84.4498 28.8123Z" fill="white"/>
</g>
<g opacity="0.9">
<path d="M75.3664 27.5497H83.6352L80.8752 23.2737H72.6456L75.3664 27.5497Z" fill="white"/>
<path d="M62.0703 27.5497H68.9591V24.8662L70.3699 23.2737H62.0703V27.5497Z" fill="white"/>
</g>
<g opacity="0.7">
<path d="M68.9619 34.3511H62.0703V39.1618H68.9619V34.3511Z" fill="white"/>
<path d="M79.6911 34.3511L82.7534 39.1589H91.1257L88.0214 34.3511H79.6911Z" fill="white"/>
</g>
<path d="M71.4895 22.0101L71.6939 21.7777L71.8422 22.0101H80.0606L76.4469 16.4089L90.2664 0.801025H80.5505L68.9591 14.1424V0.801025H62.0703V22.0101H71.4895Z" fill="white"/>
<g opacity="0.8">
<path d="M104.343 28.8066H97.5239L96.295 33.0827H103.24L104.343 28.8066Z" fill="white"/>
<path d="M119.609 28.8066H112.785L113.888 33.0827H120.836L119.609 28.8066Z" fill="white"/>
</g>
<path opacity="0.9" d="M97.885 27.5441H104.667L104.67 27.5328H112.458L112.46 27.5441H119.246L118.019 23.2681H99.1138L97.885 27.5441Z" fill="white"/>
<path d="M117.658 22.0044L111.576 0.79541H105.56L99.4722 22.0044H117.656H117.658ZM108.564 12.4539L110.859 21.35H106.269L108.564 12.4539Z" fill="white"/>
<g opacity="0.7">
<path d="M114.215 34.3455L115.455 39.1562H122.577L121.197 34.3455H114.215Z" fill="white"/>
<path d="M95.9341 34.3455L94.5513 39.1562H101.672L102.912 34.3455H95.9341Z" fill="white"/>
</g>
<g opacity="0.8">
<path d="M40.4086 28.8123H33.5898L32.361 33.0883H39.3057L40.4086 28.8123Z" fill="white"/>
<path d="M55.6753 28.8123H48.8509L49.9538 33.0883H56.9013L55.6753 28.8123Z" fill="white"/>
</g>
<path opacity="0.9" d="M33.9508 27.5497H40.7332L40.736 27.5384H48.5233L48.5261 27.5497H55.3113L54.0853 23.2737H35.1796L33.9508 27.5497Z" fill="white"/>
<path d="M53.7243 22.0101L47.6417 0.801025H41.6263L35.5381 22.0101H53.7215H53.7243ZM44.6298 12.4595L46.9251 21.3556H42.3345L44.6298 12.4595Z" fill="white"/>
<g opacity="0.7">
<path d="M50.2814 34.3511L51.5214 39.1589H58.6425L57.2625 34.3511H50.2814Z" fill="white"/>
<path d="M31.9999 34.3511L30.6171 39.1589H37.7382L38.9782 34.3511H31.9999Z" fill="white"/>
</g>
<g opacity="0.9">
<path d="M7.14157 23.2737H0.25V27.5497H7.14157V23.2737Z" fill="white"/>
<path d="M21.5658 27.5497H29.2607C29.7394 26.1981 30.0921 24.7642 30.3048 23.2737H22.831C22.5903 24.8521 22.1676 26.3001 21.5658 27.5497Z" fill="white"/>
</g>
<path opacity="0.8" d="M26.2683 33.0883C27.2536 31.8131 28.0962 30.3765 28.7652 28.8123H20.8463C19.4551 30.895 17.4229 32.1815 14.7357 32.1815H7.14437V28.8123H0.25V33.0883H26.2683Z" fill="white"/>
<path opacity="0.7" d="M0.25 34.3511V39.1561H14.7329C18.7469 39.1561 22.4083 37.3401 25.1962 34.3511H0.25Z" fill="white"/>
<path d="M7.14157 22.0101V7.77065H14.7329C20.2893 7.77065 23.0773 13.2358 23.0773 19.9759C23.0773 20.67 23.0409 21.3472 22.9821 22.0101H30.4531C30.5119 21.3415 30.5427 20.6615 30.5427 19.9759C30.5455 9.38272 23.4664 0.79541 14.7329 0.79541H0.25V22.0101H7.14157Z" fill="white"/>
</g>
<defs>
<clipPath id="clip0_215_4607">
<rect width="133.5" height="38.4318" fill="white" transform="translate(0.25 0.79541)"/>
</clipPath>
</defs>
</svg>
