<svg width="134" height="35" viewBox="0 0 134 35" fill="none" xmlns="http://www.w3.org/2000/svg">
<g clip-path="url(#clip0_191_10795)">
<path d="M72.0266 11.9911V20.709H86.3721C86.631 20.273 87.1107 19.9814 87.6557 19.9814C88.4896 19.9814 89.1628 20.6545 89.1628 21.4884C89.1628 22.3223 88.4896 22.9928 87.6557 22.9928C87.1107 22.9928 86.6337 22.7039 86.3721 22.2678H72.0266V27.7701H89.3181C91.4437 27.7701 93.1661 26.0477 93.1661 23.922V15.2041H78.8178C78.5535 15.6401 78.0739 15.9317 77.5288 15.9317C76.6976 15.9317 76.0245 15.2586 76.0245 14.4247C76.0245 13.5908 76.6976 12.9204 77.5288 12.9204C78.0739 12.9204 78.5508 13.2092 78.8151 13.6453H93.1661V8.14307H75.8746C73.7489 8.14307 72.0266 9.8654 72.0266 11.9911Z" fill="#1CC7C7"/>
<path d="M0.25 11.9911V20.709H14.5955C14.8544 20.273 15.3341 19.9814 15.8791 19.9814C16.713 19.9814 17.3861 20.6545 17.3861 21.4884C17.3861 22.3223 16.713 22.9928 15.8791 22.9928C15.3341 22.9928 14.8571 22.7039 14.5955 22.2678H0.25V27.7701H17.5415C19.6671 27.7701 21.3895 26.0477 21.3895 23.922V15.2041H7.04123C6.77688 15.6401 6.29725 15.9317 5.7522 15.9317C4.92102 15.9317 4.24789 15.2586 4.24789 14.4247C4.24789 13.5908 4.92102 12.9204 5.7522 12.9204C6.29725 12.9204 6.77416 13.2092 7.03851 13.6453H21.3895V8.14307H4.098C1.97233 8.14307 0.25 9.8654 0.25 11.9911Z" fill="#1CC7C7"/>
<path d="M118.113 12.9204C118.658 12.9204 119.135 13.2092 119.399 13.6453H133.75V8.14307H116.458C114.333 8.14307 112.61 9.8654 112.61 11.9911V20.709H126.956C127.215 20.273 127.695 19.9814 128.24 19.9814C129.073 19.9814 129.747 20.6545 129.747 21.4884C129.747 22.3223 129.073 22.9928 128.24 22.9928C127.695 22.9928 127.218 22.7039 126.956 22.2678H112.61V27.7701H129.902C132.028 27.7701 133.75 26.0477 133.75 23.922V15.2041H119.402C119.137 15.6401 118.658 15.9317 118.113 15.9317C117.281 15.9317 116.608 15.2586 116.608 14.4247C116.608 13.5908 117.281 12.9204 118.113 12.9204Z" fill="#1CC7C7"/>
<path d="M65.3445 14.61H67.7182V9.10775H65.3445V8.14575H59.8423V24.4398C59.8423 26.282 61.3357 27.7727 63.1752 27.7727H69.7811V22.2705H65.3445V14.6127V14.61Z" fill="#1CC7C7"/>
<path d="M102.931 18.9185L99.5867 8.14575H94.0845L100.173 27.77H100.184L97.9924 34.8338H103.497L111.774 8.14575H106.272L102.931 18.9185Z" fill="#1CC7C7"/>
<path d="M65.3444 6.85946V3.95166C65.3444 2.2157 63.9355 0.806763 62.1995 0.806763H51.7429C49.9715 0.806763 48.5353 2.24295 48.5353 4.01434V27.7727H54.0375V14.6127H57.7683V9.11049H54.0375V6.31169H59.3053C59.8395 6.31169 59.8395 6.86218 59.8395 6.86218H65.3417L65.3444 6.85946Z" fill="#1CC7C7"/>
<path d="M43.2675 8.14307H26.6601C24.9895 8.14307 23.6378 9.4975 23.6378 11.1681V24.7451C23.6378 26.4156 24.9895 27.7701 26.6601 27.7701H43.2675C44.9354 27.7701 46.2898 26.4156 46.2898 24.7451V11.1681C46.2898 9.4975 44.9354 8.14307 43.2675 8.14307ZM40.7876 22.2678H33.0616L34.6068 20.9488C34.6668 20.8971 34.7131 20.8371 34.7458 20.7717C34.9393 20.4065 34.6831 19.9105 34.2171 19.916C34.0781 19.916 33.9473 19.9678 33.8437 20.0577L31.2548 22.2678H30.4754L31.0858 21.7446L34.6995 18.6597C35.1137 18.3027 34.8575 17.6214 34.3098 17.6295C34.1708 17.6295 34.04 17.6813 33.9364 17.7712L29.8949 21.2432L28.6713 22.2706H27.8891L31.0858 19.5345L34.555 16.5449L34.7594 16.3705C35.1736 16.0162 34.9175 15.3349 34.3697 15.3404C34.2307 15.3431 34.0999 15.3921 33.9964 15.4821L29.14 19.6871V13.648H40.7876V22.2706V22.2678Z" fill="#1CC7C7"/>
</g>
<defs>
<clipPath id="clip0_191_10795">
<rect width="133.5" height="34.027" fill="white" transform="translate(0.25 0.806763)"/>
</clipPath>
</defs>
</svg>
