<svg width="92" height="102" viewBox="0 0 92 102" fill="none" xmlns="http://www.w3.org/2000/svg">
<g clip-path="url(#clip0_190_3774)">
<path d="M88.162 73.5387L75.9688 51.615L74.0645 52.6546L58.5624 24.7661L60.4812 23.7265L48.2518 1.73836C47.2743 -0.00377104 44.7329 -0.00377104 43.7626 1.73836L31.5188 23.7696L33.4303 24.8091L17.9282 52.6976L16.0167 51.6581L3.84522 73.5387C2.90395 75.2306 4.13485 77.2954 6.08981 77.2954H30.621V75.3238H61.3935V77.2954H85.9102C87.8651 77.2954 89.096 75.2306 88.1547 73.5387H88.162ZM10.8976 70.205L35.4142 26.1139L44.284 10.0332C45.0153 8.7069 46.934 8.7069 47.6653 10.0332L81.0879 70.1476C81.7975 71.4166 80.8635 72.9795 79.4009 72.9795L12.5919 73.0368C11.122 73.0368 10.1952 71.4811 10.8976 70.205Z" fill="#58F1F5"/>
<path d="M43.502 24.3716V39.5705C43.502 47.0122 44.0306 53.8875 44.0306 53.8875H47.9477C47.9477 53.8875 48.4763 47.0122 48.4763 39.5705V24.3716H43.502Z" fill="#58F1F5"/>
<path d="M45.9855 66.5776C48.3128 66.5776 50.1995 64.6164 50.1995 62.1972C50.1995 59.778 48.3128 57.8168 45.9855 57.8168C43.6581 57.8168 41.7714 59.778 41.7714 62.1972C41.7714 64.6164 43.6581 66.5776 45.9855 66.5776Z" fill="#58F1F5"/>
<path d="M1.803 101.568H0.706529C0.516475 101.568 0.450686 101.48 0.509165 101.304L4.60996 89.696C4.66844 89.5198 4.80732 89.4318 5.02662 89.4318H6.60553C6.82482 89.4318 6.96371 89.5198 7.02219 89.696L11.123 101.304C11.1815 101.48 11.1157 101.568 10.9256 101.568H9.80722C9.6464 101.568 9.54407 101.48 9.50021 101.304L8.46953 98.5482H3.16262L2.13194 101.304C2.07346 101.48 1.96381 101.568 1.803 101.568ZM5.77221 90.8474L3.51349 97.378H8.11866L5.85993 90.8474H5.77221Z" fill="#58F1F5"/>
<path d="M16.9132 101.568H15.9264C15.7217 101.568 15.6194 101.48 15.6194 101.304V90.8096C15.6194 90.6964 15.5463 90.6397 15.4001 90.6397H12.4177C12.1984 90.6397 12.0887 90.5517 12.0887 90.3755V89.696C12.0887 89.5198 12.1984 89.4318 12.4177 89.4318H20.4219C20.6412 89.4318 20.7508 89.5198 20.7508 89.696V90.3755C20.7508 90.5517 20.6412 90.6397 20.4219 90.6397H17.4395C17.2933 90.6397 17.2202 90.6964 17.2202 90.8096V101.304C17.2202 101.48 17.1179 101.568 16.9132 101.568Z" fill="#58F1F5"/>
<path d="M26.2717 101.568H25.2849C25.0802 101.568 24.9779 101.48 24.9779 101.304V90.8096C24.9779 90.6964 24.9048 90.6397 24.7586 90.6397H21.7762C21.5569 90.6397 21.4473 90.5517 21.4473 90.3755V89.696C21.4473 89.5198 21.5569 89.4318 21.7762 89.4318H29.7804C29.9997 89.4318 30.1094 89.5198 30.1094 89.696V90.3755C30.1094 90.5517 29.9997 90.6397 29.7804 90.6397H26.798C26.6518 90.6397 26.5787 90.6964 26.5787 90.8096V101.304C26.5787 101.48 26.4764 101.568 26.2717 101.568Z" fill="#58F1F5"/>
<path d="M39.3802 101.568H32.4943C32.2897 101.568 32.1873 101.48 32.1873 101.304V89.696C32.1873 89.5198 32.2897 89.4318 32.4943 89.4318H39.3802C39.5848 89.4318 39.6872 89.5198 39.6872 89.696V90.3755C39.6872 90.5517 39.5848 90.6397 39.3802 90.6397H34.0075C33.8613 90.6397 33.7882 90.6964 33.7882 90.8096V94.6223C33.7882 94.7355 33.8613 94.7921 34.0075 94.7921H38.7004C38.905 94.7921 39.0074 94.8802 39.0074 95.0564V95.7359C39.0074 95.912 38.905 96.0001 38.7004 96.0001H34.0075C33.8613 96.0001 33.7882 96.0567 33.7882 96.17V100.19C33.7882 100.304 33.8613 100.36 34.0075 100.36H39.3802C39.5848 100.36 39.6872 100.448 39.6872 100.624V101.304C39.6872 101.48 39.5848 101.568 39.3802 101.568Z" fill="#58F1F5"/>
<path d="M43.9956 101.568H43.0307C42.8261 101.568 42.7237 101.48 42.7237 101.304V89.696C42.7237 89.5198 42.8261 89.4318 43.0307 89.4318H43.9298C44.1053 89.4318 44.2222 89.4821 44.2807 89.5828L50.3332 98.7369H50.4209V89.696C50.4209 89.5198 50.5233 89.4318 50.7279 89.4318H51.6928C51.8975 89.4318 51.9998 89.5198 51.9998 89.696V101.304C51.9998 101.48 51.8975 101.568 51.6928 101.568H50.8814C50.7206 101.568 50.5671 101.486 50.4209 101.323L44.3903 92.263H44.3026V101.304C44.3026 101.48 44.2003 101.568 43.9956 101.568Z" fill="#58F1F5"/>
<path d="M58.9088 101.568H57.922C57.7173 101.568 57.615 101.48 57.615 101.304V90.8096C57.615 90.6964 57.5419 90.6397 57.3957 90.6397H54.4133C54.194 90.6397 54.0843 90.5517 54.0843 90.3755V89.696C54.0843 89.5198 54.194 89.4318 54.4133 89.4318H62.4175C62.6368 89.4318 62.7464 89.5198 62.7464 89.696V90.3755C62.7464 90.5517 62.6368 90.6397 62.4175 90.6397H59.4351C59.2889 90.6397 59.2158 90.6964 59.2158 90.8096V101.304C59.2158 101.48 59.1135 101.568 58.9088 101.568Z" fill="#58F1F5"/>
<path d="M66.5349 89.696V101.304C66.5349 101.48 66.4326 101.568 66.2279 101.568H65.2411C65.0364 101.568 64.934 101.48 64.934 101.304V89.696C64.934 89.5198 65.0364 89.4318 65.2411 89.4318H66.2279C66.4326 89.4318 66.5349 89.5198 66.5349 89.696Z" fill="#58F1F5"/>
<path d="M73.3157 100.36H75.5525C76.7805 100.36 77.3946 99.8128 77.3946 98.7181V92.2818C77.3946 91.1871 76.7805 90.6397 75.5525 90.6397H73.3157C72.1023 90.6397 71.4956 91.1871 71.4956 92.2818V98.7181C71.4956 99.8128 72.1023 100.36 73.3157 100.36ZM75.7499 101.568H73.1403C72.1315 101.568 71.3347 101.323 70.75 100.832C70.1798 100.341 69.8947 99.6555 69.8947 98.7747V92.2252C69.8947 91.3444 70.1798 90.6586 70.75 90.1679C71.3347 89.6771 72.1315 89.4318 73.1403 89.4318H75.7499C76.7586 89.4318 77.5481 89.6834 78.1182 90.1867C78.703 90.6775 78.9954 91.357 78.9954 92.2252V98.7747C78.9954 99.6429 78.703 100.329 78.1182 100.832C77.5481 101.323 76.7586 101.568 75.7499 101.568Z" fill="#58F1F5"/>
<path d="M83.507 101.568H82.5421C82.3375 101.568 82.2351 101.48 82.2351 101.304V89.696C82.2351 89.5198 82.3375 89.4318 82.5421 89.4318H83.4412C83.6167 89.4318 83.7336 89.4821 83.7921 89.5828L89.8446 98.7369H89.9323V89.696C89.9323 89.5198 90.0347 89.4318 90.2393 89.4318H91.2042C91.4089 89.4318 91.5113 89.5198 91.5113 89.696V101.304C91.5113 101.48 91.4089 101.568 91.2042 101.568H90.3929C90.232 101.568 90.0785 101.486 89.9323 101.323L83.9018 92.263H83.814V101.304C83.814 101.48 83.7117 101.568 83.507 101.568Z" fill="#58F1F5"/>
</g>
<defs>
<clipPath id="clip0_190_3774">
<rect width="91.0227" height="101.136" fill="white" transform="translate(0.488525 0.431763)"/>
</clipPath>
</defs>
</svg>
