<svg width="154" height="40" viewBox="0 0 154 40" fill="none" xmlns="http://www.w3.org/2000/svg">
<g clip-path="url(#clip0_138_2100)">
<path d="M45.7015 20.974L42.3366 23.8984L50.8266 0.784058L25.2411 23.0304L25.161 20.974H0.136353L7.20547 25.7428H20.7876L21.068 32.8591L39.4053 16.9153L32.6967 39.2159L47.3486 25.7403H145.421L153.864 20.974H45.7015Z" fill="#BBFF99"/>
<path d="M85.3946 14.0574L82.7908 20H87.1524L88.4767 16.9744L92.7417 20H105.509L107.01 16.575H100.801L103.991 9.28857H99.6318L95.7885 18.0619L91.5376 15.0437L96.7688 12.7136L98.2698 9.28857H87.4705L85.9719 12.7136H89.2425L85.3946 14.0574Z" fill="#BBFF99"/>
<path d="M113.2 20H117.559L119.164 16.3358H122.354L125.135 13.5963H120.363L120.75 12.7136H126.959L128.46 9.28857H117.889L113.2 20Z" fill="#BBFF99"/>
<path d="M125.861 20H130.22H142.277L137.138 16.575H131.721L131.966 16.0153H134.669L137.449 13.2758H133.165L133.41 12.7136H139.838L144.792 9.28857H130.54L125.861 20Z" fill="#BBFF99"/>
<path d="M64.7056 12.7136L61.5151 20H65.8768L69.0673 12.7136H72.1188L73.6198 9.28857H62.6909L61.1923 12.7136H64.7056Z" fill="#BBFF99"/>
<path d="M70.2502 20H81.0471L82.5481 16.575H76.1128L76.3579 16.0153H79.0583L81.8388 13.2758H77.5573L77.8024 12.7136H84.2282L85.7292 9.28857H74.9299L70.2502 20Z" fill="#BBFF99"/>
<path d="M48.6211 9.28857L49.4222 12.4596L46.1209 20H50.4802L52.0849 16.3358H55.2754L58.056 13.5963H53.2843L53.6708 12.7136H59.8798L61.3808 9.28857H48.6211Z" fill="#BBFF99"/>
<path d="M116.4 9.28857H112.04L110.539 12.7136H113.801L109.953 14.0574L107.349 20H111.711L116.4 9.28857Z" fill="#BBFF99"/>
</g>
<defs>
<clipPath id="clip0_138_2100">
<rect width="153.727" height="38.4318" fill="white" transform="translate(0.136353 0.784058)"/>
</clipPath>
</defs>
</svg>
