<svg width="130" height="72" viewBox="0 0 130 72" fill="none" xmlns="http://www.w3.org/2000/svg">
<g clip-path="url(#clip0_97_1783)">
<path d="M65.223 63.6581C67.2272 63.6581 68.852 62.0332 68.852 60.0289C68.852 58.0245 67.2272 56.3997 65.223 56.3997C63.2188 56.3997 61.594 58.0245 61.594 60.0289C61.594 62.0332 63.2188 63.6581 65.223 63.6581Z" fill="#FFE301"/>
<path d="M42.3862 63.6581C44.3904 63.6581 46.0151 62.0332 46.0151 60.0289C46.0151 58.0245 44.3904 56.3997 42.3862 56.3997C40.3819 56.3997 38.7572 58.0245 38.7572 60.0289C38.7572 62.0332 40.3819 63.6581 42.3862 63.6581Z" fill="#FFE301"/>
<path d="M11.7713 48.8097L0.25 71.2537H118.183L129.705 48.8097H11.7713ZM28.2131 62.5721H18.2006V68.7332H13.5201V58.1371H28.2131V62.5721ZM28.2131 56.4339H13.5201V51.9988H28.2131V56.4339ZM42.3862 68.7275C37.5799 68.7275 33.688 64.8297 33.688 60.0288C33.688 55.228 37.5856 51.3301 42.3862 51.3301C47.1867 51.3301 51.0843 55.228 51.0843 60.0288C51.0843 64.8297 47.1867 68.7275 42.3862 68.7275ZM65.223 68.7275C60.4168 68.7275 56.5249 64.8297 56.5249 60.0288C56.5249 55.228 60.4225 51.3301 65.223 51.3301C70.0236 51.3301 73.9211 55.228 73.9211 60.0288C73.9211 64.8297 70.0236 68.7275 65.223 68.7275ZM85.8596 68.7275H79.1732V63.8581H85.8596C87.797 63.8581 89.3686 62.2864 89.3686 60.3489C89.3686 58.4114 87.797 56.8397 85.8596 56.8397H79.1732V51.9703H85.8596C90.4887 51.9703 94.2434 55.7195 94.2434 60.3489C94.2434 64.9783 90.4887 68.7332 85.8596 68.7332V68.7275ZM111.04 68.7275H101.484V63.8524H111.04C111.325 63.8524 111.56 63.618 111.56 63.3266C111.56 63.0351 111.331 62.7779 111.051 62.7722H104.907C101.93 62.7722 99.5126 60.3546 99.5126 57.3769C99.5126 54.3993 101.93 51.976 104.907 51.976H114.091V56.8511H104.907C104.622 56.8511 104.387 57.0854 104.387 57.3769C104.387 57.6684 104.616 57.9256 104.896 57.9313H111.04C114.017 57.9313 116.434 60.3489 116.434 63.3266C116.434 66.3042 114.017 68.7275 111.04 68.7275Z" fill="#FFE301"/>
<path d="M79.4418 0.590942H67.3833V43.7529H98.0382V33.271H79.4418V0.590942Z" fill="#E61717"/>
<path d="M44.8551 0.590942H33.871L12.0343 43.7529H25.4586L39.363 16.2737L53.2675 43.7529H66.6918L44.8551 0.590942Z" fill="#E61717"/>
<path d="M111.108 33.271V0.590942H99.0555V43.7529H129.705V33.271H111.108Z" fill="#E61717"/>
</g>
<defs>
<clipPath id="clip0_97_1783">
<rect width="129.455" height="70.7955" fill="white" transform="translate(0.25 0.590942)"/>
</clipPath>
</defs>
</svg>
