<svg width="150" height="58" viewBox="0 0 150 58" fill="none" xmlns="http://www.w3.org/2000/svg">
<g clip-path="url(#clip0_131_792)">
<path d="M102.561 29.1167L98.3688 18.6216C98.2099 18.1719 97.9743 17.8418 97.6677 17.6312C97.3612 17.4206 97.0262 17.3125 96.6714 17.3125C96.4131 17.3125 96.1634 17.3609 95.9221 17.4576C95.6808 17.5544 95.4651 17.6881 95.2749 17.8617C95.0847 18.0353 94.9343 18.2402 94.8236 18.4793C94.7129 18.7183 94.6561 18.9773 94.6561 19.259C94.6448 19.5037 94.6874 19.7599 94.7867 20.0302L97.2618 26.2311H95.397L95.6184 25.6933C95.7177 25.4485 95.766 25.1867 95.766 24.905C95.766 24.6233 95.712 24.3842 95.5985 24.1537C95.4878 23.9232 95.3374 23.7212 95.1472 23.5476C94.957 23.374 94.7385 23.2402 94.4915 23.1435C94.2446 23.0467 93.9863 22.9983 93.7166 22.9983C93.359 22.9983 93.0297 23.1036 92.7288 23.3171C92.428 23.5276 92.1952 23.8606 92.0363 24.3074L89.95 29.1224C89.8876 29.2505 89.8507 29.3814 89.8393 29.518C89.828 29.6517 89.8195 29.7769 89.8195 29.8936C89.8195 30.1896 89.8762 30.4514 89.9954 30.6819C90.1118 30.9124 90.2623 31.1144 90.4467 31.288C90.6312 31.4616 90.847 31.5925 91.0939 31.6836C91.3409 31.7747 91.5935 31.8174 91.8518 31.8174C92.2094 31.8174 92.5387 31.7149 92.8395 31.51C93.1404 31.3051 93.3732 30.9779 93.5321 30.5282L93.8472 29.8339H98.7037L98.9819 30.5282C99.1551 30.9636 99.3708 31.288 99.6291 31.5015C99.8874 31.7149 100.214 31.8202 100.608 31.8202C100.867 31.8202 101.122 31.7747 101.375 31.6864C101.627 31.5982 101.852 31.4673 102.047 31.3023C102.243 31.1344 102.402 30.9323 102.519 30.6961C102.635 30.4599 102.695 30.1924 102.695 29.8965C102.695 29.7798 102.689 29.6603 102.675 29.5294C102.663 29.4013 102.626 29.2675 102.564 29.1253L102.561 29.1167Z" fill="#EC5544"/>
<path d="M109.811 17.3525H104.625C103.336 17.3525 102.689 18.0013 102.689 19.2961C102.689 19.9905 102.856 20.5056 103.191 20.8471C103.526 21.1885 104.012 21.3564 104.642 21.3564H110.021C110.549 21.3564 110.812 21.5556 110.812 21.9541C110.812 22.3525 110.549 22.5716 110.021 22.5716H104.971C103.475 22.5716 102.726 23.3684 102.726 24.9592C102.726 25.497 103.248 26.18 104.293 26.9996L108.491 31.1402C109.109 31.641 109.671 31.8915 110.174 31.8915C110.418 31.8915 110.656 31.826 110.889 31.6979C111.122 31.5699 111.326 31.4048 111.508 31.2056C111.69 31.0064 111.837 30.7816 111.954 30.5312C112.07 30.2808 112.127 30.0389 112.127 29.8084C112.127 29.5522 112.061 29.2847 111.934 29.0087C111.806 28.7327 111.61 28.4652 111.352 28.209L109.629 26.5528H110.035C112.885 26.476 114.309 24.9421 114.309 21.9512C114.309 18.9603 112.808 17.3496 109.802 17.3496L109.811 17.3525Z" fill="#EC5544"/>
<path d="M128.093 18.8749C128.019 18.5675 127.908 18.3142 127.761 18.115C127.613 17.9158 127.446 17.7593 127.261 17.6426C127.077 17.526 126.887 17.4491 126.688 17.4121C126.492 17.3751 126.305 17.3552 126.134 17.3552H116.475C115.663 17.3552 115.257 17.7792 115.257 18.6273V29.777C115.257 30.4315 115.445 30.9267 115.819 31.2596C116.194 31.5926 116.648 31.7605 117.176 31.7605C117.704 31.7605 118.121 31.5897 118.496 31.2511C118.871 30.9124 119.058 30.4201 119.058 29.777V21.3621H119.964V29.777C119.964 30.4315 120.154 30.9267 120.537 31.2596C120.917 31.5926 121.369 31.7605 121.885 31.7605C122.402 31.7605 122.847 31.5926 123.225 31.2596C123.6 30.9267 123.787 30.4315 123.787 29.777V21.3621H124.783L127.202 30.3547C127.338 30.8413 127.562 31.2084 127.874 31.4531C128.189 31.6979 128.541 31.8202 128.936 31.8202C129.206 31.8202 129.464 31.7747 129.711 31.6865C129.958 31.5983 130.173 31.4674 130.358 31.3023C130.542 31.1344 130.69 30.9352 130.801 30.7047C130.911 30.4742 130.968 30.2095 130.968 29.9164C130.968 29.6859 130.943 29.4867 130.894 29.3188L128.087 18.8834L128.093 18.8749Z" fill="#EC5544"/>
<path d="M139.194 22.5716H135.805C135.243 22.5716 134.962 22.3667 134.962 21.9541C134.962 21.5414 135.243 21.3564 135.805 21.3564H140.619C141.26 21.3564 141.754 21.1885 142.103 20.8556C142.45 20.5226 142.626 20.0218 142.626 19.353C142.626 18.6843 142.47 18.1863 142.154 17.8505C141.839 17.5175 141.334 17.3496 140.639 17.3496H136.086C132.93 17.3496 131.351 18.8835 131.351 21.9512C131.351 25.0189 132.822 26.476 135.765 26.5528H139.174C139.722 26.5528 139.997 26.7577 139.997 27.1703C139.997 27.583 139.722 27.7679 139.174 27.7679H133.599C132.958 27.7679 132.458 27.9358 132.106 28.2688C131.752 28.6018 131.576 29.1026 131.576 29.7714C131.576 30.4401 131.735 30.941 132.058 31.2739C132.379 31.6069 132.881 31.7748 133.563 31.7748H138.938C142.055 31.7748 143.611 30.2409 143.611 27.1732C143.611 24.1054 142.14 22.6484 139.197 22.5716H139.194Z" fill="#EC5544"/>
<path d="M76.7314 6.78868C77.1799 6.17115 77.4042 5.4028 77.4042 4.47793C77.4042 3.94008 77.3389 3.43922 77.2111 2.97536C77.0806 2.51435 76.8762 2.11594 76.5924 1.78299C76.3085 1.45003 75.948 1.18822 75.5109 1.00325C75.0738 0.818275 74.5544 0.724365 73.9498 0.724365H66.655C65.4969 0.724365 64.9179 1.39312 64.9179 2.72778C64.9179 4.06244 65.5026 4.7312 66.672 4.7312H72.5987C73.1039 4.7312 73.3565 4.9304 73.3565 5.32881C73.3565 5.72722 73.1039 5.94634 72.5987 5.94634H66.726C65.5196 5.94634 64.9151 6.60656 64.9151 7.92984V13.3425H64.9207C64.9775 14.5491 65.5849 15.1524 66.743 15.1524H73.981C74.5714 15.1524 75.0823 15.0585 75.5138 14.8735C75.9452 14.6885 76.3 14.4267 76.5753 14.0938C76.8535 13.7608 77.0579 13.3681 77.1941 12.9185C77.3303 12.4688 77.3985 11.9737 77.3985 11.4358C77.3985 10.4739 77.1657 9.68567 76.6974 9.07668C76.229 8.46768 75.5705 8.08635 74.7218 7.92984C75.6074 7.78755 76.2745 7.40906 76.7258 6.79438L76.7314 6.78868ZM72.6044 11.1399H68.7441V9.92756H72.6044C73.1096 9.92756 73.3622 10.1325 73.3622 10.5451C73.3622 10.9577 73.1096 11.1427 72.6044 11.1427V11.1399Z" fill="#FFEC01"/>
<path d="M91.4657 13.8748V2.82184C91.4657 1.41034 90.8214 0.70459 89.5271 0.70459C88.8629 0.70459 88.3832 0.875336 88.088 1.21398C87.7928 1.55547 87.6452 2.09048 87.6452 2.82184V10.6591C87.6197 10.955 87.4607 11.103 87.1655 11.103H82.5133C82.1926 11.103 82.0336 10.9294 82.0336 10.5822V2.82184C82.0336 1.42172 81.3921 0.721664 80.112 0.721664C78.8319 0.721664 78.2103 1.42172 78.2103 2.82184V13.8748C78.2216 14.7228 78.6218 15.1468 79.4109 15.1468H90.2878C91.0513 15.1468 91.4459 14.7228 91.4686 13.8748H91.4657Z" fill="#FFEC01"/>
<path d="M94.4972 15.1468H97.804C98.8372 15.0955 99.788 14.8793 100.657 14.5008C101.525 14.1223 102.272 13.6157 102.899 12.9783C103.526 12.3437 104.017 11.5924 104.366 10.7245C104.718 9.85934 104.892 8.9117 104.892 7.88438C104.892 6.85706 104.718 5.9891 104.375 5.12114C104.031 4.25319 103.538 3.49337 102.899 2.83884C102.257 2.18432 101.483 1.66639 100.571 1.2879C99.6603 0.909416 98.6385 0.71875 97.5059 0.71875H94.4972C94.2502 0.71875 94.009 0.775665 93.7677 0.892342C93.5264 1.00902 93.3164 1.16269 93.1319 1.35336C92.9474 1.54687 92.797 1.7603 92.6806 1.99934C92.5642 2.23839 92.5046 2.47743 92.5046 2.72217V13.1377C92.5046 13.7666 92.6891 14.2589 93.0581 14.6118C93.4271 14.9646 93.9068 15.1411 94.4972 15.1411V15.1468ZM96.3251 4.76827H97.8011C98.0594 4.76827 98.1957 4.76258 98.207 4.74835C98.6129 4.77396 98.9847 4.87356 99.3254 5.04715C99.6631 5.22075 99.9583 5.45125 100.211 5.74152C100.464 6.03179 100.659 6.3619 100.801 6.73185C100.943 7.10464 101.014 7.50305 101.014 7.92707C101.014 8.40231 100.932 8.83486 100.764 9.22758C100.597 9.6203 100.373 9.95609 100.092 10.2378C99.8079 10.5196 99.4701 10.7415 99.0756 10.9009C98.681 11.0603 98.2638 11.1428 97.821 11.1428H96.3251V4.76827Z" fill="#FFEC01"/>
<path d="M110.148 15.1268H116.407C117.293 15.1268 117.926 14.9618 118.3 14.6345C118.675 14.3073 118.862 13.8149 118.862 13.1604V8.26856C118.862 7.62826 118.675 7.13594 118.3 6.79445C117.926 6.45581 117.486 6.28506 116.98 6.28506C116.45 6.28506 115.998 6.45296 115.624 6.78592C115.249 7.11887 115.062 7.61403 115.062 8.26856V11.0603H110.259C109.879 11.0603 109.686 10.861 109.686 10.4626V5.30327C109.697 4.94471 109.89 4.76542 110.259 4.76542H116.407C117.219 4.76542 117.829 4.60037 118.235 4.27311C118.641 3.94584 118.845 3.43645 118.845 2.74209C118.845 2.04772 118.641 1.53833 118.235 1.21107C117.829 0.883804 117.219 0.71875 116.407 0.71875H110.148C107.293 0.71875 105.865 2.27254 105.865 5.37726V10.4598C105.865 13.5674 107.293 15.1183 110.148 15.1183V15.1268Z" fill="#FFEC01"/>
<path d="M129.24 4.72835C129.841 4.72835 130.313 4.52915 130.653 4.13074C130.991 3.73234 131.161 3.26563 131.161 2.72494C131.161 2.18424 130.991 1.70046 130.653 1.31059C130.315 0.917877 129.844 0.724365 129.24 0.724365H121.613C120.344 0.724365 119.711 1.39312 119.711 2.72778V13.1433C119.711 14.4779 120.344 15.1467 121.613 15.1467H129.24C129.841 15.1467 130.313 14.9503 130.653 14.5605C130.991 14.1677 131.161 13.6982 131.161 13.1461C131.161 12.594 130.991 12.1216 130.653 11.7318C130.315 11.3391 129.844 11.1455 129.24 11.1455H123.514V9.93325H129.24C129.841 9.93325 130.313 9.73689 130.653 9.34703C130.991 8.95431 131.161 8.48476 131.161 7.93268C131.161 7.3806 130.991 6.92813 130.653 6.53541C130.315 6.1427 129.844 5.94919 129.24 5.94919H123.514V4.73689H129.24V4.72835Z" fill="#FFEC01"/>
<path d="M133.758 4.72835H135.107V13.1433C135.107 13.7978 135.294 14.293 135.669 14.6259C136.043 14.9589 136.492 15.1268 137.008 15.1268C137.525 15.1268 137.973 14.9589 138.357 14.6259C138.737 14.293 138.93 13.7978 138.93 13.1433V4.72835H140.221C140.823 4.72835 141.294 4.52915 141.635 4.13074C141.973 3.73234 142.143 3.26563 142.143 2.72494C142.143 2.18424 141.973 1.70046 141.635 1.31059C141.297 0.917877 140.826 0.724365 140.221 0.724365H133.758C133.168 0.724365 132.7 0.920723 132.356 1.31059C132.013 1.70331 131.84 2.17286 131.84 2.72494C131.84 3.27701 132.013 3.73234 132.356 4.13074C132.7 4.52915 133.168 4.72835 133.758 4.72835Z" fill="#FFEC01"/>
<path d="M146.792 0.70459C145.109 0.70459 143.744 2.0734 143.744 3.76094C143.744 5.44848 145.109 6.81729 146.792 6.81729C148.476 6.81729 149.841 5.44848 149.841 3.76094C149.841 2.0734 148.476 0.70459 146.792 0.70459ZM146.352 2.79338H145.626V5.00454H145.314V2.79338H144.59V2.52019H146.352V2.79338ZM148.691 5.00454L148.635 3.91461C148.618 3.56743 148.595 3.1491 148.595 2.84176H148.589C148.504 3.12918 148.41 3.44221 148.288 3.7837L147.868 4.98746H147.635L147.247 3.80363C147.133 3.45075 147.042 3.13203 146.974 2.83891H146.968C146.963 3.1491 146.943 3.56174 146.923 3.93738L146.861 5.00169H146.568L146.736 2.51734H147.127L147.533 3.71825C147.633 4.02275 147.709 4.29594 147.775 4.55491H147.78C147.843 4.30448 147.928 4.03129 148.036 3.71825L148.459 2.51734H148.85L148.998 5.00169H148.694L148.691 5.00454Z" fill="#FFEC01"/>
<path d="M30.7744 41.8142L29.8973 43.7607H81.2559L82.1358 41.8142H30.7744Z" fill="#EC5544"/>
<path d="M56.0705 48.0151L55.0742 50.2206H78.338L79.3343 48.0151H56.0705Z" fill="#EC5544"/>
<path d="M29.3751 44.9133L28.4384 46.9879H51.9945L52.8404 45.1154H55.0657C55.446 45.1154 55.7441 45.2605 55.8945 45.5223L56.3912 46.3789C56.4906 46.5496 56.519 46.7602 56.4821 46.9879H79.7998L80.7365 44.9133H29.3751Z" fill="#EC5544"/>
<path d="M27.9729 48.0151L26.9766 50.2206H50.5327L51.529 48.0151H27.9729Z" fill="#EC5544"/>
<path d="M32.1766 38.7124L31.3563 40.5308H82.7148L83.538 38.7124H32.1766Z" fill="#EC5544"/>
<path d="M42.4034 21.1512H89.1779C88.8714 20.7272 88.4655 20.3715 87.9716 20.104H44.5578C43.8227 20.3715 43.096 20.7244 42.4063 21.1512H42.4034Z" fill="#EC5544"/>
<path d="M38.8753 24.3811H89.7854C89.8592 23.9713 89.8847 23.5786 89.8677 23.2058H39.8574C39.5026 23.5786 39.1733 23.9713 38.8753 24.3811Z" fill="#EC5544"/>
<path d="M49.0738 53.4507L50.1297 51.1172H26.5735L25.5176 53.4507H49.0738Z" fill="#EC5544"/>
<path d="M77.9321 51.1172H54.6683L53.6152 53.4507H76.879L77.9321 51.1172Z" fill="#EC5544"/>
<path d="M57.8303 34.0711L58.5343 32.5088H34.9781L34.2742 34.0711H57.8303Z" fill="#EC5544"/>
<path d="M64.4779 29.4067L63.8308 30.841H87.0917L87.7389 29.4067H64.4779Z" fill="#EC5544"/>
<path d="M25.1713 54.219L24.3028 56.1399C24.0019 56.8029 24.3141 57.3408 24.9982 57.3408H46.0764C46.7604 57.3408 47.558 56.8029 47.8589 56.1399L48.7275 54.219H25.1713Z" fill="#EC5544"/>
<path d="M53.269 54.219L52.4004 56.1399C52.0995 56.8029 52.4118 57.3408 53.0958 57.3408H73.8816C74.5657 57.3408 75.3633 56.8029 75.6642 56.1399L76.5327 54.219H53.269Z" fill="#EC5544"/>
<path d="M37.7825 26.3049L37.1921 27.6083H61.4067C62 27.207 62.6812 26.9566 63.3113 26.9566C63.9415 26.9566 64.3985 27.207 64.6284 27.6083H88.5507L89.1411 26.3049H37.7825Z" fill="#EC5544"/>
<path d="M36.3803 29.4067L35.7331 30.841H59.2893L59.9364 29.4067H36.3803Z" fill="#EC5544"/>
<path d="M56.3714 37.301L57.1349 35.6106H33.5788L32.8152 37.301H56.3714Z" fill="#EC5544"/>
<path d="M63.0757 32.5088L62.3718 34.0711H85.6328L86.3395 32.5088H63.0757Z" fill="#EC5544"/>
<path d="M61.6736 35.6106L60.91 37.301H84.1738L84.9373 35.6106H61.6736Z" fill="#EC5544"/>
<path d="M32.574 14.6915L33.2694 13.1292H10.8543L10.1589 14.6915H32.574Z" fill="#FEEC02"/>
<path d="M12.2338 10.0271L11.5951 11.4614H34.0131L34.6489 10.0271H12.2338Z" fill="#FEEC02"/>
<path d="M31.1377 17.9213L31.8899 16.231H9.47197L8.71979 17.9213H31.1377Z" fill="#FEEC02"/>
<path d="M29.6986 21.1512L30.5076 19.3328H8.09251L7.28355 21.1512H29.6986Z" fill="#FEEC02"/>
<path d="M29.4914 28.6357C28.9209 29.2846 28.3021 29.7598 27.6975 29.8736C27.4648 29.9163 27.2406 29.9391 27.0135 29.9391H25.7873L26.3692 28.6357H3.95123L2.96913 30.8412H52.2755L53.2576 28.6357H29.4914Z" fill="#FEEC02"/>
<path d="M16.0316 1.49841L15.9095 1.77161H62.7891C62.4399 1.33051 61.9801 0.977638 61.4209 0.724365H16.6617C16.3892 0.934952 16.1622 1.20245 16.0288 1.49841H16.0316Z" fill="#FEEC02"/>
<path d="M28.2624 24.3813L29.1281 22.4348H6.71019L5.84447 24.3813H28.2624Z" fill="#FEEC02"/>
<path d="M14.4705 5.00147H63.5129C63.5753 4.59168 63.5895 4.19897 63.5611 3.82617H14.9956L14.4733 5.00147H14.4705Z" fill="#FEEC02"/>
<path d="M2.56891 31.7375L1.53004 34.0711H50.3369C50.9613 33.3482 51.4836 32.5628 51.8725 31.7375H2.56891Z" fill="#FEEC02"/>
<path d="M1.18944 34.8394L0.272627 36.9025C-0.0225695 37.5656 0.283981 38.1034 0.956689 38.1034H42.4205C44.8729 38.1034 47.595 36.7887 49.6074 34.8394H1.18944Z" fill="#FEEC02"/>
<path d="M33.4596 16.231L32.7074 17.9213H56.9334L58.7528 16.231H33.4596Z" fill="#FEEC02"/>
<path d="M36.8117 13.1292C36.4938 13.7581 36.1248 14.313 35.7558 14.6915H59.4624L60.1578 13.1292H36.8117Z" fill="#FEEC02"/>
<path d="M37.7342 10.0271C37.7144 10.4625 37.6207 10.9548 37.4731 11.4585H60.9015L61.5402 10.0271H37.7342Z" fill="#FEEC02"/>
<path d="M13.6133 6.92529L13.0342 8.2315H62.3406L62.9196 6.92529H13.6133Z" fill="#FEEC02"/>
<path d="M26.8233 27.6111L27.7486 25.5337H5.33071L4.40822 27.6111H26.8233Z" fill="#FEEC02"/>
<path d="M31.3506 25.5337C31.0838 26.2024 30.7063 26.9367 30.2635 27.6083H53.7118L54.6343 25.5337H31.3478H31.3506Z" fill="#FEEC02"/>
<path d="M32.0772 19.3328L31.2683 21.1512H55.9201L55.5823 19.3328H32.0772Z" fill="#FEEC02"/>
<path d="M30.8709 22.4348L31.7423 23.5674C31.7991 23.7581 31.7849 24.0398 31.7139 24.3842H55.1508L56.0166 22.4377H30.8681L30.8709 22.4348Z" fill="#FEEC02"/>
</g>
<defs>
<clipPath id="clip0_131_792">
<rect width="149.682" height="56.6364" fill="white" transform="translate(0.159088 0.70459)"/>
</clipPath>
</defs>
</svg>
