<svg width="150" height="20" viewBox="0 0 150 20" fill="none" xmlns="http://www.w3.org/2000/svg">
<g clip-path="url(#clip0_131_958)">
<path d="M147.291 4.92088L149.841 1.01685H146.228L143.68 4.92088H147.291Z" fill="white"/>
<path d="M143.72 10.3908H140.107L137.234 14.7906H140.847L143.72 10.3908Z" fill="white"/>
<path d="M136.702 15.6034L134.515 18.9521H138.128L140.315 15.6034H136.702Z" fill="white"/>
<path d="M143.149 5.73363L140.638 9.57808H144.251L146.759 5.73363H143.149Z" fill="white"/>
<path d="M101.133 14.4975L103.814 10.3909H100.231L97.5289 14.5285C97.4727 14.6143 97.4188 14.7025 97.3673 14.7906H101.151C101.123 14.6286 101.123 14.5094 101.133 14.4975Z" fill="white"/>
<path d="M110.757 14.6476L107.954 13.8111C107.523 14.1686 107.097 14.4975 106.673 14.7906H110.605C110.654 14.743 110.705 14.6977 110.754 14.6476H110.757Z" fill="white"/>
<path d="M104.348 9.57811L106.858 5.73366H103.273L100.763 9.57811H104.348Z" fill="white"/>
<path d="M115.115 5.73366H112.946C112.934 5.9005 112.909 6.07926 112.874 6.27708L115.115 5.73366Z" fill="white"/>
<path d="M105.287 15.6034H96.9856C96.8896 15.8727 96.8264 16.1373 96.8193 16.3804C96.8591 16.9476 97.194 18.1441 97.5569 18.5326C97.8614 18.8305 98.4187 19.0999 99.1235 19.0999H102.971C104.762 19.0999 107.139 17.5745 108.506 16.5591C108.902 16.2684 109.307 15.949 109.712 15.6034H105.284H105.287Z" fill="white"/>
<path d="M107.942 4.92091C108.307 4.69687 108.659 4.50143 108.876 4.39418H112.548C112.689 4.57055 112.785 4.74454 112.848 4.92091H116.918C117.032 4.42516 117.1 3.92703 117.067 3.40744C117.007 2.42071 116.651 0.897705 114.859 0.897705H111.012C110.307 0.897705 109.378 1.19563 108.731 1.46496C107.783 1.88444 105.818 3.13812 105.153 3.61718C104.612 4.02475 104.191 4.4633 103.835 4.92091H107.942Z" fill="white"/>
<path d="M121.68 5.73363L119.17 9.57808H132.211L134.721 5.73363H131.138L129.513 8.22192H123.64L125.263 5.73363H121.68Z" fill="white"/>
<path d="M128.806 14.7906L131.679 10.3908H118.639L115.765 14.7906H119.348L121.355 11.7184H127.23L125.223 14.7906H128.806Z" fill="white"/>
<path d="M115.234 15.6034L113.049 18.9521H116.632L118.819 15.6034H115.234Z" fill="white"/>
<path d="M124.692 15.6034L122.505 18.9521H126.09L128.274 15.6034H124.692Z" fill="white"/>
<path d="M125.795 4.92088L128.345 1.01685H124.76L122.212 4.92088H125.795Z" fill="white"/>
<path d="M135.253 4.92088L137.8 1.01685H134.218L131.668 4.92088H135.253Z" fill="white"/>
<path d="M84.5328 9.57808H88.2795C89.3871 8.46503 90.497 7.35197 91.5905 6.24845L90.5696 9.57808H94.3162L95.5245 5.73363H88.3544L84.5352 9.57808H84.5328Z" fill="white"/>
<path d="M90.3214 10.3908L89.8226 12.0163H85.8582C86.3944 11.4753 86.933 10.9342 87.4739 10.3908H83.7273L79.3555 14.7906H92.6817L94.0633 10.3908H90.3214Z" fill="white"/>
<path d="M78.5453 15.6034L75.2178 18.9521H79.0347C80.1095 17.8748 81.3131 16.6878 82.3949 15.6034H78.5453Z" fill="white"/>
<path d="M88.5956 15.6034L87.5536 18.9521H91.3704L92.4241 15.6034H88.5956Z" fill="white"/>
<path d="M95.7774 4.92088L97.0044 1.01685H93.04L89.1599 4.92088H95.7774Z" fill="white"/>
<path d="M64.1536 9.57802H67.7386L70.2488 5.73357H66.6638L64.1536 9.57802Z" fill="white"/>
<path d="M67.207 10.3908H63.6243L60.7512 14.7906H64.3339L67.207 10.3908Z" fill="white"/>
<path d="M73.1103 10.3908L70.5462 14.3186C70.3355 14.4998 70.1317 14.6523 69.9327 14.7906H73.8034C73.8948 14.669 73.979 14.5475 74.0516 14.4378L76.6953 10.3908H73.1103Z" fill="white"/>
<path d="M73.6419 9.57802H77.2246L79.7348 5.73357H76.1497V5.73834L73.6442 9.57564L73.6419 9.57802Z" fill="white"/>
<path d="M60.2196 15.6033L58.0325 18.952H66.5795C67.2539 18.952 68.1554 18.6541 68.8298 18.3848C69.729 17.9963 71.5882 16.8594 72.3891 16.2635C72.649 16.0585 72.8925 15.8345 73.1126 15.6057H60.2196V15.6033Z" fill="white"/>
<path d="M70.778 4.92083L71.0426 4.51326H75.8594C75.9765 4.63243 76.0772 4.76114 76.1404 4.92083H80.2195C80.4232 4.51803 80.552 4.12238 80.538 3.73627C80.4982 3.2572 80.2499 1.97254 79.8776 1.55306C79.5545 1.19554 78.9058 1.0144 78.29 1.0144H69.743L67.193 4.91844H70.7757L70.778 4.92083Z" fill="white"/>
<path d="M53.3704 9.57808H56.9531L59.4633 5.73363H55.8806L53.3704 9.57808Z" fill="white"/>
<path d="M44.0601 9.57808H47.6428L48.4131 8.40067L48.2797 9.57808H52.2417L52.7264 5.73363H46.5703L44.0601 9.57808Z" fill="white"/>
<path d="M47.1112 10.3908H43.5285L40.6553 14.7906H44.238L47.1112 10.3908Z" fill="white"/>
<path d="M56.4215 10.3908H52.8388L51.9724 11.7184L52.141 10.3908H48.186L47.6896 14.7906H53.5483L56.4215 10.3908Z" fill="white"/>
<path d="M40.1238 15.6034L37.939 18.9521H41.5217L43.7088 15.6034H40.1238Z" fill="white"/>
<path d="M47.5983 15.6034L47.2189 18.9521H50.8321L53.0191 15.6034H47.5983Z" fill="white"/>
<path d="M52.8295 4.92088L53.3212 1.01685H49.6519L47.1018 4.92088H52.8295Z" fill="white"/>
<path d="M59.9949 4.92088L62.5449 1.01685H58.9622L56.4122 4.92088H59.9949Z" fill="white"/>
<path d="M28.1861 5.73363L25.6759 9.57808H36.9836L37.8899 8.19093H30.1648L31.7712 5.73363H28.1861Z" fill="white"/>
<path d="M35.6068 11.6874L36.4544 10.3908H25.1467L22.2735 14.7906H25.8562L27.8817 11.6874H35.6068Z" fill="white"/>
<path d="M21.742 15.6034L19.5549 18.9521H31.1272L33.3143 15.6034H21.742Z" fill="white"/>
<path d="M32.3004 4.92088L32.5673 4.51332H40.5546L42.8401 1.01685H31.2677L28.7177 4.92088H32.3004Z" fill="white"/>
<path d="M13.0475 10.3908H5.75094L2.87775 14.7906H6.46045L8.58431 11.5396H8.87702L9.05966 14.7906H13.3612C13.2442 13.0579 13.1177 11.256 13.0475 10.3908Z" fill="#FF0001"/>
<path d="M8.79038 5.73363L6.28015 9.57808H13.394L18.7236 5.73363H14.5859C12.6564 7.13746 11.0337 8.3101 10.9845 8.3101H10.6918L12.3731 5.73363H8.79038Z" fill="#FF0001"/>
<path d="M9.1065 15.6034L9.29383 18.9521H13.6399C13.6399 18.9521 13.5392 17.4148 13.4151 15.6034H9.10416H9.1065Z" fill="#FF0001"/>
<path d="M2.3462 15.6034L0.159119 18.9521H3.74182L5.9289 15.6034H2.3462Z" fill="#FF0001"/>
<path d="M12.9046 4.92088L15.4547 1.01685H11.872L9.32193 4.92088H12.9046Z" fill="#FF0001"/>
<path d="M19.8522 4.92088L25.2638 1.01685H21.0348C21.0348 1.01685 18.3138 3.01653 15.7005 4.92088H19.8522Z" fill="#FF0001"/>
</g>
<defs>
<clipPath id="clip0_131_958">
<rect width="149.682" height="18.2045" fill="white" transform="translate(0.159119 0.897705)"/>
</clipPath>
</defs>
</svg>
