<svg width="114" height="70" viewBox="0 0 114 70" fill="none" xmlns="http://www.w3.org/2000/svg">
<g clip-path="url(#clip0_141_786)">
<path d="M46.4803 63.0747H47.4458L50.6138 67.1571V67.146L50.5786 63.0747H51.6261V69.1004H50.6606L47.4926 65.018V65.0291L47.5278 69.1004H46.4803V63.0747Z" fill="#E61734"/>
<path fill-rule="evenodd" clip-rule="evenodd" d="M0.363647 63.2162V69.2331L0.501438 69.2377C1.01657 69.2546 1.6853 69.2631 2.21667 69.2631C3.22524 69.2631 4.10655 68.988 4.73771 68.4381C5.37136 67.886 5.73741 67.0702 5.73741 66.0222C5.73741 65.1244 5.37759 64.4042 4.77734 63.9109C4.17987 63.4198 3.35422 63.1614 2.43048 63.1614C2.00376 63.1614 1.47555 63.1795 0.999883 63.1958C0.824211 63.2018 0.655505 63.2076 0.501935 63.2121L0.363647 63.2162ZM2.19956 64.1018C2.95627 64.1018 3.56086 64.2867 3.974 64.6323C4.38362 64.975 4.62274 65.4902 4.62274 66.1911C4.62274 66.9001 4.37727 67.4235 3.98202 67.7712C3.58439 68.121 3.02031 68.3057 2.36206 68.3057H1.45265V64.1018H2.19956Z" fill="#E61734"/>
<path d="M7.05323 69.2378H10.8533V68.272H8.14223V66.636H10.2889V65.6617H8.14223V64.1778H10.7422V63.212H7.05323V69.2378Z" fill="#E61734"/>
<path d="M16.5795 68.7946L16.6432 67.6882L16.4012 67.8589C16.0051 68.1384 15.3924 68.3649 14.7564 68.3649C14.1687 68.3649 13.6525 68.1691 13.2838 67.8108C12.9159 67.4533 12.6839 66.9231 12.6839 66.2333C12.6839 64.9626 13.5918 64.0849 14.7222 64.0849C15.2893 64.0849 15.8524 64.2315 16.2852 64.4041L16.456 64.4722L16.588 63.4768L16.4892 63.4347C16.036 63.2417 15.4866 63.1107 14.8591 63.1107C13.9502 63.1107 13.127 63.4153 12.5299 63.9739C11.9318 64.5335 11.5692 65.3402 11.5692 66.3263C11.5692 67.2983 11.9116 68.0592 12.4683 68.5765C13.0234 69.0924 13.7806 69.356 14.5939 69.356C15.4511 69.356 16.1033 69.1116 16.5209 68.8336L16.5795 68.7946Z" fill="#E61734"/>
<path d="M21.1098 69.2378H22.5346L22.3517 69.0096C21.3771 67.7936 20.776 67.064 20.3751 66.6191C20.0843 66.2964 19.8917 66.1148 19.7304 66.0055L22.3807 63.212H20.9773L18.782 65.7277V63.212H17.6929V69.2378H18.782V66.5363C18.8898 66.6041 19.0459 66.7413 19.328 67.0563C19.6775 67.4464 20.2074 68.0937 21.067 69.1835L21.1098 69.2378Z" fill="#E61734"/>
<path d="M23.3385 69.2378H27.1386V68.272H24.4275V66.636H26.5742V65.6617H24.4275V64.1778H27.0275V63.212H23.3385V69.2378Z" fill="#E61734"/>
<path fill-rule="evenodd" clip-rule="evenodd" d="M31.7257 69.2378H33.0065L32.8952 69.0309C32.2803 67.888 31.9225 67.2405 31.6751 66.8567C31.5175 66.6122 31.4 66.4675 31.2841 66.3676C31.6807 66.1285 32.1678 65.6408 32.1678 64.8142C32.1678 64.3281 31.9785 63.9121 31.6326 63.6197C31.2888 63.3289 30.8021 63.1698 30.2207 63.1698C29.7357 63.1698 29.2448 63.1859 28.7857 63.201C28.6673 63.2048 28.551 63.2087 28.4374 63.2121L28.2993 63.2163V69.2378H29.3883V66.7712H30.2064C30.2889 66.8008 30.3843 66.8735 30.5886 67.1942C30.8064 67.5361 31.1285 68.1261 31.6855 69.163L31.7257 69.2378ZM29.8701 64.1018C30.2847 64.1018 30.5804 64.1894 30.7695 64.3342C30.9529 64.4746 31.0531 64.6819 31.0531 64.9663C31.0531 65.3437 30.7968 65.7 30.4808 65.8476H29.3883V64.1018H29.8701Z" fill="#E61734"/>
<path d="M38.1567 64.1694H40.0297V63.212H35.1862V64.1694H37.0677V69.2378H38.1567V64.1694Z" fill="#E61734"/>
<path fill-rule="evenodd" clip-rule="evenodd" d="M44.1679 69.2378H45.3458L43.0401 63.212H42.099L39.7933 69.2378H40.9302L41.5631 67.4554H43.5009L44.1679 69.2378ZM42.5266 64.8655L43.1628 66.5234H41.8882L42.5022 64.8631C42.5042 64.8579 42.5062 64.8525 42.5082 64.8471C42.51 64.8418 42.5119 64.8364 42.5138 64.831C42.5179 64.8428 42.5221 64.854 42.5263 64.8648L42.5266 64.8655Z" fill="#E61734"/>
<path fill-rule="evenodd" clip-rule="evenodd" d="M56.9875 69.2378H58.1654L55.8597 63.212H54.9186L52.6129 69.2378H53.7498L54.3827 67.4554H56.3204L56.9875 69.2378ZM55.3462 64.8655L55.9823 66.5234H54.7078L55.3216 64.8636L55.3219 64.8628C55.3237 64.858 55.3255 64.8532 55.3273 64.8482C55.3294 64.8426 55.3314 64.8368 55.3334 64.831C55.3375 64.8428 55.3417 64.854 55.3459 64.8648L55.3462 64.8655Z" fill="#E61734"/>
<path d="M62.5662 69.2378H63.991L63.8081 69.0096C62.8335 67.7936 62.2324 67.064 61.8315 66.6191C61.5407 66.2964 61.3481 66.1148 61.1868 66.0055L63.8372 63.212H62.4337L60.2384 65.7277V63.212H59.1494V69.2378H60.2384V66.5363C60.3462 66.6041 60.5023 66.7413 60.7844 67.0563C61.1339 67.4464 61.6638 68.0937 62.5235 69.1835L62.5662 69.2378Z" fill="#E61734"/>
<path fill-rule="evenodd" clip-rule="evenodd" d="M68.3789 69.2378H69.5568L67.2511 63.212H66.31L64.0043 69.2378H65.1412L65.7741 67.4554H67.7118L68.3789 69.2378ZM66.7376 64.8655L67.3737 66.5234H66.0992L66.713 64.8636L66.7133 64.8628C66.7172 64.8527 66.721 64.842 66.7248 64.831C66.7289 64.8428 66.7331 64.854 66.7373 64.8648L66.7376 64.8655Z" fill="#E61734"/>
<path fill-rule="evenodd" clip-rule="evenodd" d="M77.2418 69.409L77.9301 68.591L77.7936 68.5051C77.6268 68.4003 77.0962 67.9964 76.6856 67.6618C76.9454 67.1856 77.1583 66.4576 77.1583 65.8448V65.704H76.1292V65.8448C76.1292 66.0692 76.0965 66.3291 76.0417 66.57C76.0045 66.7337 75.9582 66.8835 75.9077 67.0049C75.5542 66.6995 75.0679 66.2323 74.751 65.9014C75.1921 65.6275 75.7814 65.1466 75.7814 64.3834C75.7814 63.5951 75.0893 63.1445 74.3474 63.1445C73.5112 63.1445 72.7253 63.6713 72.7253 64.5354C72.7253 65.0495 73.0127 65.4731 73.2056 65.7075C73.0038 65.8159 72.7474 65.9816 72.5207 66.2124C72.2237 66.5148 71.9727 66.9346 71.9727 67.4835C71.9727 68.6064 72.8731 69.3391 74.0139 69.3391C75.0935 69.3391 75.7099 68.8789 76.0634 68.5002C76.4505 68.8272 76.8679 69.174 77.1359 69.3425L77.2418 69.409ZM74.2448 64.0173C74.3737 64.0173 74.4981 64.0589 74.5878 64.1339C74.6745 64.2065 74.7351 64.3151 74.7351 64.4679C74.7351 64.7817 74.492 65.0738 74.1699 65.2698C74.0997 65.1921 74.0172 65.0926 73.9452 64.9798C73.8436 64.8209 73.7715 64.6492 73.7715 64.4848C73.7715 64.1925 73.9964 64.0173 74.2448 64.0173ZM73.0702 67.3822C73.0702 66.8575 73.4732 66.5387 73.7876 66.3657C74.2379 66.837 74.7974 67.3823 75.3505 67.8875C75.0474 68.183 74.6376 68.3902 74.1336 68.3902C73.582 68.3902 73.0702 67.992 73.0702 67.3822Z" fill="#E61734"/>
<path fill-rule="evenodd" clip-rule="evenodd" d="M84.2308 69.2378H85.5115L85.4002 69.0309C84.7854 67.888 84.4276 67.2405 84.1801 66.8567C84.0225 66.6122 83.9051 66.4675 83.7892 66.3676C84.1857 66.1285 84.6728 65.6408 84.6728 64.8142C84.6728 64.3281 84.4835 63.9121 84.1377 63.6197C83.7939 63.3289 83.3071 63.1698 82.7258 63.1698C82.2408 63.1698 81.7499 63.1859 81.2908 63.201C81.218 63.2033 81.1459 63.2057 81.0748 63.208C81.0303 63.2094 80.9862 63.2108 80.9425 63.2121L80.8043 63.2163V69.2378H81.8933V66.7712H82.7114C82.794 66.8008 82.8893 66.8735 83.0937 67.1942C83.3115 67.5361 83.6335 68.1261 84.1906 69.163L84.2308 69.2378ZM82.3751 64.1018C82.7897 64.1018 83.0854 64.1894 83.2745 64.3342C83.4579 64.4746 83.5582 64.6819 83.5582 64.9663C83.5582 65.3437 83.3018 65.7 82.9858 65.8476H81.8933V64.1018H82.3751Z" fill="#E61734"/>
<path d="M98.1047 69.0085L98.2288 68.9925V66.2277H95.9254V67.1935H97.1655V68.2535C96.9269 68.3265 96.5335 68.3902 96.162 68.3902C95.4755 68.3902 94.9136 68.2126 94.5244 67.8593C94.1373 67.5078 93.9013 66.9645 93.9013 66.1911C93.9013 65.575 94.1235 65.0458 94.5031 64.6709C94.8825 64.2962 95.4267 64.068 96.085 64.068C96.7725 64.068 97.4104 64.2403 97.8458 64.4431L98.0177 64.5232L98.1748 63.5443L98.0827 63.4978C97.6751 63.292 96.9511 63.1107 96.2389 63.1107C95.2213 63.1107 94.3572 63.4265 93.7461 63.9878C93.1342 64.5499 92.7866 65.3487 92.7866 66.2925C92.7866 67.2792 93.1149 68.0464 93.6939 68.5656C94.271 69.0829 95.0805 69.3391 96.0166 69.3391C96.5794 69.3391 97.1475 69.2353 97.5043 69.1494L97.5511 69.1364C97.7516 69.0808 97.9325 69.0307 98.1047 69.0085Z" fill="#E61734"/>
<path d="M99.6787 69.2378H103.479V68.272H100.768V66.636H102.914V65.6617H100.768V64.1778H103.368V63.212H99.6787V69.2378Z" fill="#E61734"/>
<path fill-rule="evenodd" clip-rule="evenodd" d="M108.066 69.2378H109.347L109.235 69.0309C108.621 67.888 108.263 67.2405 108.015 66.8567C107.858 66.6122 107.74 66.4675 107.624 66.3676C108.021 66.1285 108.508 65.6408 108.508 64.8142C108.508 64.3281 108.319 63.9121 107.973 63.6197C107.629 63.3289 107.142 63.1698 106.561 63.1698C106.076 63.1698 105.585 63.1859 105.126 63.201C105.007 63.2048 104.891 63.2087 104.778 63.2121L104.639 63.2163V69.2378H105.728V66.7712H106.547C106.629 66.8008 106.724 66.8735 106.929 67.1942C107.147 67.5361 107.469 68.1261 108.026 69.163L108.066 69.2378ZM106.21 64.1018C106.625 64.1018 106.921 64.1894 107.11 64.3342C107.293 64.4746 107.393 64.6819 107.393 64.9663C107.393 65.3437 107.137 65.7 106.821 65.8476H105.728V64.1018H106.21Z" fill="#E61734"/>
<path d="M109.885 67.8561L109.681 68.8775L109.764 68.929C110.229 69.217 110.796 69.3391 111.371 69.3391C112.647 69.3391 113.634 68.5389 113.634 67.4751C113.634 67.046 113.501 66.6822 113.221 66.3756C112.945 66.0732 112.534 65.835 111.993 65.6367L111.992 65.6363C111.637 65.5095 111.382 65.3963 111.215 65.2544C111.058 65.1212 110.974 64.9599 110.974 64.7128C110.974 64.3582 111.31 64.0596 111.875 64.0596C112.327 64.0596 112.87 64.2211 113.197 64.3826L113.371 64.4686L113.529 63.4821L113.433 63.4369C113.057 63.2601 112.506 63.1107 111.978 63.1107C110.855 63.1107 109.868 63.7862 109.868 64.8311C109.868 65.2638 109.997 65.615 110.282 65.9085C110.562 66.1958 110.982 66.4183 111.545 66.6193C111.883 66.739 112.13 66.8718 112.291 67.0309C112.447 67.1848 112.528 67.3685 112.528 67.6103C112.528 68.0128 112.143 68.3818 111.499 68.3818C111.006 68.3818 110.493 68.2296 110.061 67.9638L109.885 67.8561Z" fill="#E61734"/>
<path fill-rule="evenodd" clip-rule="evenodd" d="M88.7928 69.3391C90.6018 69.3391 91.9116 68.0317 91.9116 66.1827C91.9116 65.2608 91.6103 64.4917 91.0932 63.9519C90.5758 63.4117 89.851 63.1107 89.0237 63.1107C87.2153 63.1107 85.8964 64.4176 85.8964 66.2671C85.8964 67.1893 86.2 67.9584 86.7192 68.4981C87.2388 69.0381 87.9655 69.3391 88.7928 69.3391ZM88.8612 64.0765C89.402 64.0765 89.8798 64.2735 90.2235 64.647C90.568 65.0213 90.7884 65.5847 90.7884 66.3347C90.7884 67.5466 90.0005 68.3733 88.9553 68.3733C88.4145 68.3733 87.9343 68.1763 87.5884 67.8025C87.242 67.4281 87.0196 66.8647 87.0196 66.1151C87.0196 64.904 87.8153 64.0765 88.8612 64.0765Z" fill="#E61734"/>
<path d="M94.3257 0.636353H80.7653L77.466 11.8277L95.9522 11.8277C96.1375 11.8277 96.2992 11.7029 96.3445 11.5249L97.0337 8.81723L107.727 16.4655L93.3452 24.5158L94.0235 21.8504C94.0879 21.5973 93.8947 21.3517 93.6312 21.3517H79.2095C76.5133 21.3517 74.1405 23.1139 73.3847 25.6776L64.5292 55.7121C64.3779 56.2251 64.7663 56.7383 65.3058 56.7383H77.4736C77.8331 56.7383 78.1495 56.5034 78.2503 56.1615L83.8922 37.0251L85.4301 43.2763C85.5185 43.6354 85.8432 43.8881 86.2162 43.8881H99.5459C100.082 43.8881 100.47 43.3808 100.325 42.8696L97.9493 34.503C105.443 31.5094 111.344 26.24 113.115 18.3054C115.682 6.81306 108.627 0.636353 94.3257 0.636353Z" fill="#E61734"/>
<path d="M101.306 46.3208C101.208 45.9752 100.89 45.7364 100.527 45.7364H87.0677C86.5432 45.7364 86.1573 46.2231 86.2817 46.7279L87.0146 49.7038C87.103 50.0627 87.4277 50.3153 87.8007 50.3153H101.373C101.909 50.3153 102.297 49.808 102.152 49.2967L101.306 46.3208Z" fill="#E61734"/>
<path d="M88.6495 52.1616C88.1251 52.1616 87.7393 52.648 87.8633 53.1527L88.5949 56.1286C88.6832 56.4877 89.0079 56.7404 89.381 56.7404H103.197C103.734 56.7404 104.122 56.2331 103.976 55.7218L103.131 52.7459C103.033 52.4003 102.714 52.1616 102.352 52.1616H88.6495Z" fill="#E61734"/>
<path d="M14.2173 34.7235C14.2173 34.2808 13.855 33.922 13.4082 33.922H1.17274C0.72589 33.922 0.363647 34.2808 0.363647 34.7235V37.6993C0.363647 38.142 0.725891 38.5008 1.17274 38.5008H13.4082C13.855 38.5008 14.2173 38.142 14.2173 37.6993V34.7235Z" fill="#2A29CC"/>
<path d="M14.2173 28.2983C14.2173 27.8557 13.855 27.4968 13.4082 27.4968H1.17274C0.72589 27.4968 0.363647 27.8557 0.363647 28.2983V31.2763C0.363647 31.719 0.725891 32.0778 1.17274 32.0778H13.4082C13.855 32.0778 14.2173 31.719 14.2173 31.2763V28.2983Z" fill="#2A29CC"/>
<path d="M80.7653 0.636353L77.466 11.8277H74.1011C71.4049 11.8277 69.0321 13.59 68.2762 16.1537L56.4806 56.1636C56.3799 56.5055 56.0635 56.7404 55.704 56.7404H43.5362C42.9966 56.7404 42.6083 56.2273 42.7595 55.7143L55.698 11.8277H41.9245C44.7493 15.9434 46.165 21.2254 46.165 28.2084C46.165 37.6314 43.6172 44.8986 38.5195 49.6353C33.4218 54.3721 26.482 56.7404 17.7001 56.7404H1.17274C0.72589 56.7404 0.363647 56.3816 0.363647 55.9389V46.719C0.363647 46.2763 0.72589 45.9175 1.17274 45.9175H16.107C21.1527 45.9175 25.0642 44.5681 27.8414 41.8671C30.6165 39.1682 32.0062 34.4883 32.0062 28.2063C32.0062 21.9243 30.6316 18.1728 27.8804 15.6445C25.1291 13.1182 21.2068 11.853 16.1091 11.853H15.0263C14.5795 11.853 14.2173 12.2118 14.2173 12.6545V24.8491C14.2173 25.2917 13.855 25.6506 13.4082 25.6506H1.17274C0.72589 25.6506 0.363647 25.2917 0.363647 24.8491V1.43785C0.363647 0.995206 0.725895 0.636368 1.17274 0.636368L80.7653 0.636353Z" fill="#2A29CC"/>
</g>
<defs>
<clipPath id="clip0_141_786">
<rect width="113.273" height="68.7727" fill="white" transform="translate(0.363647 0.636353)"/>
</clipPath>
</defs>
</svg>
