<svg width="150" height="35" viewBox="0 0 150 35" fill="none" xmlns="http://www.w3.org/2000/svg">
<g clip-path="url(#clip0_86_80)">
<path d="M42.1543 9.88721V21.633H56.867V19.7518H44.0356V16.6993H56.867V14.818H44.0356V11.7684H56.867V9.88721H42.1543Z" fill="#E6B8A1"/>
<path d="M73.5466 11.7684V9.88721H58.834V11.7684H65.2497V21.633H67.1309V11.7684H73.5466Z" fill="#E6B8A1"/>
<path d="M77.6492 9.88721L70.8638 21.636H73.0408L75.345 17.6428H82.2902L84.5944 21.636H86.7714L79.9859 9.88721H77.6492ZM76.4335 15.7586L78.8205 11.6265L81.2017 15.7586H76.4335Z" fill="#E6B8A1"/>
<path d="M83.3846 9.88721V11.7684H89.8003V21.633H91.6815V11.7684H98.0972V9.88721H83.3846Z" fill="#E6B8A1"/>
<path d="M100.15 9.88721V21.633H114.866V19.7518H102.034V16.6993H114.866V14.818H102.034V11.7684H114.866V9.88721H100.15Z" fill="#E6B8A1"/>
<path d="M117.46 12.0258V19.4974C117.46 20.6776 118.418 21.636 119.598 21.636H132.172V19.7548H119.79C119.542 19.7548 119.341 19.5536 119.341 19.3052V12.218C119.341 11.9696 119.542 11.7684 119.79 11.7684H132.172V9.88721H119.598C118.418 9.88721 117.46 10.8456 117.46 12.0258Z" fill="#E6B8A1"/>
<path d="M147.911 9.88721V14.818H136.964V9.88721H135.08V21.633H136.964V16.6993H147.911V21.633H149.795V9.88721H147.911Z" fill="#E6B8A1"/>
<path d="M7.52614 7.47352C7.52614 7.47352 48.1885 3.53359 57.7691 0.818237C57.7691 0.818237 42.3703 10.5645 28.1723 23.9845H81.2016C81.2016 23.9845 20.4729 30.0542 0.113632 34.2071C0.113632 34.2071 33.532 10.1889 38.0369 8.05919L7.52614 7.47352Z" fill="#E6B8A1"/>
</g>
<defs>
<clipPath id="clip0_86_80">
<rect width="149.682" height="33.375" fill="white" transform="translate(0.113632 0.818237)"/>
</clipPath>
</defs>
</svg>
