<svg width="98" height="98" viewBox="0 0 98 98" fill="none" xmlns="http://www.w3.org/2000/svg">
<circle cx="49" cy="49" r="48.5455" fill="#DB0D36"/>
<rect x="51.5052" y="31.1147" width="7.66507" height="19.144" transform="rotate(-90 51.5052 31.1147)" fill="white"/>
<rect x="62.9916" y="33.6699" width="7.65761" height="29.3828" fill="white"/>
<path d="M60.4391 33.6699H52.7815V65.6077C52.7815 67.7244 51.0673 69.4403 48.9527 69.4403C46.8381 69.4403 45.1239 67.7244 45.1239 65.6077H37.4858C37.0917 72.031 42.7296 75.8278 48.9527 75.8278C55.2965 75.8278 60.4391 72.3147 60.4391 65.6077V33.6699Z" fill="white"/>
<path d="M20.8748 33.6699V63.0527H50.229V55.3876H28.5324V51.5551H47.6764V45.1675H28.5324V41.335H50.229V33.6699H20.8748Z" fill="white"/>
</svg>
