<svg width="134" height="58" viewBox="0 0 134 58" fill="none" xmlns="http://www.w3.org/2000/svg">
<rect x="0.25" y="55.646" width="133.5" height="1.6496" fill="white"/>
<path d="M2.43854 44.6487H7.71752V45.7699H5.7747V49.0476H4.38136V45.7699H2.43854V44.6487Z" fill="white"/>
<path d="M8.54593 44.6487H9.93927V46.2249H12.9418V44.6487H14.3351V49.0476H12.9418V47.4582H9.93927V49.0476H8.54593V44.6487Z" fill="white"/>
<path d="M15.4702 44.6487H20.2978V45.6841H16.7785V46.3238H20.1212V47.2933H16.7785V47.9924H20.324V49.0476H15.4702V44.6487Z" fill="white"/>
<path d="M21.2638 49.0476V44.6487H24.4756C25.9802 44.6487 25.9802 44.6487 26.2615 44.8202C26.5951 45.0246 26.6932 45.3148 26.6932 46.0798C26.6932 46.7327 26.6278 46.9834 26.3923 47.1614C26.268 47.2603 26.1437 47.3065 25.882 47.3461C26.5558 47.4252 26.6736 47.6231 26.6474 48.6387V49.0476H25.3391V48.8168C25.3391 48.3222 25.3129 48.1639 25.2083 48.0518C25.1167 47.9462 25.0186 47.933 24.4691 47.933H22.5917V49.0476H21.2638ZM22.5917 46.8317H24.4625C25.1298 46.8185 25.1298 46.8185 25.2214 46.7525C25.326 46.6866 25.3653 46.5547 25.3653 46.2777C25.3653 45.9809 25.3129 45.8556 25.1756 45.7962C25.084 45.7567 25.0644 45.7567 24.4625 45.7501H22.5917V46.8317Z" fill="white"/>
<path d="M27.677 44.6487H32.5046V45.6841H28.9853V46.3238H32.328V47.2933H28.9853V47.9924H32.5308V49.0476H27.677V44.6487Z" fill="white"/>
<path d="M40.1906 44.7127H41.5748V48.9836H40.1906V44.7127Z" fill="white"/>
<path d="M42.5473 47.5685H43.8276C43.8276 47.8246 43.8536 47.9079 43.9576 47.9719C44.0811 48.0487 44.224 48.0615 45.1534 48.0615C46.5701 48.0615 46.5701 48.0615 46.5701 47.6838C46.5701 47.4276 46.4727 47.3636 46.0502 47.3572L45.0104 47.3188L44.3085 47.2868L43.9576 47.274C42.8853 47.2419 42.5863 46.973 42.5863 46.0318C42.5863 45.2186 42.8203 44.8536 43.4182 44.7255C43.6716 44.6743 44.2695 44.6487 45.3094 44.6487C46.5701 44.6487 47.0251 44.7063 47.3305 44.9112C47.5905 45.0841 47.6944 45.353 47.6944 45.8589C47.6944 45.8845 47.6944 45.9741 47.6879 46.0574H46.4142C46.4012 45.8205 46.3817 45.7628 46.2842 45.7052C46.1737 45.6412 46.0112 45.6284 45.0754 45.6284C43.9576 45.6284 43.8666 45.654 43.8666 45.9677C43.8666 46.1278 43.9251 46.211 44.0616 46.2431C44.1786 46.2751 44.536 46.2943 45.4523 46.3199C46.8821 46.3647 47.1615 46.3967 47.441 46.5696C47.7399 46.7617 47.8504 47.0499 47.8504 47.6453C47.8504 48.3881 47.6684 48.7531 47.22 48.9196C46.9601 49.0156 46.4142 49.0476 45.1209 49.0476C43.7756 49.0476 43.2492 48.99 42.9438 48.7979C42.6448 48.6122 42.5473 48.3625 42.5473 47.7734V47.5685Z" fill="white"/>
<path d="M55.5103 44.7127H57.8252L60.0945 47.8951H60.2311L60.1986 44.7127H61.5446V48.9836H59.2492L56.9668 45.7948H56.8238L56.8563 48.9836H55.5103V44.7127Z" fill="white"/>
<path d="M65.5598 44.6487C67.374 44.6487 67.7772 44.6935 68.1088 44.9432C68.4404 45.1929 68.538 45.622 68.538 46.845C68.538 48.0743 68.4404 48.5034 68.1088 48.7531C67.7772 49.0028 67.3675 49.0476 65.5728 49.0476C63.7456 49.0476 63.3424 49.0028 63.0108 48.7531C62.6727 48.497 62.5816 48.0743 62.5816 46.8193C62.5816 45.6284 62.6792 45.1929 63.0108 44.9432C63.3424 44.6935 63.7456 44.6487 65.5598 44.6487ZM65.5598 45.7564C64.2593 45.7564 64.1358 45.7756 64.0057 46.0254C63.9277 46.1726 63.9017 46.4159 63.9017 46.9602C63.9017 47.4917 63.9407 47.6645 64.0967 47.7862C64.2723 47.9207 64.4804 47.9399 65.5728 47.9399C66.6327 47.9399 66.8473 47.9143 67.0229 47.7862C67.1724 47.671 67.2179 47.4853 67.2179 46.9666C67.2179 46.3327 67.1789 46.0894 67.0619 45.9485C66.9123 45.7756 66.7693 45.7564 65.5598 45.7564Z" fill="white"/>
<path d="M69.358 44.7127H74.6056V45.8012H72.6743V48.9836H71.2893V45.8012H69.358V44.7127Z" fill="white"/>
<path d="M75.4291 44.7127H76.8141V46.2431H79.7988V44.7127H81.1838V48.9836H79.7988V47.4404H76.8141V48.9836H75.4291V44.7127Z" fill="white"/>
<path d="M82.3121 44.7127H83.6971V48.9836H82.3121V44.7127Z" fill="white"/>
<path d="M84.8262 44.7127H87.1411L89.4105 47.8951H89.5471L89.5146 44.7127H90.8606V48.9836H88.5652L86.2828 45.7948H86.1397L86.1723 48.9836H84.8262V44.7127Z" fill="white"/>
<path d="M94.6157 46.5632H97.6394V46.6785C97.6394 47.1011 97.6133 47.831 97.5938 48.0359C97.5418 48.5354 97.2622 48.8299 96.742 48.9324C96.2998 49.022 95.8447 49.0476 94.6677 49.0476C93.1786 49.0476 92.7169 48.99 92.3528 48.7467C91.9692 48.497 91.8976 48.1832 91.8976 46.7809C91.8976 44.7831 92.0862 44.6487 94.8953 44.6487C96.5079 44.6487 97.1061 44.7511 97.3923 45.0905C97.5743 45.3018 97.6263 45.5643 97.6328 46.1918H96.3128C96.3063 45.9421 96.2933 45.8909 96.2088 45.8333C96.0787 45.7436 95.7731 45.718 94.7847 45.718C93.2241 45.718 93.2176 45.7244 93.2176 46.8321C93.2176 47.5557 93.2566 47.7734 93.3997 47.8887C93.5102 47.9783 93.6273 47.9975 93.9979 48.0103L94.7717 48.0231C96.3128 48.0231 96.3519 48.0103 96.3519 47.5365V47.4148H94.6157V46.5632Z" fill="white"/>
<path d="M105.299 44.6487H109.888V45.6841H106.621V46.5151H109.725V47.5242H106.621V49.0476H105.299V44.6487Z" fill="white"/>
<path d="M110.708 44.6487H112.094V49.0476H110.708V44.6487Z" fill="white"/>
<path d="M113.225 44.6487H115.542L117.814 47.9265H117.95L117.918 44.6487H119.265V49.0476H116.967L114.683 45.7633H114.539L114.572 49.0476H113.225V44.6487Z" fill="white"/>
<path d="M120.394 44.6487H125.198V45.6841H121.696V46.3238H125.022V47.2933H121.696V47.9924H125.224V49.0476H120.394V44.6487Z" fill="white"/>
<path d="M126.159 49.0476V44.6487H129.355C130.852 44.6487 130.852 44.6487 131.132 44.8202C131.464 45.0246 131.561 45.3148 131.561 46.0798C131.561 46.7327 131.496 46.9834 131.262 47.1614C131.138 47.2603 131.015 47.3065 130.754 47.3461C131.425 47.4252 131.542 47.6231 131.516 48.6387V49.0476H130.214V48.8168C130.214 48.3222 130.188 48.1639 130.084 48.0518C129.993 47.9462 129.895 47.933 129.348 47.933H127.48V49.0476H126.159ZM127.48 46.8317H129.342C130.006 46.8185 130.006 46.8185 130.097 46.7525C130.201 46.6866 130.24 46.5547 130.24 46.2777C130.24 45.9809 130.188 45.8556 130.051 45.7962C129.96 45.7567 129.941 45.7567 129.342 45.7501H127.48V46.8317Z" fill="white"/>
<path d="M124.996 30.352L124.996 28.7024H127.732V30.352H124.996Z" fill="white"/>
<path d="M131.014 30.352V28.7024H133.75V30.352H131.014Z" fill="white"/>
<path d="M127.895 33.7492L126.474 32.9244L127.842 30.5434L129.263 31.3682L127.895 33.7492Z" fill="white"/>
<path d="M130.904 28.511L129.483 27.6862L130.851 25.3052L132.272 26.13L130.904 28.511Z" fill="white"/>
<path d="M126.474 26.13L127.895 25.3052L129.263 27.6862L127.841 28.511L126.474 26.13Z" fill="white"/>
<path d="M129.483 31.3682L130.904 30.5434L132.272 32.9244L130.851 33.7492L129.483 31.3682Z" fill="white"/>
<path d="M12.2869 20.1927H33.1525V24.7165H17.9415V27.5114H32.3891V31.7471H17.9415V34.8014H33.2655V39.4116H12.2869V20.1927Z" fill="white"/>
<path d="M38.2321 20.1927H46.092L51.888 26.9352L57.7406 20.1927H65.6853L56.6379 29.7013L66.1377 39.4116H58.0798L51.888 32.4963L45.7528 39.4116H37.497L47.1381 29.7013L38.2321 20.1927Z" fill="white"/>
<path d="M71.2551 20.1927H92.1207V24.7165H76.9097V27.5114H91.3573V31.7471H76.9097V34.8014H92.2338V39.4116H71.2551V20.1927Z" fill="white"/>
<path d="M115.889 32.0064H121.657C121.685 33.1014 121.713 33.5336 121.713 33.8217C121.713 36.9336 120.921 38.3455 118.829 39.0371C117.303 39.5269 115.239 39.6998 111.054 39.6998C103.675 39.6998 101.3 39.4693 99.7732 38.576C98.5292 37.8557 97.9637 36.7896 97.7375 34.8302C97.6527 33.9658 97.5962 32.381 97.5962 29.9318C97.5962 25.6385 97.7092 24.0538 98.1333 22.9876C99.1512 20.3944 101.215 19.9045 111.082 19.9045C116.115 19.9045 117.868 20.1062 119.169 20.7978C120.78 21.6334 121.346 23.0453 121.346 26.1284V27.0792H115.606C115.55 25.8114 115.493 25.5521 115.154 25.2639C114.73 24.8894 113.062 24.7165 109.443 24.7165C105.852 24.7165 104.806 24.8317 104.24 25.2928C103.562 25.869 103.336 26.9928 103.336 29.903C103.336 34.8302 103.42 34.8878 109.471 34.8878C115.776 34.8878 115.861 34.859 115.889 32.0064Z" fill="white"/>
<path d="M0.25 30.4501L0.25 28.8005H2.98566V30.4501H0.25Z" fill="white"/>
<path d="M6.26844 30.4501V28.8005H9.0041V30.4501H6.26844Z" fill="white"/>
<path d="M3.14925 33.8473L1.72776 33.0225L3.09559 30.6415L4.51708 31.4663L3.14925 33.8473Z" fill="white"/>
<path d="M6.15847 28.6091L4.73698 27.7843L6.10481 25.4033L7.5263 26.2281L6.15847 28.6091Z" fill="white"/>
<path d="M1.72773 26.2281L3.14922 25.4033L4.51705 27.7843L3.09556 28.6091L1.72773 26.2281Z" fill="white"/>
<path d="M4.73695 31.4663L6.15844 30.6415L7.52627 33.0225L6.10478 33.8473L4.73695 31.4663Z" fill="white"/>
<path d="M2.43854 8.93345H7.73476V10.0479H5.78559V13.3062H4.3877V10.0479H2.43854V8.93345Z" fill="white"/>
<path d="M30.5786 13.3062L30.2045 12.5654H27.3103L26.9362 13.3062H25.4136L27.7303 8.93345H29.8041L32.0946 13.3062H30.5786ZM29.7385 11.6082L28.8919 9.9496H28.6294L27.7828 11.6082H29.7385Z" fill="white"/>
<path d="M50.6699 8.93345H53.0063L55.2967 12.1917H55.4345L55.4017 8.93345H56.7602V13.3062H54.4435L52.14 10.0414H51.9956L52.0284 13.3062H50.6699V8.93345Z" fill="white"/>
<path d="M80.61 13.3062L80.2359 12.5654H77.3417L76.9676 13.3062H75.4451L77.7617 8.93345H79.8356L82.126 13.3062H80.61ZM79.77 11.6082L78.9234 9.9496H78.6609L77.8143 11.6082H79.77Z" fill="white"/>
<path d="M100.701 8.93345H102.034V10.52H102.762L104.495 8.90723H106.536L104.002 11.0772L106.746 13.3062H104.724L102.762 11.6344H102.034V13.3062H100.701V8.93345Z" fill="white"/>
<path d="M130.045 13.3062L129.671 12.5654H126.777L126.403 13.3062H124.881L127.197 8.93345H129.271L131.561 13.3062H130.045ZM129.205 11.6082L128.359 9.9496H128.096L127.25 11.6082H129.205Z" fill="white"/>
<rect x="0.25" y="0.65918" width="133.5" height="1.6496" fill="white"/>
</svg>
