<svg width="150" height="42" viewBox="0 0 150 42" fill="none" xmlns="http://www.w3.org/2000/svg">
<g clip-path="url(#clip0_203_1305)">
<path d="M29.4296 37.7533V39.2958C29.4296 40.015 29.9158 40.4267 30.4993 40.4267C31.0828 40.4267 31.5853 40.015 31.5853 39.2958V36.9467C31.5853 35.0258 28.4976 35.849 28.4976 33.1922V31.051C28.4976 29.8162 29.3971 29.1135 30.5034 29.1135C31.6096 29.1135 32.5254 29.8162 32.5254 31.051V32.6102H31.5731V31.051C31.5731 30.3484 31.0869 29.9368 30.5034 29.9368C29.9199 29.9368 29.4498 30.3484 29.4498 31.051V33.1922C29.4498 35.1297 32.5376 34.3065 32.5376 36.9467V39.2958C32.5376 40.5472 31.6177 41.2499 30.4993 41.2499C29.3809 41.2499 28.4773 40.5472 28.4773 39.2958V37.7533H29.4296Z" fill="white"/>
<path d="M36.5938 29.1885H37.546V41.1835H36.5938V29.1885Z" fill="white"/>
<path d="M46.9509 29.1885H48.8716C49.99 29.1885 50.9099 29.9078 50.9099 31.1592V34.3108C50.9099 35.5623 49.99 36.2649 48.8716 36.2649H47.9032V41.1835H46.9509V29.1885ZM48.8716 35.4417C49.4714 35.4417 49.9576 35.0301 49.9576 34.3108V31.1592C49.9576 30.4399 49.4754 30.0117 48.8716 30.0117H47.9032V35.4417H48.8716Z" fill="white"/>
<path d="M55.566 29.1885H56.8181L58.5565 41.1835H57.588L57.1382 37.9613H55.2337L54.8001 41.1835H53.8317L55.57 29.1885H55.566ZM57.0855 37.138L56.2184 30.3693H56.186L55.3026 37.138H57.0896H57.0855Z" fill="white"/>
<path d="M64.1362 35.9572H63.1839V41.1835H62.2317V29.1885H64.1524C65.2708 29.1885 66.1906 29.9078 66.1906 31.1592V34.0031C66.1906 34.9469 65.672 35.5456 64.9547 35.7493L66.5067 41.1793H65.522L64.1362 35.9531V35.9572ZM64.1524 35.134C64.7521 35.134 65.2384 34.7224 65.2384 34.0031V31.1592C65.2384 30.4399 64.7562 30.0117 64.1524 30.0117H63.1839V35.134H64.1524Z" fill="white"/>
<path d="M70.2468 29.1885H71.1991V40.3602H73.8694V41.1835H70.2468V29.1885Z" fill="white"/>
<path d="M78.8658 29.1885H80.1179L81.8563 41.1835H80.8878L80.438 37.9613H78.5335L78.0999 41.1835H77.1315L78.8698 29.1885H78.8658ZM80.3853 37.138L79.5182 30.3693H79.4858L78.6024 37.138H80.3894H80.3853Z" fill="white"/>
<path d="M90.7427 29.1885H92.1609L93.8629 39.6909H93.8953L95.6499 29.1885H97.0519V41.1835H96.1321V30.9181H96.0996L94.4464 41.1835H93.3442L91.6909 30.9181H91.6585V41.1835H90.7386V29.1885H90.7427Z" fill="white"/>
<path d="M105.189 31.0887V39.296C105.189 40.5475 104.269 41.2501 103.15 41.2501C102.032 41.2501 101.128 40.5475 101.128 39.296V31.0887C101.128 29.8372 102.032 29.1179 103.15 29.1179C104.269 29.1179 105.189 29.8372 105.189 31.0887ZM102.081 39.296C102.081 40.0153 102.567 40.4269 103.15 40.4269C103.734 40.4269 104.236 40.0153 104.236 39.296V31.0887C104.236 30.3694 103.754 29.9411 103.15 29.9411C102.547 29.9411 102.081 30.3694 102.081 31.0887V39.296Z" fill="white"/>
<path d="M109.245 29.1885H111.214C112.332 29.1885 113.252 29.9078 113.252 31.1592V39.2294C113.252 40.4808 112.332 41.1835 111.214 41.1835H109.245V29.1885ZM111.214 40.3602C111.814 40.3602 112.3 39.9486 112.3 39.2294V31.1592C112.3 30.4399 111.814 30.0117 111.214 30.0117H110.197V40.3602H111.214Z" fill="white"/>
<path d="M118.532 29.1885H119.784L121.523 41.1835H120.554L120.105 37.9613H118.2L117.766 41.1835H116.798L118.536 29.1885H118.532ZM120.052 37.138L119.185 30.3693H119.152L118.269 37.138H120.056H120.052Z" fill="white"/>
<path d="M95.2025 15.8031L85.0528 0.79541H83.6937V19H85.0528V3.79267L95.2025 19H96.5648V0.79541H95.2025V15.8031Z" fill="white"/>
<path d="M110.443 0.79541V2.13545H116.386V19H117.749V2.13545H123.692V0.79541H110.443Z" fill="white"/>
<path d="M149.841 2.13545V0.79541H137.883C137.677 0.79541 137.512 0.980734 137.512 1.20526V18.5865C137.512 18.8146 137.68 18.9964 137.883 18.9964H149.841V17.6599H138.868V10.5641H146.942V9.22766H138.868V2.13545H149.841Z" fill="white"/>
<path d="M70.0543 18.2729L62.8068 0.79541H62.8036H62.5453H62.5421L62.2903 1.09478L62.0385 0.79541H62.032H61.777H61.7705L54.5263 18.2729H54.7587L54.4585 19H55.8499L62.2903 3.46836L68.7307 19H70.122L69.8186 18.2729H70.0543Z" fill="white"/>
<path d="M15.7548 18.2729L8.50736 0.79541H8.50413H8.24587H8.24264L7.99083 1.09478L7.73903 0.79541H7.7358H7.47754H7.47108L0.226851 18.2729H0.459286L0.159058 19H1.55044L7.99083 3.46836L14.4312 19H15.8226L15.5224 18.2729H15.7548Z" fill="white"/>
<path d="M41.581 0.79541L35.1406 16.327L28.7002 0.79541H27.3088L27.6091 1.52245H27.3766L34.6209 19H34.6273H34.8856H34.8888L35.1406 18.7006L35.3924 19H35.3956H35.6539H35.6571L42.9046 1.52245H42.6722L42.9724 0.79541H41.581Z" fill="white"/>
</g>
<defs>
<clipPath id="clip0_203_1305">
<rect width="149.682" height="40.4548" fill="white" transform="translate(0.159058 0.79541)"/>
</clipPath>
</defs>
</svg>
