<svg width="150" height="32" viewBox="0 0 150 32" fill="none" xmlns="http://www.w3.org/2000/svg">
<g clip-path="url(#clip0_104_756)">
<path d="M16.4975 0.840962H1.87688C1.39269 0.840962 0.97768 1.01345 0.649127 1.34994C0.323456 1.68078 0.15918 2.07665 0.15918 2.52625V22.2917C0.15918 22.7384 0.323456 23.1343 0.649127 23.468C0.97768 23.8045 1.39269 23.977 1.87688 23.977C2.36106 23.977 2.77319 23.8045 3.10463 23.468C3.4303 23.1343 3.59458 22.7384 3.59458 22.2917V13.2318H15.8173C16.3044 13.2318 16.7194 13.0537 17.0508 12.7002C17.3707 12.3581 17.535 11.9481 17.535 11.4815C17.535 11.0149 17.3707 10.6388 17.0451 10.3052C16.7165 9.96868 16.3015 9.7962 15.8173 9.7962H3.59458V4.27376H16.5004C16.9874 4.27376 17.4024 4.09561 17.7339 3.74215C18.0538 3.4 18.2181 2.98999 18.2181 2.52343C18.2181 2.05686 18.0538 1.68078 17.7281 1.34712C17.3996 1.01062 16.9846 0.838135 16.5004 0.838135L16.4975 0.840962Z" fill="#E63917"/>
<path d="M36.0665 7.94971C35.5823 7.94971 35.1673 8.1222 34.8387 8.45869C34.5131 8.79235 34.3488 9.18823 34.3488 9.635V17.7646C34.3488 18.1293 34.2796 18.463 34.1413 18.7599C33.9972 19.0681 33.7983 19.3594 33.5505 19.6195C33.245 19.9362 32.9222 20.1681 32.5879 20.3038C32.2507 20.4424 31.9106 20.5102 31.5791 20.5102H23.1578V9.635C23.1578 9.18823 22.9935 8.79235 22.6679 8.45869C22.3393 8.1222 21.9243 7.94971 21.4401 7.94971C20.9559 7.94971 20.5409 8.1222 20.2124 8.45869C19.8867 8.79235 19.7224 9.18823 19.7224 9.635V23.9458H31.5129C33.2219 23.9458 34.7119 23.3379 35.9339 22.1361C37.1588 20.9344 37.7784 19.4555 37.7784 17.7334V9.635C37.7784 9.18823 37.6141 8.79235 37.2885 8.45869C36.957 8.1222 36.5449 7.94971 36.0607 7.94971H36.0665Z" fill="#E63917"/>
<path d="M55.6011 7.98086C55.1112 7.98086 54.7019 8.15334 54.382 8.49549C54.0708 8.82633 53.9151 9.2222 53.9151 9.66615V20.5414H45.4938C44.8857 20.5414 44.3727 20.3802 43.9289 20.0465L43.6435 19.7666C43.07 19.2039 42.7905 18.5592 42.7905 17.7929V9.66332C42.7905 9.21372 42.6175 8.81502 42.2775 8.48135C41.9374 8.14769 41.5224 7.97803 41.0411 7.97803C40.5598 7.97803 40.1419 8.15052 39.8133 8.48701C39.4876 8.82067 39.3234 9.21655 39.3234 9.66332V17.824C39.3234 19.5234 39.943 20.9938 41.1679 22.1956C42.3697 23.3747 43.8683 23.9742 45.6235 23.9742H53.9094C53.9007 24.4294 53.8834 24.814 53.8489 25.1165C53.8085 25.4898 53.748 25.7924 53.6731 26.0186C53.601 26.2306 53.5174 26.4031 53.4223 26.5275C53.3157 26.6718 53.1917 26.8216 53.0476 26.9828C52.4972 27.5172 51.8747 27.7774 51.1426 27.7774H41.0036C40.5194 27.7774 40.1044 27.9499 39.7758 28.2864C39.4502 28.62 39.2859 29.0244 39.2859 29.4938C39.2859 29.9632 39.453 30.3704 39.7816 30.6927C40.1102 31.0151 40.5223 31.1791 41.0036 31.1791H51.0446C52.7767 31.1791 54.2639 30.5796 55.4657 29.4005C56.6906 28.1987 57.3102 26.7283 57.3102 25.0289V9.66615C57.3102 9.21937 57.1459 8.8235 56.8202 8.48984C56.4917 8.15334 56.0767 7.98086 55.5925 7.98086H55.6011Z" fill="#E63917"/>
<path d="M75.17 7.94971C74.6859 7.94971 74.2708 8.1222 73.9423 8.45869C73.6166 8.79235 73.4523 9.18823 73.4523 9.635V17.7646C73.4523 18.1293 73.3832 18.463 73.2448 18.7571C73.1007 19.0653 72.9019 19.3565 72.654 19.6195C72.3485 19.9362 72.0257 20.1681 71.6943 20.3038C71.3571 20.4424 71.017 20.5102 70.6856 20.5102H62.2643V9.635C62.2643 9.18823 62.1 8.79235 61.7743 8.45869C61.4457 8.1222 61.0307 7.94971 60.5466 7.94971C60.0624 7.94971 59.6474 8.1222 59.3188 8.45869C58.9931 8.79235 58.8289 9.18823 58.8289 9.635V23.9458H70.6193C72.3283 23.9458 73.8184 23.3379 75.0404 22.1361C76.2652 20.9344 76.8849 19.4555 76.8849 17.7334V9.635C76.8849 9.18823 76.7206 8.79235 76.3949 8.45869C76.0664 8.1222 75.6513 7.94971 75.1672 7.94971H75.17Z" fill="#E63917"/>
<path d="M84.5655 11.1676C85.0411 11.1676 85.4474 10.9979 85.7731 10.6671C86.093 10.3391 86.2544 9.94039 86.2544 9.47948C86.2544 9.01857 86.093 8.65097 85.7731 8.32296C85.4474 7.99212 85.0411 7.82246 84.5655 7.82246H81.7757V2.49796C81.7757 2.05401 81.6057 1.66379 81.2713 1.33578C80.937 1.00777 80.5278 0.840942 80.0551 0.840942C79.5825 0.840942 79.1703 1.0106 78.8562 1.3471C78.5507 1.67228 78.3979 2.05967 78.3979 2.49796V17.4592C78.3979 19.1247 79.0061 20.5639 80.205 21.7374C81.3809 22.894 82.8507 23.4793 84.5655 23.4793C85.0411 23.4793 85.4474 23.3124 85.7731 22.9788C86.093 22.6508 86.2544 22.2634 86.2544 21.8223C86.2544 21.3811 86.0872 20.957 85.7558 20.6177C85.4215 20.2755 84.9892 20.103 84.4704 20.103C83.7528 20.103 83.1533 19.857 82.6374 19.3509C82.0581 18.7825 81.7757 18.1519 81.7757 17.4281V11.1676H84.5655Z" fill="#E63917"/>
<path d="M123.64 7.94971C123.156 7.94971 122.741 8.1222 122.413 8.45869C122.087 8.79235 121.923 9.18823 121.923 9.635V17.7646C121.923 18.1293 121.854 18.463 121.715 18.7599C121.574 19.0681 121.375 19.3565 121.124 19.6195C120.822 19.9362 120.496 20.1652 120.162 20.3038C119.825 20.4424 119.487 20.5102 119.153 20.5102H110.732V9.635C110.732 9.18823 110.568 8.79235 110.242 8.45869C109.913 8.1222 109.498 7.94971 109.014 7.94971C108.53 7.94971 108.115 8.1222 107.786 8.45869C107.461 8.79235 107.296 9.18823 107.296 9.635V23.9458H119.087C120.796 23.9458 122.286 23.3379 123.508 22.1361C124.733 20.9344 125.352 19.4555 125.352 17.7334V9.635C125.352 9.18823 125.188 8.79235 124.862 8.45869C124.531 8.1222 124.119 7.94971 123.635 7.94971H123.64Z" fill="#E63917"/>
<path d="M141.232 13.8991L140.552 13.5542C140.578 13.4099 140.604 13.2714 140.63 13.1385C140.673 12.9151 140.722 12.6578 140.777 12.3694C140.829 12.0866 140.901 11.7501 140.987 11.3627C141.074 10.9697 141.18 10.489 141.316 9.9008C141.359 9.66893 141.408 9.41444 141.463 9.14016C141.515 8.87718 141.593 8.56897 141.696 8.22399L141.714 8.16744V7.91578C141.714 7.5199 141.57 7.15513 141.284 6.83278C141.013 6.52739 140.685 6.32097 140.304 6.21352L140.247 6.19655H139.961C139.555 6.19655 139.183 6.33793 138.858 6.61505C138.546 6.88085 138.336 7.2032 138.226 7.57645L137.601 10.7406C137.486 11.3684 137.209 11.9509 136.782 12.4655C136.503 12.7935 136.203 13.0225 135.892 13.1441C135.563 13.2742 135.186 13.3392 134.762 13.3392H130.338V2.52623C130.338 2.07381 130.165 1.67793 129.825 1.34427C129.485 1.0106 129.07 0.840942 128.589 0.840942C128.107 0.840942 127.69 1.01343 127.361 1.34992C127.035 1.68359 126.871 2.07946 126.871 2.52623V22.2917C126.871 22.7384 127.035 23.1343 127.361 23.468C127.69 23.8045 128.105 23.9769 128.589 23.9769C129.073 23.9769 129.485 23.8073 129.825 23.4736C130.165 23.14 130.338 22.7413 130.338 22.2917V16.772H138.725C139.01 16.772 139.347 16.8569 139.722 17.0237C140.103 17.1905 140.451 17.4394 140.742 17.7419C141.224 18.3103 141.457 18.9126 141.457 19.5827V22.2917C141.457 22.7384 141.621 23.1343 141.947 23.468C142.276 23.8045 142.691 23.9769 143.175 23.9769C143.659 23.9769 144.071 23.8073 144.403 23.468C144.728 23.1343 144.893 22.7384 144.893 22.2917V19.5827C144.893 17.9059 144.261 16.4355 143.016 15.2112C142.492 14.6965 141.892 14.2554 141.232 13.8991Z" fill="#E63917"/>
<path d="M148.123 4.27376C148.613 4.27376 149.028 4.09561 149.357 3.74215C149.68 3.40001 149.841 2.98999 149.841 2.52343C149.841 2.05686 149.677 1.68078 149.351 1.34712C149.023 1.01062 148.608 0.838135 148.123 0.838135C147.639 0.838135 147.224 1.01062 146.896 1.34712C146.57 1.68078 146.406 2.07665 146.406 2.52343C146.406 2.9702 146.57 3.40001 146.89 3.74215C147.218 4.09561 147.634 4.27376 148.123 4.27376Z" fill="#E63917"/>
<path d="M148.123 7.98089C147.639 7.98089 147.224 8.15337 146.896 8.48987C146.57 8.82353 146.406 9.21941 146.406 9.66618V22.2917C146.406 22.7385 146.57 23.1344 146.896 23.468C147.224 23.8045 147.639 23.977 148.123 23.977C148.608 23.977 149.023 23.8045 149.351 23.468C149.677 23.1344 149.841 22.7385 149.841 22.2917V9.66618C149.841 9.21941 149.677 8.82353 149.351 8.48987C149.023 8.15337 148.608 7.98089 148.123 7.98089Z" fill="#E63917"/>
<path d="M92.1482 11.3853H104.071C104.555 11.3853 104.968 11.2128 105.299 10.8764C105.625 10.5427 105.789 10.1383 105.789 9.66893C105.789 9.19954 105.625 8.82629 105.299 8.49262C104.968 8.15613 104.555 7.98364 104.071 7.98364H92.1972C89.7532 7.98364 87.7617 9.93474 87.7617 12.3326C87.7617 14.7305 89.7503 16.6844 92.1972 16.6844H100.212C101.296 16.6844 102.178 17.5497 102.178 18.6157C102.178 19.6817 101.296 20.547 100.212 20.547H89.4794C88.9952 20.547 88.5831 20.7195 88.2517 21.056C87.926 21.3896 87.7617 21.794 87.7617 22.2634C87.7617 22.7328 87.926 23.106 88.2517 23.4397C88.5831 23.7762 88.9952 23.9487 89.4794 23.9487H100.353C103.348 23.9487 105.786 21.5565 105.786 18.6157C105.786 15.6749 103.351 13.2827 100.353 13.2827H92.1741C91.6409 13.2827 91.2058 12.8585 91.2058 12.3326C91.2058 11.8067 91.6294 11.3966 92.1424 11.3882L92.1482 11.3853Z" fill="#E63917"/>
</g>
<defs>
<clipPath id="clip0_104_756">
<rect width="149.682" height="30.3409" fill="white" transform="translate(0.15918 0.840942)"/>
</clipPath>
</defs>
</svg>
