<svg width="134" height="116" viewBox="0 0 134 116" fill="none" xmlns="http://www.w3.org/2000/svg">
<path d="M38.5755 107.294H32.4278C34.5706 110.133 36.5851 112.801 38.693 115.595H33.5807C31.6373 112.878 27.6599 107.315 27.6599 107.315H24.5565V115.636H20.4773V95.4304C20.4773 95.4304 21.0377 95.4304 21.3068 95.4304C24.1871 95.425 27.066 95.4169 29.9462 95.4304C34.1719 95.4508 37.6851 98.2387 38.4351 102.267C38.7335 103.863 38.5755 107.294 38.5755 107.294ZM30.72 99.5412C28.6968 99.3384 24.5602 99.3826 24.5602 99.3826L24.553 103.237H34.2445C33.943 101.395 32.7097 99.8401 30.72 99.5412Z" fill="#CC2944"/>
<path d="M113.506 115.63L109.366 115.631C109.374 111.883 109.369 108.134 109.36 104.386C109.353 101.461 107.308 99.4527 104.295 99.4093C102.68 99.3865 101.064 99.4066 99.448 99.4066V115.636H95.3869L95.3868 95.4164C98.4823 95.4165 101.578 95.3984 104.673 95.4191C109.516 95.4503 113.43 99.1721 113.495 103.867C113.55 107.788 113.506 111.709 113.506 115.63Z" fill="#CC2944"/>
<path d="M49.0221 95.4433H52.1701C55.1242 102.124 58.0798 108.807 61.0855 115.605H56.464C55.9091 114.253 55.3431 112.876 54.7617 111.459H46.4402C45.8797 112.815 45.3026 114.208 44.7268 115.6H40.108C43.1054 108.822 46.054 102.154 49.0221 95.4433ZM53.408 108.109C52.4743 105.808 51.6143 103.461 50.5918 101.196C49.6103 103.48 48.7209 105.806 47.7883 108.109H53.408Z" fill="#CC2944"/>
<path d="M91.2144 95.4856V99.1274H83.7611L83.7966 103.223H91.2088V107.079H83.7792V111.922H91.2078V115.588H79.6791V95.4843L91.213 95.4655L91.2144 95.4856Z" fill="#CC2944"/>
<path d="M68.2529 115.632H65.7295C62.8172 108.946 59.9062 102.265 56.9521 95.483H61.7925C63.516 99.7772 65.0728 104.184 66.987 108.4C69.0321 104.264 70.4821 99.736 72.1969 95.4586H77.0373C74.0901 102.226 71.1806 108.906 68.2529 115.63V115.632Z" fill="#CC2944"/>
<path d="M23.1029 66.378C17.9009 65.6147 13.6562 63.0128 9.94485 59.2973C14.0718 59.374 22.3659 59.5272 22.3659 59.5272C22.3659 59.5272 11.6264 56.93 7.00376 55.8924C6.54244 55.7885 6.22104 55.5901 5.96059 55.2002C4.14609 52.4785 1.40317 48.8939 1.58844 45.4123C9.89914 47.5477 18.1253 49.6613 26.3515 51.7748C26.3765 51.7132 26.4014 51.6517 26.4263 51.5915C17.797 47.4438 9.16629 43.296 0.502323 39.1305C0.254346 37.9349 0.118582 36.7543 0.433056 35.4328C11.7985 39.2208 23.1112 42.9896 34.381 46.7461C34.7661 46.5122 34.877 46.1715 35.0474 45.8829C43.0931 32.2305 51.1126 18.5625 59.1981 4.93361C62.8291 -1.18812 71.162 -1.18949 74.7944 4.92677C82.864 18.5136 90.9046 32.1155 98.8731 45.7598C99.056 46.073 99.2541 46.3781 99.5034 46.783C110.831 43.0074 122.146 39.2372 133.543 35.4397C133.907 36.7037 133.722 37.8788 133.514 39.1209C126.253 42.6111 107.4 51.7721 107.4 51.7721C115.625 49.6599 124.098 47.5464 132.321 45.4342C132.496 47.7785 130.249 51.6385 129.279 53.3712C128.317 55.0867 127.065 56.0005 125.055 56.3767C121.389 57.0612 111.592 59.5285 111.592 59.5285C115.81 59.45 120.035 59.296 124.254 59.296C120.528 62.835 116.112 65.6079 110.909 66.378C110.887 66.7597 111.071 66.9526 111.196 67.1633C112.438 69.2713 113.64 71.4054 114.943 73.4752C118.455 79.0552 114.588 86.207 108.212 87.181C107.666 87.2644 107.109 87.3082 106.558 87.3096C95.1756 87.3164 83.7936 87.3151 72.4116 87.3151H71.6995C70.1729 85.798 68.6157 84.2521 67.0323 82.6803C65.4516 84.2727 63.9208 85.813 62.4288 87.3164C62.0353 87.3164 61.7846 87.3164 61.5338 87.3164C50.1975 87.3164 38.8612 87.3219 27.5263 87.3137C22.2994 87.3096 18.3054 83.7665 17.7527 78.6434C17.5601 76.8582 18.0533 75.2084 18.9552 73.6721C20.2172 71.523 21.4959 69.3821 22.7607 67.2358C22.8965 67.0046 23.0918 66.7939 23.1043 66.3794L23.1029 66.378ZM71.9766 55.9814C71.3532 56.3699 70.7215 56.7461 70.1091 57.1496C69.8182 57.3411 69.6963 57.6407 69.7974 57.9882C69.8805 58.2755 70.0814 58.4519 70.389 58.4889C70.7187 58.5272 71.0165 58.4164 71.1412 58.1195C71.4391 57.4109 71.8824 56.7556 71.9696 55.9718L71.9766 55.9814ZM62.0229 55.9855L62.0312 55.9677C62.0852 56.6913 62.523 57.2768 62.7585 57.9362C62.8942 58.3179 63.1755 58.5326 63.6063 58.4875C63.9139 58.4547 64.1175 58.2782 64.1979 57.9896C64.3114 57.5778 64.1175 57.2837 63.7767 57.0703C63.1935 56.705 62.6075 56.3452 62.0229 55.9855ZM86.0531 32.5464C86.1016 32.5519 86.1515 32.556 86.2193 32.5628C86.1861 32.504 86.1695 32.4725 86.1515 32.4411C81.6634 23.821 76.2554 15.5736 71.313 7.20447C69.192 3.61214 64.8032 3.61351 62.6809 7.20447C57.7133 15.6045 52.7351 23.9977 47.8438 32.4424C47.7995 32.4848 47.7621 32.5272 47.8369 32.5765C47.8729 32.5669 47.9089 32.556 47.9436 32.5464C60.1635 26.3279 73.8188 26.053 86.0503 32.5464H86.0531ZM95.3349 48.1606C82.9114 27.1073 51.972 25.401 38.6687 48.1633C46.0304 50.5942 53.2993 52.9937 60.589 55.4013C62.2791 53.3151 64.2491 51.8186 66.9935 51.8158C69.7628 51.8131 71.7425 53.3411 73.409 55.4013C80.7264 52.9855 87.9787 50.5901 95.3335 48.1619L95.3349 48.1606ZM27.4404 67.4601C27.3116 67.6065 27.2575 67.6516 27.2243 67.7091C25.6464 70.441 24.0574 73.1674 22.5003 75.9115C22.014 76.7693 21.8713 77.7159 22.0417 78.6954C22.4933 81.2946 24.6143 83.0428 27.367 83.0456C35.0778 83.0538 42.7887 83.0483 50.5009 83.0456C50.7517 83.0456 51.0024 83.0237 51.2989 83.01C53.1829 80.1482 55.0629 77.2959 57.0245 74.3178C47.0528 72.0059 37.2473 69.731 27.4404 67.4574V67.4601ZM106.626 67.4423C96.7286 69.7378 86.9245 72.0114 76.9694 74.3206C78.9379 77.3082 82.6867 82.9977 82.6867 82.9977C82.6867 82.9977 83.1272 83.0442 83.3101 83.0442C91.1595 83.0456 99.0089 83.062 106.858 83.0387C110.783 83.0264 113.368 78.731 111.235 75.3999C110.261 73.8801 109.402 72.2877 108.497 70.7241C107.881 69.6585 107.277 68.586 106.624 67.4423H106.626ZM66.9727 68.4013C67.1085 68.3944 67.132 68.2987 67.1611 68.2152C67.9328 66.0196 68.7363 63.8336 69.4594 61.6216C69.7877 60.6134 69.555 59.6257 68.8942 58.7775C67.8718 57.467 66.129 57.4574 65.1122 58.7707C64.389 59.7036 64.2242 60.757 64.6121 61.8746C65.3006 63.8582 65.9974 65.8391 66.6956 67.8185C66.7677 68.0237 66.7788 68.2659 66.9755 68.4013H66.9727Z" fill="#CC2944"/>
</svg>
