<svg width="142" height="34" viewBox="0 0 142 34" fill="none" xmlns="http://www.w3.org/2000/svg">
<g clip-path="url(#clip0_153_786)">
<path d="M19.797 6.78992C20.2288 6.78992 20.4585 7.02304 20.4585 7.43276V10.8495C20.4585 11.2592 20.2288 11.4923 19.797 11.4923H6.03949V14.6736H17.5501C17.954 14.6736 18.2117 14.9067 18.2117 15.3165V18.5283C18.2117 18.9357 17.9517 19.1712 17.5501 19.1712H6.03949V22.529H19.7947C20.2264 22.529 20.4562 22.7622 20.4562 23.1719V26.5886C20.4562 26.9984 20.2264 27.2315 19.7947 27.2315H0.888826C0.45709 27.2315 0.227295 26.9984 0.227295 26.5886V7.43276C0.227295 7.02304 0.45709 6.78992 0.888826 6.78992H19.797Z" fill="#E6CFA1"/>
<path d="M34.7081 24.4246C34.2486 26.2637 32.9232 27.2267 30.5927 27.2267H27.3408C24.3488 27.2267 23.0536 25.9717 23.0536 23.0518V16.0441C23.0536 13.1242 24.3488 11.8691 27.3408 11.8691H30.3328C32.2616 11.8691 33.4988 12.5402 34.1325 13.7953V6.20593C34.1325 5.82681 34.3623 5.62195 34.736 5.62195H38.7655C39.1694 5.62195 39.369 5.82681 39.369 6.20593V26.6428C39.369 27.0219 39.1671 27.2267 38.7655 27.2267H35.3116C34.9379 27.2267 34.7081 27.0219 34.7081 26.6428V24.4246ZM28.2901 17.6523V21.4482C28.2901 22.7315 28.5199 22.967 30.0449 22.967H32.0597C33.5267 22.967 34.1325 22.3242 34.1325 21.0691V18.0338C34.1325 16.7787 33.529 16.1359 32.0597 16.1359H30.0449C28.5199 16.1359 28.2901 16.369 28.2901 17.6547V17.6523Z" fill="#E6CFA1"/>
<path d="M42.454 23.0517V16.044C42.454 13.1241 43.7492 11.869 46.7412 11.869H49.9931C52.3236 11.869 53.6489 12.8321 54.1085 14.7018V12.453C54.1085 12.0739 54.3383 11.869 54.712 11.869H58.1659C58.5698 11.869 58.7694 12.0739 58.7694 12.453V28.4511C58.7694 31.5759 57.1005 33.1818 53.9066 33.1818H46.7992C43.979 33.1818 42.7697 32.0139 42.7697 29.24V28.8891C42.7697 28.51 42.9716 28.3051 43.3732 28.3051H47.2588C47.6603 28.3051 47.8623 28.51 47.8623 28.8891C47.8623 29.2094 48.0062 29.3554 48.3521 29.3554H51.864C53.2172 29.3554 53.5329 29.0045 53.5329 27.8366V25.3264C52.8992 26.5815 51.662 27.2243 49.7331 27.2243H46.7412C43.7492 27.2243 42.454 25.9692 42.454 23.0494V23.0517ZM47.6928 17.6499V21.4458C47.6928 22.7291 47.9226 22.9646 49.4476 22.9646H51.4624C52.9294 22.9646 53.5352 22.3217 53.5352 21.0667V18.0314C53.5352 16.7763 52.9317 16.1335 51.4624 16.1335H49.4476C47.9226 16.1335 47.6928 16.3666 47.6928 17.6523V17.6499Z" fill="#E6CFA1"/>
<path d="M66.1135 27.2267C63.1215 27.2267 61.8263 25.9716 61.8263 23.0517V16.044C61.8263 13.1241 63.1215 11.869 66.1135 11.869H74.0844C76.9324 11.869 78.1417 13.037 78.1417 15.8109V20.1907C78.1417 20.5698 77.9398 20.7747 77.5382 20.7747H67.0628V21.5046C67.0628 22.788 67.2926 23.0235 68.8176 23.0235H72.4433C72.8472 23.0235 73.0468 22.8492 73.0468 22.4395V22.3217C73.0468 21.9426 73.2487 21.7378 73.6503 21.7378H77.5359C77.9398 21.7378 78.1394 21.9426 78.1394 22.3217V23.2848C78.1394 26.0587 76.9301 27.2267 74.082 27.2267H66.1112H66.1135ZM67.0628 18.3234H72.9632V16.8352C72.9632 16.3383 72.6754 16.077 72.1578 16.077H68.82C67.295 16.077 67.0652 16.3101 67.0652 17.5958V18.3257L67.0628 18.3234Z" fill="#E6CFA1"/>
<path d="M92.3727 27.2267C91.9874 27.2267 91.7483 27.1043 91.6044 26.7887L85.3117 14.0708V26.6922C85.3117 27.0336 85.0959 27.2291 84.7593 27.2291H81.3983C81.0385 27.2291 80.8458 27.0336 80.8458 26.6922V10.7082C80.8458 10.3667 81.0385 10.1713 81.3983 10.1713H87.7141C88.0971 10.1713 88.3385 10.2937 88.4824 10.6093L94.7751 23.3508V10.7058C94.7751 10.3644 94.991 10.1689 95.3508 10.1689H98.6886C99.0484 10.1689 99.241 10.3644 99.241 10.7058V26.6875C99.241 27.0289 99.0484 27.2244 98.6886 27.2244H92.3727V27.2267Z" fill="#E6CFA1"/>
<path d="M118.602 10.1713C118.962 10.1713 119.154 10.3667 119.154 10.7081V13.5574C119.154 13.8988 118.962 14.0943 118.602 14.0943H107.121V16.7504H116.729C117.065 16.7504 117.281 16.9459 117.281 17.285V19.9647C117.281 20.3061 117.065 20.4992 116.729 20.4992H107.121V23.3013H118.602C118.962 23.3013 119.154 23.4968 119.154 23.8382V26.6875C119.154 27.0289 118.962 27.2243 118.602 27.2243H102.823C102.463 27.2243 102.27 27.0289 102.27 26.6875V10.7081C102.27 10.3667 102.463 10.1713 102.823 10.1713H118.602Z" fill="#E6CFA1"/>
<path d="M121.782 4.58583H0.726345C0.401382 4.58583 0.227295 4.40923 0.227295 4.10075V1.30332C0.227295 0.994843 0.401382 0.818237 0.726345 0.818237H141.319C141.644 0.818237 141.818 0.994843 141.818 1.30332V4.10311C141.818 4.41158 141.644 4.58819 141.319 4.58819H126.617V26.744C126.617 27.0525 126.422 27.2291 126.118 27.2291H122.281C121.956 27.2291 121.782 27.0525 121.782 26.744V4.58583Z" fill="#E6CFA1"/>
</g>
<defs>
<clipPath id="clip0_153_786">
<rect width="141.591" height="32.3636" fill="white" transform="translate(0.227295 0.818237)"/>
</clipPath>
</defs>
</svg>
