<svg width="134" height="92" viewBox="0 0 134 92" fill="none" xmlns="http://www.w3.org/2000/svg">
<g clip-path="url(#clip0_106_1086)">
<path d="M5.45853 75.9275V71.2727H0.25V91.5H10.8223C11.7929 91.5 12.5758 90.7122 12.5758 89.7357V77.6983C12.5758 76.7218 11.7929 75.934 10.8223 75.934H5.45853V75.9275ZM7.36724 89.1237H5.45853V78.3037H7.36724V89.1237Z" fill="#14CC70"/>
<path d="M19.4406 75.9275H14.2321V91.4934H19.4406V75.9275Z" fill="#14CC70"/>
<path d="M21.1746 77.6918V89.7292C21.1746 90.7057 21.9575 91.4934 22.928 91.4934H31.7469C32.7174 91.4934 33.5003 90.7057 33.5003 89.7292V77.6918C33.5003 76.7152 32.7174 75.9275 31.7469 75.9275H22.928C21.9575 75.9275 21.1746 76.7152 21.1746 77.6918ZM28.2918 89.1237H26.3831V78.3037H28.2918V89.1237Z" fill="#14CC70"/>
<path d="M34.4386 75.9275V78.3037H37.6543V91.5H42.8628V78.3037H46.0785V75.9275H34.4386Z" fill="#14CC70"/>
<path d="M47.2821 75.9275V91.5H56.9098V89.1237H52.4906V84.4429H55.7128V82.0666H52.4906V78.3037H56.9098V75.9275H47.2821Z" fill="#14CC70"/>
<path d="M58.3007 77.6918V89.7292C58.3007 90.7057 59.0836 91.4935 60.0541 91.4935H68.8731C69.8436 91.4935 70.6265 90.7057 70.6265 89.7292V86.2527H65.418V89.1172H63.5092V78.2972H65.418V82.4378H70.6265V77.6853C70.6265 76.7088 69.8436 75.921 68.8731 75.921H60.0541C59.0836 75.921 58.3007 76.7088 58.3007 77.6853V77.6918Z" fill="#14CC70"/>
<path d="M79.5165 82.0666H77.6013V75.9275H72.3993V91.5H77.6013V84.4429H79.5165V91.5H84.7186V75.9275H79.5165V82.0666Z" fill="#14CC70"/>
<path d="M93.5634 82.939L91.4476 75.934H86.4591V91.4999H91.6676V84.4884L93.7834 91.4999H98.7719V75.934H93.5634V82.939Z" fill="#14CC70"/>
<path d="M105.695 75.9275H100.487V91.4934H105.695V75.9275Z" fill="#14CC70"/>
<path d="M107.403 77.6918V89.7292C107.403 90.7057 108.186 91.4935 109.157 91.4935H117.976C118.946 91.4935 119.729 90.7057 119.729 89.7292V86.2527H114.52V89.1172H112.612V78.2972H114.52V82.4378H119.729V77.6853C119.729 76.7088 118.946 75.921 117.976 75.921H109.157C108.186 75.921 107.403 76.7088 107.403 77.6853V77.6918Z" fill="#14CC70"/>
<path d="M121.424 77.6918V91.4934H126.633V84.4364H128.541V91.4934H133.75V75.9275H123.178C122.207 75.9275 121.424 76.7152 121.424 77.6918ZM128.541 82.0666H126.633V78.3037H128.541V82.0666Z" fill="#14CC70"/>
<path d="M90.7301 10.3889C90.6583 10.3171 90.593 10.2518 90.5277 10.1865C85.5061 5.19152 78.8912 1.78317 71.5188 0.784176C70.043 0.581765 68.5346 0.477295 67 0.477295C48.5657 0.477295 33.625 15.4165 33.625 33.849C33.625 49.6959 44.6738 62.9636 59.4905 66.3719C60.5875 66.6266 61.7107 66.8225 62.8534 66.9661C64.2117 67.1359 65.596 67.2273 67 67.2273C71.7604 67.2273 76.2922 66.2283 80.3931 64.4262C92.1602 59.2745 100.375 47.5216 100.375 33.849C100.375 24.7013 96.6921 16.409 90.7301 10.3824V10.3889ZM89.3784 11.3422C88.5099 11.8123 84.9249 13.6275 78.421 15.1488C74.0916 16.1609 71.5645 18.5964 69.9189 21.5346C71.4861 14.5677 71.4992 7.03934 71.2968 2.40347C78.31 3.35023 84.5984 6.59534 89.3784 11.3487V11.3422ZM38.725 19.517C38.725 19.517 42.0553 21.5019 48.9902 23.1212C59.941 25.6808 58.3346 38.1584 61.8347 42.8008C61.8347 42.8008 50.9557 42.3764 46.2541 38.1584C39.5151 32.1187 38.725 19.517 38.725 19.517ZM79.7336 62.944C85.8979 54.6647 86.688 42.0238 86.688 42.0238C86.688 42.0238 82.4174 44.5703 73.53 46.6466C65.7528 48.4683 62.9122 54.1881 61.1687 59.9405C61.0642 59.5161 60.9793 59.0982 60.914 58.6868C60.3524 55.3046 60.4308 51.5176 61.1622 47.3518C61.1752 47.28 61.234 46.9796 61.247 46.9078C62.6379 39.8887 69.6185 36.5457 73.3864 35.2333C76.3445 34.4824 79.3875 33.3201 81.3922 31.518C88.0855 25.5175 89.385 13.5818 89.5613 11.5316C95.2359 17.2644 98.736 25.1519 98.736 33.8556C98.736 46.8621 90.9195 58.0404 79.727 62.944H79.7336Z" fill="#14CC70"/>
</g>
<defs>
<clipPath id="clip0_106_1086">
<rect width="133.5" height="91.0227" fill="white" transform="translate(0.25 0.477295)"/>
</clipPath>
</defs>
</svg>
